G04 #@! TF.GenerationSoftware,KiCad,Pcbnew,8.0.2*
G04 #@! TF.CreationDate,2024-05-27T15:35:00-07:00*
G04 #@! TF.ProjectId,we755a_dtmf,77653735-3561-45f6-9474-6d662e6b6963,4*
G04 #@! TF.SameCoordinates,Original*
G04 #@! TF.FileFunction,Copper,L1,Top*
G04 #@! TF.FilePolarity,Positive*
%FSLAX46Y46*%
G04 Gerber Fmt 4.6, Leading zero omitted, Abs format (unit mm)*
G04 Created by KiCad (PCBNEW 8.0.2) date 2024-05-27 15:35:00*
%MOMM*%
%LPD*%
G01*
G04 APERTURE LIST*
G04 #@! TA.AperFunction,ComponentPad*
%ADD10R,1.600000X1.600000*%
G04 #@! TD*
G04 #@! TA.AperFunction,ComponentPad*
%ADD11O,1.600000X1.600000*%
G04 #@! TD*
G04 #@! TA.AperFunction,ComponentPad*
%ADD12C,1.600000*%
G04 #@! TD*
G04 #@! TA.AperFunction,ComponentPad*
%ADD13R,1.270000X1.270000*%
G04 #@! TD*
G04 #@! TA.AperFunction,ComponentPad*
%ADD14C,1.270000*%
G04 #@! TD*
G04 #@! TA.AperFunction,ComponentPad*
%ADD15C,1.500000*%
G04 #@! TD*
G04 #@! TA.AperFunction,ComponentPad*
%ADD16R,3.000000X1.500000*%
G04 #@! TD*
G04 #@! TA.AperFunction,ComponentPad*
%ADD17O,3.000000X1.500000*%
G04 #@! TD*
G04 #@! TA.AperFunction,ComponentPad*
%ADD18R,1.800000X1.800000*%
G04 #@! TD*
G04 #@! TA.AperFunction,ComponentPad*
%ADD19C,1.800000*%
G04 #@! TD*
G04 #@! TA.AperFunction,ComponentPad*
%ADD20C,1.000000*%
G04 #@! TD*
G04 #@! TA.AperFunction,ComponentPad*
%ADD21C,2.000000*%
G04 #@! TD*
G04 #@! TA.AperFunction,ComponentPad*
%ADD22R,1.700000X1.700000*%
G04 #@! TD*
G04 #@! TA.AperFunction,ComponentPad*
%ADD23O,1.700000X1.700000*%
G04 #@! TD*
G04 #@! TA.AperFunction,ComponentPad*
%ADD24C,1.400000*%
G04 #@! TD*
G04 #@! TA.AperFunction,ComponentPad*
%ADD25O,1.400000X1.400000*%
G04 #@! TD*
G04 #@! TA.AperFunction,ComponentPad*
%ADD26R,2.200000X2.200000*%
G04 #@! TD*
G04 #@! TA.AperFunction,ComponentPad*
%ADD27O,2.200000X2.200000*%
G04 #@! TD*
G04 #@! TA.AperFunction,ComponentPad*
%ADD28C,5.400000*%
G04 #@! TD*
G04 #@! TA.AperFunction,ViaPad*
%ADD29C,0.800000*%
G04 #@! TD*
G04 #@! TA.AperFunction,ViaPad*
%ADD30C,1.600000*%
G04 #@! TD*
G04 #@! TA.AperFunction,Conductor*
%ADD31C,0.500000*%
G04 #@! TD*
G04 #@! TA.AperFunction,Conductor*
%ADD32C,0.250000*%
G04 #@! TD*
G04 APERTURE END LIST*
D10*
X138261000Y-109069000D03*
D11*
X135721000Y-109069000D03*
X133181000Y-109069000D03*
X133181000Y-116689000D03*
X135721000Y-116689000D03*
X138261000Y-116689000D03*
D12*
X163407000Y-69572000D03*
D11*
X163407000Y-61952000D03*
D12*
X157311000Y-61825000D03*
D11*
X157311000Y-69445000D03*
D10*
X160359000Y-69445000D03*
D11*
X160359000Y-61825000D03*
D12*
X141436000Y-116689000D03*
D11*
X141436000Y-109069000D03*
D13*
X124416000Y-126536000D03*
D14*
X126916000Y-121486000D03*
D15*
X149437000Y-87569000D03*
X149437000Y-92449000D03*
D16*
X124291000Y-111609000D03*
D17*
X124291000Y-109069000D03*
X124291000Y-106529000D03*
X124291000Y-101449000D03*
X124291000Y-98909000D03*
X124291000Y-96369000D03*
X124291000Y-93829000D03*
D10*
X150707000Y-120499000D03*
D11*
X148167000Y-120499000D03*
X145627000Y-120499000D03*
X143087000Y-120499000D03*
X143087000Y-128119000D03*
X145627000Y-128119000D03*
X148167000Y-128119000D03*
X150707000Y-128119000D03*
D12*
X149437000Y-75287000D03*
D11*
X141817000Y-75287000D03*
D18*
X151215000Y-60555000D03*
D19*
X153755000Y-60555000D03*
D12*
X149437000Y-81383000D03*
D11*
X141817000Y-81383000D03*
D12*
X145373000Y-94337000D03*
D11*
X137753000Y-94337000D03*
D12*
X142091000Y-68683000D03*
X144591000Y-68683000D03*
D13*
X119463000Y-126536000D03*
D14*
X121963000Y-121486000D03*
D20*
X132673000Y-85005000D03*
X132673000Y-86905000D03*
D21*
X146389000Y-97679000D03*
X146389000Y-102679000D03*
D10*
X152221000Y-109069000D03*
D11*
X149681000Y-109069000D03*
X147141000Y-109069000D03*
X144601000Y-109069000D03*
X144601000Y-116689000D03*
X147141000Y-116689000D03*
X149681000Y-116689000D03*
X152221000Y-116689000D03*
D12*
X149437000Y-72239000D03*
D11*
X141817000Y-72239000D03*
D22*
X138769000Y-69191000D03*
D23*
X136229000Y-69191000D03*
D10*
X138251000Y-120499000D03*
D11*
X135711000Y-120499000D03*
X133171000Y-120499000D03*
X130631000Y-120499000D03*
X130631000Y-128119000D03*
X133171000Y-128119000D03*
X135711000Y-128119000D03*
X138251000Y-128119000D03*
D12*
X132185000Y-80494000D03*
X134685000Y-80494000D03*
D10*
X163153000Y-109069000D03*
D11*
X160613000Y-109069000D03*
X158073000Y-109069000D03*
X155533000Y-109069000D03*
X155533000Y-116689000D03*
X158073000Y-116689000D03*
X160613000Y-116689000D03*
X163153000Y-116689000D03*
D12*
X149437000Y-78335000D03*
D11*
X141817000Y-78335000D03*
D22*
X133435000Y-65381000D03*
D23*
X135975000Y-65381000D03*
X138515000Y-65381000D03*
X141055000Y-65381000D03*
X143595000Y-65381000D03*
X146135000Y-65381000D03*
D12*
X154517000Y-68683000D03*
D11*
X146897000Y-68683000D03*
D12*
X145373000Y-87733000D03*
D11*
X137753000Y-87733000D03*
D10*
X134197000Y-100139000D03*
D12*
X134197000Y-97639000D03*
D24*
X162391000Y-98147000D03*
D25*
X162391000Y-103227000D03*
D12*
X145373000Y-91035000D03*
D11*
X137753000Y-91035000D03*
D12*
X122767000Y-115927000D03*
D11*
X130387000Y-115927000D03*
D12*
X159871000Y-71985000D03*
X162371000Y-71985000D03*
D10*
X163153000Y-120499000D03*
D11*
X160613000Y-120499000D03*
X158073000Y-120499000D03*
X155533000Y-120499000D03*
X155533000Y-128119000D03*
X158073000Y-128119000D03*
X160613000Y-128119000D03*
X163153000Y-128119000D03*
D26*
X158327000Y-99163000D03*
D27*
X150707000Y-99163000D03*
D22*
X153772000Y-131507000D03*
D23*
X153772000Y-134047000D03*
X151232000Y-131507000D03*
X151232000Y-134047000D03*
X148692000Y-131507000D03*
X148692000Y-134047000D03*
X146152000Y-131507000D03*
X146152000Y-134047000D03*
X143612000Y-131507000D03*
X143612000Y-134047000D03*
X141072000Y-131507000D03*
X141072000Y-134047000D03*
X138532000Y-131507000D03*
X138532000Y-134047000D03*
X135992000Y-131507000D03*
X135992000Y-134047000D03*
X133452000Y-131507000D03*
X133452000Y-134047000D03*
X130912000Y-131507000D03*
X130912000Y-134047000D03*
D28*
X121772000Y-133047000D03*
X162772000Y-133047000D03*
X162772000Y-57507000D03*
D21*
X140547000Y-97639000D03*
X140547000Y-102639000D03*
D10*
X154771000Y-75033000D03*
D11*
X154771000Y-77573000D03*
X154771000Y-80113000D03*
X154771000Y-82653000D03*
X154771000Y-85193000D03*
X154771000Y-87733000D03*
X154771000Y-90273000D03*
X154771000Y-92813000D03*
X154771000Y-95353000D03*
X162391000Y-95353000D03*
X162391000Y-92813000D03*
X162391000Y-90273000D03*
X162391000Y-87733000D03*
X162391000Y-85193000D03*
X162391000Y-82653000D03*
X162391000Y-80113000D03*
X162391000Y-77573000D03*
X162391000Y-75033000D03*
D10*
X136991000Y-106021000D03*
D11*
X139531000Y-106021000D03*
X142071000Y-106021000D03*
X144611000Y-106021000D03*
X147151000Y-106021000D03*
X149691000Y-106021000D03*
X152231000Y-106021000D03*
X154771000Y-106021000D03*
X157311000Y-106021000D03*
X159851000Y-106021000D03*
X162391000Y-106021000D03*
D12*
X137753000Y-84431000D03*
D11*
X145373000Y-84431000D03*
D12*
X132419000Y-76791000D03*
X132419000Y-74291000D03*
D10*
X121751000Y-56491000D03*
D11*
X121751000Y-59031000D03*
X121751000Y-61571000D03*
X121751000Y-64111000D03*
X121751000Y-66651000D03*
X121751000Y-69191000D03*
X121751000Y-71731000D03*
X121751000Y-74271000D03*
X121751000Y-76811000D03*
X121751000Y-79351000D03*
X121751000Y-81891000D03*
X121751000Y-84431000D03*
X121751000Y-86971000D03*
X121751000Y-89511000D03*
X129371000Y-89511000D03*
X129371000Y-86971000D03*
X129371000Y-84431000D03*
X129371000Y-81891000D03*
X129371000Y-79351000D03*
X129371000Y-76811000D03*
X129371000Y-74271000D03*
X129371000Y-71731000D03*
X129371000Y-69191000D03*
X129371000Y-66651000D03*
X129371000Y-64111000D03*
X129371000Y-61571000D03*
X129371000Y-59031000D03*
X129371000Y-56491000D03*
D22*
X136229000Y-74266000D03*
D23*
X136229000Y-76806000D03*
D12*
X134431000Y-93829000D03*
X131931000Y-93829000D03*
D26*
X158327000Y-102465000D03*
D27*
X150707000Y-102465000D03*
D29*
X136994600Y-81891000D03*
D30*
X123711801Y-124788000D03*
X128821000Y-124788000D03*
D29*
X146897000Y-79463200D03*
X137245000Y-103735000D03*
X127593000Y-80621000D03*
X144357000Y-112625000D03*
X146897000Y-112625000D03*
D30*
X132038000Y-110974000D03*
X152089200Y-113514000D03*
D31*
X132927000Y-97639000D02*
X134197000Y-97639000D01*
X127297000Y-73226000D02*
X128342000Y-74271000D01*
X127297000Y-66241000D02*
X127297000Y-73226000D01*
X132673000Y-117197000D02*
X129879000Y-117197000D01*
X133435000Y-65381000D02*
X128157000Y-65381000D01*
X128342000Y-74271000D02*
X129371000Y-74271000D01*
X133181000Y-116689000D02*
X132673000Y-117197000D01*
X129133800Y-116451800D02*
X129133800Y-101432200D01*
X128157000Y-65381000D02*
X127297000Y-66241000D01*
X129133800Y-101432200D02*
X132927000Y-97639000D01*
X129879000Y-117197000D02*
X129133800Y-116451800D01*
X121751000Y-98147000D02*
X121751000Y-89511000D01*
X137245000Y-67159000D02*
X136229000Y-68175000D01*
X136991000Y-106021000D02*
X135467000Y-104497000D01*
X141563000Y-67159000D02*
X137245000Y-67159000D01*
X142091000Y-67687000D02*
X141563000Y-67159000D01*
X136229000Y-68175000D02*
X136229000Y-69191000D01*
X135467000Y-101409000D02*
X134197000Y-100139000D01*
X142091000Y-68683000D02*
X142091000Y-67687000D01*
X122513000Y-98909000D02*
X121751000Y-98147000D01*
X124291000Y-98909000D02*
X122513000Y-98909000D01*
X135467000Y-104497000D02*
X135467000Y-101409000D01*
D32*
X129879000Y-78843000D02*
X135394081Y-78843000D01*
X136229000Y-78008081D02*
X136229000Y-76806000D01*
X129371000Y-79351000D02*
X129879000Y-78843000D01*
X135394081Y-78843000D02*
X136229000Y-78008081D01*
X161121000Y-75795000D02*
X161121000Y-81383000D01*
X161121000Y-81383000D02*
X162391000Y-82653000D01*
X155533000Y-70207000D02*
X161121000Y-75795000D01*
X152526800Y-58564800D02*
X152526800Y-69486800D01*
X152526800Y-69486800D02*
X153247000Y-70207000D01*
X150453000Y-56491000D02*
X152526800Y-58564800D01*
X129371000Y-56491000D02*
X150453000Y-56491000D01*
X153247000Y-70207000D02*
X155533000Y-70207000D01*
X151940558Y-73055800D02*
X149853758Y-70969000D01*
X162391000Y-92813000D02*
X157057000Y-87479000D01*
X157057000Y-87479000D02*
X157057000Y-74525000D01*
X157057000Y-74525000D02*
X155587800Y-73055800D01*
X149853758Y-70969000D02*
X141309000Y-70969000D01*
X141309000Y-70969000D02*
X140547000Y-71731000D01*
X155587800Y-73055800D02*
X151940558Y-73055800D01*
X140547000Y-71731000D02*
X129371000Y-71731000D01*
X157565000Y-74392078D02*
X157565000Y-85447000D01*
X141121278Y-70515800D02*
X150274640Y-70515800D01*
X131517000Y-69191000D02*
X133549000Y-71223000D01*
X152361440Y-72602600D02*
X155775522Y-72602600D01*
X129371000Y-69191000D02*
X131517000Y-69191000D01*
X150274640Y-70515800D02*
X152361440Y-72602600D01*
X157565000Y-85447000D02*
X162391000Y-90273000D01*
X155775522Y-72602600D02*
X157565000Y-74392078D01*
X133549000Y-71223000D02*
X140414078Y-71223000D01*
X140414078Y-71223000D02*
X141121278Y-70515800D01*
X140039000Y-70715000D02*
X140801000Y-69953000D01*
X152776400Y-72149400D02*
X155963244Y-72149400D01*
X155963244Y-72149400D02*
X158073000Y-74259156D01*
X135340000Y-70715000D02*
X140039000Y-70715000D01*
X140801000Y-69953000D02*
X150580000Y-69953000D01*
X158073000Y-83415000D02*
X162391000Y-87733000D01*
X150580000Y-69953000D02*
X152776400Y-72149400D01*
X129371000Y-66651000D02*
X131276000Y-66651000D01*
X131276000Y-66651000D02*
X135340000Y-70715000D01*
X158073000Y-74259156D02*
X158073000Y-83415000D01*
X148675000Y-64111000D02*
X129371000Y-64111000D01*
X155677766Y-71223000D02*
X152993000Y-71223000D01*
X158581000Y-74126234D02*
X155677766Y-71223000D01*
X158581000Y-81383000D02*
X158581000Y-74126234D01*
X151723000Y-67159000D02*
X148675000Y-64111000D01*
X151723000Y-69953000D02*
X151723000Y-67159000D01*
X162391000Y-85193000D02*
X158581000Y-81383000D01*
X152993000Y-71223000D02*
X151723000Y-69953000D01*
X154517000Y-61317000D02*
X153755000Y-60555000D01*
X154517000Y-68683000D02*
X154517000Y-61317000D01*
X139531000Y-73255000D02*
X140547000Y-72239000D01*
X136994600Y-81891000D02*
X139531000Y-79354600D01*
X139531000Y-79354600D02*
X139531000Y-73255000D01*
X140547000Y-72239000D02*
X141817000Y-72239000D01*
D31*
X122767000Y-115927000D02*
X122767000Y-114784000D01*
X122767000Y-114784000D02*
X124291000Y-113260000D01*
X124291000Y-113260000D02*
X124291000Y-111609000D01*
X130912000Y-134047000D02*
X130912000Y-131507000D01*
X124416000Y-126536000D02*
X125941000Y-126536000D01*
X125941000Y-126536000D02*
X130912000Y-131507000D01*
X122513000Y-109069000D02*
X121370000Y-110212000D01*
X128821000Y-124788000D02*
X123711801Y-124788000D01*
X124291000Y-109069000D02*
X122513000Y-109069000D01*
X121370000Y-120893000D02*
X121963000Y-121486000D01*
X121370000Y-110212000D02*
X121370000Y-120893000D01*
X119463000Y-126536000D02*
X119914000Y-126536000D01*
X129371000Y-135993000D02*
X152231000Y-135993000D01*
X153755000Y-134469000D02*
X153755000Y-131929000D01*
X152231000Y-135993000D02*
X153755000Y-134469000D01*
X119914000Y-126536000D02*
X129371000Y-135993000D01*
D32*
X163407000Y-61952000D02*
X163280000Y-61952000D01*
X157311000Y-67921000D02*
X157311000Y-69445000D01*
X163280000Y-61952000D02*
X157311000Y-67921000D01*
X143849000Y-81637000D02*
X143849000Y-74017000D01*
X145627000Y-72239000D02*
X149437000Y-72239000D01*
X143849000Y-74017000D02*
X145627000Y-72239000D01*
X137753000Y-84431000D02*
X138881200Y-83302800D01*
X142183200Y-83302800D02*
X143849000Y-81637000D01*
X138881200Y-83302800D02*
X142183200Y-83302800D01*
X153755000Y-82653000D02*
X154771000Y-82653000D01*
X149437000Y-78335000D02*
X153755000Y-82653000D01*
X146897000Y-79463200D02*
X146897000Y-86209000D01*
X146897000Y-86209000D02*
X145373000Y-87733000D01*
X155279000Y-80113000D02*
X156295000Y-79097000D01*
X156295000Y-76811000D02*
X155787000Y-76303000D01*
X155787000Y-76303000D02*
X151977000Y-76303000D01*
X154771000Y-80113000D02*
X155279000Y-80113000D01*
X151977000Y-76303000D02*
X150961000Y-75287000D01*
X156295000Y-79097000D02*
X156295000Y-76811000D01*
X150961000Y-75287000D02*
X149437000Y-75287000D01*
X152221000Y-108551000D02*
X152221000Y-109069000D01*
X149691000Y-106021000D02*
X152221000Y-108551000D01*
X158073000Y-107799000D02*
X159851000Y-106021000D01*
X158073000Y-109069000D02*
X158073000Y-107799000D01*
X127339000Y-93321000D02*
X127339000Y-103227000D01*
X127339000Y-116821922D02*
X127339000Y-103227000D01*
X155533000Y-120499000D02*
X154404800Y-119370800D01*
X121751000Y-87733000D02*
X127339000Y-93321000D01*
X121751000Y-86971000D02*
X121751000Y-87733000D01*
X154404800Y-119370800D02*
X129887878Y-119370800D01*
X129887878Y-119370800D02*
X127339000Y-116821922D01*
X128115800Y-92065800D02*
X123332400Y-87282400D01*
X135721000Y-100845302D02*
X135721000Y-93067000D01*
X137245000Y-103735000D02*
X136045200Y-102535200D01*
X136045200Y-102535200D02*
X136045200Y-101169502D01*
X136045200Y-101169502D02*
X135721000Y-100845302D01*
X134719800Y-92065800D02*
X128115800Y-92065800D01*
X135721000Y-93067000D02*
X134719800Y-92065800D01*
X123332400Y-83472400D02*
X121751000Y-81891000D01*
X123332400Y-87282400D02*
X123332400Y-83472400D01*
X159659400Y-100941000D02*
X161121000Y-102402600D01*
X147772641Y-100941000D02*
X159659400Y-100941000D01*
X161121000Y-102402600D02*
X161121000Y-108561000D01*
X143341000Y-96509359D02*
X147772641Y-100941000D01*
X143341000Y-91614516D02*
X143341000Y-96509359D01*
X133871484Y-82145000D02*
X143341000Y-91614516D01*
X131657000Y-82145000D02*
X133871484Y-82145000D01*
X161121000Y-108561000D02*
X160613000Y-109069000D01*
X127593000Y-80621000D02*
X130133000Y-80621000D01*
X130133000Y-80621000D02*
X131657000Y-82145000D01*
X142579000Y-112371000D02*
X142579000Y-108561000D01*
X139389200Y-107940800D02*
X138402800Y-106954400D01*
X128355000Y-91035000D02*
X124037000Y-86717000D01*
X141958800Y-107940800D02*
X139389200Y-107940800D01*
X136498400Y-101464400D02*
X136498400Y-100981780D01*
X136483000Y-93067000D02*
X134451000Y-91035000D01*
X136498400Y-100981780D02*
X136483000Y-100966380D01*
X138402800Y-103368800D02*
X136498400Y-101464400D01*
X136483000Y-100966380D02*
X136483000Y-93067000D01*
X142579000Y-108561000D02*
X141958800Y-107940800D01*
X144357000Y-112625000D02*
X142833000Y-112625000D01*
X134451000Y-91035000D02*
X128355000Y-91035000D01*
X124037000Y-86717000D02*
X124037000Y-79097000D01*
X124037000Y-79097000D02*
X121751000Y-76811000D01*
X142833000Y-112625000D02*
X142579000Y-112371000D01*
X138402800Y-106954400D02*
X138402800Y-103368800D01*
X124599800Y-77119800D02*
X121751000Y-74271000D01*
X124599800Y-86263800D02*
X124599800Y-77119800D01*
X139602516Y-104497000D02*
X139023000Y-103917484D01*
X139023000Y-94011484D02*
X133394316Y-88382800D01*
X143341000Y-105259000D02*
X142579000Y-104497000D01*
X146897000Y-112625000D02*
X145840242Y-112625000D01*
X145840242Y-112625000D02*
X143341000Y-110125758D01*
X142579000Y-104497000D02*
X139602516Y-104497000D01*
X126718800Y-88382800D02*
X124599800Y-86263800D01*
X139023000Y-103917484D02*
X139023000Y-94011484D01*
X143341000Y-110125758D02*
X143341000Y-105259000D01*
X133394316Y-88382800D02*
X126718800Y-88382800D01*
X132197748Y-85701000D02*
X132451748Y-85955000D01*
X121751000Y-71731000D02*
X123783000Y-71731000D01*
X125053000Y-83669000D02*
X127085000Y-85701000D01*
X135975000Y-89765000D02*
X138769000Y-89765000D01*
X127085000Y-85701000D02*
X132197748Y-85701000D01*
X138769000Y-89765000D02*
X142125800Y-93121800D01*
X144611000Y-103227000D02*
X145881000Y-104497000D01*
X123783000Y-71731000D02*
X125053000Y-73001000D01*
X144611000Y-99549922D02*
X144611000Y-103227000D01*
X134451000Y-86981400D02*
X134451000Y-88241000D01*
X145881000Y-104497000D02*
X145881000Y-107789000D01*
X145881000Y-107789000D02*
X144601000Y-109069000D01*
X132451748Y-85955000D02*
X133424600Y-85955000D01*
X134451000Y-88241000D02*
X135975000Y-89765000D01*
X142125800Y-97064722D02*
X144611000Y-99549922D01*
X125053000Y-73001000D02*
X125053000Y-83669000D01*
X142125800Y-93121800D02*
X142125800Y-97064722D01*
X133424600Y-85955000D02*
X134451000Y-86981400D01*
X125561000Y-81383000D02*
X127339000Y-83161000D01*
X138956722Y-89311800D02*
X142579000Y-92934078D01*
X121751000Y-69191000D02*
X123783000Y-69191000D01*
X127339000Y-83161000D02*
X134197000Y-83161000D01*
X134197000Y-83161000D02*
X135813200Y-84777200D01*
X135813200Y-87825200D02*
X137299800Y-89311800D01*
X142579000Y-92934078D02*
X142579000Y-96877000D01*
X148479200Y-102777200D02*
X148479200Y-107867200D01*
X135813200Y-84777200D02*
X135813200Y-87825200D01*
X142579000Y-96877000D02*
X148479200Y-102777200D01*
X125561000Y-70969000D02*
X125561000Y-81383000D01*
X148479200Y-107867200D02*
X149681000Y-109069000D01*
X123783000Y-69191000D02*
X125561000Y-70969000D01*
X137299800Y-89311800D02*
X138956722Y-89311800D01*
X132419000Y-60555000D02*
X130133000Y-62841000D01*
X151215000Y-60555000D02*
X132419000Y-60555000D01*
X125561000Y-62841000D02*
X121751000Y-66651000D01*
X130133000Y-62841000D02*
X125561000Y-62841000D01*
X119193600Y-122653600D02*
X119193600Y-58794400D01*
X160613000Y-120499000D02*
X157467000Y-123645000D01*
X122879200Y-58563684D02*
X122879200Y-62982800D01*
X157467000Y-123645000D02*
X120185000Y-123645000D01*
X119193600Y-58794400D02*
X120227000Y-57761000D01*
X122879200Y-62982800D02*
X121751000Y-64111000D01*
X120185000Y-123645000D02*
X119193600Y-122653600D01*
X120227000Y-57761000D02*
X122076516Y-57761000D01*
X122076516Y-57761000D02*
X122879200Y-58563684D01*
X128628000Y-122502000D02*
X121201000Y-122502000D01*
X130631000Y-120499000D02*
X128628000Y-122502000D01*
X120989000Y-61571000D02*
X121751000Y-61571000D01*
X120100000Y-62460000D02*
X120989000Y-61571000D01*
X121201000Y-122502000D02*
X120100000Y-121401000D01*
X120100000Y-121401000D02*
X120100000Y-62460000D01*
X120693000Y-123137000D02*
X119646800Y-122090800D01*
X119646800Y-60373200D02*
X120989000Y-59031000D01*
X133073000Y-123137000D02*
X120693000Y-123137000D01*
X119646800Y-122090800D02*
X119646800Y-60373200D01*
X120989000Y-59031000D02*
X121751000Y-59031000D01*
X135711000Y-120499000D02*
X133073000Y-123137000D01*
X121567284Y-85842800D02*
X122513000Y-85842800D01*
X122879200Y-86209000D02*
X122879200Y-87845200D01*
X122513000Y-85842800D02*
X122879200Y-86209000D01*
X124478539Y-63262577D02*
X122218316Y-65522800D01*
X122218316Y-65522800D02*
X121101200Y-65522800D01*
X134451000Y-117959000D02*
X135721000Y-116689000D01*
X128555600Y-93521600D02*
X128555600Y-117397600D01*
X120622800Y-84898316D02*
X121567284Y-85842800D01*
X124478539Y-59218539D02*
X124478539Y-63262577D01*
X120622800Y-66001200D02*
X120622800Y-84898316D01*
X128555600Y-117397600D02*
X129117000Y-117959000D01*
X129117000Y-117959000D02*
X134451000Y-117959000D01*
X122879200Y-87845200D02*
X128555600Y-93521600D01*
X121751000Y-56491000D02*
X124478539Y-59218539D01*
X121101200Y-65522800D02*
X120622800Y-66001200D01*
D31*
X132038000Y-110974000D02*
X132927000Y-110974000D01*
X132927000Y-110974000D02*
X135467000Y-113514000D01*
X135467000Y-113514000D02*
X152089200Y-113514000D01*
X149681000Y-116689000D02*
X149691000Y-116699000D01*
X143087000Y-128119000D02*
X143087000Y-129389000D01*
X155533000Y-129389000D02*
X156041000Y-129389000D01*
X135721000Y-129389000D02*
X143341000Y-129389000D01*
X161375000Y-118213000D02*
X144601000Y-118213000D01*
X144601000Y-118213000D02*
X144601000Y-116689000D01*
X130631000Y-128119000D02*
X131901000Y-129389000D01*
X148167000Y-128119000D02*
X148167000Y-129389000D01*
X131901000Y-129389000D02*
X135721000Y-129389000D01*
X160613000Y-118213000D02*
X161375000Y-118213000D01*
X161883000Y-118721000D02*
X161883000Y-126849000D01*
X161375000Y-118213000D02*
X161883000Y-118721000D01*
X143341000Y-129389000D02*
X148421000Y-129389000D01*
X148421000Y-129389000D02*
X156041000Y-129389000D01*
X149691000Y-116699000D02*
X149691000Y-118213000D01*
X155533000Y-128119000D02*
X155533000Y-129389000D01*
X161883000Y-126849000D02*
X159343000Y-129389000D01*
X159343000Y-129389000D02*
X156041000Y-129389000D01*
X135711000Y-129379000D02*
X135721000Y-129389000D01*
X148167000Y-129389000D02*
X148421000Y-129389000D01*
X135711000Y-128119000D02*
X135711000Y-129379000D01*
X143087000Y-129389000D02*
X143341000Y-129389000D01*
X160613000Y-116689000D02*
X160613000Y-118213000D01*
D32*
X141436000Y-109069000D02*
X138261000Y-109069000D01*
M02*
