G04 #@! TF.GenerationSoftware,KiCad,Pcbnew,8.0.1*
G04 #@! TF.CreationDate,2024-03-23T10:20:47-07:00*
G04 #@! TF.ProjectId,we755a_dtmf,77653735-3561-45f6-9474-6d662e6b6963,2*
G04 #@! TF.SameCoordinates,Original*
G04 #@! TF.FileFunction,Legend,Bot*
G04 #@! TF.FilePolarity,Positive*
%FSLAX46Y46*%
G04 Gerber Fmt 4.6, Leading zero omitted, Abs format (unit mm)*
G04 Created by KiCad (PCBNEW 8.0.1) date 2024-03-23 10:20:47*
%MOMM*%
%LPD*%
G01*
G04 APERTURE LIST*
%ADD10C,0.150000*%
G04 APERTURE END LIST*
D10*
X54035077Y-35064819D02*
X53463649Y-35064819D01*
X53749363Y-36064819D02*
X53749363Y-35064819D01*
X53225553Y-35064819D02*
X52558887Y-36064819D01*
X52558887Y-35064819D02*
X53225553Y-36064819D01*
X55860792Y-36064819D02*
X56194125Y-35588628D01*
X56432220Y-36064819D02*
X56432220Y-35064819D01*
X56432220Y-35064819D02*
X56051268Y-35064819D01*
X56051268Y-35064819D02*
X55956030Y-35112438D01*
X55956030Y-35112438D02*
X55908411Y-35160057D01*
X55908411Y-35160057D02*
X55860792Y-35255295D01*
X55860792Y-35255295D02*
X55860792Y-35398152D01*
X55860792Y-35398152D02*
X55908411Y-35493390D01*
X55908411Y-35493390D02*
X55956030Y-35541009D01*
X55956030Y-35541009D02*
X56051268Y-35588628D01*
X56051268Y-35588628D02*
X56432220Y-35588628D01*
X55527458Y-35064819D02*
X54860792Y-36064819D01*
X54860792Y-35064819D02*
X55527458Y-36064819D01*
X48732887Y-110090009D02*
X48590030Y-110137628D01*
X48590030Y-110137628D02*
X48542411Y-110185247D01*
X48542411Y-110185247D02*
X48494792Y-110280485D01*
X48494792Y-110280485D02*
X48494792Y-110423342D01*
X48494792Y-110423342D02*
X48542411Y-110518580D01*
X48542411Y-110518580D02*
X48590030Y-110566200D01*
X48590030Y-110566200D02*
X48685268Y-110613819D01*
X48685268Y-110613819D02*
X49066220Y-110613819D01*
X49066220Y-110613819D02*
X49066220Y-109613819D01*
X49066220Y-109613819D02*
X48732887Y-109613819D01*
X48732887Y-109613819D02*
X48637649Y-109661438D01*
X48637649Y-109661438D02*
X48590030Y-109709057D01*
X48590030Y-109709057D02*
X48542411Y-109804295D01*
X48542411Y-109804295D02*
X48542411Y-109899533D01*
X48542411Y-109899533D02*
X48590030Y-109994771D01*
X48590030Y-109994771D02*
X48637649Y-110042390D01*
X48637649Y-110042390D02*
X48732887Y-110090009D01*
X48732887Y-110090009D02*
X49066220Y-110090009D01*
X48113839Y-110328104D02*
X47637649Y-110328104D01*
X48209077Y-110613819D02*
X47875744Y-109613819D01*
X47875744Y-109613819D02*
X47542411Y-110613819D01*
X47351934Y-109613819D02*
X46780506Y-109613819D01*
X47066220Y-110613819D02*
X47066220Y-109613819D01*
X50987077Y-102755819D02*
X50415649Y-102755819D01*
X50701363Y-103755819D02*
X50701363Y-102755819D01*
X58496030Y-35064819D02*
X58972220Y-35064819D01*
X58972220Y-35064819D02*
X59019839Y-35541009D01*
X59019839Y-35541009D02*
X58972220Y-35493390D01*
X58972220Y-35493390D02*
X58876982Y-35445771D01*
X58876982Y-35445771D02*
X58638887Y-35445771D01*
X58638887Y-35445771D02*
X58543649Y-35493390D01*
X58543649Y-35493390D02*
X58496030Y-35541009D01*
X58496030Y-35541009D02*
X58448411Y-35636247D01*
X58448411Y-35636247D02*
X58448411Y-35874342D01*
X58448411Y-35874342D02*
X58496030Y-35969580D01*
X58496030Y-35969580D02*
X58543649Y-36017200D01*
X58543649Y-36017200D02*
X58638887Y-36064819D01*
X58638887Y-36064819D02*
X58876982Y-36064819D01*
X58876982Y-36064819D02*
X58972220Y-36017200D01*
X58972220Y-36017200D02*
X59019839Y-35969580D01*
X58162696Y-35064819D02*
X57829363Y-36064819D01*
X57829363Y-36064819D02*
X57496030Y-35064819D01*
X48605887Y-103232009D02*
X48463030Y-103279628D01*
X48463030Y-103279628D02*
X48415411Y-103327247D01*
X48415411Y-103327247D02*
X48367792Y-103422485D01*
X48367792Y-103422485D02*
X48367792Y-103565342D01*
X48367792Y-103565342D02*
X48415411Y-103660580D01*
X48415411Y-103660580D02*
X48463030Y-103708200D01*
X48463030Y-103708200D02*
X48558268Y-103755819D01*
X48558268Y-103755819D02*
X48939220Y-103755819D01*
X48939220Y-103755819D02*
X48939220Y-102755819D01*
X48939220Y-102755819D02*
X48605887Y-102755819D01*
X48605887Y-102755819D02*
X48510649Y-102803438D01*
X48510649Y-102803438D02*
X48463030Y-102851057D01*
X48463030Y-102851057D02*
X48415411Y-102946295D01*
X48415411Y-102946295D02*
X48415411Y-103041533D01*
X48415411Y-103041533D02*
X48463030Y-103136771D01*
X48463030Y-103136771D02*
X48510649Y-103184390D01*
X48510649Y-103184390D02*
X48605887Y-103232009D01*
X48605887Y-103232009D02*
X48939220Y-103232009D01*
X47986839Y-103470104D02*
X47510649Y-103470104D01*
X48082077Y-103755819D02*
X47748744Y-102755819D01*
X47748744Y-102755819D02*
X47415411Y-103755819D01*
X47224934Y-102755819D02*
X46653506Y-102755819D01*
X46939220Y-103755819D02*
X46939220Y-102755819D01*
X58988077Y-109613819D02*
X58416649Y-109613819D01*
X58702363Y-110613819D02*
X58702363Y-109613819D01*
X58130934Y-109709057D02*
X58083315Y-109661438D01*
X58083315Y-109661438D02*
X57988077Y-109613819D01*
X57988077Y-109613819D02*
X57749982Y-109613819D01*
X57749982Y-109613819D02*
X57654744Y-109661438D01*
X57654744Y-109661438D02*
X57607125Y-109709057D01*
X57607125Y-109709057D02*
X57559506Y-109804295D01*
X57559506Y-109804295D02*
X57559506Y-109899533D01*
X57559506Y-109899533D02*
X57607125Y-110042390D01*
X57607125Y-110042390D02*
X58178553Y-110613819D01*
X58178553Y-110613819D02*
X57559506Y-110613819D01*
X57353030Y-48526819D02*
X57829220Y-48526819D01*
X57829220Y-48526819D02*
X57876839Y-49003009D01*
X57876839Y-49003009D02*
X57829220Y-48955390D01*
X57829220Y-48955390D02*
X57733982Y-48907771D01*
X57733982Y-48907771D02*
X57495887Y-48907771D01*
X57495887Y-48907771D02*
X57400649Y-48955390D01*
X57400649Y-48955390D02*
X57353030Y-49003009D01*
X57353030Y-49003009D02*
X57305411Y-49098247D01*
X57305411Y-49098247D02*
X57305411Y-49336342D01*
X57305411Y-49336342D02*
X57353030Y-49431580D01*
X57353030Y-49431580D02*
X57400649Y-49479200D01*
X57400649Y-49479200D02*
X57495887Y-49526819D01*
X57495887Y-49526819D02*
X57733982Y-49526819D01*
X57733982Y-49526819D02*
X57829220Y-49479200D01*
X57829220Y-49479200D02*
X57876839Y-49431580D01*
X57019696Y-48526819D02*
X56686363Y-49526819D01*
X56686363Y-49526819D02*
X56353030Y-48526819D01*
X72037411Y-102803438D02*
X72132649Y-102755819D01*
X72132649Y-102755819D02*
X72275506Y-102755819D01*
X72275506Y-102755819D02*
X72418363Y-102803438D01*
X72418363Y-102803438D02*
X72513601Y-102898676D01*
X72513601Y-102898676D02*
X72561220Y-102993914D01*
X72561220Y-102993914D02*
X72608839Y-103184390D01*
X72608839Y-103184390D02*
X72608839Y-103327247D01*
X72608839Y-103327247D02*
X72561220Y-103517723D01*
X72561220Y-103517723D02*
X72513601Y-103612961D01*
X72513601Y-103612961D02*
X72418363Y-103708200D01*
X72418363Y-103708200D02*
X72275506Y-103755819D01*
X72275506Y-103755819D02*
X72180268Y-103755819D01*
X72180268Y-103755819D02*
X72037411Y-103708200D01*
X72037411Y-103708200D02*
X71989792Y-103660580D01*
X71989792Y-103660580D02*
X71989792Y-103327247D01*
X71989792Y-103327247D02*
X72180268Y-103327247D01*
X70989792Y-103755819D02*
X71323125Y-103279628D01*
X71561220Y-103755819D02*
X71561220Y-102755819D01*
X71561220Y-102755819D02*
X71180268Y-102755819D01*
X71180268Y-102755819D02*
X71085030Y-102803438D01*
X71085030Y-102803438D02*
X71037411Y-102851057D01*
X71037411Y-102851057D02*
X70989792Y-102946295D01*
X70989792Y-102946295D02*
X70989792Y-103089152D01*
X70989792Y-103089152D02*
X71037411Y-103184390D01*
X71037411Y-103184390D02*
X71085030Y-103232009D01*
X71085030Y-103232009D02*
X71180268Y-103279628D01*
X71180268Y-103279628D02*
X71561220Y-103279628D01*
X70561220Y-103755819D02*
X70561220Y-102755819D01*
X70561220Y-102755819D02*
X70323125Y-102755819D01*
X70323125Y-102755819D02*
X70180268Y-102803438D01*
X70180268Y-102803438D02*
X70085030Y-102898676D01*
X70085030Y-102898676D02*
X70037411Y-102993914D01*
X70037411Y-102993914D02*
X69989792Y-103184390D01*
X69989792Y-103184390D02*
X69989792Y-103327247D01*
X69989792Y-103327247D02*
X70037411Y-103517723D01*
X70037411Y-103517723D02*
X70085030Y-103612961D01*
X70085030Y-103612961D02*
X70180268Y-103708200D01*
X70180268Y-103708200D02*
X70323125Y-103755819D01*
X70323125Y-103755819D02*
X70561220Y-103755819D01*
X59115077Y-102755819D02*
X58543649Y-102755819D01*
X58829363Y-103755819D02*
X58829363Y-102755819D01*
X58305553Y-102755819D02*
X57686506Y-102755819D01*
X57686506Y-102755819D02*
X58019839Y-103136771D01*
X58019839Y-103136771D02*
X57876982Y-103136771D01*
X57876982Y-103136771D02*
X57781744Y-103184390D01*
X57781744Y-103184390D02*
X57734125Y-103232009D01*
X57734125Y-103232009D02*
X57686506Y-103327247D01*
X57686506Y-103327247D02*
X57686506Y-103565342D01*
X57686506Y-103565342D02*
X57734125Y-103660580D01*
X57734125Y-103660580D02*
X57781744Y-103708200D01*
X57781744Y-103708200D02*
X57876982Y-103755819D01*
X57876982Y-103755819D02*
X58162696Y-103755819D01*
X58162696Y-103755819D02*
X58257934Y-103708200D01*
X58257934Y-103708200D02*
X58305553Y-103660580D01*
X52352411Y-48574438D02*
X52447649Y-48526819D01*
X52447649Y-48526819D02*
X52590506Y-48526819D01*
X52590506Y-48526819D02*
X52733363Y-48574438D01*
X52733363Y-48574438D02*
X52828601Y-48669676D01*
X52828601Y-48669676D02*
X52876220Y-48764914D01*
X52876220Y-48764914D02*
X52923839Y-48955390D01*
X52923839Y-48955390D02*
X52923839Y-49098247D01*
X52923839Y-49098247D02*
X52876220Y-49288723D01*
X52876220Y-49288723D02*
X52828601Y-49383961D01*
X52828601Y-49383961D02*
X52733363Y-49479200D01*
X52733363Y-49479200D02*
X52590506Y-49526819D01*
X52590506Y-49526819D02*
X52495268Y-49526819D01*
X52495268Y-49526819D02*
X52352411Y-49479200D01*
X52352411Y-49479200D02*
X52304792Y-49431580D01*
X52304792Y-49431580D02*
X52304792Y-49098247D01*
X52304792Y-49098247D02*
X52495268Y-49098247D01*
X51876220Y-49526819D02*
X51876220Y-48526819D01*
X51876220Y-48526819D02*
X51304792Y-49526819D01*
X51304792Y-49526819D02*
X51304792Y-48526819D01*
X50828601Y-49526819D02*
X50828601Y-48526819D01*
X50828601Y-48526819D02*
X50590506Y-48526819D01*
X50590506Y-48526819D02*
X50447649Y-48574438D01*
X50447649Y-48574438D02*
X50352411Y-48669676D01*
X50352411Y-48669676D02*
X50304792Y-48764914D01*
X50304792Y-48764914D02*
X50257173Y-48955390D01*
X50257173Y-48955390D02*
X50257173Y-49098247D01*
X50257173Y-49098247D02*
X50304792Y-49288723D01*
X50304792Y-49288723D02*
X50352411Y-49383961D01*
X50352411Y-49383961D02*
X50447649Y-49479200D01*
X50447649Y-49479200D02*
X50590506Y-49526819D01*
X50590506Y-49526819D02*
X50828601Y-49526819D01*
X61115411Y-110613819D02*
X61686839Y-110613819D01*
X61401125Y-110613819D02*
X61401125Y-109613819D01*
X61401125Y-109613819D02*
X61496363Y-109756676D01*
X61496363Y-109756676D02*
X61591601Y-109851914D01*
X61591601Y-109851914D02*
X61686839Y-109899533D01*
X60782077Y-109613819D02*
X60115411Y-109613819D01*
X60115411Y-109613819D02*
X60543982Y-110613819D01*
X70751458Y-23462931D02*
X70513363Y-24462931D01*
X70513363Y-24462931D02*
X70322887Y-23748645D01*
X70322887Y-23748645D02*
X70132411Y-24462931D01*
X70132411Y-24462931D02*
X69894316Y-23462931D01*
X69513363Y-23939121D02*
X69180030Y-23939121D01*
X69037173Y-24462931D02*
X69513363Y-24462931D01*
X69513363Y-24462931D02*
X69513363Y-23462931D01*
X69513363Y-23462931D02*
X69037173Y-23462931D01*
X67941934Y-23462931D02*
X67275268Y-23462931D01*
X67275268Y-23462931D02*
X67703839Y-24462931D01*
X66418125Y-23462931D02*
X66894315Y-23462931D01*
X66894315Y-23462931D02*
X66941934Y-23939121D01*
X66941934Y-23939121D02*
X66894315Y-23891502D01*
X66894315Y-23891502D02*
X66799077Y-23843883D01*
X66799077Y-23843883D02*
X66560982Y-23843883D01*
X66560982Y-23843883D02*
X66465744Y-23891502D01*
X66465744Y-23891502D02*
X66418125Y-23939121D01*
X66418125Y-23939121D02*
X66370506Y-24034359D01*
X66370506Y-24034359D02*
X66370506Y-24272454D01*
X66370506Y-24272454D02*
X66418125Y-24367692D01*
X66418125Y-24367692D02*
X66465744Y-24415312D01*
X66465744Y-24415312D02*
X66560982Y-24462931D01*
X66560982Y-24462931D02*
X66799077Y-24462931D01*
X66799077Y-24462931D02*
X66894315Y-24415312D01*
X66894315Y-24415312D02*
X66941934Y-24367692D01*
X65465744Y-23462931D02*
X65941934Y-23462931D01*
X65941934Y-23462931D02*
X65989553Y-23939121D01*
X65989553Y-23939121D02*
X65941934Y-23891502D01*
X65941934Y-23891502D02*
X65846696Y-23843883D01*
X65846696Y-23843883D02*
X65608601Y-23843883D01*
X65608601Y-23843883D02*
X65513363Y-23891502D01*
X65513363Y-23891502D02*
X65465744Y-23939121D01*
X65465744Y-23939121D02*
X65418125Y-24034359D01*
X65418125Y-24034359D02*
X65418125Y-24272454D01*
X65418125Y-24272454D02*
X65465744Y-24367692D01*
X65465744Y-24367692D02*
X65513363Y-24415312D01*
X65513363Y-24415312D02*
X65608601Y-24462931D01*
X65608601Y-24462931D02*
X65846696Y-24462931D01*
X65846696Y-24462931D02*
X65941934Y-24415312D01*
X65941934Y-24415312D02*
X65989553Y-24367692D01*
X65037172Y-24177216D02*
X64560982Y-24177216D01*
X65132410Y-24462931D02*
X64799077Y-23462931D01*
X64799077Y-23462931D02*
X64465744Y-24462931D01*
X63370505Y-24462931D02*
X63370505Y-23462931D01*
X63370505Y-23462931D02*
X62989553Y-23462931D01*
X62989553Y-23462931D02*
X62894315Y-23510550D01*
X62894315Y-23510550D02*
X62846696Y-23558169D01*
X62846696Y-23558169D02*
X62799077Y-23653407D01*
X62799077Y-23653407D02*
X62799077Y-23796264D01*
X62799077Y-23796264D02*
X62846696Y-23891502D01*
X62846696Y-23891502D02*
X62894315Y-23939121D01*
X62894315Y-23939121D02*
X62989553Y-23986740D01*
X62989553Y-23986740D02*
X63370505Y-23986740D01*
X62037172Y-23939121D02*
X61894315Y-23986740D01*
X61894315Y-23986740D02*
X61846696Y-24034359D01*
X61846696Y-24034359D02*
X61799077Y-24129597D01*
X61799077Y-24129597D02*
X61799077Y-24272454D01*
X61799077Y-24272454D02*
X61846696Y-24367692D01*
X61846696Y-24367692D02*
X61894315Y-24415312D01*
X61894315Y-24415312D02*
X61989553Y-24462931D01*
X61989553Y-24462931D02*
X62370505Y-24462931D01*
X62370505Y-24462931D02*
X62370505Y-23462931D01*
X62370505Y-23462931D02*
X62037172Y-23462931D01*
X62037172Y-23462931D02*
X61941934Y-23510550D01*
X61941934Y-23510550D02*
X61894315Y-23558169D01*
X61894315Y-23558169D02*
X61846696Y-23653407D01*
X61846696Y-23653407D02*
X61846696Y-23748645D01*
X61846696Y-23748645D02*
X61894315Y-23843883D01*
X61894315Y-23843883D02*
X61941934Y-23891502D01*
X61941934Y-23891502D02*
X62037172Y-23939121D01*
X62037172Y-23939121D02*
X62370505Y-23939121D01*
X61465743Y-23462931D02*
X60799077Y-24462931D01*
X60799077Y-23462931D02*
X61465743Y-24462931D01*
X59656219Y-24462931D02*
X59656219Y-23462931D01*
X59656219Y-23462931D02*
X59418124Y-23462931D01*
X59418124Y-23462931D02*
X59275267Y-23510550D01*
X59275267Y-23510550D02*
X59180029Y-23605788D01*
X59180029Y-23605788D02*
X59132410Y-23701026D01*
X59132410Y-23701026D02*
X59084791Y-23891502D01*
X59084791Y-23891502D02*
X59084791Y-24034359D01*
X59084791Y-24034359D02*
X59132410Y-24224835D01*
X59132410Y-24224835D02*
X59180029Y-24320073D01*
X59180029Y-24320073D02*
X59275267Y-24415312D01*
X59275267Y-24415312D02*
X59418124Y-24462931D01*
X59418124Y-24462931D02*
X59656219Y-24462931D01*
X58799076Y-23462931D02*
X58227648Y-23462931D01*
X58513362Y-24462931D02*
X58513362Y-23462931D01*
X57894314Y-24462931D02*
X57894314Y-23462931D01*
X57894314Y-23462931D02*
X57560981Y-24177216D01*
X57560981Y-24177216D02*
X57227648Y-23462931D01*
X57227648Y-23462931D02*
X57227648Y-24462931D01*
X56418124Y-23939121D02*
X56751457Y-23939121D01*
X56751457Y-24462931D02*
X56751457Y-23462931D01*
X56751457Y-23462931D02*
X56275267Y-23462931D01*
X54560981Y-24367692D02*
X54608600Y-24415312D01*
X54608600Y-24415312D02*
X54751457Y-24462931D01*
X54751457Y-24462931D02*
X54846695Y-24462931D01*
X54846695Y-24462931D02*
X54989552Y-24415312D01*
X54989552Y-24415312D02*
X55084790Y-24320073D01*
X55084790Y-24320073D02*
X55132409Y-24224835D01*
X55132409Y-24224835D02*
X55180028Y-24034359D01*
X55180028Y-24034359D02*
X55180028Y-23891502D01*
X55180028Y-23891502D02*
X55132409Y-23701026D01*
X55132409Y-23701026D02*
X55084790Y-23605788D01*
X55084790Y-23605788D02*
X54989552Y-23510550D01*
X54989552Y-23510550D02*
X54846695Y-23462931D01*
X54846695Y-23462931D02*
X54751457Y-23462931D01*
X54751457Y-23462931D02*
X54608600Y-23510550D01*
X54608600Y-23510550D02*
X54560981Y-23558169D01*
X53989552Y-24462931D02*
X54084790Y-24415312D01*
X54084790Y-24415312D02*
X54132409Y-24367692D01*
X54132409Y-24367692D02*
X54180028Y-24272454D01*
X54180028Y-24272454D02*
X54180028Y-23986740D01*
X54180028Y-23986740D02*
X54132409Y-23891502D01*
X54132409Y-23891502D02*
X54084790Y-23843883D01*
X54084790Y-23843883D02*
X53989552Y-23796264D01*
X53989552Y-23796264D02*
X53846695Y-23796264D01*
X53846695Y-23796264D02*
X53751457Y-23843883D01*
X53751457Y-23843883D02*
X53703838Y-23891502D01*
X53703838Y-23891502D02*
X53656219Y-23986740D01*
X53656219Y-23986740D02*
X53656219Y-24272454D01*
X53656219Y-24272454D02*
X53703838Y-24367692D01*
X53703838Y-24367692D02*
X53751457Y-24415312D01*
X53751457Y-24415312D02*
X53846695Y-24462931D01*
X53846695Y-24462931D02*
X53989552Y-24462931D01*
X53227647Y-23796264D02*
X53227647Y-24462931D01*
X53227647Y-23891502D02*
X53180028Y-23843883D01*
X53180028Y-23843883D02*
X53084790Y-23796264D01*
X53084790Y-23796264D02*
X52941933Y-23796264D01*
X52941933Y-23796264D02*
X52846695Y-23843883D01*
X52846695Y-23843883D02*
X52799076Y-23939121D01*
X52799076Y-23939121D02*
X52799076Y-24462931D01*
X52418123Y-23796264D02*
X52180028Y-24462931D01*
X52180028Y-24462931D02*
X51941933Y-23796264D01*
X51180028Y-24415312D02*
X51275266Y-24462931D01*
X51275266Y-24462931D02*
X51465742Y-24462931D01*
X51465742Y-24462931D02*
X51560980Y-24415312D01*
X51560980Y-24415312D02*
X51608599Y-24320073D01*
X51608599Y-24320073D02*
X51608599Y-23939121D01*
X51608599Y-23939121D02*
X51560980Y-23843883D01*
X51560980Y-23843883D02*
X51465742Y-23796264D01*
X51465742Y-23796264D02*
X51275266Y-23796264D01*
X51275266Y-23796264D02*
X51180028Y-23843883D01*
X51180028Y-23843883D02*
X51132409Y-23939121D01*
X51132409Y-23939121D02*
X51132409Y-24034359D01*
X51132409Y-24034359D02*
X51608599Y-24129597D01*
X50703837Y-24462931D02*
X50703837Y-23796264D01*
X50703837Y-23986740D02*
X50656218Y-23891502D01*
X50656218Y-23891502D02*
X50608599Y-23843883D01*
X50608599Y-23843883D02*
X50513361Y-23796264D01*
X50513361Y-23796264D02*
X50418123Y-23796264D01*
X50227646Y-23796264D02*
X49846694Y-23796264D01*
X50084789Y-23462931D02*
X50084789Y-24320073D01*
X50084789Y-24320073D02*
X50037170Y-24415312D01*
X50037170Y-24415312D02*
X49941932Y-24462931D01*
X49941932Y-24462931D02*
X49846694Y-24462931D01*
X49132408Y-24415312D02*
X49227646Y-24462931D01*
X49227646Y-24462931D02*
X49418122Y-24462931D01*
X49418122Y-24462931D02*
X49513360Y-24415312D01*
X49513360Y-24415312D02*
X49560979Y-24320073D01*
X49560979Y-24320073D02*
X49560979Y-23939121D01*
X49560979Y-23939121D02*
X49513360Y-23843883D01*
X49513360Y-23843883D02*
X49418122Y-23796264D01*
X49418122Y-23796264D02*
X49227646Y-23796264D01*
X49227646Y-23796264D02*
X49132408Y-23843883D01*
X49132408Y-23843883D02*
X49084789Y-23939121D01*
X49084789Y-23939121D02*
X49084789Y-24034359D01*
X49084789Y-24034359D02*
X49560979Y-24129597D01*
X48656217Y-24462931D02*
X48656217Y-23796264D01*
X48656217Y-23986740D02*
X48608598Y-23891502D01*
X48608598Y-23891502D02*
X48560979Y-23843883D01*
X48560979Y-23843883D02*
X48465741Y-23796264D01*
X48465741Y-23796264D02*
X48370503Y-23796264D01*
X70227649Y-25406208D02*
X70227649Y-26215732D01*
X70227649Y-26215732D02*
X70275268Y-26310970D01*
X70275268Y-26310970D02*
X70322887Y-26358589D01*
X70322887Y-26358589D02*
X70418125Y-26406208D01*
X70418125Y-26406208D02*
X70560982Y-26406208D01*
X70560982Y-26406208D02*
X70656220Y-26358589D01*
X70227649Y-26025256D02*
X70322887Y-26072875D01*
X70322887Y-26072875D02*
X70513363Y-26072875D01*
X70513363Y-26072875D02*
X70608601Y-26025256D01*
X70608601Y-26025256D02*
X70656220Y-25977636D01*
X70656220Y-25977636D02*
X70703839Y-25882398D01*
X70703839Y-25882398D02*
X70703839Y-25596684D01*
X70703839Y-25596684D02*
X70656220Y-25501446D01*
X70656220Y-25501446D02*
X70608601Y-25453827D01*
X70608601Y-25453827D02*
X70513363Y-25406208D01*
X70513363Y-25406208D02*
X70322887Y-25406208D01*
X70322887Y-25406208D02*
X70227649Y-25453827D01*
X69751458Y-26072875D02*
X69751458Y-25406208D01*
X69751458Y-25072875D02*
X69799077Y-25120494D01*
X69799077Y-25120494D02*
X69751458Y-25168113D01*
X69751458Y-25168113D02*
X69703839Y-25120494D01*
X69703839Y-25120494D02*
X69751458Y-25072875D01*
X69751458Y-25072875D02*
X69751458Y-25168113D01*
X69418125Y-25406208D02*
X69037173Y-25406208D01*
X69275268Y-25072875D02*
X69275268Y-25930017D01*
X69275268Y-25930017D02*
X69227649Y-26025256D01*
X69227649Y-26025256D02*
X69132411Y-26072875D01*
X69132411Y-26072875D02*
X69037173Y-26072875D01*
X68703839Y-26072875D02*
X68703839Y-25072875D01*
X68275268Y-26072875D02*
X68275268Y-25549065D01*
X68275268Y-25549065D02*
X68322887Y-25453827D01*
X68322887Y-25453827D02*
X68418125Y-25406208D01*
X68418125Y-25406208D02*
X68560982Y-25406208D01*
X68560982Y-25406208D02*
X68656220Y-25453827D01*
X68656220Y-25453827D02*
X68703839Y-25501446D01*
X67370506Y-25406208D02*
X67370506Y-26072875D01*
X67799077Y-25406208D02*
X67799077Y-25930017D01*
X67799077Y-25930017D02*
X67751458Y-26025256D01*
X67751458Y-26025256D02*
X67656220Y-26072875D01*
X67656220Y-26072875D02*
X67513363Y-26072875D01*
X67513363Y-26072875D02*
X67418125Y-26025256D01*
X67418125Y-26025256D02*
X67370506Y-25977636D01*
X66894315Y-26072875D02*
X66894315Y-25072875D01*
X66894315Y-25453827D02*
X66799077Y-25406208D01*
X66799077Y-25406208D02*
X66608601Y-25406208D01*
X66608601Y-25406208D02*
X66513363Y-25453827D01*
X66513363Y-25453827D02*
X66465744Y-25501446D01*
X66465744Y-25501446D02*
X66418125Y-25596684D01*
X66418125Y-25596684D02*
X66418125Y-25882398D01*
X66418125Y-25882398D02*
X66465744Y-25977636D01*
X66465744Y-25977636D02*
X66513363Y-26025256D01*
X66513363Y-26025256D02*
X66608601Y-26072875D01*
X66608601Y-26072875D02*
X66799077Y-26072875D01*
X66799077Y-26072875D02*
X66894315Y-26025256D01*
X65989553Y-25977636D02*
X65941934Y-26025256D01*
X65941934Y-26025256D02*
X65989553Y-26072875D01*
X65989553Y-26072875D02*
X66037172Y-26025256D01*
X66037172Y-26025256D02*
X65989553Y-25977636D01*
X65989553Y-25977636D02*
X65989553Y-26072875D01*
X65084792Y-26025256D02*
X65180030Y-26072875D01*
X65180030Y-26072875D02*
X65370506Y-26072875D01*
X65370506Y-26072875D02*
X65465744Y-26025256D01*
X65465744Y-26025256D02*
X65513363Y-25977636D01*
X65513363Y-25977636D02*
X65560982Y-25882398D01*
X65560982Y-25882398D02*
X65560982Y-25596684D01*
X65560982Y-25596684D02*
X65513363Y-25501446D01*
X65513363Y-25501446D02*
X65465744Y-25453827D01*
X65465744Y-25453827D02*
X65370506Y-25406208D01*
X65370506Y-25406208D02*
X65180030Y-25406208D01*
X65180030Y-25406208D02*
X65084792Y-25453827D01*
X64513363Y-26072875D02*
X64608601Y-26025256D01*
X64608601Y-26025256D02*
X64656220Y-25977636D01*
X64656220Y-25977636D02*
X64703839Y-25882398D01*
X64703839Y-25882398D02*
X64703839Y-25596684D01*
X64703839Y-25596684D02*
X64656220Y-25501446D01*
X64656220Y-25501446D02*
X64608601Y-25453827D01*
X64608601Y-25453827D02*
X64513363Y-25406208D01*
X64513363Y-25406208D02*
X64370506Y-25406208D01*
X64370506Y-25406208D02*
X64275268Y-25453827D01*
X64275268Y-25453827D02*
X64227649Y-25501446D01*
X64227649Y-25501446D02*
X64180030Y-25596684D01*
X64180030Y-25596684D02*
X64180030Y-25882398D01*
X64180030Y-25882398D02*
X64227649Y-25977636D01*
X64227649Y-25977636D02*
X64275268Y-26025256D01*
X64275268Y-26025256D02*
X64370506Y-26072875D01*
X64370506Y-26072875D02*
X64513363Y-26072875D01*
X63751458Y-26072875D02*
X63751458Y-25406208D01*
X63751458Y-25501446D02*
X63703839Y-25453827D01*
X63703839Y-25453827D02*
X63608601Y-25406208D01*
X63608601Y-25406208D02*
X63465744Y-25406208D01*
X63465744Y-25406208D02*
X63370506Y-25453827D01*
X63370506Y-25453827D02*
X63322887Y-25549065D01*
X63322887Y-25549065D02*
X63322887Y-26072875D01*
X63322887Y-25549065D02*
X63275268Y-25453827D01*
X63275268Y-25453827D02*
X63180030Y-25406208D01*
X63180030Y-25406208D02*
X63037173Y-25406208D01*
X63037173Y-25406208D02*
X62941934Y-25453827D01*
X62941934Y-25453827D02*
X62894315Y-25549065D01*
X62894315Y-25549065D02*
X62894315Y-26072875D01*
X61703840Y-25025256D02*
X62560982Y-26310970D01*
X61370506Y-26072875D02*
X61370506Y-25072875D01*
X60941935Y-26072875D02*
X60941935Y-25549065D01*
X60941935Y-25549065D02*
X60989554Y-25453827D01*
X60989554Y-25453827D02*
X61084792Y-25406208D01*
X61084792Y-25406208D02*
X61227649Y-25406208D01*
X61227649Y-25406208D02*
X61322887Y-25453827D01*
X61322887Y-25453827D02*
X61370506Y-25501446D01*
X60465744Y-26072875D02*
X60465744Y-25072875D01*
X60037173Y-26072875D02*
X60037173Y-25549065D01*
X60037173Y-25549065D02*
X60084792Y-25453827D01*
X60084792Y-25453827D02*
X60180030Y-25406208D01*
X60180030Y-25406208D02*
X60322887Y-25406208D01*
X60322887Y-25406208D02*
X60418125Y-25453827D01*
X60418125Y-25453827D02*
X60465744Y-25501446D01*
X59132411Y-26072875D02*
X59132411Y-25549065D01*
X59132411Y-25549065D02*
X59180030Y-25453827D01*
X59180030Y-25453827D02*
X59275268Y-25406208D01*
X59275268Y-25406208D02*
X59465744Y-25406208D01*
X59465744Y-25406208D02*
X59560982Y-25453827D01*
X59132411Y-26025256D02*
X59227649Y-26072875D01*
X59227649Y-26072875D02*
X59465744Y-26072875D01*
X59465744Y-26072875D02*
X59560982Y-26025256D01*
X59560982Y-26025256D02*
X59608601Y-25930017D01*
X59608601Y-25930017D02*
X59608601Y-25834779D01*
X59608601Y-25834779D02*
X59560982Y-25739541D01*
X59560982Y-25739541D02*
X59465744Y-25691922D01*
X59465744Y-25691922D02*
X59227649Y-25691922D01*
X59227649Y-25691922D02*
X59132411Y-25644303D01*
X58656220Y-26072875D02*
X58656220Y-25406208D01*
X58656220Y-25596684D02*
X58608601Y-25501446D01*
X58608601Y-25501446D02*
X58560982Y-25453827D01*
X58560982Y-25453827D02*
X58465744Y-25406208D01*
X58465744Y-25406208D02*
X58370506Y-25406208D01*
X58180029Y-25406208D02*
X57799077Y-25406208D01*
X58037172Y-25072875D02*
X58037172Y-25930017D01*
X58037172Y-25930017D02*
X57989553Y-26025256D01*
X57989553Y-26025256D02*
X57894315Y-26072875D01*
X57894315Y-26072875D02*
X57799077Y-26072875D01*
X57084791Y-26025256D02*
X57180029Y-26072875D01*
X57180029Y-26072875D02*
X57370505Y-26072875D01*
X57370505Y-26072875D02*
X57465743Y-26025256D01*
X57465743Y-26025256D02*
X57513362Y-25930017D01*
X57513362Y-25930017D02*
X57513362Y-25549065D01*
X57513362Y-25549065D02*
X57465743Y-25453827D01*
X57465743Y-25453827D02*
X57370505Y-25406208D01*
X57370505Y-25406208D02*
X57180029Y-25406208D01*
X57180029Y-25406208D02*
X57084791Y-25453827D01*
X57084791Y-25453827D02*
X57037172Y-25549065D01*
X57037172Y-25549065D02*
X57037172Y-25644303D01*
X57037172Y-25644303D02*
X57513362Y-25739541D01*
X55894315Y-25025256D02*
X56751457Y-26310970D01*
X55656219Y-25406208D02*
X55465743Y-26072875D01*
X55465743Y-26072875D02*
X55275267Y-25596684D01*
X55275267Y-25596684D02*
X55084791Y-26072875D01*
X55084791Y-26072875D02*
X54894315Y-25406208D01*
X54132410Y-26025256D02*
X54227648Y-26072875D01*
X54227648Y-26072875D02*
X54418124Y-26072875D01*
X54418124Y-26072875D02*
X54513362Y-26025256D01*
X54513362Y-26025256D02*
X54560981Y-25930017D01*
X54560981Y-25930017D02*
X54560981Y-25549065D01*
X54560981Y-25549065D02*
X54513362Y-25453827D01*
X54513362Y-25453827D02*
X54418124Y-25406208D01*
X54418124Y-25406208D02*
X54227648Y-25406208D01*
X54227648Y-25406208D02*
X54132410Y-25453827D01*
X54132410Y-25453827D02*
X54084791Y-25549065D01*
X54084791Y-25549065D02*
X54084791Y-25644303D01*
X54084791Y-25644303D02*
X54560981Y-25739541D01*
X53751457Y-25072875D02*
X53084791Y-25072875D01*
X53084791Y-25072875D02*
X53513362Y-26072875D01*
X52227648Y-25072875D02*
X52703838Y-25072875D01*
X52703838Y-25072875D02*
X52751457Y-25549065D01*
X52751457Y-25549065D02*
X52703838Y-25501446D01*
X52703838Y-25501446D02*
X52608600Y-25453827D01*
X52608600Y-25453827D02*
X52370505Y-25453827D01*
X52370505Y-25453827D02*
X52275267Y-25501446D01*
X52275267Y-25501446D02*
X52227648Y-25549065D01*
X52227648Y-25549065D02*
X52180029Y-25644303D01*
X52180029Y-25644303D02*
X52180029Y-25882398D01*
X52180029Y-25882398D02*
X52227648Y-25977636D01*
X52227648Y-25977636D02*
X52275267Y-26025256D01*
X52275267Y-26025256D02*
X52370505Y-26072875D01*
X52370505Y-26072875D02*
X52608600Y-26072875D01*
X52608600Y-26072875D02*
X52703838Y-26025256D01*
X52703838Y-26025256D02*
X52751457Y-25977636D01*
X51275267Y-25072875D02*
X51751457Y-25072875D01*
X51751457Y-25072875D02*
X51799076Y-25549065D01*
X51799076Y-25549065D02*
X51751457Y-25501446D01*
X51751457Y-25501446D02*
X51656219Y-25453827D01*
X51656219Y-25453827D02*
X51418124Y-25453827D01*
X51418124Y-25453827D02*
X51322886Y-25501446D01*
X51322886Y-25501446D02*
X51275267Y-25549065D01*
X51275267Y-25549065D02*
X51227648Y-25644303D01*
X51227648Y-25644303D02*
X51227648Y-25882398D01*
X51227648Y-25882398D02*
X51275267Y-25977636D01*
X51275267Y-25977636D02*
X51322886Y-26025256D01*
X51322886Y-26025256D02*
X51418124Y-26072875D01*
X51418124Y-26072875D02*
X51656219Y-26072875D01*
X51656219Y-26072875D02*
X51751457Y-26025256D01*
X51751457Y-26025256D02*
X51799076Y-25977636D01*
X50370505Y-26072875D02*
X50370505Y-25549065D01*
X50370505Y-25549065D02*
X50418124Y-25453827D01*
X50418124Y-25453827D02*
X50513362Y-25406208D01*
X50513362Y-25406208D02*
X50703838Y-25406208D01*
X50703838Y-25406208D02*
X50799076Y-25453827D01*
X50370505Y-26025256D02*
X50465743Y-26072875D01*
X50465743Y-26072875D02*
X50703838Y-26072875D01*
X50703838Y-26072875D02*
X50799076Y-26025256D01*
X50799076Y-26025256D02*
X50846695Y-25930017D01*
X50846695Y-25930017D02*
X50846695Y-25834779D01*
X50846695Y-25834779D02*
X50799076Y-25739541D01*
X50799076Y-25739541D02*
X50703838Y-25691922D01*
X50703838Y-25691922D02*
X50465743Y-25691922D01*
X50465743Y-25691922D02*
X50370505Y-25644303D01*
X50132410Y-26168113D02*
X49370505Y-26168113D01*
X48703838Y-26072875D02*
X48703838Y-25072875D01*
X48703838Y-26025256D02*
X48799076Y-26072875D01*
X48799076Y-26072875D02*
X48989552Y-26072875D01*
X48989552Y-26072875D02*
X49084790Y-26025256D01*
X49084790Y-26025256D02*
X49132409Y-25977636D01*
X49132409Y-25977636D02*
X49180028Y-25882398D01*
X49180028Y-25882398D02*
X49180028Y-25596684D01*
X49180028Y-25596684D02*
X49132409Y-25501446D01*
X49132409Y-25501446D02*
X49084790Y-25453827D01*
X49084790Y-25453827D02*
X48989552Y-25406208D01*
X48989552Y-25406208D02*
X48799076Y-25406208D01*
X48799076Y-25406208D02*
X48703838Y-25453827D01*
X48370504Y-25406208D02*
X47989552Y-25406208D01*
X48227647Y-25072875D02*
X48227647Y-25930017D01*
X48227647Y-25930017D02*
X48180028Y-26025256D01*
X48180028Y-26025256D02*
X48084790Y-26072875D01*
X48084790Y-26072875D02*
X47989552Y-26072875D01*
X47656218Y-26072875D02*
X47656218Y-25406208D01*
X47656218Y-25501446D02*
X47608599Y-25453827D01*
X47608599Y-25453827D02*
X47513361Y-25406208D01*
X47513361Y-25406208D02*
X47370504Y-25406208D01*
X47370504Y-25406208D02*
X47275266Y-25453827D01*
X47275266Y-25453827D02*
X47227647Y-25549065D01*
X47227647Y-25549065D02*
X47227647Y-26072875D01*
X47227647Y-25549065D02*
X47180028Y-25453827D01*
X47180028Y-25453827D02*
X47084790Y-25406208D01*
X47084790Y-25406208D02*
X46941933Y-25406208D01*
X46941933Y-25406208D02*
X46846694Y-25453827D01*
X46846694Y-25453827D02*
X46799075Y-25549065D01*
X46799075Y-25549065D02*
X46799075Y-26072875D01*
X46465742Y-25406208D02*
X46084790Y-25406208D01*
X46322885Y-26072875D02*
X46322885Y-25215732D01*
X46322885Y-25215732D02*
X46275266Y-25120494D01*
X46275266Y-25120494D02*
X46180028Y-25072875D01*
X46180028Y-25072875D02*
X46084790Y-25072875D01*
X70656220Y-27682819D02*
X70656220Y-26682819D01*
X70227649Y-27635200D02*
X70132411Y-27682819D01*
X70132411Y-27682819D02*
X69941935Y-27682819D01*
X69941935Y-27682819D02*
X69846697Y-27635200D01*
X69846697Y-27635200D02*
X69799078Y-27539961D01*
X69799078Y-27539961D02*
X69799078Y-27492342D01*
X69799078Y-27492342D02*
X69846697Y-27397104D01*
X69846697Y-27397104D02*
X69941935Y-27349485D01*
X69941935Y-27349485D02*
X70084792Y-27349485D01*
X70084792Y-27349485D02*
X70180030Y-27301866D01*
X70180030Y-27301866D02*
X70227649Y-27206628D01*
X70227649Y-27206628D02*
X70227649Y-27159009D01*
X70227649Y-27159009D02*
X70180030Y-27063771D01*
X70180030Y-27063771D02*
X70084792Y-27016152D01*
X70084792Y-27016152D02*
X69941935Y-27016152D01*
X69941935Y-27016152D02*
X69846697Y-27063771D01*
X69418125Y-27635200D02*
X69322887Y-27682819D01*
X69322887Y-27682819D02*
X69132411Y-27682819D01*
X69132411Y-27682819D02*
X69037173Y-27635200D01*
X69037173Y-27635200D02*
X68989554Y-27539961D01*
X68989554Y-27539961D02*
X68989554Y-27492342D01*
X68989554Y-27492342D02*
X69037173Y-27397104D01*
X69037173Y-27397104D02*
X69132411Y-27349485D01*
X69132411Y-27349485D02*
X69275268Y-27349485D01*
X69275268Y-27349485D02*
X69370506Y-27301866D01*
X69370506Y-27301866D02*
X69418125Y-27206628D01*
X69418125Y-27206628D02*
X69418125Y-27159009D01*
X69418125Y-27159009D02*
X69370506Y-27063771D01*
X69370506Y-27063771D02*
X69275268Y-27016152D01*
X69275268Y-27016152D02*
X69132411Y-27016152D01*
X69132411Y-27016152D02*
X69037173Y-27063771D01*
X68132411Y-27016152D02*
X68132411Y-27682819D01*
X68560982Y-27016152D02*
X68560982Y-27539961D01*
X68560982Y-27539961D02*
X68513363Y-27635200D01*
X68513363Y-27635200D02*
X68418125Y-27682819D01*
X68418125Y-27682819D02*
X68275268Y-27682819D01*
X68275268Y-27682819D02*
X68180030Y-27635200D01*
X68180030Y-27635200D02*
X68132411Y-27587580D01*
X67275268Y-27635200D02*
X67370506Y-27682819D01*
X67370506Y-27682819D02*
X67560982Y-27682819D01*
X67560982Y-27682819D02*
X67656220Y-27635200D01*
X67656220Y-27635200D02*
X67703839Y-27539961D01*
X67703839Y-27539961D02*
X67703839Y-27159009D01*
X67703839Y-27159009D02*
X67656220Y-27063771D01*
X67656220Y-27063771D02*
X67560982Y-27016152D01*
X67560982Y-27016152D02*
X67370506Y-27016152D01*
X67370506Y-27016152D02*
X67275268Y-27063771D01*
X67275268Y-27063771D02*
X67227649Y-27159009D01*
X67227649Y-27159009D02*
X67227649Y-27254247D01*
X67227649Y-27254247D02*
X67703839Y-27349485D01*
X66084791Y-26778057D02*
X66037172Y-26730438D01*
X66037172Y-26730438D02*
X65941934Y-26682819D01*
X65941934Y-26682819D02*
X65703839Y-26682819D01*
X65703839Y-26682819D02*
X65608601Y-26730438D01*
X65608601Y-26730438D02*
X65560982Y-26778057D01*
X65560982Y-26778057D02*
X65513363Y-26873295D01*
X65513363Y-26873295D02*
X65513363Y-26968533D01*
X65513363Y-26968533D02*
X65560982Y-27111390D01*
X65560982Y-27111390D02*
X66132410Y-27682819D01*
X66132410Y-27682819D02*
X65513363Y-27682819D01*
X64322886Y-27301866D02*
X63560982Y-27301866D01*
X62370505Y-26778057D02*
X62322886Y-26730438D01*
X62322886Y-26730438D02*
X62227648Y-26682819D01*
X62227648Y-26682819D02*
X61989553Y-26682819D01*
X61989553Y-26682819D02*
X61894315Y-26730438D01*
X61894315Y-26730438D02*
X61846696Y-26778057D01*
X61846696Y-26778057D02*
X61799077Y-26873295D01*
X61799077Y-26873295D02*
X61799077Y-26968533D01*
X61799077Y-26968533D02*
X61846696Y-27111390D01*
X61846696Y-27111390D02*
X62418124Y-27682819D01*
X62418124Y-27682819D02*
X61799077Y-27682819D01*
X61180029Y-26682819D02*
X61084791Y-26682819D01*
X61084791Y-26682819D02*
X60989553Y-26730438D01*
X60989553Y-26730438D02*
X60941934Y-26778057D01*
X60941934Y-26778057D02*
X60894315Y-26873295D01*
X60894315Y-26873295D02*
X60846696Y-27063771D01*
X60846696Y-27063771D02*
X60846696Y-27301866D01*
X60846696Y-27301866D02*
X60894315Y-27492342D01*
X60894315Y-27492342D02*
X60941934Y-27587580D01*
X60941934Y-27587580D02*
X60989553Y-27635200D01*
X60989553Y-27635200D02*
X61084791Y-27682819D01*
X61084791Y-27682819D02*
X61180029Y-27682819D01*
X61180029Y-27682819D02*
X61275267Y-27635200D01*
X61275267Y-27635200D02*
X61322886Y-27587580D01*
X61322886Y-27587580D02*
X61370505Y-27492342D01*
X61370505Y-27492342D02*
X61418124Y-27301866D01*
X61418124Y-27301866D02*
X61418124Y-27063771D01*
X61418124Y-27063771D02*
X61370505Y-26873295D01*
X61370505Y-26873295D02*
X61322886Y-26778057D01*
X61322886Y-26778057D02*
X61275267Y-26730438D01*
X61275267Y-26730438D02*
X61180029Y-26682819D01*
X60465743Y-26778057D02*
X60418124Y-26730438D01*
X60418124Y-26730438D02*
X60322886Y-26682819D01*
X60322886Y-26682819D02*
X60084791Y-26682819D01*
X60084791Y-26682819D02*
X59989553Y-26730438D01*
X59989553Y-26730438D02*
X59941934Y-26778057D01*
X59941934Y-26778057D02*
X59894315Y-26873295D01*
X59894315Y-26873295D02*
X59894315Y-26968533D01*
X59894315Y-26968533D02*
X59941934Y-27111390D01*
X59941934Y-27111390D02*
X60513362Y-27682819D01*
X60513362Y-27682819D02*
X59894315Y-27682819D01*
X59560981Y-26682819D02*
X58941934Y-26682819D01*
X58941934Y-26682819D02*
X59275267Y-27063771D01*
X59275267Y-27063771D02*
X59132410Y-27063771D01*
X59132410Y-27063771D02*
X59037172Y-27111390D01*
X59037172Y-27111390D02*
X58989553Y-27159009D01*
X58989553Y-27159009D02*
X58941934Y-27254247D01*
X58941934Y-27254247D02*
X58941934Y-27492342D01*
X58941934Y-27492342D02*
X58989553Y-27587580D01*
X58989553Y-27587580D02*
X59037172Y-27635200D01*
X59037172Y-27635200D02*
X59132410Y-27682819D01*
X59132410Y-27682819D02*
X59418124Y-27682819D01*
X59418124Y-27682819D02*
X59513362Y-27635200D01*
X59513362Y-27635200D02*
X59560981Y-27587580D01*
X58513362Y-27301866D02*
X57751458Y-27301866D01*
X57084791Y-26682819D02*
X56989553Y-26682819D01*
X56989553Y-26682819D02*
X56894315Y-26730438D01*
X56894315Y-26730438D02*
X56846696Y-26778057D01*
X56846696Y-26778057D02*
X56799077Y-26873295D01*
X56799077Y-26873295D02*
X56751458Y-27063771D01*
X56751458Y-27063771D02*
X56751458Y-27301866D01*
X56751458Y-27301866D02*
X56799077Y-27492342D01*
X56799077Y-27492342D02*
X56846696Y-27587580D01*
X56846696Y-27587580D02*
X56894315Y-27635200D01*
X56894315Y-27635200D02*
X56989553Y-27682819D01*
X56989553Y-27682819D02*
X57084791Y-27682819D01*
X57084791Y-27682819D02*
X57180029Y-27635200D01*
X57180029Y-27635200D02*
X57227648Y-27587580D01*
X57227648Y-27587580D02*
X57275267Y-27492342D01*
X57275267Y-27492342D02*
X57322886Y-27301866D01*
X57322886Y-27301866D02*
X57322886Y-27063771D01*
X57322886Y-27063771D02*
X57275267Y-26873295D01*
X57275267Y-26873295D02*
X57227648Y-26778057D01*
X57227648Y-26778057D02*
X57180029Y-26730438D01*
X57180029Y-26730438D02*
X57084791Y-26682819D01*
X56418124Y-26682819D02*
X55751458Y-26682819D01*
X55751458Y-26682819D02*
X56180029Y-27682819D01*
X55370505Y-27301866D02*
X54608601Y-27301866D01*
X53941934Y-26682819D02*
X53846696Y-26682819D01*
X53846696Y-26682819D02*
X53751458Y-26730438D01*
X53751458Y-26730438D02*
X53703839Y-26778057D01*
X53703839Y-26778057D02*
X53656220Y-26873295D01*
X53656220Y-26873295D02*
X53608601Y-27063771D01*
X53608601Y-27063771D02*
X53608601Y-27301866D01*
X53608601Y-27301866D02*
X53656220Y-27492342D01*
X53656220Y-27492342D02*
X53703839Y-27587580D01*
X53703839Y-27587580D02*
X53751458Y-27635200D01*
X53751458Y-27635200D02*
X53846696Y-27682819D01*
X53846696Y-27682819D02*
X53941934Y-27682819D01*
X53941934Y-27682819D02*
X54037172Y-27635200D01*
X54037172Y-27635200D02*
X54084791Y-27587580D01*
X54084791Y-27587580D02*
X54132410Y-27492342D01*
X54132410Y-27492342D02*
X54180029Y-27301866D01*
X54180029Y-27301866D02*
X54180029Y-27063771D01*
X54180029Y-27063771D02*
X54132410Y-26873295D01*
X54132410Y-26873295D02*
X54084791Y-26778057D01*
X54084791Y-26778057D02*
X54037172Y-26730438D01*
X54037172Y-26730438D02*
X53941934Y-26682819D01*
X52751458Y-27016152D02*
X52751458Y-27682819D01*
X52989553Y-26635200D02*
X53227648Y-27349485D01*
X53227648Y-27349485D02*
X52608601Y-27349485D01*
X53384220Y-110090009D02*
X53050887Y-110090009D01*
X52908030Y-110613819D02*
X53384220Y-110613819D01*
X53384220Y-110613819D02*
X53384220Y-109613819D01*
X53384220Y-109613819D02*
X52908030Y-109613819D01*
X58718220Y-41922819D02*
X58718220Y-42732342D01*
X58718220Y-42732342D02*
X58670601Y-42827580D01*
X58670601Y-42827580D02*
X58622982Y-42875200D01*
X58622982Y-42875200D02*
X58527744Y-42922819D01*
X58527744Y-42922819D02*
X58337268Y-42922819D01*
X58337268Y-42922819D02*
X58242030Y-42875200D01*
X58242030Y-42875200D02*
X58194411Y-42827580D01*
X58194411Y-42827580D02*
X58146792Y-42732342D01*
X58146792Y-42732342D02*
X58146792Y-41922819D01*
X57670601Y-42922819D02*
X57670601Y-41922819D01*
X57670601Y-41922819D02*
X57289649Y-41922819D01*
X57289649Y-41922819D02*
X57194411Y-41970438D01*
X57194411Y-41970438D02*
X57146792Y-42018057D01*
X57146792Y-42018057D02*
X57099173Y-42113295D01*
X57099173Y-42113295D02*
X57099173Y-42256152D01*
X57099173Y-42256152D02*
X57146792Y-42351390D01*
X57146792Y-42351390D02*
X57194411Y-42399009D01*
X57194411Y-42399009D02*
X57289649Y-42446628D01*
X57289649Y-42446628D02*
X57670601Y-42446628D01*
X56670601Y-42922819D02*
X56670601Y-41922819D01*
X56670601Y-41922819D02*
X56432506Y-41922819D01*
X56432506Y-41922819D02*
X56289649Y-41970438D01*
X56289649Y-41970438D02*
X56194411Y-42065676D01*
X56194411Y-42065676D02*
X56146792Y-42160914D01*
X56146792Y-42160914D02*
X56099173Y-42351390D01*
X56099173Y-42351390D02*
X56099173Y-42494247D01*
X56099173Y-42494247D02*
X56146792Y-42684723D01*
X56146792Y-42684723D02*
X56194411Y-42779961D01*
X56194411Y-42779961D02*
X56289649Y-42875200D01*
X56289649Y-42875200D02*
X56432506Y-42922819D01*
X56432506Y-42922819D02*
X56670601Y-42922819D01*
X55670601Y-42922819D02*
X55670601Y-41922819D01*
X50272792Y-110613819D02*
X50606125Y-110137628D01*
X50844220Y-110613819D02*
X50844220Y-109613819D01*
X50844220Y-109613819D02*
X50463268Y-109613819D01*
X50463268Y-109613819D02*
X50368030Y-109661438D01*
X50368030Y-109661438D02*
X50320411Y-109709057D01*
X50320411Y-109709057D02*
X50272792Y-109804295D01*
X50272792Y-109804295D02*
X50272792Y-109947152D01*
X50272792Y-109947152D02*
X50320411Y-110042390D01*
X50320411Y-110042390D02*
X50368030Y-110090009D01*
X50368030Y-110090009D02*
X50463268Y-110137628D01*
X50463268Y-110137628D02*
X50844220Y-110137628D01*
X64925411Y-34731438D02*
X65020649Y-34683819D01*
X65020649Y-34683819D02*
X65163506Y-34683819D01*
X65163506Y-34683819D02*
X65306363Y-34731438D01*
X65306363Y-34731438D02*
X65401601Y-34826676D01*
X65401601Y-34826676D02*
X65449220Y-34921914D01*
X65449220Y-34921914D02*
X65496839Y-35112390D01*
X65496839Y-35112390D02*
X65496839Y-35255247D01*
X65496839Y-35255247D02*
X65449220Y-35445723D01*
X65449220Y-35445723D02*
X65401601Y-35540961D01*
X65401601Y-35540961D02*
X65306363Y-35636200D01*
X65306363Y-35636200D02*
X65163506Y-35683819D01*
X65163506Y-35683819D02*
X65068268Y-35683819D01*
X65068268Y-35683819D02*
X64925411Y-35636200D01*
X64925411Y-35636200D02*
X64877792Y-35588580D01*
X64877792Y-35588580D02*
X64877792Y-35255247D01*
X64877792Y-35255247D02*
X65068268Y-35255247D01*
X64449220Y-35683819D02*
X64449220Y-34683819D01*
X64449220Y-34683819D02*
X63877792Y-35683819D01*
X63877792Y-35683819D02*
X63877792Y-34683819D01*
X63401601Y-35683819D02*
X63401601Y-34683819D01*
X63401601Y-34683819D02*
X63163506Y-34683819D01*
X63163506Y-34683819D02*
X63020649Y-34731438D01*
X63020649Y-34731438D02*
X62925411Y-34826676D01*
X62925411Y-34826676D02*
X62877792Y-34921914D01*
X62877792Y-34921914D02*
X62830173Y-35112390D01*
X62830173Y-35112390D02*
X62830173Y-35255247D01*
X62830173Y-35255247D02*
X62877792Y-35445723D01*
X62877792Y-35445723D02*
X62925411Y-35540961D01*
X62925411Y-35540961D02*
X63020649Y-35636200D01*
X63020649Y-35636200D02*
X63163506Y-35683819D01*
X63163506Y-35683819D02*
X63401601Y-35683819D01*
X66243030Y-109613819D02*
X66719220Y-109613819D01*
X66719220Y-109613819D02*
X66766839Y-110090009D01*
X66766839Y-110090009D02*
X66719220Y-110042390D01*
X66719220Y-110042390D02*
X66623982Y-109994771D01*
X66623982Y-109994771D02*
X66385887Y-109994771D01*
X66385887Y-109994771D02*
X66290649Y-110042390D01*
X66290649Y-110042390D02*
X66243030Y-110090009D01*
X66243030Y-110090009D02*
X66195411Y-110185247D01*
X66195411Y-110185247D02*
X66195411Y-110423342D01*
X66195411Y-110423342D02*
X66243030Y-110518580D01*
X66243030Y-110518580D02*
X66290649Y-110566200D01*
X66290649Y-110566200D02*
X66385887Y-110613819D01*
X66385887Y-110613819D02*
X66623982Y-110613819D01*
X66623982Y-110613819D02*
X66719220Y-110566200D01*
X66719220Y-110566200D02*
X66766839Y-110518580D01*
X65338268Y-109613819D02*
X65528744Y-109613819D01*
X65528744Y-109613819D02*
X65623982Y-109661438D01*
X65623982Y-109661438D02*
X65671601Y-109709057D01*
X65671601Y-109709057D02*
X65766839Y-109851914D01*
X65766839Y-109851914D02*
X65814458Y-110042390D01*
X65814458Y-110042390D02*
X65814458Y-110423342D01*
X65814458Y-110423342D02*
X65766839Y-110518580D01*
X65766839Y-110518580D02*
X65719220Y-110566200D01*
X65719220Y-110566200D02*
X65623982Y-110613819D01*
X65623982Y-110613819D02*
X65433506Y-110613819D01*
X65433506Y-110613819D02*
X65338268Y-110566200D01*
X65338268Y-110566200D02*
X65290649Y-110518580D01*
X65290649Y-110518580D02*
X65243030Y-110423342D01*
X65243030Y-110423342D02*
X65243030Y-110185247D01*
X65243030Y-110185247D02*
X65290649Y-110090009D01*
X65290649Y-110090009D02*
X65338268Y-110042390D01*
X65338268Y-110042390D02*
X65433506Y-109994771D01*
X65433506Y-109994771D02*
X65623982Y-109994771D01*
X65623982Y-109994771D02*
X65719220Y-110042390D01*
X65719220Y-110042390D02*
X65766839Y-110090009D01*
X65766839Y-110090009D02*
X65814458Y-110185247D01*
X61559839Y-102851057D02*
X61512220Y-102803438D01*
X61512220Y-102803438D02*
X61416982Y-102755819D01*
X61416982Y-102755819D02*
X61178887Y-102755819D01*
X61178887Y-102755819D02*
X61083649Y-102803438D01*
X61083649Y-102803438D02*
X61036030Y-102851057D01*
X61036030Y-102851057D02*
X60988411Y-102946295D01*
X60988411Y-102946295D02*
X60988411Y-103041533D01*
X60988411Y-103041533D02*
X61036030Y-103184390D01*
X61036030Y-103184390D02*
X61607458Y-103755819D01*
X61607458Y-103755819D02*
X60988411Y-103755819D01*
X60416982Y-103184390D02*
X60512220Y-103136771D01*
X60512220Y-103136771D02*
X60559839Y-103089152D01*
X60559839Y-103089152D02*
X60607458Y-102993914D01*
X60607458Y-102993914D02*
X60607458Y-102946295D01*
X60607458Y-102946295D02*
X60559839Y-102851057D01*
X60559839Y-102851057D02*
X60512220Y-102803438D01*
X60512220Y-102803438D02*
X60416982Y-102755819D01*
X60416982Y-102755819D02*
X60226506Y-102755819D01*
X60226506Y-102755819D02*
X60131268Y-102803438D01*
X60131268Y-102803438D02*
X60083649Y-102851057D01*
X60083649Y-102851057D02*
X60036030Y-102946295D01*
X60036030Y-102946295D02*
X60036030Y-102993914D01*
X60036030Y-102993914D02*
X60083649Y-103089152D01*
X60083649Y-103089152D02*
X60131268Y-103136771D01*
X60131268Y-103136771D02*
X60226506Y-103184390D01*
X60226506Y-103184390D02*
X60416982Y-103184390D01*
X60416982Y-103184390D02*
X60512220Y-103232009D01*
X60512220Y-103232009D02*
X60559839Y-103279628D01*
X60559839Y-103279628D02*
X60607458Y-103374866D01*
X60607458Y-103374866D02*
X60607458Y-103565342D01*
X60607458Y-103565342D02*
X60559839Y-103660580D01*
X60559839Y-103660580D02*
X60512220Y-103708200D01*
X60512220Y-103708200D02*
X60416982Y-103755819D01*
X60416982Y-103755819D02*
X60226506Y-103755819D01*
X60226506Y-103755819D02*
X60131268Y-103708200D01*
X60131268Y-103708200D02*
X60083649Y-103660580D01*
X60083649Y-103660580D02*
X60036030Y-103565342D01*
X60036030Y-103565342D02*
X60036030Y-103374866D01*
X60036030Y-103374866D02*
X60083649Y-103279628D01*
X60083649Y-103279628D02*
X60131268Y-103232009D01*
X60131268Y-103232009D02*
X60226506Y-103184390D01*
X64274458Y-109613819D02*
X63655411Y-109613819D01*
X63655411Y-109613819D02*
X63988744Y-109994771D01*
X63988744Y-109994771D02*
X63845887Y-109994771D01*
X63845887Y-109994771D02*
X63750649Y-110042390D01*
X63750649Y-110042390D02*
X63703030Y-110090009D01*
X63703030Y-110090009D02*
X63655411Y-110185247D01*
X63655411Y-110185247D02*
X63655411Y-110423342D01*
X63655411Y-110423342D02*
X63703030Y-110518580D01*
X63703030Y-110518580D02*
X63750649Y-110566200D01*
X63750649Y-110566200D02*
X63845887Y-110613819D01*
X63845887Y-110613819D02*
X64131601Y-110613819D01*
X64131601Y-110613819D02*
X64226839Y-110566200D01*
X64226839Y-110566200D02*
X64274458Y-110518580D01*
X63179220Y-110613819D02*
X62988744Y-110613819D01*
X62988744Y-110613819D02*
X62893506Y-110566200D01*
X62893506Y-110566200D02*
X62845887Y-110518580D01*
X62845887Y-110518580D02*
X62750649Y-110375723D01*
X62750649Y-110375723D02*
X62703030Y-110185247D01*
X62703030Y-110185247D02*
X62703030Y-109804295D01*
X62703030Y-109804295D02*
X62750649Y-109709057D01*
X62750649Y-109709057D02*
X62798268Y-109661438D01*
X62798268Y-109661438D02*
X62893506Y-109613819D01*
X62893506Y-109613819D02*
X63083982Y-109613819D01*
X63083982Y-109613819D02*
X63179220Y-109661438D01*
X63179220Y-109661438D02*
X63226839Y-109709057D01*
X63226839Y-109709057D02*
X63274458Y-109804295D01*
X63274458Y-109804295D02*
X63274458Y-110042390D01*
X63274458Y-110042390D02*
X63226839Y-110137628D01*
X63226839Y-110137628D02*
X63179220Y-110185247D01*
X63179220Y-110185247D02*
X63083982Y-110232866D01*
X63083982Y-110232866D02*
X62893506Y-110232866D01*
X62893506Y-110232866D02*
X62798268Y-110185247D01*
X62798268Y-110185247D02*
X62750649Y-110137628D01*
X62750649Y-110137628D02*
X62703030Y-110042390D01*
X71910411Y-109661438D02*
X72005649Y-109613819D01*
X72005649Y-109613819D02*
X72148506Y-109613819D01*
X72148506Y-109613819D02*
X72291363Y-109661438D01*
X72291363Y-109661438D02*
X72386601Y-109756676D01*
X72386601Y-109756676D02*
X72434220Y-109851914D01*
X72434220Y-109851914D02*
X72481839Y-110042390D01*
X72481839Y-110042390D02*
X72481839Y-110185247D01*
X72481839Y-110185247D02*
X72434220Y-110375723D01*
X72434220Y-110375723D02*
X72386601Y-110470961D01*
X72386601Y-110470961D02*
X72291363Y-110566200D01*
X72291363Y-110566200D02*
X72148506Y-110613819D01*
X72148506Y-110613819D02*
X72053268Y-110613819D01*
X72053268Y-110613819D02*
X71910411Y-110566200D01*
X71910411Y-110566200D02*
X71862792Y-110518580D01*
X71862792Y-110518580D02*
X71862792Y-110185247D01*
X71862792Y-110185247D02*
X72053268Y-110185247D01*
X70862792Y-110613819D02*
X71196125Y-110137628D01*
X71434220Y-110613819D02*
X71434220Y-109613819D01*
X71434220Y-109613819D02*
X71053268Y-109613819D01*
X71053268Y-109613819D02*
X70958030Y-109661438D01*
X70958030Y-109661438D02*
X70910411Y-109709057D01*
X70910411Y-109709057D02*
X70862792Y-109804295D01*
X70862792Y-109804295D02*
X70862792Y-109947152D01*
X70862792Y-109947152D02*
X70910411Y-110042390D01*
X70910411Y-110042390D02*
X70958030Y-110090009D01*
X70958030Y-110090009D02*
X71053268Y-110137628D01*
X71053268Y-110137628D02*
X71434220Y-110137628D01*
X70434220Y-110613819D02*
X70434220Y-109613819D01*
X70434220Y-109613819D02*
X70196125Y-109613819D01*
X70196125Y-109613819D02*
X70053268Y-109661438D01*
X70053268Y-109661438D02*
X69958030Y-109756676D01*
X69958030Y-109756676D02*
X69910411Y-109851914D01*
X69910411Y-109851914D02*
X69862792Y-110042390D01*
X69862792Y-110042390D02*
X69862792Y-110185247D01*
X69862792Y-110185247D02*
X69910411Y-110375723D01*
X69910411Y-110375723D02*
X69958030Y-110470961D01*
X69958030Y-110470961D02*
X70053268Y-110566200D01*
X70053268Y-110566200D02*
X70196125Y-110613819D01*
X70196125Y-110613819D02*
X70434220Y-110613819D01*
X68687792Y-110518580D02*
X68735411Y-110566200D01*
X68735411Y-110566200D02*
X68878268Y-110613819D01*
X68878268Y-110613819D02*
X68973506Y-110613819D01*
X68973506Y-110613819D02*
X69116363Y-110566200D01*
X69116363Y-110566200D02*
X69211601Y-110470961D01*
X69211601Y-110470961D02*
X69259220Y-110375723D01*
X69259220Y-110375723D02*
X69306839Y-110185247D01*
X69306839Y-110185247D02*
X69306839Y-110042390D01*
X69306839Y-110042390D02*
X69259220Y-109851914D01*
X69259220Y-109851914D02*
X69211601Y-109756676D01*
X69211601Y-109756676D02*
X69116363Y-109661438D01*
X69116363Y-109661438D02*
X68973506Y-109613819D01*
X68973506Y-109613819D02*
X68878268Y-109613819D01*
X68878268Y-109613819D02*
X68735411Y-109661438D01*
X68735411Y-109661438D02*
X68687792Y-109709057D01*
X67735411Y-110613819D02*
X68306839Y-110613819D01*
X68021125Y-110613819D02*
X68021125Y-109613819D01*
X68021125Y-109613819D02*
X68116363Y-109756676D01*
X68116363Y-109756676D02*
X68211601Y-109851914D01*
X68211601Y-109851914D02*
X68306839Y-109899533D01*
X63623649Y-103089152D02*
X63623649Y-103755819D01*
X63861744Y-102708200D02*
X64099839Y-103422485D01*
X64099839Y-103422485D02*
X63480792Y-103422485D01*
X62909363Y-102755819D02*
X62814125Y-102755819D01*
X62814125Y-102755819D02*
X62718887Y-102803438D01*
X62718887Y-102803438D02*
X62671268Y-102851057D01*
X62671268Y-102851057D02*
X62623649Y-102946295D01*
X62623649Y-102946295D02*
X62576030Y-103136771D01*
X62576030Y-103136771D02*
X62576030Y-103374866D01*
X62576030Y-103374866D02*
X62623649Y-103565342D01*
X62623649Y-103565342D02*
X62671268Y-103660580D01*
X62671268Y-103660580D02*
X62718887Y-103708200D01*
X62718887Y-103708200D02*
X62814125Y-103755819D01*
X62814125Y-103755819D02*
X62909363Y-103755819D01*
X62909363Y-103755819D02*
X63004601Y-103708200D01*
X63004601Y-103708200D02*
X63052220Y-103660580D01*
X63052220Y-103660580D02*
X63099839Y-103565342D01*
X63099839Y-103565342D02*
X63147458Y-103374866D01*
X63147458Y-103374866D02*
X63147458Y-103136771D01*
X63147458Y-103136771D02*
X63099839Y-102946295D01*
X63099839Y-102946295D02*
X63052220Y-102851057D01*
X63052220Y-102851057D02*
X63004601Y-102803438D01*
X63004601Y-102803438D02*
X62909363Y-102755819D01*
X65782649Y-102755819D02*
X65973125Y-102755819D01*
X65973125Y-102755819D02*
X66068363Y-102803438D01*
X66068363Y-102803438D02*
X66115982Y-102851057D01*
X66115982Y-102851057D02*
X66211220Y-102993914D01*
X66211220Y-102993914D02*
X66258839Y-103184390D01*
X66258839Y-103184390D02*
X66258839Y-103565342D01*
X66258839Y-103565342D02*
X66211220Y-103660580D01*
X66211220Y-103660580D02*
X66163601Y-103708200D01*
X66163601Y-103708200D02*
X66068363Y-103755819D01*
X66068363Y-103755819D02*
X65877887Y-103755819D01*
X65877887Y-103755819D02*
X65782649Y-103708200D01*
X65782649Y-103708200D02*
X65735030Y-103660580D01*
X65735030Y-103660580D02*
X65687411Y-103565342D01*
X65687411Y-103565342D02*
X65687411Y-103327247D01*
X65687411Y-103327247D02*
X65735030Y-103232009D01*
X65735030Y-103232009D02*
X65782649Y-103184390D01*
X65782649Y-103184390D02*
X65877887Y-103136771D01*
X65877887Y-103136771D02*
X66068363Y-103136771D01*
X66068363Y-103136771D02*
X66163601Y-103184390D01*
X66163601Y-103184390D02*
X66211220Y-103232009D01*
X66211220Y-103232009D02*
X66258839Y-103327247D01*
M02*
