M48
; DRILL file {KiCad 8.0.2} date 2024-05-27T15:35:03-0700
; FORMAT={-:-/ absolute / inch / decimal}
; #@! TF.CreationDate,2024-05-27T15:35:03-07:00
; #@! TF.GenerationSoftware,Kicad,Pcbnew,8.0.2
; #@! TF.FileFunction,Plated,1,2,PTH
FMAT,2
INCH
; #@! TA.AperFunction,Plated,PTH,ViaDrill
T1C0.0157
; #@! TA.AperFunction,Plated,PTH,ComponentDrill
T2C0.0197
; #@! TA.AperFunction,Plated,PTH,ComponentDrill
T3C0.0276
; #@! TA.AperFunction,Plated,PTH,ComponentDrill
T4C0.0300
; #@! TA.AperFunction,Plated,PTH,ViaDrill
T5C0.0315
; #@! TA.AperFunction,Plated,PTH,ComponentDrill
T6C0.0315
; #@! TA.AperFunction,Plated,PTH,ComponentDrill
T7C0.0354
; #@! TA.AperFunction,Plated,PTH,ComponentDrill
T8C0.0394
; #@! TA.AperFunction,Plated,PTH,ComponentDrill
T9C0.0433
; #@! TA.AperFunction,Plated,PTH,ComponentDrill
T10C0.1063
%
G90
G05
T1
X5.0233Y-3.1741
X5.3935Y-3.2241
X5.4033Y-4.0841
X5.6833Y-4.4341
X5.7833Y-3.1285
X5.7833Y-4.4341
T2
X5.2233Y-3.3467
X5.2233Y-3.4215
T3
X6.3933Y-3.8641
X6.3933Y-4.0641
T4
X4.7033Y-4.9817
X4.8017Y-4.7829
X4.8983Y-4.9817
X4.9967Y-4.7829
T5
X4.8705Y-4.9129
X5.0717Y-4.9129
X5.1983Y-4.3691
X5.9878Y-4.4691
T6
X4.7933Y-2.2241
X4.7933Y-2.3241
X4.7933Y-2.4241
X4.7933Y-2.5241
X4.7933Y-2.6241
X4.7933Y-2.7241
X4.7933Y-2.8241
X4.7933Y-2.9241
X4.7933Y-3.0241
X4.7933Y-3.1241
X4.7933Y-3.2241
X4.7933Y-3.3241
X4.7933Y-3.4241
X4.7933Y-3.5241
X4.8333Y-4.5641
X5.0933Y-2.2241
X5.0933Y-2.3241
X5.0933Y-2.4241
X5.0933Y-2.5241
X5.0933Y-2.6241
X5.0933Y-2.7241
X5.0933Y-2.8241
X5.0933Y-2.9241
X5.0933Y-3.0241
X5.0933Y-3.1241
X5.0933Y-3.2241
X5.0933Y-3.3241
X5.0933Y-3.4241
X5.0933Y-3.5241
X5.1333Y-4.5641
X5.143Y-4.7441
X5.143Y-5.0441
X5.1941Y-3.6941
X5.2041Y-3.1691
X5.2133Y-2.9248
X5.2133Y-3.0233
X5.243Y-4.7441
X5.243Y-5.0441
X5.2433Y-4.2941
X5.2433Y-4.5941
X5.2833Y-3.8441
X5.2833Y-3.9425
X5.2926Y-3.6941
X5.3026Y-3.1691
X5.343Y-4.7441
X5.343Y-5.0441
X5.3433Y-4.2941
X5.3433Y-4.5941
X5.3933Y-4.1741
X5.4233Y-3.3241
X5.4233Y-3.4541
X5.4233Y-3.5841
X5.4233Y-3.7141
X5.443Y-4.7441
X5.443Y-5.0441
X5.4433Y-4.2941
X5.4433Y-4.5941
X5.4933Y-4.1741
X5.5683Y-4.2941
X5.5683Y-4.5941
X5.5833Y-2.8441
X5.5833Y-2.9641
X5.5833Y-3.0841
X5.5833Y-3.2041
X5.5933Y-4.1741
X5.5941Y-2.7041
X5.6333Y-4.7441
X5.6333Y-5.0441
X5.6926Y-2.7041
X5.693Y-4.2941
X5.693Y-4.5941
X5.6933Y-4.1741
X5.7233Y-3.3241
X5.7233Y-3.4541
X5.7233Y-3.5841
X5.7233Y-3.7141
X5.7333Y-4.7441
X5.7333Y-5.0441
X5.7833Y-2.7041
X5.793Y-4.2941
X5.793Y-4.5941
X5.7933Y-4.1741
X5.8333Y-4.7441
X5.8333Y-5.0441
X5.8833Y-2.8441
X5.8833Y-2.9641
X5.8833Y-3.0841
X5.8833Y-3.2041
X5.8833Y-3.4476
X5.8833Y-3.6397
X5.893Y-4.2941
X5.893Y-4.5941
X5.8933Y-4.1741
X5.9333Y-4.7441
X5.9333Y-5.0441
X5.993Y-4.2941
X5.993Y-4.5941
X5.9933Y-4.1741
X6.0833Y-2.7041
X6.0933Y-2.9541
X6.0933Y-3.0541
X6.0933Y-3.1541
X6.0933Y-3.2541
X6.0933Y-3.3541
X6.0933Y-3.4541
X6.0933Y-3.5541
X6.0933Y-3.6541
X6.0933Y-3.7541
X6.0933Y-4.1741
X6.1233Y-4.2941
X6.1233Y-4.5941
X6.1233Y-4.7441
X6.1233Y-5.0441
X6.1933Y-2.4341
X6.1933Y-2.7341
X6.1933Y-4.1741
X6.2233Y-4.2941
X6.2233Y-4.5941
X6.2233Y-4.7441
X6.2233Y-5.0441
X6.2933Y-4.1741
X6.2941Y-2.8341
X6.3133Y-2.4341
X6.3133Y-2.7341
X6.3233Y-4.2941
X6.3233Y-4.5941
X6.3233Y-4.7441
X6.3233Y-5.0441
X6.3926Y-2.8341
X6.3933Y-2.9541
X6.3933Y-3.0541
X6.3933Y-3.1541
X6.3933Y-3.2541
X6.3933Y-3.3541
X6.3933Y-3.4541
X6.3933Y-3.5541
X6.3933Y-3.6541
X6.3933Y-3.7541
X6.3933Y-4.1741
X6.4233Y-4.2941
X6.4233Y-4.5941
X6.4233Y-4.7441
X6.4233Y-5.0441
X6.4333Y-2.4391
X6.4333Y-2.7391
T7
X5.9533Y-2.3841
X6.0533Y-2.3841
T8
X4.8933Y-3.6941
X4.8933Y-3.7941
X4.8933Y-3.8941
X4.8933Y-3.9941
X4.8933Y-4.1941
X4.8933Y-4.2941
X4.8933Y-4.3941
X5.154Y-5.1774
X5.154Y-5.2774
X5.2533Y-2.5741
X5.254Y-5.1774
X5.254Y-5.2774
X5.3533Y-2.5741
X5.354Y-5.1774
X5.354Y-5.2774
X5.3633Y-2.7241
X5.3633Y-2.9239
X5.3633Y-3.0239
X5.4533Y-2.5741
X5.454Y-5.1774
X5.454Y-5.2774
X5.4633Y-2.7241
X5.5333Y-3.8441
X5.5333Y-4.0409
X5.5533Y-2.5741
X5.554Y-5.1774
X5.554Y-5.2774
X5.6533Y-2.5741
X5.654Y-5.1774
X5.654Y-5.2774
X5.7533Y-2.5741
X5.754Y-5.1774
X5.754Y-5.2774
X5.7633Y-3.8456
X5.7633Y-4.0425
X5.854Y-5.1774
X5.854Y-5.2774
X5.954Y-5.1774
X5.954Y-5.2774
X6.054Y-5.1774
X6.054Y-5.2774
T9
X5.9333Y-3.9041
X5.9333Y-4.0341
X6.2333Y-3.9041
X6.2333Y-4.0341
T10
X4.7942Y-5.2381
X6.4083Y-2.2641
X6.4083Y-5.2381
M30
