G04 #@! TF.GenerationSoftware,KiCad,Pcbnew,8.0.1*
G04 #@! TF.CreationDate,2024-03-23T10:20:47-07:00*
G04 #@! TF.ProjectId,we755a_dtmf,77653735-3561-45f6-9474-6d662e6b6963,2*
G04 #@! TF.SameCoordinates,Original*
G04 #@! TF.FileFunction,Copper,L2,Bot*
G04 #@! TF.FilePolarity,Positive*
%FSLAX46Y46*%
G04 Gerber Fmt 4.6, Leading zero omitted, Abs format (unit mm)*
G04 Created by KiCad (PCBNEW 8.0.1) date 2024-03-23 10:20:47*
%MOMM*%
%LPD*%
G01*
G04 APERTURE LIST*
G04 #@! TA.AperFunction,ComponentPad*
%ADD10R,1.600000X1.600000*%
G04 #@! TD*
G04 #@! TA.AperFunction,ComponentPad*
%ADD11O,1.600000X1.600000*%
G04 #@! TD*
G04 #@! TA.AperFunction,ComponentPad*
%ADD12C,1.600000*%
G04 #@! TD*
G04 #@! TA.AperFunction,ComponentPad*
%ADD13C,1.500000*%
G04 #@! TD*
G04 #@! TA.AperFunction,ComponentPad*
%ADD14R,3.000000X1.500000*%
G04 #@! TD*
G04 #@! TA.AperFunction,ComponentPad*
%ADD15O,3.000000X1.500000*%
G04 #@! TD*
G04 #@! TA.AperFunction,ComponentPad*
%ADD16R,1.800000X1.800000*%
G04 #@! TD*
G04 #@! TA.AperFunction,ComponentPad*
%ADD17C,1.800000*%
G04 #@! TD*
G04 #@! TA.AperFunction,ComponentPad*
%ADD18C,1.000000*%
G04 #@! TD*
G04 #@! TA.AperFunction,ComponentPad*
%ADD19C,2.000000*%
G04 #@! TD*
G04 #@! TA.AperFunction,ComponentPad*
%ADD20R,1.700000X1.700000*%
G04 #@! TD*
G04 #@! TA.AperFunction,ComponentPad*
%ADD21O,1.700000X1.700000*%
G04 #@! TD*
G04 #@! TA.AperFunction,ComponentPad*
%ADD22C,5.400000*%
G04 #@! TD*
G04 #@! TA.AperFunction,ComponentPad*
%ADD23R,2.200000X2.200000*%
G04 #@! TD*
G04 #@! TA.AperFunction,ComponentPad*
%ADD24O,2.200000X2.200000*%
G04 #@! TD*
G04 #@! TA.AperFunction,ViaPad*
%ADD25C,1.600000*%
G04 #@! TD*
G04 #@! TA.AperFunction,ViaPad*
%ADD26C,0.800000*%
G04 #@! TD*
G04 #@! TA.AperFunction,Conductor*
%ADD27C,0.500000*%
G04 #@! TD*
G04 #@! TA.AperFunction,Conductor*
%ADD28C,0.250000*%
G04 #@! TD*
G04 APERTURE END LIST*
D10*
X54610000Y-82550000D03*
D11*
X52070000Y-82550000D03*
X49530000Y-82550000D03*
X49530000Y-90170000D03*
X52070000Y-90170000D03*
X54610000Y-90170000D03*
D12*
X80010000Y-38100000D03*
D11*
X80010000Y-30480000D03*
D12*
X73660000Y-30480000D03*
D11*
X73660000Y-38100000D03*
D10*
X76835000Y-38100000D03*
D11*
X76835000Y-30480000D03*
D12*
X43180000Y-92075000D03*
D11*
X43180000Y-104775000D03*
D13*
X68326000Y-61050000D03*
X68326000Y-65930000D03*
D14*
X40640000Y-85090000D03*
D15*
X40640000Y-82550000D03*
X40640000Y-80010000D03*
X40640000Y-74930000D03*
X40640000Y-72390000D03*
X40640000Y-69850000D03*
X40640000Y-67310000D03*
D10*
X67310000Y-93980000D03*
D11*
X64770000Y-93980000D03*
X62230000Y-93980000D03*
X59690000Y-93980000D03*
X59690000Y-101600000D03*
X62230000Y-101600000D03*
X64770000Y-101600000D03*
X67310000Y-101600000D03*
D12*
X68580000Y-44450000D03*
D11*
X60960000Y-44450000D03*
D16*
X67432000Y-31115000D03*
D17*
X69972000Y-31115000D03*
D12*
X68580000Y-52070000D03*
D11*
X60960000Y-52070000D03*
D12*
X62865000Y-66675000D03*
D11*
X55245000Y-66675000D03*
D12*
X60980000Y-36830000D03*
X63480000Y-36830000D03*
X39370000Y-92075000D03*
D11*
X39370000Y-104775000D03*
D18*
X49022000Y-56200000D03*
X49022000Y-58100000D03*
D19*
X63500000Y-71120000D03*
X63500000Y-76120000D03*
D10*
X67310000Y-82550000D03*
D11*
X64770000Y-82550000D03*
X62230000Y-82550000D03*
X59690000Y-82550000D03*
X59690000Y-90170000D03*
X62230000Y-90170000D03*
X64770000Y-90170000D03*
X67310000Y-90170000D03*
D12*
X68580000Y-40640000D03*
D11*
X60960000Y-40640000D03*
D10*
X54600000Y-93980000D03*
D11*
X52060000Y-93980000D03*
X49520000Y-93980000D03*
X46980000Y-93980000D03*
X46980000Y-101600000D03*
X49520000Y-101600000D03*
X52060000Y-101600000D03*
X54600000Y-101600000D03*
D12*
X48534000Y-53975000D03*
X51034000Y-53975000D03*
D10*
X80010000Y-82550000D03*
D11*
X77470000Y-82550000D03*
X74930000Y-82550000D03*
X72390000Y-82550000D03*
X72390000Y-90170000D03*
X74930000Y-90170000D03*
X77470000Y-90170000D03*
X80010000Y-90170000D03*
D12*
X68580000Y-48260000D03*
D11*
X60960000Y-48260000D03*
D20*
X50800000Y-33585000D03*
D21*
X53340000Y-33585000D03*
X55880000Y-33585000D03*
X58420000Y-33585000D03*
X60960000Y-33585000D03*
X63500000Y-33585000D03*
D12*
X72390000Y-26162000D03*
D11*
X80010000Y-26162000D03*
D12*
X62865000Y-60325000D03*
D11*
X55245000Y-60325000D03*
D20*
X71120000Y-105410000D03*
D21*
X71120000Y-107950000D03*
X68580000Y-105410000D03*
X68580000Y-107950000D03*
X66040000Y-105410000D03*
X66040000Y-107950000D03*
X63500000Y-105410000D03*
X63500000Y-107950000D03*
X60960000Y-105410000D03*
X60960000Y-107950000D03*
X58420000Y-105410000D03*
X58420000Y-107950000D03*
X55880000Y-105410000D03*
X55880000Y-107950000D03*
X53340000Y-105410000D03*
X53340000Y-107950000D03*
X50800000Y-105410000D03*
X50800000Y-107950000D03*
X48260000Y-105410000D03*
X48260000Y-107950000D03*
D10*
X50800000Y-73660000D03*
D12*
X50800000Y-71160000D03*
X62865000Y-63500000D03*
D11*
X55245000Y-63500000D03*
D12*
X39116000Y-89408000D03*
D11*
X46736000Y-89408000D03*
D12*
X56134000Y-51181000D03*
D11*
X48514000Y-51181000D03*
D22*
X36195000Y-108585000D03*
D12*
X76200000Y-40640000D03*
X78700000Y-40640000D03*
D10*
X80010000Y-93980000D03*
D11*
X77470000Y-93980000D03*
X74930000Y-93980000D03*
X72390000Y-93980000D03*
X72390000Y-101600000D03*
X74930000Y-101600000D03*
X77470000Y-101600000D03*
X80010000Y-101600000D03*
D22*
X80645000Y-108585000D03*
D23*
X76200000Y-71247000D03*
D24*
X68580000Y-71247000D03*
D19*
X57150000Y-71120000D03*
X57150000Y-76120000D03*
D10*
X72390000Y-44450000D03*
D11*
X72390000Y-46990000D03*
X72390000Y-49530000D03*
X72390000Y-52070000D03*
X72390000Y-54610000D03*
X72390000Y-57150000D03*
X72390000Y-59690000D03*
X72390000Y-62230000D03*
X72390000Y-64770000D03*
X80010000Y-64770000D03*
X80010000Y-62230000D03*
X80010000Y-59690000D03*
X80010000Y-57150000D03*
X80010000Y-54610000D03*
X80010000Y-52070000D03*
X80010000Y-49530000D03*
X80010000Y-46990000D03*
X80010000Y-44450000D03*
D10*
X53340000Y-79502000D03*
D11*
X55880000Y-79502000D03*
X58420000Y-79502000D03*
X60960000Y-79502000D03*
X63500000Y-79502000D03*
X66040000Y-79502000D03*
X68580000Y-79502000D03*
X71120000Y-79502000D03*
X73660000Y-79502000D03*
X76200000Y-79502000D03*
X78740000Y-79502000D03*
D20*
X57150000Y-44450000D03*
D21*
X57150000Y-46990000D03*
X54610000Y-44450000D03*
X54610000Y-46990000D03*
X52070000Y-44450000D03*
X52070000Y-46990000D03*
D12*
X60960000Y-55880000D03*
D11*
X68580000Y-55880000D03*
D12*
X48895000Y-48260000D03*
X48895000Y-45760000D03*
D10*
X38100000Y-27940000D03*
D11*
X38100000Y-30480000D03*
X38100000Y-33020000D03*
X38100000Y-35560000D03*
X38100000Y-38100000D03*
X38100000Y-40640000D03*
X38100000Y-43180000D03*
X38100000Y-45720000D03*
X38100000Y-48260000D03*
X38100000Y-50800000D03*
X38100000Y-53340000D03*
X38100000Y-55880000D03*
X38100000Y-58420000D03*
X38100000Y-60960000D03*
X45720000Y-60960000D03*
X45720000Y-58420000D03*
X45720000Y-55880000D03*
X45720000Y-53340000D03*
X45720000Y-50800000D03*
X45720000Y-48260000D03*
X45720000Y-45720000D03*
X45720000Y-43180000D03*
X45720000Y-40640000D03*
X45720000Y-38100000D03*
X45720000Y-35560000D03*
X45720000Y-33020000D03*
X45720000Y-30480000D03*
X45720000Y-27940000D03*
D12*
X52050000Y-67310000D03*
X49550000Y-67310000D03*
D23*
X76200000Y-75057000D03*
D24*
X68580000Y-75057000D03*
D25*
X52613405Y-51272595D03*
D26*
X53340000Y-50038000D03*
X60960000Y-58166000D03*
X42164000Y-94869000D03*
X43688000Y-76708000D03*
X53594000Y-77216000D03*
X59690000Y-87122000D03*
X63246000Y-86614000D03*
X62357000Y-34832300D03*
D27*
X50800000Y-68560000D02*
X49550000Y-67310000D01*
X49550000Y-63480000D02*
X59055000Y-53975000D01*
X49550000Y-64790000D02*
X45720000Y-60960000D01*
X48895000Y-45760000D02*
X50840000Y-45760000D01*
X59055000Y-53975000D02*
X51034000Y-53975000D01*
X73643200Y-63516800D02*
X72390000Y-64770000D01*
X63500000Y-33585000D02*
X63500000Y-36810000D01*
X52613405Y-51272595D02*
X52613405Y-52395595D01*
X45720000Y-69850000D02*
X47030000Y-71160000D01*
X63500000Y-36810000D02*
X63480000Y-36830000D01*
X59690000Y-40137707D02*
X60440907Y-39386800D01*
X50800000Y-71160000D02*
X50800000Y-68560000D01*
X40640000Y-69850000D02*
X45720000Y-69850000D01*
X60440907Y-39386800D02*
X61197200Y-39386800D01*
X50840000Y-45760000D02*
X52070000Y-46990000D01*
X48855000Y-45720000D02*
X48895000Y-45760000D01*
X60960000Y-52070000D02*
X59690000Y-50800000D01*
X60960000Y-52070000D02*
X59055000Y-53975000D01*
X52613405Y-52395595D02*
X51034000Y-53975000D01*
X49550000Y-67310000D02*
X49550000Y-64790000D01*
X63480000Y-37104000D02*
X63480000Y-36830000D01*
X47030000Y-71160000D02*
X50800000Y-71160000D01*
X59690000Y-50800000D02*
X59690000Y-40137707D01*
X61197200Y-39386800D02*
X63480000Y-37104000D01*
X73643200Y-58403200D02*
X73643200Y-63516800D01*
X72390000Y-57150000D02*
X73643200Y-58403200D01*
X49550000Y-64790000D02*
X49550000Y-63480000D01*
X45720000Y-45720000D02*
X48855000Y-45720000D01*
X60980000Y-36830000D02*
X60980000Y-36145000D01*
X37614507Y-49513200D02*
X41926800Y-49513200D01*
X50800000Y-48895000D02*
X57150000Y-48895000D01*
X44450000Y-72390000D02*
X45720000Y-73660000D01*
X41926800Y-49513200D02*
X43180000Y-48260000D01*
X48895000Y-48260000D02*
X50165000Y-48260000D01*
X58453200Y-45686800D02*
X58453200Y-39403200D01*
X81534000Y-38937370D02*
X81534000Y-27686000D01*
X57150000Y-48895000D02*
X57150000Y-50800000D01*
X45720000Y-48260000D02*
X48895000Y-48260000D01*
X78700000Y-40640000D02*
X79831370Y-40640000D01*
X51435000Y-73660000D02*
X52070000Y-73025000D01*
X78700000Y-40640000D02*
X78700000Y-43140000D01*
X50800000Y-73660000D02*
X51435000Y-73660000D01*
X43180000Y-48260000D02*
X45720000Y-48260000D01*
X56769000Y-51181000D02*
X57150000Y-50800000D01*
X40640000Y-72390000D02*
X44450000Y-72390000D01*
X45720000Y-73660000D02*
X50800000Y-73660000D01*
X81788000Y-46228000D02*
X80010000Y-44450000D01*
X80010000Y-64770000D02*
X81026000Y-64770000D01*
X81026000Y-64770000D02*
X81788000Y-64008000D01*
X36846800Y-50280907D02*
X37614507Y-49513200D01*
X81788000Y-64008000D02*
X81788000Y-46228000D01*
X79831370Y-40640000D02*
X81534000Y-38937370D01*
X81534000Y-27686000D02*
X77978000Y-24130000D01*
X36846800Y-59706800D02*
X36846800Y-50280907D01*
X58453200Y-39403200D02*
X58430000Y-39380000D01*
X66040000Y-24130000D02*
X58420000Y-31750000D01*
X50165000Y-48260000D02*
X50800000Y-48895000D01*
X38100000Y-60960000D02*
X36846800Y-59706800D01*
X60980000Y-36830000D02*
X58430000Y-39380000D01*
X52050000Y-67310000D02*
X52070000Y-67330000D01*
X58420000Y-31750000D02*
X58420000Y-33585000D01*
X60980000Y-36145000D02*
X58420000Y-33585000D01*
X38100000Y-71120000D02*
X38100000Y-60960000D01*
X57150000Y-46990000D02*
X58453200Y-45686800D01*
X56134000Y-51181000D02*
X56769000Y-51181000D01*
X40640000Y-72390000D02*
X39370000Y-72390000D01*
X52070000Y-67330000D02*
X52070000Y-73025000D01*
X78700000Y-43140000D02*
X80010000Y-44450000D01*
X57150000Y-48895000D02*
X57150000Y-46990000D01*
X39370000Y-72390000D02*
X38100000Y-71120000D01*
X77978000Y-24130000D02*
X66040000Y-24130000D01*
D28*
X57150000Y-76120000D02*
X49530000Y-76120000D01*
X45466000Y-101681516D02*
X46512684Y-102728200D01*
X46512684Y-102728200D02*
X47610200Y-102728200D01*
X49530000Y-76120000D02*
X45466000Y-80184000D01*
X50292000Y-105410000D02*
X50800000Y-105410000D01*
X47610200Y-102728200D02*
X50292000Y-105410000D01*
X45466000Y-80184000D02*
X45466000Y-101681516D01*
X47660200Y-106588200D02*
X44704000Y-103632000D01*
X50800000Y-107950000D02*
X49438200Y-106588200D01*
X62168200Y-74788200D02*
X63500000Y-76120000D01*
X49671800Y-74788200D02*
X62168200Y-74788200D01*
X44704000Y-79756000D02*
X49671800Y-74788200D01*
X49438200Y-106588200D02*
X47660200Y-106588200D01*
X44704000Y-103632000D02*
X44704000Y-79756000D01*
X48534000Y-51201000D02*
X48514000Y-51181000D01*
X48534000Y-53975000D02*
X48534000Y-51201000D01*
X47899000Y-53340000D02*
X48534000Y-53975000D01*
X45720000Y-53340000D02*
X47899000Y-53340000D01*
X53325200Y-50052800D02*
X46467200Y-50052800D01*
X53340000Y-50038000D02*
X53325200Y-50052800D01*
X46467200Y-50052800D02*
X45720000Y-50800000D01*
X51975001Y-32220001D02*
X53340000Y-33585000D01*
X45720000Y-33020000D02*
X46519999Y-32220001D01*
X46519999Y-32220001D02*
X51975001Y-32220001D01*
X52775000Y-30480000D02*
X55880000Y-33585000D01*
X45720000Y-30480000D02*
X52775000Y-30480000D01*
X55880000Y-63500000D02*
X55245000Y-63500000D01*
X63500000Y-71120000D02*
X55880000Y-63500000D01*
X57150000Y-71120000D02*
X55245000Y-69215000D01*
X55245000Y-69215000D02*
X55245000Y-66675000D01*
X76200000Y-71247000D02*
X76200000Y-75057000D01*
X76835000Y-38100000D02*
X80010000Y-38100000D01*
X80010000Y-46990000D02*
X76200000Y-43180000D01*
X76200000Y-38735000D02*
X76835000Y-38100000D01*
X76200000Y-43180000D02*
X76200000Y-40640000D01*
X76200000Y-40640000D02*
X76200000Y-38735000D01*
X73660000Y-30480000D02*
X76835000Y-30480000D01*
X69972000Y-30480000D02*
X69972000Y-28580000D01*
X69972000Y-28580000D02*
X72390000Y-26162000D01*
X64770000Y-44450000D02*
X64770000Y-52070000D01*
X59690000Y-55372000D02*
X59690000Y-56896000D01*
X62088200Y-54751800D02*
X60310200Y-54751800D01*
X66675000Y-74295000D02*
X67437000Y-75057000D01*
X60960000Y-40640000D02*
X64770000Y-44450000D01*
X62865000Y-66675000D02*
X66675000Y-70485000D01*
X66675000Y-70485000D02*
X66675000Y-74295000D01*
X67437000Y-75057000D02*
X68580000Y-75057000D01*
X60310200Y-54751800D02*
X59690000Y-55372000D01*
X64770000Y-52070000D02*
X62088200Y-54751800D01*
X59690000Y-56896000D02*
X60960000Y-58166000D01*
X52070000Y-82550000D02*
X48401800Y-86218200D01*
X51978200Y-104921973D02*
X49926227Y-102870000D01*
X53340000Y-107950000D02*
X51978200Y-106588200D01*
X48391800Y-102137600D02*
X48391800Y-93340200D01*
X51978200Y-106588200D02*
X51978200Y-104921973D01*
X48401800Y-86218200D02*
X48401800Y-93330200D01*
X49124200Y-102870000D02*
X48391800Y-102137600D01*
X49926227Y-102870000D02*
X49124200Y-102870000D01*
X56276227Y-101600000D02*
X54600000Y-101600000D01*
X59598200Y-106771800D02*
X59598200Y-104921973D01*
X59598200Y-104921973D02*
X56276227Y-101600000D01*
X58420000Y-107950000D02*
X59598200Y-106771800D01*
X58420000Y-105410000D02*
X56642000Y-103632000D01*
X51552000Y-103632000D02*
X49520000Y-101600000D01*
X56642000Y-103632000D02*
X51552000Y-103632000D01*
X60960000Y-99385516D02*
X66181800Y-94163716D01*
X60960000Y-101925516D02*
X60960000Y-99385516D01*
X66181800Y-94163716D02*
X66181800Y-91298200D01*
X62321800Y-103287316D02*
X60960000Y-101925516D01*
X60960000Y-107950000D02*
X62321800Y-106588200D01*
X62321800Y-106588200D02*
X62321800Y-103287316D01*
X66181800Y-91298200D02*
X67310000Y-90170000D01*
X58420000Y-99822000D02*
X61101800Y-97140200D01*
X60960000Y-105410000D02*
X58420000Y-102870000D01*
X58420000Y-102870000D02*
X58420000Y-99822000D01*
X61101800Y-91298200D02*
X62230000Y-90170000D01*
X61101800Y-97140200D02*
X61101800Y-91298200D01*
X64678200Y-106771800D02*
X64678200Y-104231800D01*
X64678200Y-104231800D02*
X67310000Y-101600000D01*
X63500000Y-107950000D02*
X64678200Y-106771800D01*
X63500000Y-105410000D02*
X63500000Y-102870000D01*
X63500000Y-102870000D02*
X62230000Y-101600000D01*
X70303200Y-93980000D02*
X72390000Y-91893200D01*
X78286800Y-91893200D02*
X80010000Y-90170000D01*
X67218200Y-104872722D02*
X70303200Y-101787722D01*
X67218200Y-106771800D02*
X67218200Y-104872722D01*
X72390000Y-91893200D02*
X78286800Y-91893200D01*
X66040000Y-107950000D02*
X67218200Y-106771800D01*
X70303200Y-101787722D02*
X70303200Y-93980000D01*
X69850000Y-92710000D02*
X71120000Y-91440000D01*
X69850000Y-101600000D02*
X69850000Y-92710000D01*
X71120000Y-91440000D02*
X73660000Y-91440000D01*
X66040000Y-105410000D02*
X69850000Y-101600000D01*
X73660000Y-91440000D02*
X74930000Y-90170000D01*
X68580000Y-107950000D02*
X69941800Y-106588200D01*
X69941800Y-106588200D02*
X75021800Y-106588200D01*
X75021800Y-106588200D02*
X80010000Y-101600000D01*
X68580000Y-105410000D02*
X71261800Y-102728200D01*
X73801800Y-102728200D02*
X74930000Y-101600000D01*
X71261800Y-102728200D02*
X73801800Y-102728200D01*
X73660000Y-36830000D02*
X73660000Y-43180000D01*
X80010000Y-30480000D02*
X73660000Y-36830000D01*
X73660000Y-43180000D02*
X80010000Y-49530000D01*
X73660000Y-44450000D02*
X72390000Y-44450000D01*
X60960000Y-55880000D02*
X62088200Y-57008200D01*
X74930000Y-54610000D02*
X74930000Y-45720000D01*
X69991800Y-57008200D02*
X71120000Y-55880000D01*
X73660000Y-55880000D02*
X74930000Y-54610000D01*
X71120000Y-55880000D02*
X73660000Y-55880000D01*
X62088200Y-57008200D02*
X69991800Y-57008200D01*
X72390000Y-44450000D02*
X68580000Y-40640000D01*
X74930000Y-45720000D02*
X73660000Y-44450000D01*
X68580000Y-48260000D02*
X66040000Y-50800000D01*
X72390000Y-52070000D02*
X68580000Y-48260000D01*
X66040000Y-53340000D02*
X68580000Y-55880000D01*
X66040000Y-50800000D02*
X66040000Y-53340000D01*
X62230000Y-49530000D02*
X60960000Y-48260000D01*
X58928000Y-55118000D02*
X60198000Y-53848000D01*
X58928000Y-57658000D02*
X58928000Y-55118000D01*
X62865000Y-60325000D02*
X61595000Y-60325000D01*
X60960000Y-48260000D02*
X60960000Y-44450000D01*
X61595000Y-60325000D02*
X58928000Y-57658000D01*
X60198000Y-53848000D02*
X61722000Y-53848000D01*
X61722000Y-53848000D02*
X62230000Y-53340000D01*
X62230000Y-53340000D02*
X62230000Y-49530000D01*
X73660000Y-46360922D02*
X73019078Y-45720000D01*
X73019078Y-45720000D02*
X69850000Y-45720000D01*
X73660000Y-48260000D02*
X73660000Y-46360922D01*
X72390000Y-49530000D02*
X73660000Y-48260000D01*
X69850000Y-45720000D02*
X68580000Y-44450000D01*
X71120000Y-54610000D02*
X68580000Y-52070000D01*
X72390000Y-54610000D02*
X71120000Y-54610000D01*
X48702000Y-58420000D02*
X49022000Y-58100000D01*
X45720000Y-58420000D02*
X48702000Y-58420000D01*
X49520000Y-93980000D02*
X52201800Y-91298200D01*
X52201800Y-91298200D02*
X55077316Y-91298200D01*
X55077316Y-91298200D02*
X55880000Y-90495516D01*
X55880000Y-90495516D02*
X55880000Y-78740000D01*
X57150000Y-80010000D02*
X58420000Y-78740000D01*
X57150000Y-91430000D02*
X57150000Y-80010000D01*
X54600000Y-93980000D02*
X57150000Y-91430000D01*
X63358200Y-92851800D02*
X63358200Y-88758200D01*
X62230000Y-93980000D02*
X63358200Y-92851800D01*
X63358200Y-88758200D02*
X60960000Y-86360000D01*
X60960000Y-86360000D02*
X60960000Y-78740000D01*
X62230000Y-80010000D02*
X63500000Y-78740000D01*
X62230000Y-82550000D02*
X62230000Y-80010000D01*
X66040000Y-81280000D02*
X67310000Y-82550000D01*
X66040000Y-78740000D02*
X66040000Y-81280000D01*
X68580000Y-92710000D02*
X68580000Y-78740000D01*
X67310000Y-93980000D02*
X68580000Y-92710000D01*
X73801800Y-83961800D02*
X77470000Y-87630000D01*
X80010000Y-87630000D02*
X81280000Y-88900000D01*
X73801800Y-81421800D02*
X73801800Y-83961800D01*
X81280000Y-92710000D02*
X80010000Y-93980000D01*
X77470000Y-87630000D02*
X80010000Y-87630000D01*
X81280000Y-88900000D02*
X81280000Y-92710000D01*
X71120000Y-78740000D02*
X73801800Y-81421800D01*
X78090200Y-80630200D02*
X80010000Y-82550000D01*
X74788200Y-80630200D02*
X78090200Y-80630200D01*
X73660000Y-79502000D02*
X74788200Y-80630200D01*
X45720000Y-55880000D02*
X48702000Y-55880000D01*
X48702000Y-55880000D02*
X49022000Y-56200000D01*
X68326000Y-61050000D02*
X71030000Y-61050000D01*
X71030000Y-61050000D02*
X72390000Y-59690000D01*
X42051800Y-94756800D02*
X42051800Y-86584600D01*
X42051800Y-86584600D02*
X43688000Y-84948400D01*
X43688000Y-84948400D02*
X43688000Y-76708000D01*
X42164000Y-94869000D02*
X42051800Y-94756800D01*
X53826200Y-77448200D02*
X68405316Y-77448200D01*
X53594000Y-77216000D02*
X53826200Y-77448200D01*
X68405316Y-77448200D02*
X69991800Y-79034684D01*
X69991800Y-79034684D02*
X69991800Y-80151800D01*
X69991800Y-80151800D02*
X72390000Y-82550000D01*
X59690000Y-93980000D02*
X59690000Y-91765516D01*
X59690000Y-91765516D02*
X60818200Y-90637316D01*
X60818200Y-90637316D02*
X60818200Y-88250200D01*
X60818200Y-88250200D02*
X59690000Y-87122000D01*
X64770000Y-91765516D02*
X65898200Y-90637316D01*
X65898200Y-87742200D02*
X64770000Y-86614000D01*
X65898200Y-90637316D02*
X65898200Y-87742200D01*
X64770000Y-93980000D02*
X64770000Y-91765516D01*
X64770000Y-86614000D02*
X63246000Y-86614000D01*
X64303773Y-31115000D02*
X67432000Y-31115000D01*
X62357000Y-34832300D02*
X62357000Y-34614400D01*
X62321800Y-34579200D02*
X62321800Y-33096973D01*
X62357000Y-34614400D02*
X62321800Y-34579200D01*
X62321800Y-33096973D02*
X64303773Y-31115000D01*
X68326000Y-65930000D02*
X72026000Y-62230000D01*
X72026000Y-62230000D02*
X72390000Y-62230000D01*
X68580000Y-69215000D02*
X62865000Y-63500000D01*
X68580000Y-71247000D02*
X68580000Y-69215000D01*
X58420000Y-63500000D02*
X55245000Y-60325000D01*
X62865000Y-63500000D02*
X58420000Y-63500000D01*
X76200000Y-95250000D02*
X74930000Y-93980000D01*
X82550000Y-82550000D02*
X82550000Y-93980000D01*
X82550000Y-93980000D02*
X81280000Y-95250000D01*
X81280000Y-95250000D02*
X76200000Y-95250000D01*
X79502000Y-79502000D02*
X82550000Y-82550000D01*
M02*
