M48
; DRILL file {KiCad 8.0.1} date 2024-03-23T10:20:50-0700
; FORMAT={-:-/ absolute / inch / decimal}
; #@! TF.CreationDate,2024-03-23T10:20:50-07:00
; #@! TF.GenerationSoftware,Kicad,Pcbnew,8.0.1
; #@! TF.FileFunction,Plated,1,2,PTH
FMAT,2
INCH
; #@! TA.AperFunction,Plated,PTH,ViaDrill
T1C0.0157
; #@! TA.AperFunction,Plated,PTH,ComponentDrill
T2C0.0197
; #@! TA.AperFunction,Plated,PTH,ViaDrill
T3C0.0315
; #@! TA.AperFunction,Plated,PTH,ComponentDrill
T4C0.0315
; #@! TA.AperFunction,Plated,PTH,ComponentDrill
T5C0.0354
; #@! TA.AperFunction,Plated,PTH,ComponentDrill
T6C0.0394
; #@! TA.AperFunction,Plated,PTH,ComponentDrill
T7C0.0433
; #@! TA.AperFunction,Plated,PTH,ComponentDrill
T8C0.1063
%
G90
G05
T1
X1.66Y-3.735
X1.72Y-3.02
X2.1Y-1.97
X2.11Y-3.04
X2.35Y-3.43
X2.4Y-2.29
X2.455Y-1.3714
X2.49Y-3.41
T2
X1.93Y-2.2126
X1.93Y-2.2874
T3
X2.0714Y-2.0186
T4
X1.5Y-1.1
X1.5Y-1.2
X1.5Y-1.3
X1.5Y-1.4
X1.5Y-1.5
X1.5Y-1.6
X1.5Y-1.7
X1.5Y-1.8
X1.5Y-1.9
X1.5Y-2.0
X1.5Y-2.1
X1.5Y-2.2
X1.5Y-2.3
X1.5Y-2.4
X1.54Y-3.52
X1.55Y-3.625
X1.55Y-4.125
X1.7Y-3.625
X1.7Y-4.125
X1.8Y-1.1
X1.8Y-1.2
X1.8Y-1.3
X1.8Y-1.4
X1.8Y-1.5
X1.8Y-1.6
X1.8Y-1.7
X1.8Y-1.8
X1.8Y-1.9
X1.8Y-2.0
X1.8Y-2.1
X1.8Y-2.2
X1.8Y-2.3
X1.8Y-2.4
X1.84Y-3.52
X1.8496Y-3.7
X1.8496Y-4.0
X1.91Y-2.015
X1.9108Y-2.125
X1.925Y-1.8016
X1.925Y-1.9
X1.9496Y-3.7
X1.9496Y-4.0
X1.95Y-3.25
X1.95Y-3.55
X1.9508Y-2.65
X2.0Y-2.8016
X2.0Y-2.9
X2.0092Y-2.125
X2.0492Y-2.65
X2.0496Y-3.7
X2.0496Y-4.0
X2.05Y-3.25
X2.05Y-3.55
X2.1Y-3.13
X2.1496Y-3.7
X2.1496Y-4.0
X2.15Y-3.25
X2.15Y-3.55
X2.175Y-2.375
X2.175Y-2.5
X2.175Y-2.625
X2.2Y-3.13
X2.21Y-2.015
X2.3Y-3.13
X2.35Y-3.25
X2.35Y-3.55
X2.35Y-3.7
X2.35Y-4.0
X2.4Y-1.6
X2.4Y-1.75
X2.4Y-1.9
X2.4Y-2.05
X2.4Y-2.2
X2.4Y-3.13
X2.4008Y-1.45
X2.45Y-3.25
X2.45Y-3.55
X2.45Y-3.7
X2.45Y-4.0
X2.475Y-2.375
X2.475Y-2.5
X2.475Y-2.625
X2.4992Y-1.45
X2.5Y-3.13
X2.55Y-3.25
X2.55Y-3.55
X2.55Y-3.7
X2.55Y-4.0
X2.6Y-3.13
X2.65Y-3.25
X2.65Y-3.55
X2.65Y-3.7
X2.65Y-4.0
X2.69Y-2.4035
X2.69Y-2.5957
X2.7Y-1.6
X2.7Y-1.75
X2.7Y-1.9
X2.7Y-2.05
X2.7Y-2.2
X2.7Y-3.13
X2.8Y-3.13
X2.85Y-1.03
X2.85Y-1.75
X2.85Y-1.85
X2.85Y-1.95
X2.85Y-2.05
X2.85Y-2.15
X2.85Y-2.25
X2.85Y-2.35
X2.85Y-2.45
X2.85Y-2.55
X2.85Y-3.25
X2.85Y-3.55
X2.85Y-3.7
X2.85Y-4.0
X2.9Y-1.2
X2.9Y-1.5
X2.9Y-3.13
X2.95Y-3.25
X2.95Y-3.55
X2.95Y-3.7
X2.95Y-4.0
X3.0Y-1.6
X3.0Y-3.13
X3.025Y-1.2
X3.025Y-1.5
X3.05Y-3.25
X3.05Y-3.55
X3.05Y-3.7
X3.05Y-4.0
X3.0984Y-1.6
X3.1Y-3.13
X3.15Y-1.03
X3.15Y-1.2
X3.15Y-1.5
X3.15Y-1.75
X3.15Y-1.85
X3.15Y-1.95
X3.15Y-2.05
X3.15Y-2.15
X3.15Y-2.25
X3.15Y-2.35
X3.15Y-2.45
X3.15Y-2.55
X3.15Y-3.25
X3.15Y-3.55
X3.15Y-3.7
X3.15Y-4.0
T5
X2.6548Y-1.225
X2.7548Y-1.225
T6
X1.6Y-2.65
X1.6Y-2.75
X1.6Y-2.85
X1.6Y-2.95
X1.6Y-3.15
X1.6Y-3.25
X1.6Y-3.35
X1.9Y-4.15
X1.9Y-4.25
X2.0Y-1.3222
X2.0Y-4.15
X2.0Y-4.25
X2.05Y-1.75
X2.05Y-1.85
X2.1Y-1.3222
X2.1Y-4.15
X2.1Y-4.25
X2.15Y-1.75
X2.15Y-1.85
X2.2Y-1.3222
X2.2Y-4.15
X2.2Y-4.25
X2.25Y-1.75
X2.25Y-1.85
X2.25Y-2.8
X2.25Y-2.9969
X2.3Y-1.3222
X2.3Y-4.15
X2.3Y-4.25
X2.4Y-1.3222
X2.4Y-4.15
X2.4Y-4.25
X2.5Y-1.3222
X2.5Y-2.8
X2.5Y-2.9969
X2.5Y-4.15
X2.5Y-4.25
X2.6Y-4.15
X2.6Y-4.25
X2.7Y-4.15
X2.7Y-4.25
X2.8Y-4.15
X2.8Y-4.25
T7
X2.7Y-2.805
X2.7Y-2.955
X3.0Y-2.805
X3.0Y-2.955
T8
X1.425Y-4.275
X3.175Y-4.275
M30
