G04 #@! TF.GenerationSoftware,KiCad,Pcbnew,8.0.3*
G04 #@! TF.CreationDate,2024-06-15T23:53:29-07:00*
G04 #@! TF.ProjectId,we755a_dtmf,77653735-3561-45f6-9474-6d662e6b6963,4*
G04 #@! TF.SameCoordinates,Original*
G04 #@! TF.FileFunction,Soldermask,Bot*
G04 #@! TF.FilePolarity,Negative*
%FSLAX46Y46*%
G04 Gerber Fmt 4.6, Leading zero omitted, Abs format (unit mm)*
G04 Created by KiCad (PCBNEW 8.0.3) date 2024-06-15 23:53:29*
%MOMM*%
%LPD*%
G01*
G04 APERTURE LIST*
%ADD10R,1.600000X1.600000*%
%ADD11O,1.600000X1.600000*%
%ADD12C,1.600000*%
%ADD13R,1.270000X1.270000*%
%ADD14C,1.270000*%
%ADD15C,1.500000*%
%ADD16R,3.000000X1.500000*%
%ADD17O,3.000000X1.500000*%
%ADD18R,1.800000X1.800000*%
%ADD19C,1.800000*%
%ADD20C,1.000000*%
%ADD21C,2.000000*%
%ADD22R,1.700000X1.700000*%
%ADD23O,1.700000X1.700000*%
%ADD24C,1.400000*%
%ADD25O,1.400000X1.400000*%
%ADD26R,2.200000X2.200000*%
%ADD27O,2.200000X2.200000*%
%ADD28C,5.400000*%
%ADD29R,1.500000X1.000000*%
%ADD30R,1.000000X1.500000*%
G04 APERTURE END LIST*
D10*
X138261000Y-109069000D03*
D11*
X135721000Y-109069000D03*
X133181000Y-109069000D03*
X133181000Y-116689000D03*
X135721000Y-116689000D03*
X138261000Y-116689000D03*
D12*
X163407000Y-69572000D03*
D11*
X163407000Y-61952000D03*
D12*
X157311000Y-61825000D03*
D11*
X157311000Y-69445000D03*
D10*
X160359000Y-69445000D03*
D11*
X160359000Y-61825000D03*
D12*
X141436000Y-116689000D03*
D11*
X141436000Y-109069000D03*
D13*
X124416000Y-126536000D03*
D14*
X126916000Y-121486000D03*
D15*
X149437000Y-87569000D03*
X149437000Y-92449000D03*
D16*
X124291000Y-111609000D03*
D17*
X124291000Y-109069000D03*
X124291000Y-106529000D03*
X124291000Y-101449000D03*
X124291000Y-98909000D03*
X124291000Y-96369000D03*
X124291000Y-93829000D03*
D10*
X150707000Y-120499000D03*
D11*
X148167000Y-120499000D03*
X145627000Y-120499000D03*
X143087000Y-120499000D03*
X143087000Y-128119000D03*
X145627000Y-128119000D03*
X148167000Y-128119000D03*
X150707000Y-128119000D03*
D12*
X149437000Y-75287000D03*
D11*
X141817000Y-75287000D03*
D18*
X151215000Y-60555000D03*
D19*
X153755000Y-60555000D03*
D12*
X149437000Y-81383000D03*
D11*
X141817000Y-81383000D03*
D12*
X145373000Y-94337000D03*
D11*
X137753000Y-94337000D03*
D12*
X142091000Y-68683000D03*
X144591000Y-68683000D03*
D13*
X119463000Y-126536000D03*
D14*
X121963000Y-121486000D03*
D20*
X132673000Y-85005000D03*
X132673000Y-86905000D03*
D21*
X146389000Y-97679000D03*
X146389000Y-102679000D03*
D10*
X152221000Y-109069000D03*
D11*
X149681000Y-109069000D03*
X147141000Y-109069000D03*
X144601000Y-109069000D03*
X144601000Y-116689000D03*
X147141000Y-116689000D03*
X149681000Y-116689000D03*
X152221000Y-116689000D03*
D12*
X149437000Y-72239000D03*
D11*
X141817000Y-72239000D03*
D22*
X138769000Y-69191000D03*
D23*
X136229000Y-69191000D03*
D10*
X138251000Y-120499000D03*
D11*
X135711000Y-120499000D03*
X133171000Y-120499000D03*
X130631000Y-120499000D03*
X130631000Y-128119000D03*
X133171000Y-128119000D03*
X135711000Y-128119000D03*
X138251000Y-128119000D03*
D12*
X132185000Y-80494000D03*
X134685000Y-80494000D03*
D10*
X163153000Y-109069000D03*
D11*
X160613000Y-109069000D03*
X158073000Y-109069000D03*
X155533000Y-109069000D03*
X155533000Y-116689000D03*
X158073000Y-116689000D03*
X160613000Y-116689000D03*
X163153000Y-116689000D03*
D12*
X149437000Y-78335000D03*
D11*
X141817000Y-78335000D03*
D22*
X133435000Y-65381000D03*
D23*
X135975000Y-65381000D03*
X138515000Y-65381000D03*
X141055000Y-65381000D03*
X143595000Y-65381000D03*
X146135000Y-65381000D03*
D12*
X154517000Y-68683000D03*
D11*
X146897000Y-68683000D03*
D12*
X145373000Y-87733000D03*
D11*
X137753000Y-87733000D03*
D12*
X134197000Y-100139000D03*
X134197000Y-97639000D03*
D24*
X162391000Y-98147000D03*
D25*
X162391000Y-103227000D03*
D12*
X145373000Y-91035000D03*
D11*
X137753000Y-91035000D03*
D12*
X122767000Y-115927000D03*
D11*
X130387000Y-115927000D03*
D12*
X159871000Y-71985000D03*
X162371000Y-71985000D03*
D10*
X163153000Y-120499000D03*
D11*
X160613000Y-120499000D03*
X158073000Y-120499000D03*
X155533000Y-120499000D03*
X155533000Y-128119000D03*
X158073000Y-128119000D03*
X160613000Y-128119000D03*
X163153000Y-128119000D03*
D26*
X158327000Y-99163000D03*
D27*
X150707000Y-99163000D03*
D22*
X153772000Y-131507000D03*
D23*
X153772000Y-134047000D03*
X151232000Y-131507000D03*
X151232000Y-134047000D03*
X148692000Y-131507000D03*
X148692000Y-134047000D03*
X146152000Y-131507000D03*
X146152000Y-134047000D03*
X143612000Y-131507000D03*
X143612000Y-134047000D03*
X141072000Y-131507000D03*
X141072000Y-134047000D03*
X138532000Y-131507000D03*
X138532000Y-134047000D03*
X135992000Y-131507000D03*
X135992000Y-134047000D03*
X133452000Y-131507000D03*
X133452000Y-134047000D03*
X130912000Y-131507000D03*
X130912000Y-134047000D03*
D28*
X121772000Y-133047000D03*
X162772000Y-133047000D03*
X162772000Y-57507000D03*
D21*
X140547000Y-97639000D03*
X140547000Y-102639000D03*
D10*
X154771000Y-75033000D03*
D11*
X154771000Y-77573000D03*
X154771000Y-80113000D03*
X154771000Y-82653000D03*
X154771000Y-85193000D03*
X154771000Y-87733000D03*
X154771000Y-90273000D03*
X154771000Y-92813000D03*
X154771000Y-95353000D03*
X162391000Y-95353000D03*
X162391000Y-92813000D03*
X162391000Y-90273000D03*
X162391000Y-87733000D03*
X162391000Y-85193000D03*
X162391000Y-82653000D03*
X162391000Y-80113000D03*
X162391000Y-77573000D03*
X162391000Y-75033000D03*
D10*
X136991000Y-106021000D03*
D11*
X139531000Y-106021000D03*
X142071000Y-106021000D03*
X144611000Y-106021000D03*
X147151000Y-106021000D03*
X149691000Y-106021000D03*
X152231000Y-106021000D03*
X154771000Y-106021000D03*
X157311000Y-106021000D03*
X159851000Y-106021000D03*
X162391000Y-106021000D03*
D12*
X137753000Y-84431000D03*
D11*
X145373000Y-84431000D03*
D12*
X132419000Y-76791000D03*
X132419000Y-74291000D03*
D10*
X121751000Y-56491000D03*
D11*
X121751000Y-59031000D03*
X121751000Y-61571000D03*
X121751000Y-64111000D03*
X121751000Y-66651000D03*
X121751000Y-69191000D03*
X121751000Y-71731000D03*
X121751000Y-74271000D03*
X121751000Y-76811000D03*
X121751000Y-79351000D03*
X121751000Y-81891000D03*
X121751000Y-84431000D03*
X121751000Y-86971000D03*
X121751000Y-89511000D03*
X129371000Y-89511000D03*
X129371000Y-86971000D03*
X129371000Y-84431000D03*
X129371000Y-81891000D03*
X129371000Y-79351000D03*
X129371000Y-76811000D03*
X129371000Y-74271000D03*
X129371000Y-71731000D03*
X129371000Y-69191000D03*
X129371000Y-66651000D03*
X129371000Y-64111000D03*
X129371000Y-61571000D03*
X129371000Y-59031000D03*
X129371000Y-56491000D03*
D22*
X136229000Y-74266000D03*
D23*
X136229000Y-76806000D03*
D12*
X134431000Y-93829000D03*
X131931000Y-93829000D03*
D26*
X158327000Y-102465000D03*
D27*
X150707000Y-102465000D03*
D29*
X155533000Y-114291000D03*
X155533000Y-112991000D03*
D30*
X130529000Y-113768000D03*
X129229000Y-113768000D03*
X125053000Y-103989000D03*
X123753000Y-103989000D03*
D29*
X120693000Y-124564000D03*
X120693000Y-123264000D03*
X130641000Y-124309000D03*
X130641000Y-125609000D03*
X125646000Y-123122000D03*
X125646000Y-124422000D03*
D30*
X130544000Y-110466000D03*
X129244000Y-110466000D03*
D29*
X157904000Y-133932000D03*
X157904000Y-135232000D03*
M02*
