G04 #@! TF.GenerationSoftware,KiCad,Pcbnew,8.0.1*
G04 #@! TF.CreationDate,2024-04-13T23:26:30-07:00*
G04 #@! TF.ProjectId,we755a_dtmf,77653735-3561-45f6-9474-6d662e6b6963,3*
G04 #@! TF.SameCoordinates,Original*
G04 #@! TF.FileFunction,Copper,L2,Bot*
G04 #@! TF.FilePolarity,Positive*
%FSLAX46Y46*%
G04 Gerber Fmt 4.6, Leading zero omitted, Abs format (unit mm)*
G04 Created by KiCad (PCBNEW 8.0.1) date 2024-04-13 23:26:30*
%MOMM*%
%LPD*%
G01*
G04 APERTURE LIST*
G04 #@! TA.AperFunction,ComponentPad*
%ADD10R,1.600000X1.600000*%
G04 #@! TD*
G04 #@! TA.AperFunction,ComponentPad*
%ADD11O,1.600000X1.600000*%
G04 #@! TD*
G04 #@! TA.AperFunction,ComponentPad*
%ADD12C,1.600000*%
G04 #@! TD*
G04 #@! TA.AperFunction,ComponentPad*
%ADD13C,1.500000*%
G04 #@! TD*
G04 #@! TA.AperFunction,ComponentPad*
%ADD14R,3.000000X1.500000*%
G04 #@! TD*
G04 #@! TA.AperFunction,ComponentPad*
%ADD15O,3.000000X1.500000*%
G04 #@! TD*
G04 #@! TA.AperFunction,ComponentPad*
%ADD16R,1.800000X1.800000*%
G04 #@! TD*
G04 #@! TA.AperFunction,ComponentPad*
%ADD17C,1.800000*%
G04 #@! TD*
G04 #@! TA.AperFunction,ComponentPad*
%ADD18C,1.000000*%
G04 #@! TD*
G04 #@! TA.AperFunction,ComponentPad*
%ADD19C,2.000000*%
G04 #@! TD*
G04 #@! TA.AperFunction,ComponentPad*
%ADD20R,1.700000X1.700000*%
G04 #@! TD*
G04 #@! TA.AperFunction,ComponentPad*
%ADD21O,1.700000X1.700000*%
G04 #@! TD*
G04 #@! TA.AperFunction,ComponentPad*
%ADD22C,1.400000*%
G04 #@! TD*
G04 #@! TA.AperFunction,ComponentPad*
%ADD23O,1.400000X1.400000*%
G04 #@! TD*
G04 #@! TA.AperFunction,ComponentPad*
%ADD24R,2.200000X2.200000*%
G04 #@! TD*
G04 #@! TA.AperFunction,ComponentPad*
%ADD25O,2.200000X2.200000*%
G04 #@! TD*
G04 #@! TA.AperFunction,ComponentPad*
%ADD26C,5.400000*%
G04 #@! TD*
G04 #@! TA.AperFunction,SMDPad,CuDef*
%ADD27R,1.500000X1.000000*%
G04 #@! TD*
G04 #@! TA.AperFunction,SMDPad,CuDef*
%ADD28R,1.000000X1.500000*%
G04 #@! TD*
G04 #@! TA.AperFunction,ViaPad*
%ADD29C,0.800000*%
G04 #@! TD*
G04 #@! TA.AperFunction,ViaPad*
%ADD30C,1.600000*%
G04 #@! TD*
G04 #@! TA.AperFunction,Conductor*
%ADD31C,0.500000*%
G04 #@! TD*
G04 #@! TA.AperFunction,Conductor*
%ADD32C,0.300000*%
G04 #@! TD*
G04 #@! TA.AperFunction,Conductor*
%ADD33C,0.250000*%
G04 #@! TD*
G04 APERTURE END LIST*
D10*
X138261000Y-109069000D03*
D11*
X135721000Y-109069000D03*
X133181000Y-109069000D03*
X133181000Y-116689000D03*
X135721000Y-116689000D03*
X138261000Y-116689000D03*
D12*
X163407000Y-69572000D03*
D11*
X163407000Y-61952000D03*
D12*
X157311000Y-61825000D03*
D11*
X157311000Y-69445000D03*
D10*
X160359000Y-69445000D03*
D11*
X160359000Y-61825000D03*
D12*
X141436000Y-116689000D03*
D11*
X141436000Y-109069000D03*
D12*
X126831000Y-118594000D03*
D11*
X126831000Y-128754000D03*
D13*
X149437000Y-87569000D03*
X149437000Y-92449000D03*
D14*
X124291000Y-111609000D03*
D15*
X124291000Y-109069000D03*
X124291000Y-106529000D03*
X124291000Y-101449000D03*
X124291000Y-98909000D03*
X124291000Y-96369000D03*
X124291000Y-93829000D03*
D10*
X150707000Y-120499000D03*
D11*
X148167000Y-120499000D03*
X145627000Y-120499000D03*
X143087000Y-120499000D03*
X143087000Y-128119000D03*
X145627000Y-128119000D03*
X148167000Y-128119000D03*
X150707000Y-128119000D03*
D12*
X149437000Y-75287000D03*
D11*
X141817000Y-75287000D03*
D16*
X151215000Y-60555000D03*
D17*
X153755000Y-60555000D03*
D12*
X149437000Y-81383000D03*
D11*
X141817000Y-81383000D03*
D12*
X145373000Y-94337000D03*
D11*
X137753000Y-94337000D03*
D12*
X142091000Y-68683000D03*
X144591000Y-68683000D03*
X123021000Y-118594000D03*
D11*
X123021000Y-128754000D03*
D18*
X132673000Y-85005000D03*
X132673000Y-86905000D03*
D19*
X146389000Y-97679000D03*
X146389000Y-102679000D03*
D10*
X152221000Y-109069000D03*
D11*
X149681000Y-109069000D03*
X147141000Y-109069000D03*
X144601000Y-109069000D03*
X144601000Y-116689000D03*
X147141000Y-116689000D03*
X149681000Y-116689000D03*
X152221000Y-116689000D03*
D12*
X149437000Y-72239000D03*
D11*
X141817000Y-72239000D03*
D20*
X138769000Y-69191000D03*
D21*
X136229000Y-69191000D03*
D10*
X138251000Y-120499000D03*
D11*
X135711000Y-120499000D03*
X133171000Y-120499000D03*
X130631000Y-120499000D03*
X130631000Y-128119000D03*
X133171000Y-128119000D03*
X135711000Y-128119000D03*
X138251000Y-128119000D03*
D12*
X132185000Y-80494000D03*
X134685000Y-80494000D03*
D10*
X163153000Y-109069000D03*
D11*
X160613000Y-109069000D03*
X158073000Y-109069000D03*
X155533000Y-109069000D03*
X155533000Y-116689000D03*
X158073000Y-116689000D03*
X160613000Y-116689000D03*
X163153000Y-116689000D03*
D12*
X149437000Y-78335000D03*
D11*
X141817000Y-78335000D03*
D20*
X133435000Y-65381000D03*
D21*
X135975000Y-65381000D03*
X138515000Y-65381000D03*
X141055000Y-65381000D03*
X143595000Y-65381000D03*
X146135000Y-65381000D03*
D12*
X154517000Y-68683000D03*
D11*
X146897000Y-68683000D03*
D12*
X145373000Y-87733000D03*
D11*
X137753000Y-87733000D03*
D10*
X134197000Y-100139000D03*
D12*
X134197000Y-97639000D03*
D22*
X162391000Y-98147000D03*
D23*
X162391000Y-103227000D03*
D12*
X145373000Y-91035000D03*
D11*
X137753000Y-91035000D03*
D12*
X122767000Y-115927000D03*
D11*
X130387000Y-115927000D03*
D12*
X159871000Y-71985000D03*
X162371000Y-71985000D03*
D10*
X163153000Y-120499000D03*
D11*
X160613000Y-120499000D03*
X158073000Y-120499000D03*
X155533000Y-120499000D03*
X155533000Y-128119000D03*
X158073000Y-128119000D03*
X160613000Y-128119000D03*
X163153000Y-128119000D03*
D24*
X158327000Y-99163000D03*
D25*
X150707000Y-99163000D03*
D20*
X153772000Y-131507000D03*
D21*
X153772000Y-134047000D03*
X151232000Y-131507000D03*
X151232000Y-134047000D03*
X148692000Y-131507000D03*
X148692000Y-134047000D03*
X146152000Y-131507000D03*
X146152000Y-134047000D03*
X143612000Y-131507000D03*
X143612000Y-134047000D03*
X141072000Y-131507000D03*
X141072000Y-134047000D03*
X138532000Y-131507000D03*
X138532000Y-134047000D03*
X135992000Y-131507000D03*
X135992000Y-134047000D03*
X133452000Y-131507000D03*
X133452000Y-134047000D03*
X130912000Y-131507000D03*
X130912000Y-134047000D03*
D26*
X121772000Y-133047000D03*
X162772000Y-133047000D03*
X162772000Y-57507000D03*
D19*
X140547000Y-97639000D03*
X140547000Y-102639000D03*
D10*
X154771000Y-75033000D03*
D11*
X154771000Y-77573000D03*
X154771000Y-80113000D03*
X154771000Y-82653000D03*
X154771000Y-85193000D03*
X154771000Y-87733000D03*
X154771000Y-90273000D03*
X154771000Y-92813000D03*
X154771000Y-95353000D03*
X162391000Y-95353000D03*
X162391000Y-92813000D03*
X162391000Y-90273000D03*
X162391000Y-87733000D03*
X162391000Y-85193000D03*
X162391000Y-82653000D03*
X162391000Y-80113000D03*
X162391000Y-77573000D03*
X162391000Y-75033000D03*
D10*
X136991000Y-106021000D03*
D11*
X139531000Y-106021000D03*
X142071000Y-106021000D03*
X144611000Y-106021000D03*
X147151000Y-106021000D03*
X149691000Y-106021000D03*
X152231000Y-106021000D03*
X154771000Y-106021000D03*
X157311000Y-106021000D03*
X159851000Y-106021000D03*
X162391000Y-106021000D03*
D12*
X137753000Y-84431000D03*
D11*
X145373000Y-84431000D03*
D12*
X132419000Y-76791000D03*
X132419000Y-74291000D03*
D10*
X121751000Y-56491000D03*
D11*
X121751000Y-59031000D03*
X121751000Y-61571000D03*
X121751000Y-64111000D03*
X121751000Y-66651000D03*
X121751000Y-69191000D03*
X121751000Y-71731000D03*
X121751000Y-74271000D03*
X121751000Y-76811000D03*
X121751000Y-79351000D03*
X121751000Y-81891000D03*
X121751000Y-84431000D03*
X121751000Y-86971000D03*
X121751000Y-89511000D03*
X129371000Y-89511000D03*
X129371000Y-86971000D03*
X129371000Y-84431000D03*
X129371000Y-81891000D03*
X129371000Y-79351000D03*
X129371000Y-76811000D03*
X129371000Y-74271000D03*
X129371000Y-71731000D03*
X129371000Y-69191000D03*
X129371000Y-66651000D03*
X129371000Y-64111000D03*
X129371000Y-61571000D03*
X129371000Y-59031000D03*
X129371000Y-56491000D03*
D20*
X136229000Y-74266000D03*
D21*
X136229000Y-76806000D03*
D12*
X134431000Y-93829000D03*
X131931000Y-93829000D03*
D24*
X158327000Y-102465000D03*
D25*
X150707000Y-102465000D03*
D27*
X155533000Y-114291000D03*
X155533000Y-112991000D03*
D28*
X130529000Y-113768000D03*
X129229000Y-113768000D03*
X125053000Y-103989000D03*
X123753000Y-103989000D03*
D27*
X120481000Y-125580000D03*
X120481000Y-124280000D03*
X130641000Y-124309000D03*
X130641000Y-125609000D03*
X125900000Y-124265000D03*
X125900000Y-125565000D03*
D28*
X130544000Y-110466000D03*
X129244000Y-110466000D03*
D27*
X157904000Y-133932000D03*
X157904000Y-135232000D03*
D29*
X136994600Y-81891000D03*
D30*
X123711801Y-124420284D03*
X128863000Y-124421200D03*
D29*
X146897000Y-79463200D03*
X126851856Y-121226313D03*
X127339000Y-103227000D03*
X137245000Y-103735000D03*
X127593000Y-80621000D03*
X144357000Y-112625000D03*
X146897000Y-112625000D03*
D30*
X132038000Y-110974000D03*
X152089200Y-113514000D03*
D31*
X156024200Y-88986200D02*
X156024200Y-95336200D01*
X123021000Y-103989000D02*
X122005000Y-102973000D01*
X134685000Y-80494000D02*
X135086000Y-80494000D01*
X134197000Y-76069000D02*
X132419000Y-74291000D01*
X129371000Y-96369000D02*
X130681000Y-97679000D01*
X130681000Y-97679000D02*
X134157000Y-97679000D01*
X132165000Y-89511000D02*
X134685000Y-86991000D01*
X129371000Y-74271000D02*
X132399000Y-74271000D01*
X156041000Y-95353000D02*
X154771000Y-95353000D01*
X154771000Y-87733000D02*
X153501000Y-87733000D01*
X129371000Y-89511000D02*
X131931000Y-89511000D01*
X132399000Y-74271000D02*
X132419000Y-74291000D01*
X156024200Y-95336200D02*
X156041000Y-95353000D01*
X134197000Y-77573000D02*
X134685000Y-78061000D01*
X131931000Y-95373000D02*
X131931000Y-93829000D01*
X122005000Y-97131000D02*
X122767000Y-96369000D01*
X122767000Y-96369000D02*
X124291000Y-96369000D01*
X143337800Y-69936200D02*
X144591000Y-68683000D01*
X122005000Y-102973000D02*
X122005000Y-97131000D01*
X134685000Y-86991000D02*
X134685000Y-80494000D01*
X157904000Y-133932000D02*
X157904000Y-132860000D01*
X166201000Y-103930600D02*
X157623400Y-95353000D01*
X157623400Y-95353000D02*
X156041000Y-95353000D01*
X166201000Y-127611000D02*
X166201000Y-103930600D01*
X153501000Y-87733000D02*
X151723000Y-85955000D01*
X151723000Y-85955000D02*
X144611000Y-85955000D01*
X134197000Y-97639000D02*
X131931000Y-95373000D01*
X140928000Y-80494000D02*
X134685000Y-80494000D01*
X123753000Y-103989000D02*
X123021000Y-103989000D01*
X134197000Y-77573000D02*
X134197000Y-76069000D01*
X161121000Y-129643000D02*
X164169000Y-129643000D01*
X131931000Y-93829000D02*
X131931000Y-89511000D01*
X141817000Y-83161000D02*
X141817000Y-81383000D01*
X124291000Y-96369000D02*
X129371000Y-96369000D01*
X134685000Y-78061000D02*
X134685000Y-80494000D01*
X131931000Y-89511000D02*
X132165000Y-89511000D01*
X135086000Y-80494000D02*
X138515000Y-77065000D01*
X141579800Y-69936200D02*
X143337800Y-69936200D01*
X138515000Y-77065000D02*
X138515000Y-73001000D01*
X138515000Y-73001000D02*
X141579800Y-69936200D01*
X154771000Y-87733000D02*
X156024200Y-88986200D01*
X164169000Y-129643000D02*
X166201000Y-127611000D01*
X157904000Y-132860000D02*
X161121000Y-129643000D01*
X141817000Y-81383000D02*
X140928000Y-80494000D01*
X144611000Y-85955000D02*
X141817000Y-83161000D01*
X135721000Y-99544000D02*
X135721000Y-95119000D01*
X125900000Y-123124000D02*
X125900000Y-124265000D01*
X133418200Y-72001800D02*
X136229000Y-69191000D01*
X124274200Y-121498200D02*
X125900000Y-123124000D01*
X164660200Y-68539200D02*
X164660200Y-71493800D01*
X127847000Y-76811000D02*
X132399000Y-76811000D01*
X135126000Y-100139000D02*
X135721000Y-99544000D01*
X132399000Y-76811000D02*
X132419000Y-76791000D01*
X123275000Y-87987000D02*
X123275000Y-81609107D01*
X121231907Y-80604200D02*
X120497800Y-79870093D01*
X121301800Y-89960200D02*
X121301800Y-111921800D01*
X148083800Y-67496200D02*
X148083800Y-66651000D01*
X128101000Y-98909000D02*
X129371000Y-100179000D01*
X121301800Y-111921800D02*
X124274200Y-114894200D01*
X123275000Y-81609107D02*
X122270093Y-80604200D01*
X123523293Y-76811000D02*
X127847000Y-76811000D01*
X164169000Y-93575000D02*
X164169000Y-71985000D01*
X142091000Y-68683000D02*
X144089800Y-66684200D01*
X162391000Y-95353000D02*
X164169000Y-93575000D01*
X122270093Y-80604200D02*
X121231907Y-80604200D01*
X124274200Y-114894200D02*
X124274200Y-121498200D01*
D32*
X121751000Y-89511000D02*
X121401800Y-89860200D01*
D31*
X128851907Y-73017800D02*
X133418200Y-73017800D01*
X148083800Y-66651000D02*
X162772000Y-66651000D01*
X162371000Y-71985000D02*
X164169000Y-71985000D01*
X144089800Y-66684200D02*
X148050600Y-66684200D01*
X121751000Y-89511000D02*
X123275000Y-87987000D01*
X162391000Y-72005000D02*
X162371000Y-71985000D01*
X146897000Y-68683000D02*
X148083800Y-67496200D01*
X121231907Y-78097800D02*
X122236493Y-78097800D01*
X129371000Y-100179000D02*
X134157000Y-100179000D01*
X122236493Y-78097800D02*
X123523293Y-76811000D01*
X135721000Y-95119000D02*
X134431000Y-93829000D01*
X134157000Y-100179000D02*
X134197000Y-100139000D01*
X121751000Y-89511000D02*
X121301800Y-89960200D01*
X133418200Y-73017800D02*
X133418200Y-72001800D01*
X162391000Y-95353000D02*
X162391000Y-98147000D01*
X127847000Y-74022707D02*
X128851907Y-73017800D01*
X162391000Y-75033000D02*
X162391000Y-72005000D01*
X127847000Y-76811000D02*
X127847000Y-74022707D01*
X124291000Y-98909000D02*
X128101000Y-98909000D01*
X120497800Y-79870093D02*
X120497800Y-78831907D01*
X164660200Y-71493800D02*
X164169000Y-71985000D01*
X120497800Y-78831907D02*
X121231907Y-78097800D01*
X162772000Y-66651000D02*
X164660200Y-68539200D01*
X148050600Y-66684200D02*
X148083800Y-66651000D01*
X134197000Y-100139000D02*
X135126000Y-100139000D01*
D33*
X129244000Y-114149000D02*
X128990000Y-114149000D01*
X133181000Y-102639000D02*
X140547000Y-102639000D01*
X128808200Y-110901800D02*
X129244000Y-110466000D01*
X128808200Y-111355000D02*
X128808200Y-107011800D01*
X127593000Y-126849000D02*
X127593000Y-123293000D01*
X128808200Y-114403000D02*
X128808200Y-111355000D01*
X129371000Y-114149000D02*
X128990000Y-114149000D01*
X133452000Y-131438000D02*
X131261200Y-129247200D01*
X128808200Y-111355000D02*
X128808200Y-110901800D01*
X128808200Y-107011800D02*
X133181000Y-102639000D01*
X128990000Y-114149000D02*
X128808200Y-114149000D01*
X131261200Y-129247200D02*
X129991200Y-129247200D01*
X128808200Y-122077800D02*
X128808200Y-114403000D01*
X128808200Y-114149000D02*
X128808200Y-114403000D01*
X127593000Y-123293000D02*
X128808200Y-122077800D01*
X133452000Y-131507000D02*
X133452000Y-131438000D01*
X129991200Y-129247200D02*
X127593000Y-126849000D01*
X133435000Y-134469000D02*
X132165000Y-133199000D01*
X130952400Y-129700400D02*
X129549478Y-129700400D01*
X129549478Y-129700400D02*
X127085000Y-127235922D01*
X127085000Y-122023000D02*
X128355000Y-120753000D01*
X133322800Y-101307200D02*
X145057200Y-101307200D01*
X128355000Y-120753000D02*
X128355000Y-106275000D01*
X132165000Y-130913000D02*
X130952400Y-129700400D01*
X128355000Y-106275000D02*
X133322800Y-101307200D01*
X132165000Y-133199000D02*
X132165000Y-130913000D01*
X127085000Y-127235922D02*
X127085000Y-122023000D01*
X145057200Y-101307200D02*
X146389000Y-102639000D01*
X130768000Y-80494000D02*
X129371000Y-81891000D01*
X132185000Y-80494000D02*
X130768000Y-80494000D01*
X129371000Y-61571000D02*
X134959000Y-61571000D01*
X134959000Y-61571000D02*
X135975000Y-62587000D01*
X135975000Y-62587000D02*
X135975000Y-65381000D01*
X134959000Y-59031000D02*
X138515000Y-62587000D01*
X134959000Y-59031000D02*
X129371000Y-59031000D01*
X138515000Y-62587000D02*
X138515000Y-65381000D01*
X137753000Y-91543000D02*
X137753000Y-91035000D01*
X143849000Y-97639000D02*
X137753000Y-91543000D01*
X146389000Y-97639000D02*
X143849000Y-97639000D01*
X140547000Y-97639000D02*
X137753000Y-94845000D01*
X137753000Y-94845000D02*
X137753000Y-94337000D01*
X158327000Y-99290000D02*
X158327000Y-102465000D01*
X162391000Y-77573000D02*
X159871000Y-75053000D01*
X159871000Y-71985000D02*
X159871000Y-69933000D01*
X163407000Y-69572000D02*
X163280000Y-69445000D01*
X159871000Y-75053000D02*
X159871000Y-71985000D01*
X163280000Y-69445000D02*
X160359000Y-69445000D01*
X159871000Y-69933000D02*
X160359000Y-69445000D01*
X160359000Y-61825000D02*
X157311000Y-61825000D01*
X137499000Y-70969000D02*
X139531000Y-70969000D01*
X136229000Y-74266000D02*
X136229000Y-72239000D01*
X136229000Y-72239000D02*
X137499000Y-70969000D01*
X140962800Y-69537200D02*
X140962800Y-68013200D01*
X140962800Y-68013200D02*
X143595000Y-65381000D01*
X139531000Y-70969000D02*
X140962800Y-69537200D01*
X145373000Y-94337000D02*
X148929000Y-97893000D01*
X136994600Y-83157400D02*
X135721000Y-84431000D01*
X148929000Y-100687000D02*
X150707000Y-102465000D01*
X135721000Y-84431000D02*
X135721000Y-87296516D01*
X142761484Y-94337000D02*
X145373000Y-94337000D01*
X135721000Y-87296516D02*
X142761484Y-94337000D01*
X148929000Y-97893000D02*
X148929000Y-100687000D01*
X136994600Y-81891000D02*
X136994600Y-83157400D01*
D31*
X128863000Y-124309000D02*
X130641000Y-124309000D01*
X126577000Y-104497000D02*
X126069000Y-103989000D01*
X126069000Y-103989000D02*
X125053000Y-103989000D01*
X123711801Y-124420284D02*
X123021000Y-123729483D01*
X128863000Y-124421200D02*
X128863000Y-124309000D01*
X125561000Y-109069000D02*
X126577000Y-108053000D01*
X124291000Y-109069000D02*
X125561000Y-109069000D01*
X126577000Y-108053000D02*
X126577000Y-104497000D01*
X123021000Y-123729483D02*
X123021000Y-118594000D01*
D33*
X133816000Y-118086000D02*
X132052800Y-119849200D01*
X141436000Y-116689000D02*
X140039000Y-118086000D01*
X140039000Y-118086000D02*
X133816000Y-118086000D01*
X132775200Y-129389000D02*
X132042800Y-128656600D01*
X134705000Y-130516773D02*
X133577227Y-129389000D01*
X132042800Y-128656600D02*
X132042800Y-119859200D01*
X133577227Y-129389000D02*
X132775200Y-129389000D01*
X141436000Y-116689000D02*
X141436000Y-114784000D01*
X141436000Y-114784000D02*
X135721000Y-109069000D01*
X134705000Y-133199000D02*
X134705000Y-130516773D01*
X135975000Y-134469000D02*
X134705000Y-133199000D01*
X139658000Y-128119000D02*
X138251000Y-128119000D01*
X141055000Y-134469000D02*
X142325000Y-133199000D01*
X142325000Y-130786000D02*
X139658000Y-128119000D01*
X142325000Y-133199000D02*
X142325000Y-130786000D01*
X139716000Y-130151000D02*
X135203000Y-130151000D01*
X135203000Y-130151000D02*
X133171000Y-128119000D01*
X141072000Y-131507000D02*
X139716000Y-130151000D01*
X143595000Y-134469000D02*
X144865000Y-133199000D01*
X144357000Y-128881000D02*
X144357000Y-126158516D01*
X144865000Y-133199000D02*
X144865000Y-129389000D01*
X144357000Y-126158516D02*
X149455702Y-121059814D01*
X149455702Y-121059814D02*
X149455702Y-119454298D01*
X144865000Y-129389000D02*
X144357000Y-128881000D01*
X149455702Y-119454298D02*
X152221000Y-116689000D01*
X141817000Y-126595000D02*
X144357000Y-124055000D01*
X144357000Y-119991000D02*
X147141000Y-117207000D01*
X141817000Y-129637078D02*
X141817000Y-126595000D01*
X143612000Y-131507000D02*
X143612000Y-131432078D01*
X144357000Y-124055000D02*
X144357000Y-119991000D01*
X143612000Y-131432078D02*
X141817000Y-129637078D01*
X147141000Y-117207000D02*
X147141000Y-116689000D01*
X150707000Y-128119000D02*
X150326000Y-128119000D01*
X150326000Y-128119000D02*
X147405000Y-131040000D01*
X147405000Y-133199000D02*
X146135000Y-134469000D01*
X147405000Y-131040000D02*
X147405000Y-133199000D01*
X146135000Y-128627000D02*
X145627000Y-128119000D01*
X146152000Y-131507000D02*
X146135000Y-131490000D01*
X146135000Y-131490000D02*
X146135000Y-128627000D01*
X152993000Y-120753000D02*
X155333800Y-118412200D01*
X148675000Y-134469000D02*
X149945000Y-133199000D01*
X155333800Y-118412200D02*
X161429800Y-118412200D01*
X149945000Y-131040000D02*
X150707000Y-130278000D01*
X152993000Y-128754000D02*
X152993000Y-120753000D01*
X149945000Y-133199000D02*
X149945000Y-131040000D01*
X150707000Y-130278000D02*
X151469000Y-130278000D01*
X151469000Y-130278000D02*
X152993000Y-128754000D01*
X161429800Y-118412200D02*
X163153000Y-116689000D01*
X151977000Y-128754000D02*
X151977000Y-120499000D01*
X151088000Y-129643000D02*
X151977000Y-128754000D01*
X148675000Y-130913000D02*
X149945000Y-129643000D01*
X149945000Y-129643000D02*
X151088000Y-129643000D01*
X156803000Y-117959000D02*
X158073000Y-116689000D01*
X151977000Y-120499000D02*
X154517000Y-117959000D01*
X154517000Y-117959000D02*
X156803000Y-117959000D01*
X148675000Y-131929000D02*
X148675000Y-130913000D01*
X159343000Y-129389000D02*
X155914000Y-132818000D01*
X155914000Y-132818000D02*
X152461000Y-132818000D01*
X161883000Y-126849000D02*
X160287484Y-126849000D01*
X152461000Y-132818000D02*
X151215000Y-134064000D01*
X163153000Y-128119000D02*
X161883000Y-126849000D01*
X159343000Y-127793484D02*
X159343000Y-129389000D01*
X160287484Y-126849000D02*
X159343000Y-127793484D01*
X158073000Y-128119000D02*
X156944800Y-129247200D01*
X153515800Y-129247200D02*
X151215000Y-131548000D01*
X156944800Y-129247200D02*
X153515800Y-129247200D01*
D31*
X141055000Y-65381000D02*
X138769000Y-67667000D01*
X138769000Y-67667000D02*
X138769000Y-69191000D01*
D33*
X162391000Y-80113000D02*
X157311000Y-75033000D01*
X157311000Y-75033000D02*
X157311000Y-69445000D01*
X154771000Y-75033000D02*
X152231000Y-75033000D01*
X152231000Y-75033000D02*
X149437000Y-72239000D01*
X145373000Y-84431000D02*
X146897000Y-82907000D01*
X154517000Y-82907000D02*
X154771000Y-82653000D01*
X146897000Y-82907000D02*
X154517000Y-82907000D01*
X142945200Y-79463200D02*
X152880800Y-79463200D01*
X141817000Y-78335000D02*
X142945200Y-79463200D01*
X152880800Y-79463200D02*
X154771000Y-77573000D01*
X141817000Y-75287000D02*
X141817000Y-78335000D01*
X156041000Y-82327484D02*
X156041000Y-83923000D01*
X156041000Y-83923000D02*
X154771000Y-85193000D01*
X149437000Y-81383000D02*
X155096516Y-81383000D01*
X155096516Y-81383000D02*
X156041000Y-82327484D01*
X120481000Y-119483000D02*
X120481000Y-124280000D01*
X120481000Y-85701000D02*
X121751000Y-84431000D01*
D32*
X120481000Y-85701000D02*
X120481000Y-119483000D01*
D33*
X132607000Y-86971000D02*
X132673000Y-86905000D01*
X129371000Y-86971000D02*
X132607000Y-86971000D01*
X133171000Y-120499000D02*
X134695000Y-118975000D01*
X134695000Y-118975000D02*
X141055000Y-118975000D01*
X142833000Y-117197000D02*
X142833000Y-108561000D01*
X141055000Y-118975000D02*
X142833000Y-117197000D01*
X142833000Y-108561000D02*
X139531000Y-105259000D01*
X142071000Y-107037000D02*
X142071000Y-106021000D01*
X143341000Y-108307000D02*
X142071000Y-107037000D01*
X138251000Y-120499000D02*
X141055000Y-120499000D01*
X141055000Y-120499000D02*
X143341000Y-118213000D01*
X143341000Y-118213000D02*
X143341000Y-108307000D01*
X148454418Y-115960418D02*
X145881000Y-113387000D01*
X145881000Y-107291000D02*
X144611000Y-106021000D01*
X145881000Y-113387000D02*
X145881000Y-107291000D01*
X148454418Y-117925582D02*
X148454418Y-115960418D01*
X145881000Y-120499000D02*
X148454418Y-117925582D01*
X147141000Y-109069000D02*
X147141000Y-106031000D01*
X147141000Y-106031000D02*
X147151000Y-106021000D01*
X152739000Y-114911000D02*
X151469000Y-114911000D01*
X151469000Y-114911000D02*
X150961000Y-114403000D01*
X150961000Y-114403000D02*
X150961000Y-107291000D01*
X150707000Y-120499000D02*
X153501000Y-117705000D01*
X150961000Y-107291000D02*
X152231000Y-106021000D01*
X153501000Y-115673000D02*
X152739000Y-114911000D01*
X153501000Y-117705000D02*
X153501000Y-115673000D01*
X154771000Y-106021000D02*
X156803000Y-108053000D01*
X164931000Y-115419000D02*
X164931000Y-119229000D01*
X164931000Y-119229000D02*
X163661000Y-120499000D01*
X156803000Y-109831000D02*
X161121000Y-114149000D01*
X161121000Y-114149000D02*
X163661000Y-114149000D01*
X156803000Y-108053000D02*
X156803000Y-109831000D01*
X163661000Y-114149000D02*
X164931000Y-115419000D01*
X158439200Y-107149200D02*
X161233200Y-107149200D01*
X157311000Y-106021000D02*
X158439200Y-107149200D01*
X161233200Y-107149200D02*
X163153000Y-109069000D01*
X129371000Y-84431000D02*
X132099000Y-84431000D01*
X132099000Y-84431000D02*
X132673000Y-85005000D01*
X154771000Y-90273000D02*
X152141000Y-90273000D01*
X152141000Y-90273000D02*
X149437000Y-87569000D01*
X125702800Y-120077257D02*
X125702800Y-113103600D01*
X126851856Y-121226313D02*
X125702800Y-120077257D01*
X125702800Y-113103600D02*
X127339000Y-111467400D01*
X127339000Y-111467400D02*
X127339000Y-103227000D01*
X153642800Y-106670800D02*
X155533000Y-108561000D01*
X137245000Y-103735000D02*
X137753000Y-104243000D01*
X137753000Y-104243000D02*
X152332116Y-104243000D01*
X152332116Y-104243000D02*
X153642800Y-105553684D01*
X153642800Y-105553684D02*
X153642800Y-106670800D01*
X155533000Y-108561000D02*
X155533000Y-109069000D01*
X126323000Y-79351000D02*
X121751000Y-79351000D01*
X127593000Y-80621000D02*
X126323000Y-79351000D01*
X144357000Y-112625000D02*
X145729200Y-113997200D01*
X143087000Y-120102078D02*
X143087000Y-120499000D01*
X145729200Y-117459878D02*
X143087000Y-120102078D01*
X145729200Y-113997200D02*
X145729200Y-117459878D01*
X148167000Y-119991000D02*
X148167000Y-120499000D01*
X150961000Y-115673000D02*
X150961000Y-117197000D01*
X150961000Y-117197000D02*
X148167000Y-119991000D01*
X147913000Y-112625000D02*
X150961000Y-115673000D01*
X146897000Y-112625000D02*
X147913000Y-112625000D01*
X149801000Y-92813000D02*
X149437000Y-92449000D01*
X154771000Y-92813000D02*
X149801000Y-92813000D01*
X145373000Y-91035000D02*
X145373000Y-90527000D01*
X142579000Y-87733000D02*
X137753000Y-87733000D01*
X145373000Y-90527000D02*
X142579000Y-87733000D01*
X145373000Y-92559000D02*
X145373000Y-91035000D01*
X150707000Y-97893000D02*
X145373000Y-92559000D01*
X150707000Y-99163000D02*
X150707000Y-97893000D01*
X162391000Y-103227000D02*
X162391000Y-106021000D01*
X165439000Y-121261000D02*
X164931000Y-121769000D01*
X159343000Y-121769000D02*
X158073000Y-120499000D01*
X165439000Y-108307000D02*
X165439000Y-121261000D01*
X164931000Y-121769000D02*
X159343000Y-121769000D01*
X163153000Y-106021000D02*
X165439000Y-108307000D01*
X162391000Y-106021000D02*
X163153000Y-106021000D01*
D32*
X125900000Y-127074000D02*
X125483107Y-127490893D01*
X137195200Y-134707524D02*
X137195200Y-132710200D01*
X125900000Y-125692000D02*
X125900000Y-127074000D01*
X137195200Y-132710200D02*
X135992000Y-131507000D01*
X130413618Y-135250200D02*
X136652524Y-135250200D01*
X125483107Y-127490893D02*
X125483107Y-130319689D01*
X125483107Y-130319689D02*
X130413618Y-135250200D01*
X136652524Y-135250200D02*
X137195200Y-134707524D01*
X156224000Y-135485000D02*
X140366000Y-135485000D01*
X156253000Y-135456000D02*
X156224000Y-135485000D01*
X139868800Y-134987800D02*
X139868800Y-132843800D01*
D33*
X156253000Y-135456000D02*
X156477000Y-135232000D01*
D32*
X139868800Y-132843800D02*
X138532000Y-131507000D01*
X140366000Y-135485000D02*
X139868800Y-134987800D01*
D33*
X156477000Y-135232000D02*
X157904000Y-135232000D01*
D31*
X132038000Y-110974000D02*
X131530000Y-110466000D01*
X152866200Y-114291000D02*
X155533000Y-114291000D01*
X155533000Y-114291000D02*
X155533000Y-116689000D01*
X131530000Y-110466000D02*
X130544000Y-110466000D01*
X152089200Y-113514000D02*
X152866200Y-114291000D01*
X160613000Y-115165000D02*
X158439000Y-112991000D01*
X158439000Y-112991000D02*
X155533000Y-112991000D01*
X130641000Y-128109000D02*
X130631000Y-128119000D01*
X160613000Y-116689000D02*
X160613000Y-115165000D01*
X130641000Y-125609000D02*
X130641000Y-128109000D01*
D33*
X130544000Y-114149000D02*
X130544000Y-115770000D01*
X135213000Y-107545000D02*
X136737000Y-107545000D01*
X131982516Y-115927000D02*
X134451000Y-113458516D01*
X136737000Y-107545000D02*
X138261000Y-109069000D01*
X130387000Y-115927000D02*
X131982516Y-115927000D01*
X134451000Y-113458516D02*
X134451000Y-108307000D01*
X130544000Y-115770000D02*
X130387000Y-115927000D01*
X134451000Y-108307000D02*
X135213000Y-107545000D01*
X124799000Y-130659000D02*
X129879000Y-135739000D01*
X122374000Y-125580000D02*
X124799000Y-128005000D01*
X136840000Y-135739000D02*
X138532000Y-134047000D01*
X120638000Y-125580000D02*
X122374000Y-125580000D01*
X124799000Y-128005000D02*
X124799000Y-130659000D01*
X129879000Y-135739000D02*
X136840000Y-135739000D01*
M02*
