G04 #@! TF.GenerationSoftware,KiCad,Pcbnew,7.0.2*
G04 #@! TF.CreationDate,2023-06-04T10:40:26-07:00*
G04 #@! TF.ProjectId,we755a_dtmf,77653735-3561-45f6-9474-6d662e6b6963,1*
G04 #@! TF.SameCoordinates,Original*
G04 #@! TF.FileFunction,Legend,Top*
G04 #@! TF.FilePolarity,Positive*
%FSLAX46Y46*%
G04 Gerber Fmt 4.6, Leading zero omitted, Abs format (unit mm)*
G04 Created by KiCad (PCBNEW 7.0.2) date 2023-06-04 10:40:26*
%MOMM*%
%LPD*%
G01*
G04 APERTURE LIST*
%ADD10C,0.150000*%
%ADD11C,0.120000*%
G04 APERTURE END LIST*
D10*
X37401476Y-63599904D02*
X37877666Y-63599904D01*
X37306238Y-63885619D02*
X37639571Y-62885619D01*
X37639571Y-62885619D02*
X37972904Y-63885619D01*
X38163381Y-62885619D02*
X38496714Y-63885619D01*
X38496714Y-63885619D02*
X38830047Y-62885619D01*
X39734809Y-63885619D02*
X39401476Y-63409428D01*
X39163381Y-63885619D02*
X39163381Y-62885619D01*
X39163381Y-62885619D02*
X39544333Y-62885619D01*
X39544333Y-62885619D02*
X39639571Y-62933238D01*
X39639571Y-62933238D02*
X39687190Y-62980857D01*
X39687190Y-62980857D02*
X39734809Y-63076095D01*
X39734809Y-63076095D02*
X39734809Y-63218952D01*
X39734809Y-63218952D02*
X39687190Y-63314190D01*
X39687190Y-63314190D02*
X39639571Y-63361809D01*
X39639571Y-63361809D02*
X39544333Y-63409428D01*
X39544333Y-63409428D02*
X39163381Y-63409428D01*
X40687190Y-63885619D02*
X40115762Y-63885619D01*
X40401476Y-63885619D02*
X40401476Y-62885619D01*
X40401476Y-62885619D02*
X40306238Y-63028476D01*
X40306238Y-63028476D02*
X40211000Y-63123714D01*
X40211000Y-63123714D02*
X40115762Y-63171333D01*
X41068143Y-62980857D02*
X41115762Y-62933238D01*
X41115762Y-62933238D02*
X41211000Y-62885619D01*
X41211000Y-62885619D02*
X41449095Y-62885619D01*
X41449095Y-62885619D02*
X41544333Y-62933238D01*
X41544333Y-62933238D02*
X41591952Y-62980857D01*
X41591952Y-62980857D02*
X41639571Y-63076095D01*
X41639571Y-63076095D02*
X41639571Y-63171333D01*
X41639571Y-63171333D02*
X41591952Y-63314190D01*
X41591952Y-63314190D02*
X41020524Y-63885619D01*
X41020524Y-63885619D02*
X41639571Y-63885619D01*
X42211000Y-63314190D02*
X42115762Y-63266571D01*
X42115762Y-63266571D02*
X42068143Y-63218952D01*
X42068143Y-63218952D02*
X42020524Y-63123714D01*
X42020524Y-63123714D02*
X42020524Y-63076095D01*
X42020524Y-63076095D02*
X42068143Y-62980857D01*
X42068143Y-62980857D02*
X42115762Y-62933238D01*
X42115762Y-62933238D02*
X42211000Y-62885619D01*
X42211000Y-62885619D02*
X42401476Y-62885619D01*
X42401476Y-62885619D02*
X42496714Y-62933238D01*
X42496714Y-62933238D02*
X42544333Y-62980857D01*
X42544333Y-62980857D02*
X42591952Y-63076095D01*
X42591952Y-63076095D02*
X42591952Y-63123714D01*
X42591952Y-63123714D02*
X42544333Y-63218952D01*
X42544333Y-63218952D02*
X42496714Y-63266571D01*
X42496714Y-63266571D02*
X42401476Y-63314190D01*
X42401476Y-63314190D02*
X42211000Y-63314190D01*
X42211000Y-63314190D02*
X42115762Y-63361809D01*
X42115762Y-63361809D02*
X42068143Y-63409428D01*
X42068143Y-63409428D02*
X42020524Y-63504666D01*
X42020524Y-63504666D02*
X42020524Y-63695142D01*
X42020524Y-63695142D02*
X42068143Y-63790380D01*
X42068143Y-63790380D02*
X42115762Y-63838000D01*
X42115762Y-63838000D02*
X42211000Y-63885619D01*
X42211000Y-63885619D02*
X42401476Y-63885619D01*
X42401476Y-63885619D02*
X42496714Y-63838000D01*
X42496714Y-63838000D02*
X42544333Y-63790380D01*
X42544333Y-63790380D02*
X42591952Y-63695142D01*
X42591952Y-63695142D02*
X42591952Y-63504666D01*
X42591952Y-63504666D02*
X42544333Y-63409428D01*
X42544333Y-63409428D02*
X42496714Y-63361809D01*
X42496714Y-63361809D02*
X42401476Y-63314190D01*
X43020524Y-63885619D02*
X43020524Y-62885619D01*
X43020524Y-62885619D02*
X43258619Y-62885619D01*
X43258619Y-62885619D02*
X43401476Y-62933238D01*
X43401476Y-62933238D02*
X43496714Y-63028476D01*
X43496714Y-63028476D02*
X43544333Y-63123714D01*
X43544333Y-63123714D02*
X43591952Y-63314190D01*
X43591952Y-63314190D02*
X43591952Y-63457047D01*
X43591952Y-63457047D02*
X43544333Y-63647523D01*
X43544333Y-63647523D02*
X43496714Y-63742761D01*
X43496714Y-63742761D02*
X43401476Y-63838000D01*
X43401476Y-63838000D02*
X43258619Y-63885619D01*
X43258619Y-63885619D02*
X43020524Y-63885619D01*
X43972905Y-63599904D02*
X44449095Y-63599904D01*
X43877667Y-63885619D02*
X44211000Y-62885619D01*
X44211000Y-62885619D02*
X44544333Y-63885619D01*
X44830048Y-62980857D02*
X44877667Y-62933238D01*
X44877667Y-62933238D02*
X44972905Y-62885619D01*
X44972905Y-62885619D02*
X45211000Y-62885619D01*
X45211000Y-62885619D02*
X45306238Y-62933238D01*
X45306238Y-62933238D02*
X45353857Y-62980857D01*
X45353857Y-62980857D02*
X45401476Y-63076095D01*
X45401476Y-63076095D02*
X45401476Y-63171333D01*
X45401476Y-63171333D02*
X45353857Y-63314190D01*
X45353857Y-63314190D02*
X44782429Y-63885619D01*
X44782429Y-63885619D02*
X45401476Y-63885619D01*
X45972905Y-63314190D02*
X45877667Y-63266571D01*
X45877667Y-63266571D02*
X45830048Y-63218952D01*
X45830048Y-63218952D02*
X45782429Y-63123714D01*
X45782429Y-63123714D02*
X45782429Y-63076095D01*
X45782429Y-63076095D02*
X45830048Y-62980857D01*
X45830048Y-62980857D02*
X45877667Y-62933238D01*
X45877667Y-62933238D02*
X45972905Y-62885619D01*
X45972905Y-62885619D02*
X46163381Y-62885619D01*
X46163381Y-62885619D02*
X46258619Y-62933238D01*
X46258619Y-62933238D02*
X46306238Y-62980857D01*
X46306238Y-62980857D02*
X46353857Y-63076095D01*
X46353857Y-63076095D02*
X46353857Y-63123714D01*
X46353857Y-63123714D02*
X46306238Y-63218952D01*
X46306238Y-63218952D02*
X46258619Y-63266571D01*
X46258619Y-63266571D02*
X46163381Y-63314190D01*
X46163381Y-63314190D02*
X45972905Y-63314190D01*
X45972905Y-63314190D02*
X45877667Y-63361809D01*
X45877667Y-63361809D02*
X45830048Y-63409428D01*
X45830048Y-63409428D02*
X45782429Y-63504666D01*
X45782429Y-63504666D02*
X45782429Y-63695142D01*
X45782429Y-63695142D02*
X45830048Y-63790380D01*
X45830048Y-63790380D02*
X45877667Y-63838000D01*
X45877667Y-63838000D02*
X45972905Y-63885619D01*
X45972905Y-63885619D02*
X46163381Y-63885619D01*
X46163381Y-63885619D02*
X46258619Y-63838000D01*
X46258619Y-63838000D02*
X46306238Y-63790380D01*
X46306238Y-63790380D02*
X46353857Y-63695142D01*
X46353857Y-63695142D02*
X46353857Y-63504666D01*
X46353857Y-63504666D02*
X46306238Y-63409428D01*
X46306238Y-63409428D02*
X46258619Y-63361809D01*
X46258619Y-63361809D02*
X46163381Y-63314190D01*
X73517095Y-67568619D02*
X73517095Y-66568619D01*
X73517095Y-66568619D02*
X73850428Y-67282904D01*
X73850428Y-67282904D02*
X74183761Y-66568619D01*
X74183761Y-66568619D02*
X74183761Y-67568619D01*
X74517095Y-66568619D02*
X75088523Y-66568619D01*
X74802809Y-67568619D02*
X74802809Y-66568619D01*
X75564714Y-66997190D02*
X75469476Y-66949571D01*
X75469476Y-66949571D02*
X75421857Y-66901952D01*
X75421857Y-66901952D02*
X75374238Y-66806714D01*
X75374238Y-66806714D02*
X75374238Y-66759095D01*
X75374238Y-66759095D02*
X75421857Y-66663857D01*
X75421857Y-66663857D02*
X75469476Y-66616238D01*
X75469476Y-66616238D02*
X75564714Y-66568619D01*
X75564714Y-66568619D02*
X75755190Y-66568619D01*
X75755190Y-66568619D02*
X75850428Y-66616238D01*
X75850428Y-66616238D02*
X75898047Y-66663857D01*
X75898047Y-66663857D02*
X75945666Y-66759095D01*
X75945666Y-66759095D02*
X75945666Y-66806714D01*
X75945666Y-66806714D02*
X75898047Y-66901952D01*
X75898047Y-66901952D02*
X75850428Y-66949571D01*
X75850428Y-66949571D02*
X75755190Y-66997190D01*
X75755190Y-66997190D02*
X75564714Y-66997190D01*
X75564714Y-66997190D02*
X75469476Y-67044809D01*
X75469476Y-67044809D02*
X75421857Y-67092428D01*
X75421857Y-67092428D02*
X75374238Y-67187666D01*
X75374238Y-67187666D02*
X75374238Y-67378142D01*
X75374238Y-67378142D02*
X75421857Y-67473380D01*
X75421857Y-67473380D02*
X75469476Y-67521000D01*
X75469476Y-67521000D02*
X75564714Y-67568619D01*
X75564714Y-67568619D02*
X75755190Y-67568619D01*
X75755190Y-67568619D02*
X75850428Y-67521000D01*
X75850428Y-67521000D02*
X75898047Y-67473380D01*
X75898047Y-67473380D02*
X75945666Y-67378142D01*
X75945666Y-67378142D02*
X75945666Y-67187666D01*
X75945666Y-67187666D02*
X75898047Y-67092428D01*
X75898047Y-67092428D02*
X75850428Y-67044809D01*
X75850428Y-67044809D02*
X75755190Y-66997190D01*
X76517095Y-66997190D02*
X76421857Y-66949571D01*
X76421857Y-66949571D02*
X76374238Y-66901952D01*
X76374238Y-66901952D02*
X76326619Y-66806714D01*
X76326619Y-66806714D02*
X76326619Y-66759095D01*
X76326619Y-66759095D02*
X76374238Y-66663857D01*
X76374238Y-66663857D02*
X76421857Y-66616238D01*
X76421857Y-66616238D02*
X76517095Y-66568619D01*
X76517095Y-66568619D02*
X76707571Y-66568619D01*
X76707571Y-66568619D02*
X76802809Y-66616238D01*
X76802809Y-66616238D02*
X76850428Y-66663857D01*
X76850428Y-66663857D02*
X76898047Y-66759095D01*
X76898047Y-66759095D02*
X76898047Y-66806714D01*
X76898047Y-66806714D02*
X76850428Y-66901952D01*
X76850428Y-66901952D02*
X76802809Y-66949571D01*
X76802809Y-66949571D02*
X76707571Y-66997190D01*
X76707571Y-66997190D02*
X76517095Y-66997190D01*
X76517095Y-66997190D02*
X76421857Y-67044809D01*
X76421857Y-67044809D02*
X76374238Y-67092428D01*
X76374238Y-67092428D02*
X76326619Y-67187666D01*
X76326619Y-67187666D02*
X76326619Y-67378142D01*
X76326619Y-67378142D02*
X76374238Y-67473380D01*
X76374238Y-67473380D02*
X76421857Y-67521000D01*
X76421857Y-67521000D02*
X76517095Y-67568619D01*
X76517095Y-67568619D02*
X76707571Y-67568619D01*
X76707571Y-67568619D02*
X76802809Y-67521000D01*
X76802809Y-67521000D02*
X76850428Y-67473380D01*
X76850428Y-67473380D02*
X76898047Y-67378142D01*
X76898047Y-67378142D02*
X76898047Y-67187666D01*
X76898047Y-67187666D02*
X76850428Y-67092428D01*
X76850428Y-67092428D02*
X76802809Y-67044809D01*
X76802809Y-67044809D02*
X76707571Y-66997190D01*
X77231381Y-66568619D02*
X77898047Y-66568619D01*
X77898047Y-66568619D02*
X77469476Y-67568619D01*
X78469476Y-66568619D02*
X78564714Y-66568619D01*
X78564714Y-66568619D02*
X78659952Y-66616238D01*
X78659952Y-66616238D02*
X78707571Y-66663857D01*
X78707571Y-66663857D02*
X78755190Y-66759095D01*
X78755190Y-66759095D02*
X78802809Y-66949571D01*
X78802809Y-66949571D02*
X78802809Y-67187666D01*
X78802809Y-67187666D02*
X78755190Y-67378142D01*
X78755190Y-67378142D02*
X78707571Y-67473380D01*
X78707571Y-67473380D02*
X78659952Y-67521000D01*
X78659952Y-67521000D02*
X78564714Y-67568619D01*
X78564714Y-67568619D02*
X78469476Y-67568619D01*
X78469476Y-67568619D02*
X78374238Y-67521000D01*
X78374238Y-67521000D02*
X78326619Y-67473380D01*
X78326619Y-67473380D02*
X78279000Y-67378142D01*
X78279000Y-67378142D02*
X78231381Y-67187666D01*
X78231381Y-67187666D02*
X78231381Y-66949571D01*
X78231381Y-66949571D02*
X78279000Y-66759095D01*
X78279000Y-66759095D02*
X78326619Y-66663857D01*
X78326619Y-66663857D02*
X78374238Y-66616238D01*
X78374238Y-66616238D02*
X78469476Y-66568619D01*
X47767857Y-35800619D02*
X48005952Y-36800619D01*
X48005952Y-36800619D02*
X48196428Y-36086333D01*
X48196428Y-36086333D02*
X48386904Y-36800619D01*
X48386904Y-36800619D02*
X48625000Y-35800619D01*
X49005952Y-36276809D02*
X49339285Y-36276809D01*
X49482142Y-36800619D02*
X49005952Y-36800619D01*
X49005952Y-36800619D02*
X49005952Y-35800619D01*
X49005952Y-35800619D02*
X49482142Y-35800619D01*
X50577381Y-35800619D02*
X51244047Y-35800619D01*
X51244047Y-35800619D02*
X50815476Y-36800619D01*
X52101190Y-35800619D02*
X51625000Y-35800619D01*
X51625000Y-35800619D02*
X51577381Y-36276809D01*
X51577381Y-36276809D02*
X51625000Y-36229190D01*
X51625000Y-36229190D02*
X51720238Y-36181571D01*
X51720238Y-36181571D02*
X51958333Y-36181571D01*
X51958333Y-36181571D02*
X52053571Y-36229190D01*
X52053571Y-36229190D02*
X52101190Y-36276809D01*
X52101190Y-36276809D02*
X52148809Y-36372047D01*
X52148809Y-36372047D02*
X52148809Y-36610142D01*
X52148809Y-36610142D02*
X52101190Y-36705380D01*
X52101190Y-36705380D02*
X52053571Y-36753000D01*
X52053571Y-36753000D02*
X51958333Y-36800619D01*
X51958333Y-36800619D02*
X51720238Y-36800619D01*
X51720238Y-36800619D02*
X51625000Y-36753000D01*
X51625000Y-36753000D02*
X51577381Y-36705380D01*
X53053571Y-35800619D02*
X52577381Y-35800619D01*
X52577381Y-35800619D02*
X52529762Y-36276809D01*
X52529762Y-36276809D02*
X52577381Y-36229190D01*
X52577381Y-36229190D02*
X52672619Y-36181571D01*
X52672619Y-36181571D02*
X52910714Y-36181571D01*
X52910714Y-36181571D02*
X53005952Y-36229190D01*
X53005952Y-36229190D02*
X53053571Y-36276809D01*
X53053571Y-36276809D02*
X53101190Y-36372047D01*
X53101190Y-36372047D02*
X53101190Y-36610142D01*
X53101190Y-36610142D02*
X53053571Y-36705380D01*
X53053571Y-36705380D02*
X53005952Y-36753000D01*
X53005952Y-36753000D02*
X52910714Y-36800619D01*
X52910714Y-36800619D02*
X52672619Y-36800619D01*
X52672619Y-36800619D02*
X52577381Y-36753000D01*
X52577381Y-36753000D02*
X52529762Y-36705380D01*
X53482143Y-36514904D02*
X53958333Y-36514904D01*
X53386905Y-36800619D02*
X53720238Y-35800619D01*
X53720238Y-35800619D02*
X54053571Y-36800619D01*
X55148810Y-36800619D02*
X55148810Y-35800619D01*
X55148810Y-35800619D02*
X55529762Y-35800619D01*
X55529762Y-35800619D02*
X55625000Y-35848238D01*
X55625000Y-35848238D02*
X55672619Y-35895857D01*
X55672619Y-35895857D02*
X55720238Y-35991095D01*
X55720238Y-35991095D02*
X55720238Y-36133952D01*
X55720238Y-36133952D02*
X55672619Y-36229190D01*
X55672619Y-36229190D02*
X55625000Y-36276809D01*
X55625000Y-36276809D02*
X55529762Y-36324428D01*
X55529762Y-36324428D02*
X55148810Y-36324428D01*
X56482143Y-36276809D02*
X56625000Y-36324428D01*
X56625000Y-36324428D02*
X56672619Y-36372047D01*
X56672619Y-36372047D02*
X56720238Y-36467285D01*
X56720238Y-36467285D02*
X56720238Y-36610142D01*
X56720238Y-36610142D02*
X56672619Y-36705380D01*
X56672619Y-36705380D02*
X56625000Y-36753000D01*
X56625000Y-36753000D02*
X56529762Y-36800619D01*
X56529762Y-36800619D02*
X56148810Y-36800619D01*
X56148810Y-36800619D02*
X56148810Y-35800619D01*
X56148810Y-35800619D02*
X56482143Y-35800619D01*
X56482143Y-35800619D02*
X56577381Y-35848238D01*
X56577381Y-35848238D02*
X56625000Y-35895857D01*
X56625000Y-35895857D02*
X56672619Y-35991095D01*
X56672619Y-35991095D02*
X56672619Y-36086333D01*
X56672619Y-36086333D02*
X56625000Y-36181571D01*
X56625000Y-36181571D02*
X56577381Y-36229190D01*
X56577381Y-36229190D02*
X56482143Y-36276809D01*
X56482143Y-36276809D02*
X56148810Y-36276809D01*
X57053572Y-35800619D02*
X57720238Y-36800619D01*
X57720238Y-35800619D02*
X57053572Y-36800619D01*
X47863095Y-38420619D02*
X47863095Y-37420619D01*
X47863095Y-37420619D02*
X48101190Y-37420619D01*
X48101190Y-37420619D02*
X48244047Y-37468238D01*
X48244047Y-37468238D02*
X48339285Y-37563476D01*
X48339285Y-37563476D02*
X48386904Y-37658714D01*
X48386904Y-37658714D02*
X48434523Y-37849190D01*
X48434523Y-37849190D02*
X48434523Y-37992047D01*
X48434523Y-37992047D02*
X48386904Y-38182523D01*
X48386904Y-38182523D02*
X48339285Y-38277761D01*
X48339285Y-38277761D02*
X48244047Y-38373000D01*
X48244047Y-38373000D02*
X48101190Y-38420619D01*
X48101190Y-38420619D02*
X47863095Y-38420619D01*
X48720238Y-37420619D02*
X49291666Y-37420619D01*
X49005952Y-38420619D02*
X49005952Y-37420619D01*
X49625000Y-38420619D02*
X49625000Y-37420619D01*
X49625000Y-37420619D02*
X49958333Y-38134904D01*
X49958333Y-38134904D02*
X50291666Y-37420619D01*
X50291666Y-37420619D02*
X50291666Y-38420619D01*
X51101190Y-37896809D02*
X50767857Y-37896809D01*
X50767857Y-38420619D02*
X50767857Y-37420619D01*
X50767857Y-37420619D02*
X51244047Y-37420619D01*
X52958333Y-38325380D02*
X52910714Y-38373000D01*
X52910714Y-38373000D02*
X52767857Y-38420619D01*
X52767857Y-38420619D02*
X52672619Y-38420619D01*
X52672619Y-38420619D02*
X52529762Y-38373000D01*
X52529762Y-38373000D02*
X52434524Y-38277761D01*
X52434524Y-38277761D02*
X52386905Y-38182523D01*
X52386905Y-38182523D02*
X52339286Y-37992047D01*
X52339286Y-37992047D02*
X52339286Y-37849190D01*
X52339286Y-37849190D02*
X52386905Y-37658714D01*
X52386905Y-37658714D02*
X52434524Y-37563476D01*
X52434524Y-37563476D02*
X52529762Y-37468238D01*
X52529762Y-37468238D02*
X52672619Y-37420619D01*
X52672619Y-37420619D02*
X52767857Y-37420619D01*
X52767857Y-37420619D02*
X52910714Y-37468238D01*
X52910714Y-37468238D02*
X52958333Y-37515857D01*
X53529762Y-38420619D02*
X53434524Y-38373000D01*
X53434524Y-38373000D02*
X53386905Y-38325380D01*
X53386905Y-38325380D02*
X53339286Y-38230142D01*
X53339286Y-38230142D02*
X53339286Y-37944428D01*
X53339286Y-37944428D02*
X53386905Y-37849190D01*
X53386905Y-37849190D02*
X53434524Y-37801571D01*
X53434524Y-37801571D02*
X53529762Y-37753952D01*
X53529762Y-37753952D02*
X53672619Y-37753952D01*
X53672619Y-37753952D02*
X53767857Y-37801571D01*
X53767857Y-37801571D02*
X53815476Y-37849190D01*
X53815476Y-37849190D02*
X53863095Y-37944428D01*
X53863095Y-37944428D02*
X53863095Y-38230142D01*
X53863095Y-38230142D02*
X53815476Y-38325380D01*
X53815476Y-38325380D02*
X53767857Y-38373000D01*
X53767857Y-38373000D02*
X53672619Y-38420619D01*
X53672619Y-38420619D02*
X53529762Y-38420619D01*
X54291667Y-37753952D02*
X54291667Y-38420619D01*
X54291667Y-37849190D02*
X54339286Y-37801571D01*
X54339286Y-37801571D02*
X54434524Y-37753952D01*
X54434524Y-37753952D02*
X54577381Y-37753952D01*
X54577381Y-37753952D02*
X54672619Y-37801571D01*
X54672619Y-37801571D02*
X54720238Y-37896809D01*
X54720238Y-37896809D02*
X54720238Y-38420619D01*
X55101191Y-37753952D02*
X55339286Y-38420619D01*
X55339286Y-38420619D02*
X55577381Y-37753952D01*
X56339286Y-38373000D02*
X56244048Y-38420619D01*
X56244048Y-38420619D02*
X56053572Y-38420619D01*
X56053572Y-38420619D02*
X55958334Y-38373000D01*
X55958334Y-38373000D02*
X55910715Y-38277761D01*
X55910715Y-38277761D02*
X55910715Y-37896809D01*
X55910715Y-37896809D02*
X55958334Y-37801571D01*
X55958334Y-37801571D02*
X56053572Y-37753952D01*
X56053572Y-37753952D02*
X56244048Y-37753952D01*
X56244048Y-37753952D02*
X56339286Y-37801571D01*
X56339286Y-37801571D02*
X56386905Y-37896809D01*
X56386905Y-37896809D02*
X56386905Y-37992047D01*
X56386905Y-37992047D02*
X55910715Y-38087285D01*
X56815477Y-38420619D02*
X56815477Y-37753952D01*
X56815477Y-37944428D02*
X56863096Y-37849190D01*
X56863096Y-37849190D02*
X56910715Y-37801571D01*
X56910715Y-37801571D02*
X57005953Y-37753952D01*
X57005953Y-37753952D02*
X57101191Y-37753952D01*
X57291668Y-37753952D02*
X57672620Y-37753952D01*
X57434525Y-37420619D02*
X57434525Y-38277761D01*
X57434525Y-38277761D02*
X57482144Y-38373000D01*
X57482144Y-38373000D02*
X57577382Y-38420619D01*
X57577382Y-38420619D02*
X57672620Y-38420619D01*
X58386906Y-38373000D02*
X58291668Y-38420619D01*
X58291668Y-38420619D02*
X58101192Y-38420619D01*
X58101192Y-38420619D02*
X58005954Y-38373000D01*
X58005954Y-38373000D02*
X57958335Y-38277761D01*
X57958335Y-38277761D02*
X57958335Y-37896809D01*
X57958335Y-37896809D02*
X58005954Y-37801571D01*
X58005954Y-37801571D02*
X58101192Y-37753952D01*
X58101192Y-37753952D02*
X58291668Y-37753952D01*
X58291668Y-37753952D02*
X58386906Y-37801571D01*
X58386906Y-37801571D02*
X58434525Y-37896809D01*
X58434525Y-37896809D02*
X58434525Y-37992047D01*
X58434525Y-37992047D02*
X57958335Y-38087285D01*
X58863097Y-38420619D02*
X58863097Y-37753952D01*
X58863097Y-37944428D02*
X58910716Y-37849190D01*
X58910716Y-37849190D02*
X58958335Y-37801571D01*
X58958335Y-37801571D02*
X59053573Y-37753952D01*
X59053573Y-37753952D02*
X59148811Y-37753952D01*
X47863095Y-40040619D02*
X47863095Y-39040619D01*
X48291666Y-39993000D02*
X48386904Y-40040619D01*
X48386904Y-40040619D02*
X48577380Y-40040619D01*
X48577380Y-40040619D02*
X48672618Y-39993000D01*
X48672618Y-39993000D02*
X48720237Y-39897761D01*
X48720237Y-39897761D02*
X48720237Y-39850142D01*
X48720237Y-39850142D02*
X48672618Y-39754904D01*
X48672618Y-39754904D02*
X48577380Y-39707285D01*
X48577380Y-39707285D02*
X48434523Y-39707285D01*
X48434523Y-39707285D02*
X48339285Y-39659666D01*
X48339285Y-39659666D02*
X48291666Y-39564428D01*
X48291666Y-39564428D02*
X48291666Y-39516809D01*
X48291666Y-39516809D02*
X48339285Y-39421571D01*
X48339285Y-39421571D02*
X48434523Y-39373952D01*
X48434523Y-39373952D02*
X48577380Y-39373952D01*
X48577380Y-39373952D02*
X48672618Y-39421571D01*
X49101190Y-39993000D02*
X49196428Y-40040619D01*
X49196428Y-40040619D02*
X49386904Y-40040619D01*
X49386904Y-40040619D02*
X49482142Y-39993000D01*
X49482142Y-39993000D02*
X49529761Y-39897761D01*
X49529761Y-39897761D02*
X49529761Y-39850142D01*
X49529761Y-39850142D02*
X49482142Y-39754904D01*
X49482142Y-39754904D02*
X49386904Y-39707285D01*
X49386904Y-39707285D02*
X49244047Y-39707285D01*
X49244047Y-39707285D02*
X49148809Y-39659666D01*
X49148809Y-39659666D02*
X49101190Y-39564428D01*
X49101190Y-39564428D02*
X49101190Y-39516809D01*
X49101190Y-39516809D02*
X49148809Y-39421571D01*
X49148809Y-39421571D02*
X49244047Y-39373952D01*
X49244047Y-39373952D02*
X49386904Y-39373952D01*
X49386904Y-39373952D02*
X49482142Y-39421571D01*
X50386904Y-39373952D02*
X50386904Y-40040619D01*
X49958333Y-39373952D02*
X49958333Y-39897761D01*
X49958333Y-39897761D02*
X50005952Y-39993000D01*
X50005952Y-39993000D02*
X50101190Y-40040619D01*
X50101190Y-40040619D02*
X50244047Y-40040619D01*
X50244047Y-40040619D02*
X50339285Y-39993000D01*
X50339285Y-39993000D02*
X50386904Y-39945380D01*
X51244047Y-39993000D02*
X51148809Y-40040619D01*
X51148809Y-40040619D02*
X50958333Y-40040619D01*
X50958333Y-40040619D02*
X50863095Y-39993000D01*
X50863095Y-39993000D02*
X50815476Y-39897761D01*
X50815476Y-39897761D02*
X50815476Y-39516809D01*
X50815476Y-39516809D02*
X50863095Y-39421571D01*
X50863095Y-39421571D02*
X50958333Y-39373952D01*
X50958333Y-39373952D02*
X51148809Y-39373952D01*
X51148809Y-39373952D02*
X51244047Y-39421571D01*
X51244047Y-39421571D02*
X51291666Y-39516809D01*
X51291666Y-39516809D02*
X51291666Y-39612047D01*
X51291666Y-39612047D02*
X50815476Y-39707285D01*
X53005952Y-40040619D02*
X52434524Y-40040619D01*
X52720238Y-40040619D02*
X52720238Y-39040619D01*
X52720238Y-39040619D02*
X52625000Y-39183476D01*
X52625000Y-39183476D02*
X52529762Y-39278714D01*
X52529762Y-39278714D02*
X52434524Y-39326333D01*
X47815476Y-40755857D02*
X47863095Y-40708238D01*
X47863095Y-40708238D02*
X47958333Y-40660619D01*
X47958333Y-40660619D02*
X48196428Y-40660619D01*
X48196428Y-40660619D02*
X48291666Y-40708238D01*
X48291666Y-40708238D02*
X48339285Y-40755857D01*
X48339285Y-40755857D02*
X48386904Y-40851095D01*
X48386904Y-40851095D02*
X48386904Y-40946333D01*
X48386904Y-40946333D02*
X48339285Y-41089190D01*
X48339285Y-41089190D02*
X47767857Y-41660619D01*
X47767857Y-41660619D02*
X48386904Y-41660619D01*
X49005952Y-40660619D02*
X49101190Y-40660619D01*
X49101190Y-40660619D02*
X49196428Y-40708238D01*
X49196428Y-40708238D02*
X49244047Y-40755857D01*
X49244047Y-40755857D02*
X49291666Y-40851095D01*
X49291666Y-40851095D02*
X49339285Y-41041571D01*
X49339285Y-41041571D02*
X49339285Y-41279666D01*
X49339285Y-41279666D02*
X49291666Y-41470142D01*
X49291666Y-41470142D02*
X49244047Y-41565380D01*
X49244047Y-41565380D02*
X49196428Y-41613000D01*
X49196428Y-41613000D02*
X49101190Y-41660619D01*
X49101190Y-41660619D02*
X49005952Y-41660619D01*
X49005952Y-41660619D02*
X48910714Y-41613000D01*
X48910714Y-41613000D02*
X48863095Y-41565380D01*
X48863095Y-41565380D02*
X48815476Y-41470142D01*
X48815476Y-41470142D02*
X48767857Y-41279666D01*
X48767857Y-41279666D02*
X48767857Y-41041571D01*
X48767857Y-41041571D02*
X48815476Y-40851095D01*
X48815476Y-40851095D02*
X48863095Y-40755857D01*
X48863095Y-40755857D02*
X48910714Y-40708238D01*
X48910714Y-40708238D02*
X49005952Y-40660619D01*
X49720238Y-40755857D02*
X49767857Y-40708238D01*
X49767857Y-40708238D02*
X49863095Y-40660619D01*
X49863095Y-40660619D02*
X50101190Y-40660619D01*
X50101190Y-40660619D02*
X50196428Y-40708238D01*
X50196428Y-40708238D02*
X50244047Y-40755857D01*
X50244047Y-40755857D02*
X50291666Y-40851095D01*
X50291666Y-40851095D02*
X50291666Y-40946333D01*
X50291666Y-40946333D02*
X50244047Y-41089190D01*
X50244047Y-41089190D02*
X49672619Y-41660619D01*
X49672619Y-41660619D02*
X50291666Y-41660619D01*
X50625000Y-40660619D02*
X51244047Y-40660619D01*
X51244047Y-40660619D02*
X50910714Y-41041571D01*
X50910714Y-41041571D02*
X51053571Y-41041571D01*
X51053571Y-41041571D02*
X51148809Y-41089190D01*
X51148809Y-41089190D02*
X51196428Y-41136809D01*
X51196428Y-41136809D02*
X51244047Y-41232047D01*
X51244047Y-41232047D02*
X51244047Y-41470142D01*
X51244047Y-41470142D02*
X51196428Y-41565380D01*
X51196428Y-41565380D02*
X51148809Y-41613000D01*
X51148809Y-41613000D02*
X51053571Y-41660619D01*
X51053571Y-41660619D02*
X50767857Y-41660619D01*
X50767857Y-41660619D02*
X50672619Y-41613000D01*
X50672619Y-41613000D02*
X50625000Y-41565380D01*
X51672619Y-41279666D02*
X52434524Y-41279666D01*
X53101190Y-40660619D02*
X53196428Y-40660619D01*
X53196428Y-40660619D02*
X53291666Y-40708238D01*
X53291666Y-40708238D02*
X53339285Y-40755857D01*
X53339285Y-40755857D02*
X53386904Y-40851095D01*
X53386904Y-40851095D02*
X53434523Y-41041571D01*
X53434523Y-41041571D02*
X53434523Y-41279666D01*
X53434523Y-41279666D02*
X53386904Y-41470142D01*
X53386904Y-41470142D02*
X53339285Y-41565380D01*
X53339285Y-41565380D02*
X53291666Y-41613000D01*
X53291666Y-41613000D02*
X53196428Y-41660619D01*
X53196428Y-41660619D02*
X53101190Y-41660619D01*
X53101190Y-41660619D02*
X53005952Y-41613000D01*
X53005952Y-41613000D02*
X52958333Y-41565380D01*
X52958333Y-41565380D02*
X52910714Y-41470142D01*
X52910714Y-41470142D02*
X52863095Y-41279666D01*
X52863095Y-41279666D02*
X52863095Y-41041571D01*
X52863095Y-41041571D02*
X52910714Y-40851095D01*
X52910714Y-40851095D02*
X52958333Y-40755857D01*
X52958333Y-40755857D02*
X53005952Y-40708238D01*
X53005952Y-40708238D02*
X53101190Y-40660619D01*
X54291666Y-40660619D02*
X54101190Y-40660619D01*
X54101190Y-40660619D02*
X54005952Y-40708238D01*
X54005952Y-40708238D02*
X53958333Y-40755857D01*
X53958333Y-40755857D02*
X53863095Y-40898714D01*
X53863095Y-40898714D02*
X53815476Y-41089190D01*
X53815476Y-41089190D02*
X53815476Y-41470142D01*
X53815476Y-41470142D02*
X53863095Y-41565380D01*
X53863095Y-41565380D02*
X53910714Y-41613000D01*
X53910714Y-41613000D02*
X54005952Y-41660619D01*
X54005952Y-41660619D02*
X54196428Y-41660619D01*
X54196428Y-41660619D02*
X54291666Y-41613000D01*
X54291666Y-41613000D02*
X54339285Y-41565380D01*
X54339285Y-41565380D02*
X54386904Y-41470142D01*
X54386904Y-41470142D02*
X54386904Y-41232047D01*
X54386904Y-41232047D02*
X54339285Y-41136809D01*
X54339285Y-41136809D02*
X54291666Y-41089190D01*
X54291666Y-41089190D02*
X54196428Y-41041571D01*
X54196428Y-41041571D02*
X54005952Y-41041571D01*
X54005952Y-41041571D02*
X53910714Y-41089190D01*
X53910714Y-41089190D02*
X53863095Y-41136809D01*
X53863095Y-41136809D02*
X53815476Y-41232047D01*
X54815476Y-41279666D02*
X55577381Y-41279666D01*
X56244047Y-40660619D02*
X56339285Y-40660619D01*
X56339285Y-40660619D02*
X56434523Y-40708238D01*
X56434523Y-40708238D02*
X56482142Y-40755857D01*
X56482142Y-40755857D02*
X56529761Y-40851095D01*
X56529761Y-40851095D02*
X56577380Y-41041571D01*
X56577380Y-41041571D02*
X56577380Y-41279666D01*
X56577380Y-41279666D02*
X56529761Y-41470142D01*
X56529761Y-41470142D02*
X56482142Y-41565380D01*
X56482142Y-41565380D02*
X56434523Y-41613000D01*
X56434523Y-41613000D02*
X56339285Y-41660619D01*
X56339285Y-41660619D02*
X56244047Y-41660619D01*
X56244047Y-41660619D02*
X56148809Y-41613000D01*
X56148809Y-41613000D02*
X56101190Y-41565380D01*
X56101190Y-41565380D02*
X56053571Y-41470142D01*
X56053571Y-41470142D02*
X56005952Y-41279666D01*
X56005952Y-41279666D02*
X56005952Y-41041571D01*
X56005952Y-41041571D02*
X56053571Y-40851095D01*
X56053571Y-40851095D02*
X56101190Y-40755857D01*
X56101190Y-40755857D02*
X56148809Y-40708238D01*
X56148809Y-40708238D02*
X56244047Y-40660619D01*
X56910714Y-40660619D02*
X57529761Y-40660619D01*
X57529761Y-40660619D02*
X57196428Y-41041571D01*
X57196428Y-41041571D02*
X57339285Y-41041571D01*
X57339285Y-41041571D02*
X57434523Y-41089190D01*
X57434523Y-41089190D02*
X57482142Y-41136809D01*
X57482142Y-41136809D02*
X57529761Y-41232047D01*
X57529761Y-41232047D02*
X57529761Y-41470142D01*
X57529761Y-41470142D02*
X57482142Y-41565380D01*
X57482142Y-41565380D02*
X57434523Y-41613000D01*
X57434523Y-41613000D02*
X57339285Y-41660619D01*
X57339285Y-41660619D02*
X57053571Y-41660619D01*
X57053571Y-41660619D02*
X56958333Y-41613000D01*
X56958333Y-41613000D02*
X56910714Y-41565380D01*
X72912619Y-107013333D02*
X73626904Y-107013333D01*
X73626904Y-107013333D02*
X73769761Y-107060952D01*
X73769761Y-107060952D02*
X73865000Y-107156190D01*
X73865000Y-107156190D02*
X73912619Y-107299047D01*
X73912619Y-107299047D02*
X73912619Y-107394285D01*
X72912619Y-106632380D02*
X72912619Y-106013333D01*
X72912619Y-106013333D02*
X73293571Y-106346666D01*
X73293571Y-106346666D02*
X73293571Y-106203809D01*
X73293571Y-106203809D02*
X73341190Y-106108571D01*
X73341190Y-106108571D02*
X73388809Y-106060952D01*
X73388809Y-106060952D02*
X73484047Y-106013333D01*
X73484047Y-106013333D02*
X73722142Y-106013333D01*
X73722142Y-106013333D02*
X73817380Y-106060952D01*
X73817380Y-106060952D02*
X73865000Y-106108571D01*
X73865000Y-106108571D02*
X73912619Y-106203809D01*
X73912619Y-106203809D02*
X73912619Y-106489523D01*
X73912619Y-106489523D02*
X73865000Y-106584761D01*
X73865000Y-106584761D02*
X73817380Y-106632380D01*
X56178095Y-85822619D02*
X56178095Y-86632142D01*
X56178095Y-86632142D02*
X56225714Y-86727380D01*
X56225714Y-86727380D02*
X56273333Y-86775000D01*
X56273333Y-86775000D02*
X56368571Y-86822619D01*
X56368571Y-86822619D02*
X56559047Y-86822619D01*
X56559047Y-86822619D02*
X56654285Y-86775000D01*
X56654285Y-86775000D02*
X56701904Y-86727380D01*
X56701904Y-86727380D02*
X56749523Y-86632142D01*
X56749523Y-86632142D02*
X56749523Y-85822619D01*
X57130476Y-85822619D02*
X57749523Y-85822619D01*
X57749523Y-85822619D02*
X57416190Y-86203571D01*
X57416190Y-86203571D02*
X57559047Y-86203571D01*
X57559047Y-86203571D02*
X57654285Y-86251190D01*
X57654285Y-86251190D02*
X57701904Y-86298809D01*
X57701904Y-86298809D02*
X57749523Y-86394047D01*
X57749523Y-86394047D02*
X57749523Y-86632142D01*
X57749523Y-86632142D02*
X57701904Y-86727380D01*
X57701904Y-86727380D02*
X57654285Y-86775000D01*
X57654285Y-86775000D02*
X57559047Y-86822619D01*
X57559047Y-86822619D02*
X57273333Y-86822619D01*
X57273333Y-86822619D02*
X57178095Y-86775000D01*
X57178095Y-86775000D02*
X57130476Y-86727380D01*
X79843333Y-29291619D02*
X79510000Y-28815428D01*
X79271905Y-29291619D02*
X79271905Y-28291619D01*
X79271905Y-28291619D02*
X79652857Y-28291619D01*
X79652857Y-28291619D02*
X79748095Y-28339238D01*
X79748095Y-28339238D02*
X79795714Y-28386857D01*
X79795714Y-28386857D02*
X79843333Y-28482095D01*
X79843333Y-28482095D02*
X79843333Y-28624952D01*
X79843333Y-28624952D02*
X79795714Y-28720190D01*
X79795714Y-28720190D02*
X79748095Y-28767809D01*
X79748095Y-28767809D02*
X79652857Y-28815428D01*
X79652857Y-28815428D02*
X79271905Y-28815428D01*
X80224286Y-28386857D02*
X80271905Y-28339238D01*
X80271905Y-28339238D02*
X80367143Y-28291619D01*
X80367143Y-28291619D02*
X80605238Y-28291619D01*
X80605238Y-28291619D02*
X80700476Y-28339238D01*
X80700476Y-28339238D02*
X80748095Y-28386857D01*
X80748095Y-28386857D02*
X80795714Y-28482095D01*
X80795714Y-28482095D02*
X80795714Y-28577333D01*
X80795714Y-28577333D02*
X80748095Y-28720190D01*
X80748095Y-28720190D02*
X80176667Y-29291619D01*
X80176667Y-29291619D02*
X80795714Y-29291619D01*
X73620333Y-29291619D02*
X73287000Y-28815428D01*
X73048905Y-29291619D02*
X73048905Y-28291619D01*
X73048905Y-28291619D02*
X73429857Y-28291619D01*
X73429857Y-28291619D02*
X73525095Y-28339238D01*
X73525095Y-28339238D02*
X73572714Y-28386857D01*
X73572714Y-28386857D02*
X73620333Y-28482095D01*
X73620333Y-28482095D02*
X73620333Y-28624952D01*
X73620333Y-28624952D02*
X73572714Y-28720190D01*
X73572714Y-28720190D02*
X73525095Y-28767809D01*
X73525095Y-28767809D02*
X73429857Y-28815428D01*
X73429857Y-28815428D02*
X73048905Y-28815428D01*
X74572714Y-29291619D02*
X74001286Y-29291619D01*
X74287000Y-29291619D02*
X74287000Y-28291619D01*
X74287000Y-28291619D02*
X74191762Y-28434476D01*
X74191762Y-28434476D02*
X74096524Y-28529714D01*
X74096524Y-28529714D02*
X74001286Y-28577333D01*
X76223905Y-29291619D02*
X76223905Y-28291619D01*
X76223905Y-28291619D02*
X76462000Y-28291619D01*
X76462000Y-28291619D02*
X76604857Y-28339238D01*
X76604857Y-28339238D02*
X76700095Y-28434476D01*
X76700095Y-28434476D02*
X76747714Y-28529714D01*
X76747714Y-28529714D02*
X76795333Y-28720190D01*
X76795333Y-28720190D02*
X76795333Y-28863047D01*
X76795333Y-28863047D02*
X76747714Y-29053523D01*
X76747714Y-29053523D02*
X76700095Y-29148761D01*
X76700095Y-29148761D02*
X76604857Y-29244000D01*
X76604857Y-29244000D02*
X76462000Y-29291619D01*
X76462000Y-29291619D02*
X76223905Y-29291619D01*
X77747714Y-29291619D02*
X77176286Y-29291619D01*
X77462000Y-29291619D02*
X77462000Y-28291619D01*
X77462000Y-28291619D02*
X77366762Y-28434476D01*
X77366762Y-28434476D02*
X77271524Y-28529714D01*
X77271524Y-28529714D02*
X77176286Y-28577333D01*
X75176095Y-39070619D02*
X75176095Y-38070619D01*
X75747523Y-39070619D02*
X75318952Y-38499190D01*
X75747523Y-38070619D02*
X75176095Y-38642047D01*
X42846666Y-106618809D02*
X42513333Y-106618809D01*
X42513333Y-107142619D02*
X42513333Y-106142619D01*
X42513333Y-106142619D02*
X42989523Y-106142619D01*
X43322857Y-106237857D02*
X43370476Y-106190238D01*
X43370476Y-106190238D02*
X43465714Y-106142619D01*
X43465714Y-106142619D02*
X43703809Y-106142619D01*
X43703809Y-106142619D02*
X43799047Y-106190238D01*
X43799047Y-106190238D02*
X43846666Y-106237857D01*
X43846666Y-106237857D02*
X43894285Y-106333095D01*
X43894285Y-106333095D02*
X43894285Y-106428333D01*
X43894285Y-106428333D02*
X43846666Y-106571190D01*
X43846666Y-106571190D02*
X43275238Y-107142619D01*
X43275238Y-107142619D02*
X43894285Y-107142619D01*
X64293809Y-58406428D02*
X64293809Y-58882619D01*
X63960476Y-57882619D02*
X64293809Y-58406428D01*
X64293809Y-58406428D02*
X64627142Y-57882619D01*
X64912857Y-57977857D02*
X64960476Y-57930238D01*
X64960476Y-57930238D02*
X65055714Y-57882619D01*
X65055714Y-57882619D02*
X65293809Y-57882619D01*
X65293809Y-57882619D02*
X65389047Y-57930238D01*
X65389047Y-57930238D02*
X65436666Y-57977857D01*
X65436666Y-57977857D02*
X65484285Y-58073095D01*
X65484285Y-58073095D02*
X65484285Y-58168333D01*
X65484285Y-58168333D02*
X65436666Y-58311190D01*
X65436666Y-58311190D02*
X64865238Y-58882619D01*
X64865238Y-58882619D02*
X65484285Y-58882619D01*
X36862619Y-86304285D02*
X35862619Y-86304285D01*
X35862619Y-86304285D02*
X35862619Y-85923333D01*
X35862619Y-85923333D02*
X35910238Y-85828095D01*
X35910238Y-85828095D02*
X35957857Y-85780476D01*
X35957857Y-85780476D02*
X36053095Y-85732857D01*
X36053095Y-85732857D02*
X36195952Y-85732857D01*
X36195952Y-85732857D02*
X36291190Y-85780476D01*
X36291190Y-85780476D02*
X36338809Y-85828095D01*
X36338809Y-85828095D02*
X36386428Y-85923333D01*
X36386428Y-85923333D02*
X36386428Y-86304285D01*
X36815000Y-85351904D02*
X36862619Y-85209047D01*
X36862619Y-85209047D02*
X36862619Y-84970952D01*
X36862619Y-84970952D02*
X36815000Y-84875714D01*
X36815000Y-84875714D02*
X36767380Y-84828095D01*
X36767380Y-84828095D02*
X36672142Y-84780476D01*
X36672142Y-84780476D02*
X36576904Y-84780476D01*
X36576904Y-84780476D02*
X36481666Y-84828095D01*
X36481666Y-84828095D02*
X36434047Y-84875714D01*
X36434047Y-84875714D02*
X36386428Y-84970952D01*
X36386428Y-84970952D02*
X36338809Y-85161428D01*
X36338809Y-85161428D02*
X36291190Y-85256666D01*
X36291190Y-85256666D02*
X36243571Y-85304285D01*
X36243571Y-85304285D02*
X36148333Y-85351904D01*
X36148333Y-85351904D02*
X36053095Y-85351904D01*
X36053095Y-85351904D02*
X35957857Y-85304285D01*
X35957857Y-85304285D02*
X35910238Y-85256666D01*
X35910238Y-85256666D02*
X35862619Y-85161428D01*
X35862619Y-85161428D02*
X35862619Y-84923333D01*
X35862619Y-84923333D02*
X35910238Y-84780476D01*
X36862619Y-83828095D02*
X36862619Y-84399523D01*
X36862619Y-84113809D02*
X35862619Y-84113809D01*
X35862619Y-84113809D02*
X36005476Y-84209047D01*
X36005476Y-84209047D02*
X36100714Y-84304285D01*
X36100714Y-84304285D02*
X36148333Y-84399523D01*
X68878095Y-97252619D02*
X68878095Y-98062142D01*
X68878095Y-98062142D02*
X68925714Y-98157380D01*
X68925714Y-98157380D02*
X68973333Y-98205000D01*
X68973333Y-98205000D02*
X69068571Y-98252619D01*
X69068571Y-98252619D02*
X69259047Y-98252619D01*
X69259047Y-98252619D02*
X69354285Y-98205000D01*
X69354285Y-98205000D02*
X69401904Y-98157380D01*
X69401904Y-98157380D02*
X69449523Y-98062142D01*
X69449523Y-98062142D02*
X69449523Y-97252619D01*
X70068571Y-97681190D02*
X69973333Y-97633571D01*
X69973333Y-97633571D02*
X69925714Y-97585952D01*
X69925714Y-97585952D02*
X69878095Y-97490714D01*
X69878095Y-97490714D02*
X69878095Y-97443095D01*
X69878095Y-97443095D02*
X69925714Y-97347857D01*
X69925714Y-97347857D02*
X69973333Y-97300238D01*
X69973333Y-97300238D02*
X70068571Y-97252619D01*
X70068571Y-97252619D02*
X70259047Y-97252619D01*
X70259047Y-97252619D02*
X70354285Y-97300238D01*
X70354285Y-97300238D02*
X70401904Y-97347857D01*
X70401904Y-97347857D02*
X70449523Y-97443095D01*
X70449523Y-97443095D02*
X70449523Y-97490714D01*
X70449523Y-97490714D02*
X70401904Y-97585952D01*
X70401904Y-97585952D02*
X70354285Y-97633571D01*
X70354285Y-97633571D02*
X70259047Y-97681190D01*
X70259047Y-97681190D02*
X70068571Y-97681190D01*
X70068571Y-97681190D02*
X69973333Y-97728809D01*
X69973333Y-97728809D02*
X69925714Y-97776428D01*
X69925714Y-97776428D02*
X69878095Y-97871666D01*
X69878095Y-97871666D02*
X69878095Y-98062142D01*
X69878095Y-98062142D02*
X69925714Y-98157380D01*
X69925714Y-98157380D02*
X69973333Y-98205000D01*
X69973333Y-98205000D02*
X70068571Y-98252619D01*
X70068571Y-98252619D02*
X70259047Y-98252619D01*
X70259047Y-98252619D02*
X70354285Y-98205000D01*
X70354285Y-98205000D02*
X70401904Y-98157380D01*
X70401904Y-98157380D02*
X70449523Y-98062142D01*
X70449523Y-98062142D02*
X70449523Y-97871666D01*
X70449523Y-97871666D02*
X70401904Y-97776428D01*
X70401904Y-97776428D02*
X70354285Y-97728809D01*
X70354285Y-97728809D02*
X70259047Y-97681190D01*
X70191333Y-44912619D02*
X69858000Y-44436428D01*
X69619905Y-44912619D02*
X69619905Y-43912619D01*
X69619905Y-43912619D02*
X70000857Y-43912619D01*
X70000857Y-43912619D02*
X70096095Y-43960238D01*
X70096095Y-43960238D02*
X70143714Y-44007857D01*
X70143714Y-44007857D02*
X70191333Y-44103095D01*
X70191333Y-44103095D02*
X70191333Y-44245952D01*
X70191333Y-44245952D02*
X70143714Y-44341190D01*
X70143714Y-44341190D02*
X70096095Y-44388809D01*
X70096095Y-44388809D02*
X70000857Y-44436428D01*
X70000857Y-44436428D02*
X69619905Y-44436428D01*
X70667524Y-44912619D02*
X70858000Y-44912619D01*
X70858000Y-44912619D02*
X70953238Y-44865000D01*
X70953238Y-44865000D02*
X71000857Y-44817380D01*
X71000857Y-44817380D02*
X71096095Y-44674523D01*
X71096095Y-44674523D02*
X71143714Y-44484047D01*
X71143714Y-44484047D02*
X71143714Y-44103095D01*
X71143714Y-44103095D02*
X71096095Y-44007857D01*
X71096095Y-44007857D02*
X71048476Y-43960238D01*
X71048476Y-43960238D02*
X70953238Y-43912619D01*
X70953238Y-43912619D02*
X70762762Y-43912619D01*
X70762762Y-43912619D02*
X70667524Y-43960238D01*
X70667524Y-43960238D02*
X70619905Y-44007857D01*
X70619905Y-44007857D02*
X70572286Y-44103095D01*
X70572286Y-44103095D02*
X70572286Y-44341190D01*
X70572286Y-44341190D02*
X70619905Y-44436428D01*
X70619905Y-44436428D02*
X70667524Y-44484047D01*
X70667524Y-44484047D02*
X70762762Y-44531666D01*
X70762762Y-44531666D02*
X70953238Y-44531666D01*
X70953238Y-44531666D02*
X71048476Y-44484047D01*
X71048476Y-44484047D02*
X71096095Y-44436428D01*
X71096095Y-44436428D02*
X71143714Y-44341190D01*
X67963905Y-27617619D02*
X67963905Y-26617619D01*
X67963905Y-26617619D02*
X68202000Y-26617619D01*
X68202000Y-26617619D02*
X68344857Y-26665238D01*
X68344857Y-26665238D02*
X68440095Y-26760476D01*
X68440095Y-26760476D02*
X68487714Y-26855714D01*
X68487714Y-26855714D02*
X68535333Y-27046190D01*
X68535333Y-27046190D02*
X68535333Y-27189047D01*
X68535333Y-27189047D02*
X68487714Y-27379523D01*
X68487714Y-27379523D02*
X68440095Y-27474761D01*
X68440095Y-27474761D02*
X68344857Y-27570000D01*
X68344857Y-27570000D02*
X68202000Y-27617619D01*
X68202000Y-27617619D02*
X67963905Y-27617619D01*
X68916286Y-26712857D02*
X68963905Y-26665238D01*
X68963905Y-26665238D02*
X69059143Y-26617619D01*
X69059143Y-26617619D02*
X69297238Y-26617619D01*
X69297238Y-26617619D02*
X69392476Y-26665238D01*
X69392476Y-26665238D02*
X69440095Y-26712857D01*
X69440095Y-26712857D02*
X69487714Y-26808095D01*
X69487714Y-26808095D02*
X69487714Y-26903333D01*
X69487714Y-26903333D02*
X69440095Y-27046190D01*
X69440095Y-27046190D02*
X68868667Y-27617619D01*
X68868667Y-27617619D02*
X69487714Y-27617619D01*
X69207142Y-51008619D02*
X68873809Y-50532428D01*
X68635714Y-51008619D02*
X68635714Y-50008619D01*
X68635714Y-50008619D02*
X69016666Y-50008619D01*
X69016666Y-50008619D02*
X69111904Y-50056238D01*
X69111904Y-50056238D02*
X69159523Y-50103857D01*
X69159523Y-50103857D02*
X69207142Y-50199095D01*
X69207142Y-50199095D02*
X69207142Y-50341952D01*
X69207142Y-50341952D02*
X69159523Y-50437190D01*
X69159523Y-50437190D02*
X69111904Y-50484809D01*
X69111904Y-50484809D02*
X69016666Y-50532428D01*
X69016666Y-50532428D02*
X68635714Y-50532428D01*
X70159523Y-51008619D02*
X69588095Y-51008619D01*
X69873809Y-51008619D02*
X69873809Y-50008619D01*
X69873809Y-50008619D02*
X69778571Y-50151476D01*
X69778571Y-50151476D02*
X69683333Y-50246714D01*
X69683333Y-50246714D02*
X69588095Y-50294333D01*
X70778571Y-50008619D02*
X70873809Y-50008619D01*
X70873809Y-50008619D02*
X70969047Y-50056238D01*
X70969047Y-50056238D02*
X71016666Y-50103857D01*
X71016666Y-50103857D02*
X71064285Y-50199095D01*
X71064285Y-50199095D02*
X71111904Y-50389571D01*
X71111904Y-50389571D02*
X71111904Y-50627666D01*
X71111904Y-50627666D02*
X71064285Y-50818142D01*
X71064285Y-50818142D02*
X71016666Y-50913380D01*
X71016666Y-50913380D02*
X70969047Y-50961000D01*
X70969047Y-50961000D02*
X70873809Y-51008619D01*
X70873809Y-51008619D02*
X70778571Y-51008619D01*
X70778571Y-51008619D02*
X70683333Y-50961000D01*
X70683333Y-50961000D02*
X70635714Y-50913380D01*
X70635714Y-50913380D02*
X70588095Y-50818142D01*
X70588095Y-50818142D02*
X70540476Y-50627666D01*
X70540476Y-50627666D02*
X70540476Y-50389571D01*
X70540476Y-50389571D02*
X70588095Y-50199095D01*
X70588095Y-50199095D02*
X70635714Y-50103857D01*
X70635714Y-50103857D02*
X70683333Y-50056238D01*
X70683333Y-50056238D02*
X70778571Y-50008619D01*
X52316142Y-65740619D02*
X51982809Y-65264428D01*
X51744714Y-65740619D02*
X51744714Y-64740619D01*
X51744714Y-64740619D02*
X52125666Y-64740619D01*
X52125666Y-64740619D02*
X52220904Y-64788238D01*
X52220904Y-64788238D02*
X52268523Y-64835857D01*
X52268523Y-64835857D02*
X52316142Y-64931095D01*
X52316142Y-64931095D02*
X52316142Y-65073952D01*
X52316142Y-65073952D02*
X52268523Y-65169190D01*
X52268523Y-65169190D02*
X52220904Y-65216809D01*
X52220904Y-65216809D02*
X52125666Y-65264428D01*
X52125666Y-65264428D02*
X51744714Y-65264428D01*
X53268523Y-65740619D02*
X52697095Y-65740619D01*
X52982809Y-65740619D02*
X52982809Y-64740619D01*
X52982809Y-64740619D02*
X52887571Y-64883476D01*
X52887571Y-64883476D02*
X52792333Y-64978714D01*
X52792333Y-64978714D02*
X52697095Y-65026333D01*
X53649476Y-64835857D02*
X53697095Y-64788238D01*
X53697095Y-64788238D02*
X53792333Y-64740619D01*
X53792333Y-64740619D02*
X54030428Y-64740619D01*
X54030428Y-64740619D02*
X54125666Y-64788238D01*
X54125666Y-64788238D02*
X54173285Y-64835857D01*
X54173285Y-64835857D02*
X54220904Y-64931095D01*
X54220904Y-64931095D02*
X54220904Y-65026333D01*
X54220904Y-65026333D02*
X54173285Y-65169190D01*
X54173285Y-65169190D02*
X53601857Y-65740619D01*
X53601857Y-65740619D02*
X54220904Y-65740619D01*
X65492333Y-37197380D02*
X65444714Y-37245000D01*
X65444714Y-37245000D02*
X65301857Y-37292619D01*
X65301857Y-37292619D02*
X65206619Y-37292619D01*
X65206619Y-37292619D02*
X65063762Y-37245000D01*
X65063762Y-37245000D02*
X64968524Y-37149761D01*
X64968524Y-37149761D02*
X64920905Y-37054523D01*
X64920905Y-37054523D02*
X64873286Y-36864047D01*
X64873286Y-36864047D02*
X64873286Y-36721190D01*
X64873286Y-36721190D02*
X64920905Y-36530714D01*
X64920905Y-36530714D02*
X64968524Y-36435476D01*
X64968524Y-36435476D02*
X65063762Y-36340238D01*
X65063762Y-36340238D02*
X65206619Y-36292619D01*
X65206619Y-36292619D02*
X65301857Y-36292619D01*
X65301857Y-36292619D02*
X65444714Y-36340238D01*
X65444714Y-36340238D02*
X65492333Y-36387857D01*
X66444714Y-37292619D02*
X65873286Y-37292619D01*
X66159000Y-37292619D02*
X66159000Y-36292619D01*
X66159000Y-36292619D02*
X66063762Y-36435476D01*
X66063762Y-36435476D02*
X65968524Y-36530714D01*
X65968524Y-36530714D02*
X65873286Y-36578333D01*
X39290666Y-106618809D02*
X38957333Y-106618809D01*
X38957333Y-107142619D02*
X38957333Y-106142619D01*
X38957333Y-106142619D02*
X39433523Y-106142619D01*
X40338285Y-107142619D02*
X39766857Y-107142619D01*
X40052571Y-107142619D02*
X40052571Y-106142619D01*
X40052571Y-106142619D02*
X39957333Y-106285476D01*
X39957333Y-106285476D02*
X39862095Y-106380714D01*
X39862095Y-106380714D02*
X39766857Y-106428333D01*
X50745809Y-57136428D02*
X50745809Y-57612619D01*
X50412476Y-56612619D02*
X50745809Y-57136428D01*
X50745809Y-57136428D02*
X51079142Y-56612619D01*
X51936285Y-57612619D02*
X51364857Y-57612619D01*
X51650571Y-57612619D02*
X51650571Y-56612619D01*
X51650571Y-56612619D02*
X51555333Y-56755476D01*
X51555333Y-56755476D02*
X51460095Y-56850714D01*
X51460095Y-56850714D02*
X51364857Y-56898333D01*
X63333333Y-69328380D02*
X63285714Y-69376000D01*
X63285714Y-69376000D02*
X63142857Y-69423619D01*
X63142857Y-69423619D02*
X63047619Y-69423619D01*
X63047619Y-69423619D02*
X62904762Y-69376000D01*
X62904762Y-69376000D02*
X62809524Y-69280761D01*
X62809524Y-69280761D02*
X62761905Y-69185523D01*
X62761905Y-69185523D02*
X62714286Y-68995047D01*
X62714286Y-68995047D02*
X62714286Y-68852190D01*
X62714286Y-68852190D02*
X62761905Y-68661714D01*
X62761905Y-68661714D02*
X62809524Y-68566476D01*
X62809524Y-68566476D02*
X62904762Y-68471238D01*
X62904762Y-68471238D02*
X63047619Y-68423619D01*
X63047619Y-68423619D02*
X63142857Y-68423619D01*
X63142857Y-68423619D02*
X63285714Y-68471238D01*
X63285714Y-68471238D02*
X63333333Y-68518857D01*
X63904762Y-68852190D02*
X63809524Y-68804571D01*
X63809524Y-68804571D02*
X63761905Y-68756952D01*
X63761905Y-68756952D02*
X63714286Y-68661714D01*
X63714286Y-68661714D02*
X63714286Y-68614095D01*
X63714286Y-68614095D02*
X63761905Y-68518857D01*
X63761905Y-68518857D02*
X63809524Y-68471238D01*
X63809524Y-68471238D02*
X63904762Y-68423619D01*
X63904762Y-68423619D02*
X64095238Y-68423619D01*
X64095238Y-68423619D02*
X64190476Y-68471238D01*
X64190476Y-68471238D02*
X64238095Y-68518857D01*
X64238095Y-68518857D02*
X64285714Y-68614095D01*
X64285714Y-68614095D02*
X64285714Y-68661714D01*
X64285714Y-68661714D02*
X64238095Y-68756952D01*
X64238095Y-68756952D02*
X64190476Y-68804571D01*
X64190476Y-68804571D02*
X64095238Y-68852190D01*
X64095238Y-68852190D02*
X63904762Y-68852190D01*
X63904762Y-68852190D02*
X63809524Y-68899809D01*
X63809524Y-68899809D02*
X63761905Y-68947428D01*
X63761905Y-68947428D02*
X63714286Y-69042666D01*
X63714286Y-69042666D02*
X63714286Y-69233142D01*
X63714286Y-69233142D02*
X63761905Y-69328380D01*
X63761905Y-69328380D02*
X63809524Y-69376000D01*
X63809524Y-69376000D02*
X63904762Y-69423619D01*
X63904762Y-69423619D02*
X64095238Y-69423619D01*
X64095238Y-69423619D02*
X64190476Y-69376000D01*
X64190476Y-69376000D02*
X64238095Y-69328380D01*
X64238095Y-69328380D02*
X64285714Y-69233142D01*
X64285714Y-69233142D02*
X64285714Y-69042666D01*
X64285714Y-69042666D02*
X64238095Y-68947428D01*
X64238095Y-68947428D02*
X64190476Y-68899809D01*
X64190476Y-68899809D02*
X64095238Y-68852190D01*
X68878095Y-85822619D02*
X68878095Y-86632142D01*
X68878095Y-86632142D02*
X68925714Y-86727380D01*
X68925714Y-86727380D02*
X68973333Y-86775000D01*
X68973333Y-86775000D02*
X69068571Y-86822619D01*
X69068571Y-86822619D02*
X69259047Y-86822619D01*
X69259047Y-86822619D02*
X69354285Y-86775000D01*
X69354285Y-86775000D02*
X69401904Y-86727380D01*
X69401904Y-86727380D02*
X69449523Y-86632142D01*
X69449523Y-86632142D02*
X69449523Y-85822619D01*
X70401904Y-85822619D02*
X69925714Y-85822619D01*
X69925714Y-85822619D02*
X69878095Y-86298809D01*
X69878095Y-86298809D02*
X69925714Y-86251190D01*
X69925714Y-86251190D02*
X70020952Y-86203571D01*
X70020952Y-86203571D02*
X70259047Y-86203571D01*
X70259047Y-86203571D02*
X70354285Y-86251190D01*
X70354285Y-86251190D02*
X70401904Y-86298809D01*
X70401904Y-86298809D02*
X70449523Y-86394047D01*
X70449523Y-86394047D02*
X70449523Y-86632142D01*
X70449523Y-86632142D02*
X70401904Y-86727380D01*
X70401904Y-86727380D02*
X70354285Y-86775000D01*
X70354285Y-86775000D02*
X70259047Y-86822619D01*
X70259047Y-86822619D02*
X70020952Y-86822619D01*
X70020952Y-86822619D02*
X69925714Y-86775000D01*
X69925714Y-86775000D02*
X69878095Y-86727380D01*
X70318333Y-41102619D02*
X69985000Y-40626428D01*
X69746905Y-41102619D02*
X69746905Y-40102619D01*
X69746905Y-40102619D02*
X70127857Y-40102619D01*
X70127857Y-40102619D02*
X70223095Y-40150238D01*
X70223095Y-40150238D02*
X70270714Y-40197857D01*
X70270714Y-40197857D02*
X70318333Y-40293095D01*
X70318333Y-40293095D02*
X70318333Y-40435952D01*
X70318333Y-40435952D02*
X70270714Y-40531190D01*
X70270714Y-40531190D02*
X70223095Y-40578809D01*
X70223095Y-40578809D02*
X70127857Y-40626428D01*
X70127857Y-40626428D02*
X69746905Y-40626428D01*
X70889762Y-40531190D02*
X70794524Y-40483571D01*
X70794524Y-40483571D02*
X70746905Y-40435952D01*
X70746905Y-40435952D02*
X70699286Y-40340714D01*
X70699286Y-40340714D02*
X70699286Y-40293095D01*
X70699286Y-40293095D02*
X70746905Y-40197857D01*
X70746905Y-40197857D02*
X70794524Y-40150238D01*
X70794524Y-40150238D02*
X70889762Y-40102619D01*
X70889762Y-40102619D02*
X71080238Y-40102619D01*
X71080238Y-40102619D02*
X71175476Y-40150238D01*
X71175476Y-40150238D02*
X71223095Y-40197857D01*
X71223095Y-40197857D02*
X71270714Y-40293095D01*
X71270714Y-40293095D02*
X71270714Y-40340714D01*
X71270714Y-40340714D02*
X71223095Y-40435952D01*
X71223095Y-40435952D02*
X71175476Y-40483571D01*
X71175476Y-40483571D02*
X71080238Y-40531190D01*
X71080238Y-40531190D02*
X70889762Y-40531190D01*
X70889762Y-40531190D02*
X70794524Y-40578809D01*
X70794524Y-40578809D02*
X70746905Y-40626428D01*
X70746905Y-40626428D02*
X70699286Y-40721666D01*
X70699286Y-40721666D02*
X70699286Y-40912142D01*
X70699286Y-40912142D02*
X70746905Y-41007380D01*
X70746905Y-41007380D02*
X70794524Y-41055000D01*
X70794524Y-41055000D02*
X70889762Y-41102619D01*
X70889762Y-41102619D02*
X71080238Y-41102619D01*
X71080238Y-41102619D02*
X71175476Y-41055000D01*
X71175476Y-41055000D02*
X71223095Y-41007380D01*
X71223095Y-41007380D02*
X71270714Y-40912142D01*
X71270714Y-40912142D02*
X71270714Y-40721666D01*
X71270714Y-40721666D02*
X71223095Y-40626428D01*
X71223095Y-40626428D02*
X71175476Y-40578809D01*
X71175476Y-40578809D02*
X71080238Y-40531190D01*
X56168095Y-97252619D02*
X56168095Y-98062142D01*
X56168095Y-98062142D02*
X56215714Y-98157380D01*
X56215714Y-98157380D02*
X56263333Y-98205000D01*
X56263333Y-98205000D02*
X56358571Y-98252619D01*
X56358571Y-98252619D02*
X56549047Y-98252619D01*
X56549047Y-98252619D02*
X56644285Y-98205000D01*
X56644285Y-98205000D02*
X56691904Y-98157380D01*
X56691904Y-98157380D02*
X56739523Y-98062142D01*
X56739523Y-98062142D02*
X56739523Y-97252619D01*
X57644285Y-97252619D02*
X57453809Y-97252619D01*
X57453809Y-97252619D02*
X57358571Y-97300238D01*
X57358571Y-97300238D02*
X57310952Y-97347857D01*
X57310952Y-97347857D02*
X57215714Y-97490714D01*
X57215714Y-97490714D02*
X57168095Y-97681190D01*
X57168095Y-97681190D02*
X57168095Y-98062142D01*
X57168095Y-98062142D02*
X57215714Y-98157380D01*
X57215714Y-98157380D02*
X57263333Y-98205000D01*
X57263333Y-98205000D02*
X57358571Y-98252619D01*
X57358571Y-98252619D02*
X57549047Y-98252619D01*
X57549047Y-98252619D02*
X57644285Y-98205000D01*
X57644285Y-98205000D02*
X57691904Y-98157380D01*
X57691904Y-98157380D02*
X57739523Y-98062142D01*
X57739523Y-98062142D02*
X57739523Y-97824047D01*
X57739523Y-97824047D02*
X57691904Y-97728809D01*
X57691904Y-97728809D02*
X57644285Y-97681190D01*
X57644285Y-97681190D02*
X57549047Y-97633571D01*
X57549047Y-97633571D02*
X57358571Y-97633571D01*
X57358571Y-97633571D02*
X57263333Y-97681190D01*
X57263333Y-97681190D02*
X57215714Y-97728809D01*
X57215714Y-97728809D02*
X57168095Y-97824047D01*
X52919333Y-54469380D02*
X52871714Y-54517000D01*
X52871714Y-54517000D02*
X52728857Y-54564619D01*
X52728857Y-54564619D02*
X52633619Y-54564619D01*
X52633619Y-54564619D02*
X52490762Y-54517000D01*
X52490762Y-54517000D02*
X52395524Y-54421761D01*
X52395524Y-54421761D02*
X52347905Y-54326523D01*
X52347905Y-54326523D02*
X52300286Y-54136047D01*
X52300286Y-54136047D02*
X52300286Y-53993190D01*
X52300286Y-53993190D02*
X52347905Y-53802714D01*
X52347905Y-53802714D02*
X52395524Y-53707476D01*
X52395524Y-53707476D02*
X52490762Y-53612238D01*
X52490762Y-53612238D02*
X52633619Y-53564619D01*
X52633619Y-53564619D02*
X52728857Y-53564619D01*
X52728857Y-53564619D02*
X52871714Y-53612238D01*
X52871714Y-53612238D02*
X52919333Y-53659857D01*
X53252667Y-53564619D02*
X53871714Y-53564619D01*
X53871714Y-53564619D02*
X53538381Y-53945571D01*
X53538381Y-53945571D02*
X53681238Y-53945571D01*
X53681238Y-53945571D02*
X53776476Y-53993190D01*
X53776476Y-53993190D02*
X53824095Y-54040809D01*
X53824095Y-54040809D02*
X53871714Y-54136047D01*
X53871714Y-54136047D02*
X53871714Y-54374142D01*
X53871714Y-54374142D02*
X53824095Y-54469380D01*
X53824095Y-54469380D02*
X53776476Y-54517000D01*
X53776476Y-54517000D02*
X53681238Y-54564619D01*
X53681238Y-54564619D02*
X53395524Y-54564619D01*
X53395524Y-54564619D02*
X53300286Y-54517000D01*
X53300286Y-54517000D02*
X53252667Y-54469380D01*
X81578095Y-85822619D02*
X81578095Y-86632142D01*
X81578095Y-86632142D02*
X81625714Y-86727380D01*
X81625714Y-86727380D02*
X81673333Y-86775000D01*
X81673333Y-86775000D02*
X81768571Y-86822619D01*
X81768571Y-86822619D02*
X81959047Y-86822619D01*
X81959047Y-86822619D02*
X82054285Y-86775000D01*
X82054285Y-86775000D02*
X82101904Y-86727380D01*
X82101904Y-86727380D02*
X82149523Y-86632142D01*
X82149523Y-86632142D02*
X82149523Y-85822619D01*
X83054285Y-86155952D02*
X83054285Y-86822619D01*
X82816190Y-85775000D02*
X82578095Y-86489285D01*
X82578095Y-86489285D02*
X83197142Y-86489285D01*
X69207142Y-47198619D02*
X68873809Y-46722428D01*
X68635714Y-47198619D02*
X68635714Y-46198619D01*
X68635714Y-46198619D02*
X69016666Y-46198619D01*
X69016666Y-46198619D02*
X69111904Y-46246238D01*
X69111904Y-46246238D02*
X69159523Y-46293857D01*
X69159523Y-46293857D02*
X69207142Y-46389095D01*
X69207142Y-46389095D02*
X69207142Y-46531952D01*
X69207142Y-46531952D02*
X69159523Y-46627190D01*
X69159523Y-46627190D02*
X69111904Y-46674809D01*
X69111904Y-46674809D02*
X69016666Y-46722428D01*
X69016666Y-46722428D02*
X68635714Y-46722428D01*
X70159523Y-47198619D02*
X69588095Y-47198619D01*
X69873809Y-47198619D02*
X69873809Y-46198619D01*
X69873809Y-46198619D02*
X69778571Y-46341476D01*
X69778571Y-46341476D02*
X69683333Y-46436714D01*
X69683333Y-46436714D02*
X69588095Y-46484333D01*
X71111904Y-47198619D02*
X70540476Y-47198619D01*
X70826190Y-47198619D02*
X70826190Y-46198619D01*
X70826190Y-46198619D02*
X70730952Y-46341476D01*
X70730952Y-46341476D02*
X70635714Y-46436714D01*
X70635714Y-46436714D02*
X70540476Y-46484333D01*
X48196666Y-28662619D02*
X48196666Y-29376904D01*
X48196666Y-29376904D02*
X48149047Y-29519761D01*
X48149047Y-29519761D02*
X48053809Y-29615000D01*
X48053809Y-29615000D02*
X47910952Y-29662619D01*
X47910952Y-29662619D02*
X47815714Y-29662619D01*
X49196666Y-29662619D02*
X48625238Y-29662619D01*
X48910952Y-29662619D02*
X48910952Y-28662619D01*
X48910952Y-28662619D02*
X48815714Y-28805476D01*
X48815714Y-28805476D02*
X48720476Y-28900714D01*
X48720476Y-28900714D02*
X48625238Y-28948333D01*
X76033333Y-24254619D02*
X75700000Y-23778428D01*
X75461905Y-24254619D02*
X75461905Y-23254619D01*
X75461905Y-23254619D02*
X75842857Y-23254619D01*
X75842857Y-23254619D02*
X75938095Y-23302238D01*
X75938095Y-23302238D02*
X75985714Y-23349857D01*
X75985714Y-23349857D02*
X76033333Y-23445095D01*
X76033333Y-23445095D02*
X76033333Y-23587952D01*
X76033333Y-23587952D02*
X75985714Y-23683190D01*
X75985714Y-23683190D02*
X75938095Y-23730809D01*
X75938095Y-23730809D02*
X75842857Y-23778428D01*
X75842857Y-23778428D02*
X75461905Y-23778428D01*
X76366667Y-23254619D02*
X76985714Y-23254619D01*
X76985714Y-23254619D02*
X76652381Y-23635571D01*
X76652381Y-23635571D02*
X76795238Y-23635571D01*
X76795238Y-23635571D02*
X76890476Y-23683190D01*
X76890476Y-23683190D02*
X76938095Y-23730809D01*
X76938095Y-23730809D02*
X76985714Y-23826047D01*
X76985714Y-23826047D02*
X76985714Y-24064142D01*
X76985714Y-24064142D02*
X76938095Y-24159380D01*
X76938095Y-24159380D02*
X76890476Y-24207000D01*
X76890476Y-24207000D02*
X76795238Y-24254619D01*
X76795238Y-24254619D02*
X76509524Y-24254619D01*
X76509524Y-24254619D02*
X76414286Y-24207000D01*
X76414286Y-24207000D02*
X76366667Y-24159380D01*
X52665333Y-60787619D02*
X52332000Y-60311428D01*
X52093905Y-60787619D02*
X52093905Y-59787619D01*
X52093905Y-59787619D02*
X52474857Y-59787619D01*
X52474857Y-59787619D02*
X52570095Y-59835238D01*
X52570095Y-59835238D02*
X52617714Y-59882857D01*
X52617714Y-59882857D02*
X52665333Y-59978095D01*
X52665333Y-59978095D02*
X52665333Y-60120952D01*
X52665333Y-60120952D02*
X52617714Y-60216190D01*
X52617714Y-60216190D02*
X52570095Y-60263809D01*
X52570095Y-60263809D02*
X52474857Y-60311428D01*
X52474857Y-60311428D02*
X52093905Y-60311428D01*
X53570095Y-59787619D02*
X53093905Y-59787619D01*
X53093905Y-59787619D02*
X53046286Y-60263809D01*
X53046286Y-60263809D02*
X53093905Y-60216190D01*
X53093905Y-60216190D02*
X53189143Y-60168571D01*
X53189143Y-60168571D02*
X53427238Y-60168571D01*
X53427238Y-60168571D02*
X53522476Y-60216190D01*
X53522476Y-60216190D02*
X53570095Y-60263809D01*
X53570095Y-60263809D02*
X53617714Y-60359047D01*
X53617714Y-60359047D02*
X53617714Y-60597142D01*
X53617714Y-60597142D02*
X53570095Y-60692380D01*
X53570095Y-60692380D02*
X53522476Y-60740000D01*
X53522476Y-60740000D02*
X53427238Y-60787619D01*
X53427238Y-60787619D02*
X53189143Y-60787619D01*
X53189143Y-60787619D02*
X53093905Y-60740000D01*
X53093905Y-60740000D02*
X53046286Y-60692380D01*
X50379333Y-77075380D02*
X50331714Y-77123000D01*
X50331714Y-77123000D02*
X50188857Y-77170619D01*
X50188857Y-77170619D02*
X50093619Y-77170619D01*
X50093619Y-77170619D02*
X49950762Y-77123000D01*
X49950762Y-77123000D02*
X49855524Y-77027761D01*
X49855524Y-77027761D02*
X49807905Y-76932523D01*
X49807905Y-76932523D02*
X49760286Y-76742047D01*
X49760286Y-76742047D02*
X49760286Y-76599190D01*
X49760286Y-76599190D02*
X49807905Y-76408714D01*
X49807905Y-76408714D02*
X49855524Y-76313476D01*
X49855524Y-76313476D02*
X49950762Y-76218238D01*
X49950762Y-76218238D02*
X50093619Y-76170619D01*
X50093619Y-76170619D02*
X50188857Y-76170619D01*
X50188857Y-76170619D02*
X50331714Y-76218238D01*
X50331714Y-76218238D02*
X50379333Y-76265857D01*
X51236476Y-76170619D02*
X51046000Y-76170619D01*
X51046000Y-76170619D02*
X50950762Y-76218238D01*
X50950762Y-76218238D02*
X50903143Y-76265857D01*
X50903143Y-76265857D02*
X50807905Y-76408714D01*
X50807905Y-76408714D02*
X50760286Y-76599190D01*
X50760286Y-76599190D02*
X50760286Y-76980142D01*
X50760286Y-76980142D02*
X50807905Y-77075380D01*
X50807905Y-77075380D02*
X50855524Y-77123000D01*
X50855524Y-77123000D02*
X50950762Y-77170619D01*
X50950762Y-77170619D02*
X51141238Y-77170619D01*
X51141238Y-77170619D02*
X51236476Y-77123000D01*
X51236476Y-77123000D02*
X51284095Y-77075380D01*
X51284095Y-77075380D02*
X51331714Y-76980142D01*
X51331714Y-76980142D02*
X51331714Y-76742047D01*
X51331714Y-76742047D02*
X51284095Y-76646809D01*
X51284095Y-76646809D02*
X51236476Y-76599190D01*
X51236476Y-76599190D02*
X51141238Y-76551571D01*
X51141238Y-76551571D02*
X50950762Y-76551571D01*
X50950762Y-76551571D02*
X50855524Y-76599190D01*
X50855524Y-76599190D02*
X50807905Y-76646809D01*
X50807905Y-76646809D02*
X50760286Y-76742047D01*
X52665333Y-63962619D02*
X52332000Y-63486428D01*
X52093905Y-63962619D02*
X52093905Y-62962619D01*
X52093905Y-62962619D02*
X52474857Y-62962619D01*
X52474857Y-62962619D02*
X52570095Y-63010238D01*
X52570095Y-63010238D02*
X52617714Y-63057857D01*
X52617714Y-63057857D02*
X52665333Y-63153095D01*
X52665333Y-63153095D02*
X52665333Y-63295952D01*
X52665333Y-63295952D02*
X52617714Y-63391190D01*
X52617714Y-63391190D02*
X52570095Y-63438809D01*
X52570095Y-63438809D02*
X52474857Y-63486428D01*
X52474857Y-63486428D02*
X52093905Y-63486428D01*
X53522476Y-62962619D02*
X53332000Y-62962619D01*
X53332000Y-62962619D02*
X53236762Y-63010238D01*
X53236762Y-63010238D02*
X53189143Y-63057857D01*
X53189143Y-63057857D02*
X53093905Y-63200714D01*
X53093905Y-63200714D02*
X53046286Y-63391190D01*
X53046286Y-63391190D02*
X53046286Y-63772142D01*
X53046286Y-63772142D02*
X53093905Y-63867380D01*
X53093905Y-63867380D02*
X53141524Y-63915000D01*
X53141524Y-63915000D02*
X53236762Y-63962619D01*
X53236762Y-63962619D02*
X53427238Y-63962619D01*
X53427238Y-63962619D02*
X53522476Y-63915000D01*
X53522476Y-63915000D02*
X53570095Y-63867380D01*
X53570095Y-63867380D02*
X53617714Y-63772142D01*
X53617714Y-63772142D02*
X53617714Y-63534047D01*
X53617714Y-63534047D02*
X53570095Y-63438809D01*
X53570095Y-63438809D02*
X53522476Y-63391190D01*
X53522476Y-63391190D02*
X53427238Y-63343571D01*
X53427238Y-63343571D02*
X53236762Y-63343571D01*
X53236762Y-63343571D02*
X53141524Y-63391190D01*
X53141524Y-63391190D02*
X53093905Y-63438809D01*
X53093905Y-63438809D02*
X53046286Y-63534047D01*
X35806142Y-89870619D02*
X35472809Y-89394428D01*
X35234714Y-89870619D02*
X35234714Y-88870619D01*
X35234714Y-88870619D02*
X35615666Y-88870619D01*
X35615666Y-88870619D02*
X35710904Y-88918238D01*
X35710904Y-88918238D02*
X35758523Y-88965857D01*
X35758523Y-88965857D02*
X35806142Y-89061095D01*
X35806142Y-89061095D02*
X35806142Y-89203952D01*
X35806142Y-89203952D02*
X35758523Y-89299190D01*
X35758523Y-89299190D02*
X35710904Y-89346809D01*
X35710904Y-89346809D02*
X35615666Y-89394428D01*
X35615666Y-89394428D02*
X35234714Y-89394428D01*
X36758523Y-89870619D02*
X36187095Y-89870619D01*
X36472809Y-89870619D02*
X36472809Y-88870619D01*
X36472809Y-88870619D02*
X36377571Y-89013476D01*
X36377571Y-89013476D02*
X36282333Y-89108714D01*
X36282333Y-89108714D02*
X36187095Y-89156333D01*
X37091857Y-88870619D02*
X37710904Y-88870619D01*
X37710904Y-88870619D02*
X37377571Y-89251571D01*
X37377571Y-89251571D02*
X37520428Y-89251571D01*
X37520428Y-89251571D02*
X37615666Y-89299190D01*
X37615666Y-89299190D02*
X37663285Y-89346809D01*
X37663285Y-89346809D02*
X37710904Y-89442047D01*
X37710904Y-89442047D02*
X37710904Y-89680142D01*
X37710904Y-89680142D02*
X37663285Y-89775380D01*
X37663285Y-89775380D02*
X37615666Y-89823000D01*
X37615666Y-89823000D02*
X37520428Y-89870619D01*
X37520428Y-89870619D02*
X37234714Y-89870619D01*
X37234714Y-89870619D02*
X37139476Y-89823000D01*
X37139476Y-89823000D02*
X37091857Y-89775380D01*
X55586333Y-54056619D02*
X55253000Y-53580428D01*
X55014905Y-54056619D02*
X55014905Y-53056619D01*
X55014905Y-53056619D02*
X55395857Y-53056619D01*
X55395857Y-53056619D02*
X55491095Y-53104238D01*
X55491095Y-53104238D02*
X55538714Y-53151857D01*
X55538714Y-53151857D02*
X55586333Y-53247095D01*
X55586333Y-53247095D02*
X55586333Y-53389952D01*
X55586333Y-53389952D02*
X55538714Y-53485190D01*
X55538714Y-53485190D02*
X55491095Y-53532809D01*
X55491095Y-53532809D02*
X55395857Y-53580428D01*
X55395857Y-53580428D02*
X55014905Y-53580428D01*
X55919667Y-53056619D02*
X56586333Y-53056619D01*
X56586333Y-53056619D02*
X56157762Y-54056619D01*
X80605333Y-41134380D02*
X80557714Y-41182000D01*
X80557714Y-41182000D02*
X80414857Y-41229619D01*
X80414857Y-41229619D02*
X80319619Y-41229619D01*
X80319619Y-41229619D02*
X80176762Y-41182000D01*
X80176762Y-41182000D02*
X80081524Y-41086761D01*
X80081524Y-41086761D02*
X80033905Y-40991523D01*
X80033905Y-40991523D02*
X79986286Y-40801047D01*
X79986286Y-40801047D02*
X79986286Y-40658190D01*
X79986286Y-40658190D02*
X80033905Y-40467714D01*
X80033905Y-40467714D02*
X80081524Y-40372476D01*
X80081524Y-40372476D02*
X80176762Y-40277238D01*
X80176762Y-40277238D02*
X80319619Y-40229619D01*
X80319619Y-40229619D02*
X80414857Y-40229619D01*
X80414857Y-40229619D02*
X80557714Y-40277238D01*
X80557714Y-40277238D02*
X80605333Y-40324857D01*
X81462476Y-40562952D02*
X81462476Y-41229619D01*
X81224381Y-40182000D02*
X80986286Y-40896285D01*
X80986286Y-40896285D02*
X81605333Y-40896285D01*
X81578095Y-97252619D02*
X81578095Y-98062142D01*
X81578095Y-98062142D02*
X81625714Y-98157380D01*
X81625714Y-98157380D02*
X81673333Y-98205000D01*
X81673333Y-98205000D02*
X81768571Y-98252619D01*
X81768571Y-98252619D02*
X81959047Y-98252619D01*
X81959047Y-98252619D02*
X82054285Y-98205000D01*
X82054285Y-98205000D02*
X82101904Y-98157380D01*
X82101904Y-98157380D02*
X82149523Y-98062142D01*
X82149523Y-98062142D02*
X82149523Y-97252619D01*
X82530476Y-97252619D02*
X83197142Y-97252619D01*
X83197142Y-97252619D02*
X82768571Y-98252619D01*
X78001905Y-71582619D02*
X78001905Y-70582619D01*
X78001905Y-70582619D02*
X78240000Y-70582619D01*
X78240000Y-70582619D02*
X78382857Y-70630238D01*
X78382857Y-70630238D02*
X78478095Y-70725476D01*
X78478095Y-70725476D02*
X78525714Y-70820714D01*
X78525714Y-70820714D02*
X78573333Y-71011190D01*
X78573333Y-71011190D02*
X78573333Y-71154047D01*
X78573333Y-71154047D02*
X78525714Y-71344523D01*
X78525714Y-71344523D02*
X78478095Y-71439761D01*
X78478095Y-71439761D02*
X78382857Y-71535000D01*
X78382857Y-71535000D02*
X78240000Y-71582619D01*
X78240000Y-71582619D02*
X78001905Y-71582619D01*
X79430476Y-70915952D02*
X79430476Y-71582619D01*
X79192381Y-70535000D02*
X78954286Y-71249285D01*
X78954286Y-71249285D02*
X79573333Y-71249285D01*
X78478095Y-72852619D02*
X78478095Y-71852619D01*
X79049523Y-72852619D02*
X78620952Y-72281190D01*
X79049523Y-71852619D02*
X78478095Y-72424047D01*
X56983333Y-69328380D02*
X56935714Y-69376000D01*
X56935714Y-69376000D02*
X56792857Y-69423619D01*
X56792857Y-69423619D02*
X56697619Y-69423619D01*
X56697619Y-69423619D02*
X56554762Y-69376000D01*
X56554762Y-69376000D02*
X56459524Y-69280761D01*
X56459524Y-69280761D02*
X56411905Y-69185523D01*
X56411905Y-69185523D02*
X56364286Y-68995047D01*
X56364286Y-68995047D02*
X56364286Y-68852190D01*
X56364286Y-68852190D02*
X56411905Y-68661714D01*
X56411905Y-68661714D02*
X56459524Y-68566476D01*
X56459524Y-68566476D02*
X56554762Y-68471238D01*
X56554762Y-68471238D02*
X56697619Y-68423619D01*
X56697619Y-68423619D02*
X56792857Y-68423619D01*
X56792857Y-68423619D02*
X56935714Y-68471238D01*
X56935714Y-68471238D02*
X56983333Y-68518857D01*
X57888095Y-68423619D02*
X57411905Y-68423619D01*
X57411905Y-68423619D02*
X57364286Y-68899809D01*
X57364286Y-68899809D02*
X57411905Y-68852190D01*
X57411905Y-68852190D02*
X57507143Y-68804571D01*
X57507143Y-68804571D02*
X57745238Y-68804571D01*
X57745238Y-68804571D02*
X57840476Y-68852190D01*
X57840476Y-68852190D02*
X57888095Y-68899809D01*
X57888095Y-68899809D02*
X57935714Y-68995047D01*
X57935714Y-68995047D02*
X57935714Y-69233142D01*
X57935714Y-69233142D02*
X57888095Y-69328380D01*
X57888095Y-69328380D02*
X57840476Y-69376000D01*
X57840476Y-69376000D02*
X57745238Y-69423619D01*
X57745238Y-69423619D02*
X57507143Y-69423619D01*
X57507143Y-69423619D02*
X57411905Y-69376000D01*
X57411905Y-69376000D02*
X57364286Y-69328380D01*
X73025095Y-41582619D02*
X73025095Y-42392142D01*
X73025095Y-42392142D02*
X73072714Y-42487380D01*
X73072714Y-42487380D02*
X73120333Y-42535000D01*
X73120333Y-42535000D02*
X73215571Y-42582619D01*
X73215571Y-42582619D02*
X73406047Y-42582619D01*
X73406047Y-42582619D02*
X73501285Y-42535000D01*
X73501285Y-42535000D02*
X73548904Y-42487380D01*
X73548904Y-42487380D02*
X73596523Y-42392142D01*
X73596523Y-42392142D02*
X73596523Y-41582619D01*
X74025095Y-41677857D02*
X74072714Y-41630238D01*
X74072714Y-41630238D02*
X74167952Y-41582619D01*
X74167952Y-41582619D02*
X74406047Y-41582619D01*
X74406047Y-41582619D02*
X74501285Y-41630238D01*
X74501285Y-41630238D02*
X74548904Y-41677857D01*
X74548904Y-41677857D02*
X74596523Y-41773095D01*
X74596523Y-41773095D02*
X74596523Y-41868333D01*
X74596523Y-41868333D02*
X74548904Y-42011190D01*
X74548904Y-42011190D02*
X73977476Y-42582619D01*
X73977476Y-42582619D02*
X74596523Y-42582619D01*
X49347523Y-79964619D02*
X49014190Y-79488428D01*
X48776095Y-79964619D02*
X48776095Y-78964619D01*
X48776095Y-78964619D02*
X49157047Y-78964619D01*
X49157047Y-78964619D02*
X49252285Y-79012238D01*
X49252285Y-79012238D02*
X49299904Y-79059857D01*
X49299904Y-79059857D02*
X49347523Y-79155095D01*
X49347523Y-79155095D02*
X49347523Y-79297952D01*
X49347523Y-79297952D02*
X49299904Y-79393190D01*
X49299904Y-79393190D02*
X49252285Y-79440809D01*
X49252285Y-79440809D02*
X49157047Y-79488428D01*
X49157047Y-79488428D02*
X48776095Y-79488428D01*
X49776095Y-79964619D02*
X49776095Y-78964619D01*
X49776095Y-78964619D02*
X50347523Y-79964619D01*
X50347523Y-79964619D02*
X50347523Y-78964619D01*
X51347523Y-79964619D02*
X50776095Y-79964619D01*
X51061809Y-79964619D02*
X51061809Y-78964619D01*
X51061809Y-78964619D02*
X50966571Y-79107476D01*
X50966571Y-79107476D02*
X50871333Y-79202714D01*
X50871333Y-79202714D02*
X50776095Y-79250333D01*
X59146666Y-45182619D02*
X59146666Y-45896904D01*
X59146666Y-45896904D02*
X59099047Y-46039761D01*
X59099047Y-46039761D02*
X59003809Y-46135000D01*
X59003809Y-46135000D02*
X58860952Y-46182619D01*
X58860952Y-46182619D02*
X58765714Y-46182619D01*
X59575238Y-45277857D02*
X59622857Y-45230238D01*
X59622857Y-45230238D02*
X59718095Y-45182619D01*
X59718095Y-45182619D02*
X59956190Y-45182619D01*
X59956190Y-45182619D02*
X60051428Y-45230238D01*
X60051428Y-45230238D02*
X60099047Y-45277857D01*
X60099047Y-45277857D02*
X60146666Y-45373095D01*
X60146666Y-45373095D02*
X60146666Y-45468333D01*
X60146666Y-45468333D02*
X60099047Y-45611190D01*
X60099047Y-45611190D02*
X59527619Y-46182619D01*
X59527619Y-46182619D02*
X60146666Y-46182619D01*
X70318333Y-56342619D02*
X69985000Y-55866428D01*
X69746905Y-56342619D02*
X69746905Y-55342619D01*
X69746905Y-55342619D02*
X70127857Y-55342619D01*
X70127857Y-55342619D02*
X70223095Y-55390238D01*
X70223095Y-55390238D02*
X70270714Y-55437857D01*
X70270714Y-55437857D02*
X70318333Y-55533095D01*
X70318333Y-55533095D02*
X70318333Y-55675952D01*
X70318333Y-55675952D02*
X70270714Y-55771190D01*
X70270714Y-55771190D02*
X70223095Y-55818809D01*
X70223095Y-55818809D02*
X70127857Y-55866428D01*
X70127857Y-55866428D02*
X69746905Y-55866428D01*
X71175476Y-55675952D02*
X71175476Y-56342619D01*
X70937381Y-55295000D02*
X70699286Y-56009285D01*
X70699286Y-56009285D02*
X71318333Y-56009285D01*
X48728333Y-44309380D02*
X48680714Y-44357000D01*
X48680714Y-44357000D02*
X48537857Y-44404619D01*
X48537857Y-44404619D02*
X48442619Y-44404619D01*
X48442619Y-44404619D02*
X48299762Y-44357000D01*
X48299762Y-44357000D02*
X48204524Y-44261761D01*
X48204524Y-44261761D02*
X48156905Y-44166523D01*
X48156905Y-44166523D02*
X48109286Y-43976047D01*
X48109286Y-43976047D02*
X48109286Y-43833190D01*
X48109286Y-43833190D02*
X48156905Y-43642714D01*
X48156905Y-43642714D02*
X48204524Y-43547476D01*
X48204524Y-43547476D02*
X48299762Y-43452238D01*
X48299762Y-43452238D02*
X48442619Y-43404619D01*
X48442619Y-43404619D02*
X48537857Y-43404619D01*
X48537857Y-43404619D02*
X48680714Y-43452238D01*
X48680714Y-43452238D02*
X48728333Y-43499857D01*
X49109286Y-43499857D02*
X49156905Y-43452238D01*
X49156905Y-43452238D02*
X49252143Y-43404619D01*
X49252143Y-43404619D02*
X49490238Y-43404619D01*
X49490238Y-43404619D02*
X49585476Y-43452238D01*
X49585476Y-43452238D02*
X49633095Y-43499857D01*
X49633095Y-43499857D02*
X49680714Y-43595095D01*
X49680714Y-43595095D02*
X49680714Y-43690333D01*
X49680714Y-43690333D02*
X49633095Y-43833190D01*
X49633095Y-43833190D02*
X49061667Y-44404619D01*
X49061667Y-44404619D02*
X49680714Y-44404619D01*
X41148095Y-25072619D02*
X41148095Y-25882142D01*
X41148095Y-25882142D02*
X41195714Y-25977380D01*
X41195714Y-25977380D02*
X41243333Y-26025000D01*
X41243333Y-26025000D02*
X41338571Y-26072619D01*
X41338571Y-26072619D02*
X41529047Y-26072619D01*
X41529047Y-26072619D02*
X41624285Y-26025000D01*
X41624285Y-26025000D02*
X41671904Y-25977380D01*
X41671904Y-25977380D02*
X41719523Y-25882142D01*
X41719523Y-25882142D02*
X41719523Y-25072619D01*
X42719523Y-26072619D02*
X42148095Y-26072619D01*
X42433809Y-26072619D02*
X42433809Y-25072619D01*
X42433809Y-25072619D02*
X42338571Y-25215476D01*
X42338571Y-25215476D02*
X42243333Y-25310714D01*
X42243333Y-25310714D02*
X42148095Y-25358333D01*
X49744333Y-65772380D02*
X49696714Y-65820000D01*
X49696714Y-65820000D02*
X49553857Y-65867619D01*
X49553857Y-65867619D02*
X49458619Y-65867619D01*
X49458619Y-65867619D02*
X49315762Y-65820000D01*
X49315762Y-65820000D02*
X49220524Y-65724761D01*
X49220524Y-65724761D02*
X49172905Y-65629523D01*
X49172905Y-65629523D02*
X49125286Y-65439047D01*
X49125286Y-65439047D02*
X49125286Y-65296190D01*
X49125286Y-65296190D02*
X49172905Y-65105714D01*
X49172905Y-65105714D02*
X49220524Y-65010476D01*
X49220524Y-65010476D02*
X49315762Y-64915238D01*
X49315762Y-64915238D02*
X49458619Y-64867619D01*
X49458619Y-64867619D02*
X49553857Y-64867619D01*
X49553857Y-64867619D02*
X49696714Y-64915238D01*
X49696714Y-64915238D02*
X49744333Y-64962857D01*
X50077667Y-64867619D02*
X50744333Y-64867619D01*
X50744333Y-64867619D02*
X50315762Y-65867619D01*
X78001905Y-75392619D02*
X78001905Y-74392619D01*
X78001905Y-74392619D02*
X78240000Y-74392619D01*
X78240000Y-74392619D02*
X78382857Y-74440238D01*
X78382857Y-74440238D02*
X78478095Y-74535476D01*
X78478095Y-74535476D02*
X78525714Y-74630714D01*
X78525714Y-74630714D02*
X78573333Y-74821190D01*
X78573333Y-74821190D02*
X78573333Y-74964047D01*
X78573333Y-74964047D02*
X78525714Y-75154523D01*
X78525714Y-75154523D02*
X78478095Y-75249761D01*
X78478095Y-75249761D02*
X78382857Y-75345000D01*
X78382857Y-75345000D02*
X78240000Y-75392619D01*
X78240000Y-75392619D02*
X78001905Y-75392619D01*
X78906667Y-74392619D02*
X79525714Y-74392619D01*
X79525714Y-74392619D02*
X79192381Y-74773571D01*
X79192381Y-74773571D02*
X79335238Y-74773571D01*
X79335238Y-74773571D02*
X79430476Y-74821190D01*
X79430476Y-74821190D02*
X79478095Y-74868809D01*
X79478095Y-74868809D02*
X79525714Y-74964047D01*
X79525714Y-74964047D02*
X79525714Y-75202142D01*
X79525714Y-75202142D02*
X79478095Y-75297380D01*
X79478095Y-75297380D02*
X79430476Y-75345000D01*
X79430476Y-75345000D02*
X79335238Y-75392619D01*
X79335238Y-75392619D02*
X79049524Y-75392619D01*
X79049524Y-75392619D02*
X78954286Y-75345000D01*
X78954286Y-75345000D02*
X78906667Y-75297380D01*
X78478095Y-76662619D02*
X78478095Y-75662619D01*
X79049523Y-76662619D02*
X78620952Y-76091190D01*
X79049523Y-75662619D02*
X78478095Y-76234047D01*
D11*
X72450000Y-109280000D02*
X46930000Y-109280000D01*
X69850000Y-104080000D02*
X69850000Y-106680000D01*
X71120000Y-104080000D02*
X72450000Y-104080000D01*
X72450000Y-106680000D02*
X72450000Y-109280000D01*
X46930000Y-104080000D02*
X46930000Y-109280000D01*
X72450000Y-104080000D02*
X72450000Y-105410000D01*
X69850000Y-104080000D02*
X46930000Y-104080000D01*
X69850000Y-106680000D02*
X72450000Y-106680000D01*
X55940000Y-83710000D02*
X48200000Y-83710000D01*
X48200000Y-83710000D02*
X48200000Y-89010000D01*
X55940000Y-85360000D02*
X55940000Y-83710000D01*
X55940000Y-89010000D02*
X55940000Y-87360000D01*
X48200000Y-89010000D02*
X55940000Y-89010000D01*
X55940000Y-85360000D02*
G75*
G03*
X55940000Y-87360000I0J-1000000D01*
G01*
X78640000Y-37560000D02*
X78640000Y-31020000D01*
X78970000Y-37560000D02*
X78640000Y-37560000D01*
X81050000Y-37560000D02*
X81380000Y-37560000D01*
X81380000Y-37560000D02*
X81380000Y-31020000D01*
X78640000Y-31020000D02*
X78970000Y-31020000D01*
X81380000Y-31020000D02*
X81050000Y-31020000D01*
X75030000Y-31020000D02*
X75030000Y-37560000D01*
X74700000Y-31020000D02*
X75030000Y-31020000D01*
X72620000Y-31020000D02*
X72290000Y-31020000D01*
X72290000Y-31020000D02*
X72290000Y-37560000D01*
X75030000Y-37560000D02*
X74700000Y-37560000D01*
X72290000Y-37560000D02*
X72620000Y-37560000D01*
X76835000Y-37060000D02*
X76835000Y-36410000D01*
X75715000Y-36410000D02*
X77955000Y-36410000D01*
X77955000Y-36410000D02*
X77955000Y-32170000D01*
X75715000Y-35810000D02*
X77955000Y-35810000D01*
X75715000Y-35690000D02*
X77955000Y-35690000D01*
X75715000Y-35570000D02*
X77955000Y-35570000D01*
X75715000Y-32170000D02*
X75715000Y-36410000D01*
X77955000Y-32170000D02*
X75715000Y-32170000D01*
X76835000Y-31520000D02*
X76835000Y-32170000D01*
X43180000Y-93115000D02*
X43180000Y-93805000D01*
X44900000Y-93805000D02*
X41460000Y-93805000D01*
X41460000Y-93805000D02*
X41460000Y-103045000D01*
X44900000Y-103045000D02*
X44900000Y-93805000D01*
X41460000Y-103045000D02*
X44900000Y-103045000D01*
X43180000Y-103735000D02*
X43180000Y-103045000D01*
X70851000Y-60365000D02*
X70851000Y-66615000D01*
X65801000Y-60365000D02*
X65801000Y-66615000D01*
X70851000Y-60365000D02*
G75*
G03*
X65801000Y-60365000I-2525000J0D01*
G01*
X65801000Y-66615000D02*
G75*
G03*
X70851000Y-66615000I2525000J0D01*
G01*
X39640000Y-87590000D02*
X41640000Y-87590000D01*
X37320000Y-87210000D02*
X37320000Y-65170000D01*
X46760000Y-87210000D02*
X37320000Y-87210000D01*
X37320000Y-65170000D02*
X46760000Y-65170000D01*
X46760000Y-65170000D02*
X46760000Y-87210000D01*
X68640000Y-95140000D02*
X58360000Y-95140000D01*
X58360000Y-95140000D02*
X58360000Y-100440000D01*
X68640000Y-96790000D02*
X68640000Y-95140000D01*
X68640000Y-100440000D02*
X68640000Y-98790000D01*
X58360000Y-100440000D02*
X68640000Y-100440000D01*
X68640000Y-96790000D02*
G75*
G03*
X68640000Y-98790000I0J-1000000D01*
G01*
X68040000Y-45820000D02*
X61500000Y-45820000D01*
X68040000Y-45490000D02*
X68040000Y-45820000D01*
X68040000Y-43410000D02*
X68040000Y-43080000D01*
X68040000Y-43080000D02*
X61500000Y-43080000D01*
X61500000Y-45820000D02*
X61500000Y-45490000D01*
X61500000Y-43080000D02*
X61500000Y-43410000D01*
X66142000Y-29570000D02*
X66142000Y-32660000D01*
X71691999Y-31115462D02*
G75*
G03*
X66142001Y-29570170I-2989999J462D01*
G01*
X66142000Y-32659830D02*
G75*
G03*
X71692000Y-31114538I2560000J1544830D01*
G01*
X71202000Y-31115000D02*
G75*
G03*
X71202000Y-31115000I-2500000J0D01*
G01*
X68040000Y-53440000D02*
X61500000Y-53440000D01*
X68040000Y-53110000D02*
X68040000Y-53440000D01*
X68040000Y-51030000D02*
X68040000Y-50700000D01*
X68040000Y-50700000D02*
X61500000Y-50700000D01*
X61500000Y-53440000D02*
X61500000Y-53110000D01*
X61500000Y-50700000D02*
X61500000Y-51030000D01*
X62325000Y-68045000D02*
X55785000Y-68045000D01*
X62325000Y-67715000D02*
X62325000Y-68045000D01*
X62325000Y-65635000D02*
X62325000Y-65305000D01*
X62325000Y-65305000D02*
X55785000Y-65305000D01*
X55785000Y-68045000D02*
X55785000Y-67715000D01*
X55785000Y-65305000D02*
X55785000Y-65635000D01*
X60610000Y-35710000D02*
X60610000Y-35775000D01*
X60610000Y-35710000D02*
X63850000Y-35710000D01*
X60610000Y-37885000D02*
X60610000Y-37950000D01*
X60610000Y-37950000D02*
X63850000Y-37950000D01*
X63850000Y-35710000D02*
X63850000Y-35775000D01*
X63850000Y-37885000D02*
X63850000Y-37950000D01*
X39370000Y-93115000D02*
X39370000Y-93805000D01*
X41090000Y-93805000D02*
X37650000Y-93805000D01*
X37650000Y-93805000D02*
X37650000Y-103045000D01*
X41090000Y-103045000D02*
X41090000Y-93805000D01*
X37650000Y-103045000D02*
X41090000Y-103045000D01*
X39370000Y-103735000D02*
X39370000Y-103045000D01*
X49754863Y-58100217D02*
G75*
G03*
X49755144Y-56200000I-732863J950217D01*
G01*
X48288856Y-56200000D02*
G75*
G03*
X48289137Y-58100217I733144J-950000D01*
G01*
X66120000Y-69750000D02*
X60880000Y-69750000D01*
X66120000Y-69750000D02*
X66120000Y-77490000D01*
X60880000Y-69750000D02*
X60880000Y-77490000D01*
X66120000Y-77490000D02*
X60880000Y-77490000D01*
X68640000Y-83710000D02*
X58360000Y-83710000D01*
X58360000Y-83710000D02*
X58360000Y-89010000D01*
X68640000Y-85360000D02*
X68640000Y-83710000D01*
X68640000Y-89010000D02*
X68640000Y-87360000D01*
X58360000Y-89010000D02*
X68640000Y-89010000D01*
X68640000Y-85360000D02*
G75*
G03*
X68640000Y-87360000I0J-1000000D01*
G01*
X68040000Y-42010000D02*
X61500000Y-42010000D01*
X68040000Y-41680000D02*
X68040000Y-42010000D01*
X68040000Y-39600000D02*
X68040000Y-39270000D01*
X68040000Y-39270000D02*
X61500000Y-39270000D01*
X61500000Y-42010000D02*
X61500000Y-41680000D01*
X61500000Y-39270000D02*
X61500000Y-39600000D01*
X55930000Y-95140000D02*
X45650000Y-95140000D01*
X45650000Y-95140000D02*
X45650000Y-100440000D01*
X55930000Y-96790000D02*
X55930000Y-95140000D01*
X55930000Y-100440000D02*
X55930000Y-98790000D01*
X45650000Y-100440000D02*
X55930000Y-100440000D01*
X55930000Y-96790000D02*
G75*
G03*
X55930000Y-98790000I0J-1000000D01*
G01*
X49155000Y-53055000D02*
X50413000Y-53055000D01*
X49155000Y-54895000D02*
X50413000Y-54895000D01*
X81340000Y-83710000D02*
X71060000Y-83710000D01*
X71060000Y-83710000D02*
X71060000Y-89010000D01*
X81340000Y-85360000D02*
X81340000Y-83710000D01*
X81340000Y-89010000D02*
X81340000Y-87360000D01*
X71060000Y-89010000D02*
X81340000Y-89010000D01*
X81340000Y-85360000D02*
G75*
G03*
X81340000Y-87360000I0J-1000000D01*
G01*
X68040000Y-49630000D02*
X61500000Y-49630000D01*
X68040000Y-49300000D02*
X68040000Y-49630000D01*
X68040000Y-47220000D02*
X68040000Y-46890000D01*
X68040000Y-46890000D02*
X61500000Y-46890000D01*
X61500000Y-49630000D02*
X61500000Y-49300000D01*
X61500000Y-46890000D02*
X61500000Y-47220000D01*
X49530000Y-34855000D02*
X49530000Y-33585000D01*
X50800000Y-34855000D02*
X49530000Y-34855000D01*
X52960000Y-32542071D02*
X52960000Y-32145000D01*
X53720000Y-32542071D02*
X53720000Y-32145000D01*
X55500000Y-32542071D02*
X55500000Y-32145000D01*
X56260000Y-32542071D02*
X56260000Y-32145000D01*
X58040000Y-32542071D02*
X58040000Y-32145000D01*
X58800000Y-32542071D02*
X58800000Y-32145000D01*
X60580000Y-32542071D02*
X60580000Y-32145000D01*
X61340000Y-32542071D02*
X61340000Y-32145000D01*
X63120000Y-32542071D02*
X63120000Y-32145000D01*
X63880000Y-32542071D02*
X63880000Y-32145000D01*
X50420000Y-32475000D02*
X50420000Y-32145000D01*
X51180000Y-32475000D02*
X51180000Y-32145000D01*
X49470000Y-32145000D02*
X64830000Y-32145000D01*
X52070000Y-32145000D02*
X52070000Y-29485000D01*
X54610000Y-32145000D02*
X54610000Y-29485000D01*
X57150000Y-32145000D02*
X57150000Y-29485000D01*
X59690000Y-32145000D02*
X59690000Y-29485000D01*
X62230000Y-32145000D02*
X62230000Y-29485000D01*
X64830000Y-32145000D02*
X64830000Y-29485000D01*
X49470000Y-29485000D02*
X49470000Y-32145000D01*
X50420000Y-29485000D02*
X50420000Y-23485000D01*
X50480000Y-29485000D02*
X50480000Y-23485000D01*
X50600000Y-29485000D02*
X50600000Y-23485000D01*
X50720000Y-29485000D02*
X50720000Y-23485000D01*
X50840000Y-29485000D02*
X50840000Y-23485000D01*
X50960000Y-29485000D02*
X50960000Y-23485000D01*
X51080000Y-29485000D02*
X51080000Y-23485000D01*
X52960000Y-29485000D02*
X52960000Y-23485000D01*
X55500000Y-29485000D02*
X55500000Y-23485000D01*
X58040000Y-29485000D02*
X58040000Y-23485000D01*
X60580000Y-29485000D02*
X60580000Y-23485000D01*
X63120000Y-29485000D02*
X63120000Y-23485000D01*
X64830000Y-29485000D02*
X49470000Y-29485000D01*
X50420000Y-23485000D02*
X51180000Y-23485000D01*
X51180000Y-23485000D02*
X51180000Y-29485000D01*
X52960000Y-23485000D02*
X53720000Y-23485000D01*
X53720000Y-23485000D02*
X53720000Y-29485000D01*
X55500000Y-23485000D02*
X56260000Y-23485000D01*
X56260000Y-23485000D02*
X56260000Y-29485000D01*
X58040000Y-23485000D02*
X58800000Y-23485000D01*
X58800000Y-23485000D02*
X58800000Y-29485000D01*
X60580000Y-23485000D02*
X61340000Y-23485000D01*
X61340000Y-23485000D02*
X61340000Y-29485000D01*
X63120000Y-23485000D02*
X63880000Y-23485000D01*
X63880000Y-23485000D02*
X63880000Y-29485000D01*
X72930000Y-24792000D02*
X79470000Y-24792000D01*
X72930000Y-25122000D02*
X72930000Y-24792000D01*
X72930000Y-27202000D02*
X72930000Y-27532000D01*
X72930000Y-27532000D02*
X79470000Y-27532000D01*
X79470000Y-24792000D02*
X79470000Y-25122000D01*
X79470000Y-27532000D02*
X79470000Y-27202000D01*
X62325000Y-61695000D02*
X55785000Y-61695000D01*
X62325000Y-61365000D02*
X62325000Y-61695000D01*
X62325000Y-59285000D02*
X62325000Y-58955000D01*
X62325000Y-58955000D02*
X55785000Y-58955000D01*
X55785000Y-61695000D02*
X55785000Y-61365000D01*
X55785000Y-58955000D02*
X55785000Y-59285000D01*
X48961000Y-75910241D02*
X48961000Y-75280241D01*
X48646000Y-75595241D02*
X49276000Y-75595241D01*
X47570000Y-72410000D02*
X54030000Y-72410000D01*
X47570000Y-72370000D02*
X54030000Y-72370000D01*
X47570000Y-72330000D02*
X54030000Y-72330000D01*
X47572000Y-72290000D02*
X54028000Y-72290000D01*
X47573000Y-72250000D02*
X54027000Y-72250000D01*
X47576000Y-72210000D02*
X54024000Y-72210000D01*
X47578000Y-72170000D02*
X49760000Y-72170000D01*
X51840000Y-72170000D02*
X54022000Y-72170000D01*
X47582000Y-72130000D02*
X49760000Y-72130000D01*
X51840000Y-72130000D02*
X54018000Y-72130000D01*
X47585000Y-72090000D02*
X49760000Y-72090000D01*
X51840000Y-72090000D02*
X54015000Y-72090000D01*
X47589000Y-72050000D02*
X49760000Y-72050000D01*
X51840000Y-72050000D02*
X54011000Y-72050000D01*
X47594000Y-72010000D02*
X49760000Y-72010000D01*
X51840000Y-72010000D02*
X54006000Y-72010000D01*
X47599000Y-71970000D02*
X49760000Y-71970000D01*
X51840000Y-71970000D02*
X54001000Y-71970000D01*
X47605000Y-71930000D02*
X49760000Y-71930000D01*
X51840000Y-71930000D02*
X53995000Y-71930000D01*
X47611000Y-71890000D02*
X49760000Y-71890000D01*
X51840000Y-71890000D02*
X53989000Y-71890000D01*
X47618000Y-71850000D02*
X49760000Y-71850000D01*
X51840000Y-71850000D02*
X53982000Y-71850000D01*
X47625000Y-71810000D02*
X49760000Y-71810000D01*
X51840000Y-71810000D02*
X53975000Y-71810000D01*
X47633000Y-71770000D02*
X49760000Y-71770000D01*
X51840000Y-71770000D02*
X53967000Y-71770000D01*
X47641000Y-71730000D02*
X49760000Y-71730000D01*
X51840000Y-71730000D02*
X53959000Y-71730000D01*
X47650000Y-71689000D02*
X49760000Y-71689000D01*
X51840000Y-71689000D02*
X53950000Y-71689000D01*
X47659000Y-71649000D02*
X49760000Y-71649000D01*
X51840000Y-71649000D02*
X53941000Y-71649000D01*
X47669000Y-71609000D02*
X49760000Y-71609000D01*
X51840000Y-71609000D02*
X53931000Y-71609000D01*
X47679000Y-71569000D02*
X49760000Y-71569000D01*
X51840000Y-71569000D02*
X53921000Y-71569000D01*
X47690000Y-71529000D02*
X49760000Y-71529000D01*
X51840000Y-71529000D02*
X53910000Y-71529000D01*
X47702000Y-71489000D02*
X49760000Y-71489000D01*
X51840000Y-71489000D02*
X53898000Y-71489000D01*
X47714000Y-71449000D02*
X49760000Y-71449000D01*
X51840000Y-71449000D02*
X53886000Y-71449000D01*
X47726000Y-71409000D02*
X49760000Y-71409000D01*
X51840000Y-71409000D02*
X53874000Y-71409000D01*
X47739000Y-71369000D02*
X49760000Y-71369000D01*
X51840000Y-71369000D02*
X53861000Y-71369000D01*
X47753000Y-71329000D02*
X49760000Y-71329000D01*
X51840000Y-71329000D02*
X53847000Y-71329000D01*
X47767000Y-71289000D02*
X49760000Y-71289000D01*
X51840000Y-71289000D02*
X53833000Y-71289000D01*
X47782000Y-71249000D02*
X49760000Y-71249000D01*
X51840000Y-71249000D02*
X53818000Y-71249000D01*
X47798000Y-71209000D02*
X49760000Y-71209000D01*
X51840000Y-71209000D02*
X53802000Y-71209000D01*
X47814000Y-71169000D02*
X49760000Y-71169000D01*
X51840000Y-71169000D02*
X53786000Y-71169000D01*
X47830000Y-71129000D02*
X49760000Y-71129000D01*
X51840000Y-71129000D02*
X53770000Y-71129000D01*
X47848000Y-71089000D02*
X49760000Y-71089000D01*
X51840000Y-71089000D02*
X53752000Y-71089000D01*
X47866000Y-71049000D02*
X49760000Y-71049000D01*
X51840000Y-71049000D02*
X53734000Y-71049000D01*
X47884000Y-71009000D02*
X49760000Y-71009000D01*
X51840000Y-71009000D02*
X53716000Y-71009000D01*
X47904000Y-70969000D02*
X49760000Y-70969000D01*
X51840000Y-70969000D02*
X53696000Y-70969000D01*
X47924000Y-70929000D02*
X49760000Y-70929000D01*
X51840000Y-70929000D02*
X53676000Y-70929000D01*
X47944000Y-70889000D02*
X49760000Y-70889000D01*
X51840000Y-70889000D02*
X53656000Y-70889000D01*
X47966000Y-70849000D02*
X49760000Y-70849000D01*
X51840000Y-70849000D02*
X53634000Y-70849000D01*
X47988000Y-70809000D02*
X49760000Y-70809000D01*
X51840000Y-70809000D02*
X53612000Y-70809000D01*
X48010000Y-70769000D02*
X49760000Y-70769000D01*
X51840000Y-70769000D02*
X53590000Y-70769000D01*
X48034000Y-70729000D02*
X49760000Y-70729000D01*
X51840000Y-70729000D02*
X53566000Y-70729000D01*
X48058000Y-70689000D02*
X49760000Y-70689000D01*
X51840000Y-70689000D02*
X53542000Y-70689000D01*
X48084000Y-70649000D02*
X49760000Y-70649000D01*
X51840000Y-70649000D02*
X53516000Y-70649000D01*
X48110000Y-70609000D02*
X49760000Y-70609000D01*
X51840000Y-70609000D02*
X53490000Y-70609000D01*
X48136000Y-70569000D02*
X49760000Y-70569000D01*
X51840000Y-70569000D02*
X53464000Y-70569000D01*
X48164000Y-70529000D02*
X49760000Y-70529000D01*
X51840000Y-70529000D02*
X53436000Y-70529000D01*
X48193000Y-70489000D02*
X49760000Y-70489000D01*
X51840000Y-70489000D02*
X53407000Y-70489000D01*
X48222000Y-70449000D02*
X49760000Y-70449000D01*
X51840000Y-70449000D02*
X53378000Y-70449000D01*
X48252000Y-70409000D02*
X49760000Y-70409000D01*
X51840000Y-70409000D02*
X53348000Y-70409000D01*
X48284000Y-70369000D02*
X49760000Y-70369000D01*
X51840000Y-70369000D02*
X53316000Y-70369000D01*
X48316000Y-70329000D02*
X49760000Y-70329000D01*
X51840000Y-70329000D02*
X53284000Y-70329000D01*
X48350000Y-70289000D02*
X49760000Y-70289000D01*
X51840000Y-70289000D02*
X53250000Y-70289000D01*
X48384000Y-70249000D02*
X49760000Y-70249000D01*
X51840000Y-70249000D02*
X53216000Y-70249000D01*
X48420000Y-70209000D02*
X49760000Y-70209000D01*
X51840000Y-70209000D02*
X53180000Y-70209000D01*
X48457000Y-70169000D02*
X49760000Y-70169000D01*
X51840000Y-70169000D02*
X53143000Y-70169000D01*
X48495000Y-70129000D02*
X49760000Y-70129000D01*
X51840000Y-70129000D02*
X53105000Y-70129000D01*
X48535000Y-70089000D02*
X53065000Y-70089000D01*
X48576000Y-70049000D02*
X53024000Y-70049000D01*
X48618000Y-70009000D02*
X52982000Y-70009000D01*
X48663000Y-69969000D02*
X52937000Y-69969000D01*
X48708000Y-69929000D02*
X52892000Y-69929000D01*
X48756000Y-69889000D02*
X52844000Y-69889000D01*
X48805000Y-69849000D02*
X52795000Y-69849000D01*
X48856000Y-69809000D02*
X52744000Y-69809000D01*
X48910000Y-69769000D02*
X52690000Y-69769000D01*
X48966000Y-69729000D02*
X52634000Y-69729000D01*
X49024000Y-69689000D02*
X52576000Y-69689000D01*
X49086000Y-69649000D02*
X52514000Y-69649000D01*
X49150000Y-69609000D02*
X52450000Y-69609000D01*
X49219000Y-69569000D02*
X52381000Y-69569000D01*
X49291000Y-69529000D02*
X52309000Y-69529000D01*
X49368000Y-69489000D02*
X52232000Y-69489000D01*
X49450000Y-69449000D02*
X52150000Y-69449000D01*
X49538000Y-69409000D02*
X52062000Y-69409000D01*
X49635000Y-69369000D02*
X51965000Y-69369000D01*
X49741000Y-69329000D02*
X51859000Y-69329000D01*
X49860000Y-69289000D02*
X51740000Y-69289000D01*
X49998000Y-69249000D02*
X51602000Y-69249000D01*
X50167000Y-69209000D02*
X51433000Y-69209000D01*
X50398000Y-69169000D02*
X51202000Y-69169000D01*
X54070000Y-72410000D02*
G75*
G03*
X54070000Y-72410000I-3270000J0D01*
G01*
X62325000Y-64870000D02*
X55785000Y-64870000D01*
X62325000Y-64540000D02*
X62325000Y-64870000D01*
X62325000Y-62460000D02*
X62325000Y-62130000D01*
X62325000Y-62130000D02*
X55785000Y-62130000D01*
X55785000Y-64870000D02*
X55785000Y-64540000D01*
X55785000Y-62130000D02*
X55785000Y-62460000D01*
X39656000Y-88038000D02*
X46196000Y-88038000D01*
X39656000Y-88368000D02*
X39656000Y-88038000D01*
X39656000Y-90448000D02*
X39656000Y-90778000D01*
X39656000Y-90778000D02*
X46196000Y-90778000D01*
X46196000Y-88038000D02*
X46196000Y-88368000D01*
X46196000Y-90778000D02*
X46196000Y-90448000D01*
X55594000Y-52551000D02*
X49054000Y-52551000D01*
X55594000Y-52221000D02*
X55594000Y-52551000D01*
X55594000Y-50141000D02*
X55594000Y-49811000D01*
X55594000Y-49811000D02*
X49054000Y-49811000D01*
X49054000Y-52551000D02*
X49054000Y-52221000D01*
X49054000Y-49811000D02*
X49054000Y-50141000D01*
X75830000Y-39520000D02*
X75830000Y-39585000D01*
X75830000Y-39520000D02*
X79070000Y-39520000D01*
X75830000Y-41695000D02*
X75830000Y-41760000D01*
X75830000Y-41760000D02*
X79070000Y-41760000D01*
X79070000Y-39520000D02*
X79070000Y-39585000D01*
X79070000Y-41695000D02*
X79070000Y-41760000D01*
X81340000Y-95140000D02*
X71060000Y-95140000D01*
X71060000Y-95140000D02*
X71060000Y-100440000D01*
X81340000Y-96790000D02*
X81340000Y-95140000D01*
X81340000Y-100440000D02*
X81340000Y-98790000D01*
X71060000Y-100440000D02*
X81340000Y-100440000D01*
X81340000Y-96790000D02*
G75*
G03*
X81340000Y-98790000I0J-1000000D01*
G01*
X75110000Y-72717000D02*
X69670000Y-72717000D01*
X75110000Y-72587000D02*
X75110000Y-72717000D01*
X75110000Y-69907000D02*
X75110000Y-69777000D01*
X75110000Y-69777000D02*
X69670000Y-69777000D01*
X74330000Y-72717000D02*
X74330000Y-69777000D01*
X74210000Y-72717000D02*
X74210000Y-69777000D01*
X74090000Y-72717000D02*
X74090000Y-69777000D01*
X69670000Y-72717000D02*
X69670000Y-72587000D01*
X69670000Y-69777000D02*
X69670000Y-69907000D01*
X59770000Y-69750000D02*
X54530000Y-69750000D01*
X59770000Y-69750000D02*
X59770000Y-77490000D01*
X54530000Y-69750000D02*
X54530000Y-77490000D01*
X59770000Y-77490000D02*
X54530000Y-77490000D01*
X73550000Y-43120000D02*
X73550000Y-66100000D01*
X73550000Y-66100000D02*
X78850000Y-66100000D01*
X75200000Y-43120000D02*
X73550000Y-43120000D01*
X78850000Y-43120000D02*
X77200000Y-43120000D01*
X78850000Y-66100000D02*
X78850000Y-43120000D01*
X75200000Y-43120000D02*
G75*
G03*
X77200000Y-43120000I1000000J0D01*
G01*
X51900000Y-78102000D02*
X51900000Y-80902000D01*
X51900000Y-80902000D02*
X80180000Y-80902000D01*
X54610000Y-78102000D02*
X54610000Y-80902000D01*
X80180000Y-78102000D02*
X51900000Y-78102000D01*
X80180000Y-80902000D02*
X80180000Y-78102000D01*
X58480000Y-43120000D02*
X58480000Y-44450000D01*
X57150000Y-43120000D02*
X58480000Y-43120000D01*
X55880000Y-43120000D02*
X50740000Y-43120000D01*
X55880000Y-43120000D02*
X55880000Y-45720000D01*
X50740000Y-43120000D02*
X50740000Y-48320000D01*
X58480000Y-45720000D02*
X58480000Y-48320000D01*
X55880000Y-45720000D02*
X58480000Y-45720000D01*
X58480000Y-48320000D02*
X50740000Y-48320000D01*
X61500000Y-54510000D02*
X68040000Y-54510000D01*
X61500000Y-54840000D02*
X61500000Y-54510000D01*
X61500000Y-56920000D02*
X61500000Y-57250000D01*
X61500000Y-57250000D02*
X68040000Y-57250000D01*
X68040000Y-54510000D02*
X68040000Y-54840000D01*
X68040000Y-57250000D02*
X68040000Y-56920000D01*
X47775000Y-48630000D02*
X47840000Y-48630000D01*
X47775000Y-48630000D02*
X47775000Y-45390000D01*
X49950000Y-48630000D02*
X50015000Y-48630000D01*
X50015000Y-48630000D02*
X50015000Y-45390000D01*
X47775000Y-45390000D02*
X47840000Y-45390000D01*
X49950000Y-45390000D02*
X50015000Y-45390000D01*
X36770000Y-26550000D02*
X36770000Y-62350000D01*
X36770000Y-62350000D02*
X47050000Y-62350000D01*
X39260000Y-26610000D02*
X39260000Y-62290000D01*
X39260000Y-62290000D02*
X44560000Y-62290000D01*
X40910000Y-26610000D02*
X39260000Y-26610000D01*
X44560000Y-26610000D02*
X42910000Y-26610000D01*
X44560000Y-62290000D02*
X44560000Y-26610000D01*
X47050000Y-26550000D02*
X36770000Y-26550000D01*
X47050000Y-62350000D02*
X47050000Y-26550000D01*
X40910000Y-26610000D02*
G75*
G03*
X42910000Y-26610000I1000000J0D01*
G01*
X52420000Y-68430000D02*
X52420000Y-68365000D01*
X52420000Y-68430000D02*
X49180000Y-68430000D01*
X52420000Y-66255000D02*
X52420000Y-66190000D01*
X52420000Y-66190000D02*
X49180000Y-66190000D01*
X49180000Y-68430000D02*
X49180000Y-68365000D01*
X49180000Y-66255000D02*
X49180000Y-66190000D01*
X75110000Y-76527000D02*
X69670000Y-76527000D01*
X75110000Y-76397000D02*
X75110000Y-76527000D01*
X75110000Y-73717000D02*
X75110000Y-73587000D01*
X75110000Y-73587000D02*
X69670000Y-73587000D01*
X74330000Y-76527000D02*
X74330000Y-73587000D01*
X74210000Y-76527000D02*
X74210000Y-73587000D01*
X74090000Y-76527000D02*
X74090000Y-73587000D01*
X69670000Y-76527000D02*
X69670000Y-76397000D01*
X69670000Y-73587000D02*
X69670000Y-73717000D01*
M02*
