G04 #@! TF.GenerationSoftware,KiCad,Pcbnew,7.0.2*
G04 #@! TF.CreationDate,2023-06-04T10:40:26-07:00*
G04 #@! TF.ProjectId,we755a_dtmf,77653735-3561-45f6-9474-6d662e6b6963,1*
G04 #@! TF.SameCoordinates,Original*
G04 #@! TF.FileFunction,Legend,Bot*
G04 #@! TF.FilePolarity,Positive*
%FSLAX46Y46*%
G04 Gerber Fmt 4.6, Leading zero omitted, Abs format (unit mm)*
G04 Created by KiCad (PCBNEW 7.0.2) date 2023-06-04 10:40:26*
%MOMM*%
%LPD*%
G01*
G04 APERTURE LIST*
%ADD10C,0.150000*%
G04 APERTURE END LIST*
D10*
X54133761Y-35072619D02*
X53562333Y-35072619D01*
X53848047Y-36072619D02*
X53848047Y-35072619D01*
X53324237Y-35072619D02*
X52657571Y-36072619D01*
X52657571Y-35072619D02*
X53324237Y-36072619D01*
X55959476Y-36072619D02*
X56292809Y-35596428D01*
X56530904Y-36072619D02*
X56530904Y-35072619D01*
X56530904Y-35072619D02*
X56149952Y-35072619D01*
X56149952Y-35072619D02*
X56054714Y-35120238D01*
X56054714Y-35120238D02*
X56007095Y-35167857D01*
X56007095Y-35167857D02*
X55959476Y-35263095D01*
X55959476Y-35263095D02*
X55959476Y-35405952D01*
X55959476Y-35405952D02*
X56007095Y-35501190D01*
X56007095Y-35501190D02*
X56054714Y-35548809D01*
X56054714Y-35548809D02*
X56149952Y-35596428D01*
X56149952Y-35596428D02*
X56530904Y-35596428D01*
X55626142Y-35072619D02*
X54959476Y-36072619D01*
X54959476Y-35072619D02*
X55626142Y-36072619D01*
X48831571Y-110097809D02*
X48688714Y-110145428D01*
X48688714Y-110145428D02*
X48641095Y-110193047D01*
X48641095Y-110193047D02*
X48593476Y-110288285D01*
X48593476Y-110288285D02*
X48593476Y-110431142D01*
X48593476Y-110431142D02*
X48641095Y-110526380D01*
X48641095Y-110526380D02*
X48688714Y-110574000D01*
X48688714Y-110574000D02*
X48783952Y-110621619D01*
X48783952Y-110621619D02*
X49164904Y-110621619D01*
X49164904Y-110621619D02*
X49164904Y-109621619D01*
X49164904Y-109621619D02*
X48831571Y-109621619D01*
X48831571Y-109621619D02*
X48736333Y-109669238D01*
X48736333Y-109669238D02*
X48688714Y-109716857D01*
X48688714Y-109716857D02*
X48641095Y-109812095D01*
X48641095Y-109812095D02*
X48641095Y-109907333D01*
X48641095Y-109907333D02*
X48688714Y-110002571D01*
X48688714Y-110002571D02*
X48736333Y-110050190D01*
X48736333Y-110050190D02*
X48831571Y-110097809D01*
X48831571Y-110097809D02*
X49164904Y-110097809D01*
X48212523Y-110335904D02*
X47736333Y-110335904D01*
X48307761Y-110621619D02*
X47974428Y-109621619D01*
X47974428Y-109621619D02*
X47641095Y-110621619D01*
X47450618Y-109621619D02*
X46879190Y-109621619D01*
X47164904Y-110621619D02*
X47164904Y-109621619D01*
X51085761Y-102763619D02*
X50514333Y-102763619D01*
X50800047Y-103763619D02*
X50800047Y-102763619D01*
X58594714Y-35072619D02*
X59070904Y-35072619D01*
X59070904Y-35072619D02*
X59118523Y-35548809D01*
X59118523Y-35548809D02*
X59070904Y-35501190D01*
X59070904Y-35501190D02*
X58975666Y-35453571D01*
X58975666Y-35453571D02*
X58737571Y-35453571D01*
X58737571Y-35453571D02*
X58642333Y-35501190D01*
X58642333Y-35501190D02*
X58594714Y-35548809D01*
X58594714Y-35548809D02*
X58547095Y-35644047D01*
X58547095Y-35644047D02*
X58547095Y-35882142D01*
X58547095Y-35882142D02*
X58594714Y-35977380D01*
X58594714Y-35977380D02*
X58642333Y-36025000D01*
X58642333Y-36025000D02*
X58737571Y-36072619D01*
X58737571Y-36072619D02*
X58975666Y-36072619D01*
X58975666Y-36072619D02*
X59070904Y-36025000D01*
X59070904Y-36025000D02*
X59118523Y-35977380D01*
X58261380Y-35072619D02*
X57928047Y-36072619D01*
X57928047Y-36072619D02*
X57594714Y-35072619D01*
X48704571Y-103239809D02*
X48561714Y-103287428D01*
X48561714Y-103287428D02*
X48514095Y-103335047D01*
X48514095Y-103335047D02*
X48466476Y-103430285D01*
X48466476Y-103430285D02*
X48466476Y-103573142D01*
X48466476Y-103573142D02*
X48514095Y-103668380D01*
X48514095Y-103668380D02*
X48561714Y-103716000D01*
X48561714Y-103716000D02*
X48656952Y-103763619D01*
X48656952Y-103763619D02*
X49037904Y-103763619D01*
X49037904Y-103763619D02*
X49037904Y-102763619D01*
X49037904Y-102763619D02*
X48704571Y-102763619D01*
X48704571Y-102763619D02*
X48609333Y-102811238D01*
X48609333Y-102811238D02*
X48561714Y-102858857D01*
X48561714Y-102858857D02*
X48514095Y-102954095D01*
X48514095Y-102954095D02*
X48514095Y-103049333D01*
X48514095Y-103049333D02*
X48561714Y-103144571D01*
X48561714Y-103144571D02*
X48609333Y-103192190D01*
X48609333Y-103192190D02*
X48704571Y-103239809D01*
X48704571Y-103239809D02*
X49037904Y-103239809D01*
X48085523Y-103477904D02*
X47609333Y-103477904D01*
X48180761Y-103763619D02*
X47847428Y-102763619D01*
X47847428Y-102763619D02*
X47514095Y-103763619D01*
X47323618Y-102763619D02*
X46752190Y-102763619D01*
X47037904Y-103763619D02*
X47037904Y-102763619D01*
X59086761Y-109621619D02*
X58515333Y-109621619D01*
X58801047Y-110621619D02*
X58801047Y-109621619D01*
X58229618Y-109716857D02*
X58181999Y-109669238D01*
X58181999Y-109669238D02*
X58086761Y-109621619D01*
X58086761Y-109621619D02*
X57848666Y-109621619D01*
X57848666Y-109621619D02*
X57753428Y-109669238D01*
X57753428Y-109669238D02*
X57705809Y-109716857D01*
X57705809Y-109716857D02*
X57658190Y-109812095D01*
X57658190Y-109812095D02*
X57658190Y-109907333D01*
X57658190Y-109907333D02*
X57705809Y-110050190D01*
X57705809Y-110050190D02*
X58277237Y-110621619D01*
X58277237Y-110621619D02*
X57658190Y-110621619D01*
X57451714Y-48534619D02*
X57927904Y-48534619D01*
X57927904Y-48534619D02*
X57975523Y-49010809D01*
X57975523Y-49010809D02*
X57927904Y-48963190D01*
X57927904Y-48963190D02*
X57832666Y-48915571D01*
X57832666Y-48915571D02*
X57594571Y-48915571D01*
X57594571Y-48915571D02*
X57499333Y-48963190D01*
X57499333Y-48963190D02*
X57451714Y-49010809D01*
X57451714Y-49010809D02*
X57404095Y-49106047D01*
X57404095Y-49106047D02*
X57404095Y-49344142D01*
X57404095Y-49344142D02*
X57451714Y-49439380D01*
X57451714Y-49439380D02*
X57499333Y-49487000D01*
X57499333Y-49487000D02*
X57594571Y-49534619D01*
X57594571Y-49534619D02*
X57832666Y-49534619D01*
X57832666Y-49534619D02*
X57927904Y-49487000D01*
X57927904Y-49487000D02*
X57975523Y-49439380D01*
X57118380Y-48534619D02*
X56785047Y-49534619D01*
X56785047Y-49534619D02*
X56451714Y-48534619D01*
X72136095Y-102811238D02*
X72231333Y-102763619D01*
X72231333Y-102763619D02*
X72374190Y-102763619D01*
X72374190Y-102763619D02*
X72517047Y-102811238D01*
X72517047Y-102811238D02*
X72612285Y-102906476D01*
X72612285Y-102906476D02*
X72659904Y-103001714D01*
X72659904Y-103001714D02*
X72707523Y-103192190D01*
X72707523Y-103192190D02*
X72707523Y-103335047D01*
X72707523Y-103335047D02*
X72659904Y-103525523D01*
X72659904Y-103525523D02*
X72612285Y-103620761D01*
X72612285Y-103620761D02*
X72517047Y-103716000D01*
X72517047Y-103716000D02*
X72374190Y-103763619D01*
X72374190Y-103763619D02*
X72278952Y-103763619D01*
X72278952Y-103763619D02*
X72136095Y-103716000D01*
X72136095Y-103716000D02*
X72088476Y-103668380D01*
X72088476Y-103668380D02*
X72088476Y-103335047D01*
X72088476Y-103335047D02*
X72278952Y-103335047D01*
X71088476Y-103763619D02*
X71421809Y-103287428D01*
X71659904Y-103763619D02*
X71659904Y-102763619D01*
X71659904Y-102763619D02*
X71278952Y-102763619D01*
X71278952Y-102763619D02*
X71183714Y-102811238D01*
X71183714Y-102811238D02*
X71136095Y-102858857D01*
X71136095Y-102858857D02*
X71088476Y-102954095D01*
X71088476Y-102954095D02*
X71088476Y-103096952D01*
X71088476Y-103096952D02*
X71136095Y-103192190D01*
X71136095Y-103192190D02*
X71183714Y-103239809D01*
X71183714Y-103239809D02*
X71278952Y-103287428D01*
X71278952Y-103287428D02*
X71659904Y-103287428D01*
X70659904Y-103763619D02*
X70659904Y-102763619D01*
X70659904Y-102763619D02*
X70421809Y-102763619D01*
X70421809Y-102763619D02*
X70278952Y-102811238D01*
X70278952Y-102811238D02*
X70183714Y-102906476D01*
X70183714Y-102906476D02*
X70136095Y-103001714D01*
X70136095Y-103001714D02*
X70088476Y-103192190D01*
X70088476Y-103192190D02*
X70088476Y-103335047D01*
X70088476Y-103335047D02*
X70136095Y-103525523D01*
X70136095Y-103525523D02*
X70183714Y-103620761D01*
X70183714Y-103620761D02*
X70278952Y-103716000D01*
X70278952Y-103716000D02*
X70421809Y-103763619D01*
X70421809Y-103763619D02*
X70659904Y-103763619D01*
X59213761Y-102763619D02*
X58642333Y-102763619D01*
X58928047Y-103763619D02*
X58928047Y-102763619D01*
X58404237Y-102763619D02*
X57785190Y-102763619D01*
X57785190Y-102763619D02*
X58118523Y-103144571D01*
X58118523Y-103144571D02*
X57975666Y-103144571D01*
X57975666Y-103144571D02*
X57880428Y-103192190D01*
X57880428Y-103192190D02*
X57832809Y-103239809D01*
X57832809Y-103239809D02*
X57785190Y-103335047D01*
X57785190Y-103335047D02*
X57785190Y-103573142D01*
X57785190Y-103573142D02*
X57832809Y-103668380D01*
X57832809Y-103668380D02*
X57880428Y-103716000D01*
X57880428Y-103716000D02*
X57975666Y-103763619D01*
X57975666Y-103763619D02*
X58261380Y-103763619D01*
X58261380Y-103763619D02*
X58356618Y-103716000D01*
X58356618Y-103716000D02*
X58404237Y-103668380D01*
X52451095Y-48582238D02*
X52546333Y-48534619D01*
X52546333Y-48534619D02*
X52689190Y-48534619D01*
X52689190Y-48534619D02*
X52832047Y-48582238D01*
X52832047Y-48582238D02*
X52927285Y-48677476D01*
X52927285Y-48677476D02*
X52974904Y-48772714D01*
X52974904Y-48772714D02*
X53022523Y-48963190D01*
X53022523Y-48963190D02*
X53022523Y-49106047D01*
X53022523Y-49106047D02*
X52974904Y-49296523D01*
X52974904Y-49296523D02*
X52927285Y-49391761D01*
X52927285Y-49391761D02*
X52832047Y-49487000D01*
X52832047Y-49487000D02*
X52689190Y-49534619D01*
X52689190Y-49534619D02*
X52593952Y-49534619D01*
X52593952Y-49534619D02*
X52451095Y-49487000D01*
X52451095Y-49487000D02*
X52403476Y-49439380D01*
X52403476Y-49439380D02*
X52403476Y-49106047D01*
X52403476Y-49106047D02*
X52593952Y-49106047D01*
X51974904Y-49534619D02*
X51974904Y-48534619D01*
X51974904Y-48534619D02*
X51403476Y-49534619D01*
X51403476Y-49534619D02*
X51403476Y-48534619D01*
X50927285Y-49534619D02*
X50927285Y-48534619D01*
X50927285Y-48534619D02*
X50689190Y-48534619D01*
X50689190Y-48534619D02*
X50546333Y-48582238D01*
X50546333Y-48582238D02*
X50451095Y-48677476D01*
X50451095Y-48677476D02*
X50403476Y-48772714D01*
X50403476Y-48772714D02*
X50355857Y-48963190D01*
X50355857Y-48963190D02*
X50355857Y-49106047D01*
X50355857Y-49106047D02*
X50403476Y-49296523D01*
X50403476Y-49296523D02*
X50451095Y-49391761D01*
X50451095Y-49391761D02*
X50546333Y-49487000D01*
X50546333Y-49487000D02*
X50689190Y-49534619D01*
X50689190Y-49534619D02*
X50927285Y-49534619D01*
X61214095Y-110621619D02*
X61785523Y-110621619D01*
X61499809Y-110621619D02*
X61499809Y-109621619D01*
X61499809Y-109621619D02*
X61595047Y-109764476D01*
X61595047Y-109764476D02*
X61690285Y-109859714D01*
X61690285Y-109859714D02*
X61785523Y-109907333D01*
X60880761Y-109621619D02*
X60214095Y-109621619D01*
X60214095Y-109621619D02*
X60642666Y-110621619D01*
X70850142Y-23450619D02*
X70612047Y-24450619D01*
X70612047Y-24450619D02*
X70421571Y-23736333D01*
X70421571Y-23736333D02*
X70231095Y-24450619D01*
X70231095Y-24450619D02*
X69993000Y-23450619D01*
X69612047Y-23926809D02*
X69278714Y-23926809D01*
X69135857Y-24450619D02*
X69612047Y-24450619D01*
X69612047Y-24450619D02*
X69612047Y-23450619D01*
X69612047Y-23450619D02*
X69135857Y-23450619D01*
X68040618Y-23450619D02*
X67373952Y-23450619D01*
X67373952Y-23450619D02*
X67802523Y-24450619D01*
X66516809Y-23450619D02*
X66992999Y-23450619D01*
X66992999Y-23450619D02*
X67040618Y-23926809D01*
X67040618Y-23926809D02*
X66992999Y-23879190D01*
X66992999Y-23879190D02*
X66897761Y-23831571D01*
X66897761Y-23831571D02*
X66659666Y-23831571D01*
X66659666Y-23831571D02*
X66564428Y-23879190D01*
X66564428Y-23879190D02*
X66516809Y-23926809D01*
X66516809Y-23926809D02*
X66469190Y-24022047D01*
X66469190Y-24022047D02*
X66469190Y-24260142D01*
X66469190Y-24260142D02*
X66516809Y-24355380D01*
X66516809Y-24355380D02*
X66564428Y-24403000D01*
X66564428Y-24403000D02*
X66659666Y-24450619D01*
X66659666Y-24450619D02*
X66897761Y-24450619D01*
X66897761Y-24450619D02*
X66992999Y-24403000D01*
X66992999Y-24403000D02*
X67040618Y-24355380D01*
X65564428Y-23450619D02*
X66040618Y-23450619D01*
X66040618Y-23450619D02*
X66088237Y-23926809D01*
X66088237Y-23926809D02*
X66040618Y-23879190D01*
X66040618Y-23879190D02*
X65945380Y-23831571D01*
X65945380Y-23831571D02*
X65707285Y-23831571D01*
X65707285Y-23831571D02*
X65612047Y-23879190D01*
X65612047Y-23879190D02*
X65564428Y-23926809D01*
X65564428Y-23926809D02*
X65516809Y-24022047D01*
X65516809Y-24022047D02*
X65516809Y-24260142D01*
X65516809Y-24260142D02*
X65564428Y-24355380D01*
X65564428Y-24355380D02*
X65612047Y-24403000D01*
X65612047Y-24403000D02*
X65707285Y-24450619D01*
X65707285Y-24450619D02*
X65945380Y-24450619D01*
X65945380Y-24450619D02*
X66040618Y-24403000D01*
X66040618Y-24403000D02*
X66088237Y-24355380D01*
X65135856Y-24164904D02*
X64659666Y-24164904D01*
X65231094Y-24450619D02*
X64897761Y-23450619D01*
X64897761Y-23450619D02*
X64564428Y-24450619D01*
X63469189Y-24450619D02*
X63469189Y-23450619D01*
X63469189Y-23450619D02*
X63088237Y-23450619D01*
X63088237Y-23450619D02*
X62992999Y-23498238D01*
X62992999Y-23498238D02*
X62945380Y-23545857D01*
X62945380Y-23545857D02*
X62897761Y-23641095D01*
X62897761Y-23641095D02*
X62897761Y-23783952D01*
X62897761Y-23783952D02*
X62945380Y-23879190D01*
X62945380Y-23879190D02*
X62992999Y-23926809D01*
X62992999Y-23926809D02*
X63088237Y-23974428D01*
X63088237Y-23974428D02*
X63469189Y-23974428D01*
X62135856Y-23926809D02*
X61992999Y-23974428D01*
X61992999Y-23974428D02*
X61945380Y-24022047D01*
X61945380Y-24022047D02*
X61897761Y-24117285D01*
X61897761Y-24117285D02*
X61897761Y-24260142D01*
X61897761Y-24260142D02*
X61945380Y-24355380D01*
X61945380Y-24355380D02*
X61992999Y-24403000D01*
X61992999Y-24403000D02*
X62088237Y-24450619D01*
X62088237Y-24450619D02*
X62469189Y-24450619D01*
X62469189Y-24450619D02*
X62469189Y-23450619D01*
X62469189Y-23450619D02*
X62135856Y-23450619D01*
X62135856Y-23450619D02*
X62040618Y-23498238D01*
X62040618Y-23498238D02*
X61992999Y-23545857D01*
X61992999Y-23545857D02*
X61945380Y-23641095D01*
X61945380Y-23641095D02*
X61945380Y-23736333D01*
X61945380Y-23736333D02*
X61992999Y-23831571D01*
X61992999Y-23831571D02*
X62040618Y-23879190D01*
X62040618Y-23879190D02*
X62135856Y-23926809D01*
X62135856Y-23926809D02*
X62469189Y-23926809D01*
X61564427Y-23450619D02*
X60897761Y-24450619D01*
X60897761Y-23450619D02*
X61564427Y-24450619D01*
X59754903Y-24450619D02*
X59754903Y-23450619D01*
X59754903Y-23450619D02*
X59516808Y-23450619D01*
X59516808Y-23450619D02*
X59373951Y-23498238D01*
X59373951Y-23498238D02*
X59278713Y-23593476D01*
X59278713Y-23593476D02*
X59231094Y-23688714D01*
X59231094Y-23688714D02*
X59183475Y-23879190D01*
X59183475Y-23879190D02*
X59183475Y-24022047D01*
X59183475Y-24022047D02*
X59231094Y-24212523D01*
X59231094Y-24212523D02*
X59278713Y-24307761D01*
X59278713Y-24307761D02*
X59373951Y-24403000D01*
X59373951Y-24403000D02*
X59516808Y-24450619D01*
X59516808Y-24450619D02*
X59754903Y-24450619D01*
X58897760Y-23450619D02*
X58326332Y-23450619D01*
X58612046Y-24450619D02*
X58612046Y-23450619D01*
X57992998Y-24450619D02*
X57992998Y-23450619D01*
X57992998Y-23450619D02*
X57659665Y-24164904D01*
X57659665Y-24164904D02*
X57326332Y-23450619D01*
X57326332Y-23450619D02*
X57326332Y-24450619D01*
X56516808Y-23926809D02*
X56850141Y-23926809D01*
X56850141Y-24450619D02*
X56850141Y-23450619D01*
X56850141Y-23450619D02*
X56373951Y-23450619D01*
X54659665Y-24355380D02*
X54707284Y-24403000D01*
X54707284Y-24403000D02*
X54850141Y-24450619D01*
X54850141Y-24450619D02*
X54945379Y-24450619D01*
X54945379Y-24450619D02*
X55088236Y-24403000D01*
X55088236Y-24403000D02*
X55183474Y-24307761D01*
X55183474Y-24307761D02*
X55231093Y-24212523D01*
X55231093Y-24212523D02*
X55278712Y-24022047D01*
X55278712Y-24022047D02*
X55278712Y-23879190D01*
X55278712Y-23879190D02*
X55231093Y-23688714D01*
X55231093Y-23688714D02*
X55183474Y-23593476D01*
X55183474Y-23593476D02*
X55088236Y-23498238D01*
X55088236Y-23498238D02*
X54945379Y-23450619D01*
X54945379Y-23450619D02*
X54850141Y-23450619D01*
X54850141Y-23450619D02*
X54707284Y-23498238D01*
X54707284Y-23498238D02*
X54659665Y-23545857D01*
X54088236Y-24450619D02*
X54183474Y-24403000D01*
X54183474Y-24403000D02*
X54231093Y-24355380D01*
X54231093Y-24355380D02*
X54278712Y-24260142D01*
X54278712Y-24260142D02*
X54278712Y-23974428D01*
X54278712Y-23974428D02*
X54231093Y-23879190D01*
X54231093Y-23879190D02*
X54183474Y-23831571D01*
X54183474Y-23831571D02*
X54088236Y-23783952D01*
X54088236Y-23783952D02*
X53945379Y-23783952D01*
X53945379Y-23783952D02*
X53850141Y-23831571D01*
X53850141Y-23831571D02*
X53802522Y-23879190D01*
X53802522Y-23879190D02*
X53754903Y-23974428D01*
X53754903Y-23974428D02*
X53754903Y-24260142D01*
X53754903Y-24260142D02*
X53802522Y-24355380D01*
X53802522Y-24355380D02*
X53850141Y-24403000D01*
X53850141Y-24403000D02*
X53945379Y-24450619D01*
X53945379Y-24450619D02*
X54088236Y-24450619D01*
X53326331Y-23783952D02*
X53326331Y-24450619D01*
X53326331Y-23879190D02*
X53278712Y-23831571D01*
X53278712Y-23831571D02*
X53183474Y-23783952D01*
X53183474Y-23783952D02*
X53040617Y-23783952D01*
X53040617Y-23783952D02*
X52945379Y-23831571D01*
X52945379Y-23831571D02*
X52897760Y-23926809D01*
X52897760Y-23926809D02*
X52897760Y-24450619D01*
X52516807Y-23783952D02*
X52278712Y-24450619D01*
X52278712Y-24450619D02*
X52040617Y-23783952D01*
X51278712Y-24403000D02*
X51373950Y-24450619D01*
X51373950Y-24450619D02*
X51564426Y-24450619D01*
X51564426Y-24450619D02*
X51659664Y-24403000D01*
X51659664Y-24403000D02*
X51707283Y-24307761D01*
X51707283Y-24307761D02*
X51707283Y-23926809D01*
X51707283Y-23926809D02*
X51659664Y-23831571D01*
X51659664Y-23831571D02*
X51564426Y-23783952D01*
X51564426Y-23783952D02*
X51373950Y-23783952D01*
X51373950Y-23783952D02*
X51278712Y-23831571D01*
X51278712Y-23831571D02*
X51231093Y-23926809D01*
X51231093Y-23926809D02*
X51231093Y-24022047D01*
X51231093Y-24022047D02*
X51707283Y-24117285D01*
X50802521Y-24450619D02*
X50802521Y-23783952D01*
X50802521Y-23974428D02*
X50754902Y-23879190D01*
X50754902Y-23879190D02*
X50707283Y-23831571D01*
X50707283Y-23831571D02*
X50612045Y-23783952D01*
X50612045Y-23783952D02*
X50516807Y-23783952D01*
X50326330Y-23783952D02*
X49945378Y-23783952D01*
X50183473Y-23450619D02*
X50183473Y-24307761D01*
X50183473Y-24307761D02*
X50135854Y-24403000D01*
X50135854Y-24403000D02*
X50040616Y-24450619D01*
X50040616Y-24450619D02*
X49945378Y-24450619D01*
X49231092Y-24403000D02*
X49326330Y-24450619D01*
X49326330Y-24450619D02*
X49516806Y-24450619D01*
X49516806Y-24450619D02*
X49612044Y-24403000D01*
X49612044Y-24403000D02*
X49659663Y-24307761D01*
X49659663Y-24307761D02*
X49659663Y-23926809D01*
X49659663Y-23926809D02*
X49612044Y-23831571D01*
X49612044Y-23831571D02*
X49516806Y-23783952D01*
X49516806Y-23783952D02*
X49326330Y-23783952D01*
X49326330Y-23783952D02*
X49231092Y-23831571D01*
X49231092Y-23831571D02*
X49183473Y-23926809D01*
X49183473Y-23926809D02*
X49183473Y-24022047D01*
X49183473Y-24022047D02*
X49659663Y-24117285D01*
X48754901Y-24450619D02*
X48754901Y-23783952D01*
X48754901Y-23974428D02*
X48707282Y-23879190D01*
X48707282Y-23879190D02*
X48659663Y-23831571D01*
X48659663Y-23831571D02*
X48564425Y-23783952D01*
X48564425Y-23783952D02*
X48469187Y-23783952D01*
X70326333Y-25403952D02*
X70326333Y-26213476D01*
X70326333Y-26213476D02*
X70373952Y-26308714D01*
X70373952Y-26308714D02*
X70421571Y-26356333D01*
X70421571Y-26356333D02*
X70516809Y-26403952D01*
X70516809Y-26403952D02*
X70659666Y-26403952D01*
X70659666Y-26403952D02*
X70754904Y-26356333D01*
X70326333Y-26023000D02*
X70421571Y-26070619D01*
X70421571Y-26070619D02*
X70612047Y-26070619D01*
X70612047Y-26070619D02*
X70707285Y-26023000D01*
X70707285Y-26023000D02*
X70754904Y-25975380D01*
X70754904Y-25975380D02*
X70802523Y-25880142D01*
X70802523Y-25880142D02*
X70802523Y-25594428D01*
X70802523Y-25594428D02*
X70754904Y-25499190D01*
X70754904Y-25499190D02*
X70707285Y-25451571D01*
X70707285Y-25451571D02*
X70612047Y-25403952D01*
X70612047Y-25403952D02*
X70421571Y-25403952D01*
X70421571Y-25403952D02*
X70326333Y-25451571D01*
X69850142Y-26070619D02*
X69850142Y-25403952D01*
X69850142Y-25070619D02*
X69897761Y-25118238D01*
X69897761Y-25118238D02*
X69850142Y-25165857D01*
X69850142Y-25165857D02*
X69802523Y-25118238D01*
X69802523Y-25118238D02*
X69850142Y-25070619D01*
X69850142Y-25070619D02*
X69850142Y-25165857D01*
X69516809Y-25403952D02*
X69135857Y-25403952D01*
X69373952Y-25070619D02*
X69373952Y-25927761D01*
X69373952Y-25927761D02*
X69326333Y-26023000D01*
X69326333Y-26023000D02*
X69231095Y-26070619D01*
X69231095Y-26070619D02*
X69135857Y-26070619D01*
X68802523Y-26070619D02*
X68802523Y-25070619D01*
X68373952Y-26070619D02*
X68373952Y-25546809D01*
X68373952Y-25546809D02*
X68421571Y-25451571D01*
X68421571Y-25451571D02*
X68516809Y-25403952D01*
X68516809Y-25403952D02*
X68659666Y-25403952D01*
X68659666Y-25403952D02*
X68754904Y-25451571D01*
X68754904Y-25451571D02*
X68802523Y-25499190D01*
X67469190Y-25403952D02*
X67469190Y-26070619D01*
X67897761Y-25403952D02*
X67897761Y-25927761D01*
X67897761Y-25927761D02*
X67850142Y-26023000D01*
X67850142Y-26023000D02*
X67754904Y-26070619D01*
X67754904Y-26070619D02*
X67612047Y-26070619D01*
X67612047Y-26070619D02*
X67516809Y-26023000D01*
X67516809Y-26023000D02*
X67469190Y-25975380D01*
X66992999Y-26070619D02*
X66992999Y-25070619D01*
X66992999Y-25451571D02*
X66897761Y-25403952D01*
X66897761Y-25403952D02*
X66707285Y-25403952D01*
X66707285Y-25403952D02*
X66612047Y-25451571D01*
X66612047Y-25451571D02*
X66564428Y-25499190D01*
X66564428Y-25499190D02*
X66516809Y-25594428D01*
X66516809Y-25594428D02*
X66516809Y-25880142D01*
X66516809Y-25880142D02*
X66564428Y-25975380D01*
X66564428Y-25975380D02*
X66612047Y-26023000D01*
X66612047Y-26023000D02*
X66707285Y-26070619D01*
X66707285Y-26070619D02*
X66897761Y-26070619D01*
X66897761Y-26070619D02*
X66992999Y-26023000D01*
X66088237Y-25975380D02*
X66040618Y-26023000D01*
X66040618Y-26023000D02*
X66088237Y-26070619D01*
X66088237Y-26070619D02*
X66135856Y-26023000D01*
X66135856Y-26023000D02*
X66088237Y-25975380D01*
X66088237Y-25975380D02*
X66088237Y-26070619D01*
X65183476Y-26023000D02*
X65278714Y-26070619D01*
X65278714Y-26070619D02*
X65469190Y-26070619D01*
X65469190Y-26070619D02*
X65564428Y-26023000D01*
X65564428Y-26023000D02*
X65612047Y-25975380D01*
X65612047Y-25975380D02*
X65659666Y-25880142D01*
X65659666Y-25880142D02*
X65659666Y-25594428D01*
X65659666Y-25594428D02*
X65612047Y-25499190D01*
X65612047Y-25499190D02*
X65564428Y-25451571D01*
X65564428Y-25451571D02*
X65469190Y-25403952D01*
X65469190Y-25403952D02*
X65278714Y-25403952D01*
X65278714Y-25403952D02*
X65183476Y-25451571D01*
X64612047Y-26070619D02*
X64707285Y-26023000D01*
X64707285Y-26023000D02*
X64754904Y-25975380D01*
X64754904Y-25975380D02*
X64802523Y-25880142D01*
X64802523Y-25880142D02*
X64802523Y-25594428D01*
X64802523Y-25594428D02*
X64754904Y-25499190D01*
X64754904Y-25499190D02*
X64707285Y-25451571D01*
X64707285Y-25451571D02*
X64612047Y-25403952D01*
X64612047Y-25403952D02*
X64469190Y-25403952D01*
X64469190Y-25403952D02*
X64373952Y-25451571D01*
X64373952Y-25451571D02*
X64326333Y-25499190D01*
X64326333Y-25499190D02*
X64278714Y-25594428D01*
X64278714Y-25594428D02*
X64278714Y-25880142D01*
X64278714Y-25880142D02*
X64326333Y-25975380D01*
X64326333Y-25975380D02*
X64373952Y-26023000D01*
X64373952Y-26023000D02*
X64469190Y-26070619D01*
X64469190Y-26070619D02*
X64612047Y-26070619D01*
X63850142Y-26070619D02*
X63850142Y-25403952D01*
X63850142Y-25499190D02*
X63802523Y-25451571D01*
X63802523Y-25451571D02*
X63707285Y-25403952D01*
X63707285Y-25403952D02*
X63564428Y-25403952D01*
X63564428Y-25403952D02*
X63469190Y-25451571D01*
X63469190Y-25451571D02*
X63421571Y-25546809D01*
X63421571Y-25546809D02*
X63421571Y-26070619D01*
X63421571Y-25546809D02*
X63373952Y-25451571D01*
X63373952Y-25451571D02*
X63278714Y-25403952D01*
X63278714Y-25403952D02*
X63135857Y-25403952D01*
X63135857Y-25403952D02*
X63040618Y-25451571D01*
X63040618Y-25451571D02*
X62992999Y-25546809D01*
X62992999Y-25546809D02*
X62992999Y-26070619D01*
X61802524Y-25023000D02*
X62659666Y-26308714D01*
X61469190Y-26070619D02*
X61469190Y-25070619D01*
X61040619Y-26070619D02*
X61040619Y-25546809D01*
X61040619Y-25546809D02*
X61088238Y-25451571D01*
X61088238Y-25451571D02*
X61183476Y-25403952D01*
X61183476Y-25403952D02*
X61326333Y-25403952D01*
X61326333Y-25403952D02*
X61421571Y-25451571D01*
X61421571Y-25451571D02*
X61469190Y-25499190D01*
X60564428Y-26070619D02*
X60564428Y-25070619D01*
X60135857Y-26070619D02*
X60135857Y-25546809D01*
X60135857Y-25546809D02*
X60183476Y-25451571D01*
X60183476Y-25451571D02*
X60278714Y-25403952D01*
X60278714Y-25403952D02*
X60421571Y-25403952D01*
X60421571Y-25403952D02*
X60516809Y-25451571D01*
X60516809Y-25451571D02*
X60564428Y-25499190D01*
X59231095Y-26070619D02*
X59231095Y-25546809D01*
X59231095Y-25546809D02*
X59278714Y-25451571D01*
X59278714Y-25451571D02*
X59373952Y-25403952D01*
X59373952Y-25403952D02*
X59564428Y-25403952D01*
X59564428Y-25403952D02*
X59659666Y-25451571D01*
X59231095Y-26023000D02*
X59326333Y-26070619D01*
X59326333Y-26070619D02*
X59564428Y-26070619D01*
X59564428Y-26070619D02*
X59659666Y-26023000D01*
X59659666Y-26023000D02*
X59707285Y-25927761D01*
X59707285Y-25927761D02*
X59707285Y-25832523D01*
X59707285Y-25832523D02*
X59659666Y-25737285D01*
X59659666Y-25737285D02*
X59564428Y-25689666D01*
X59564428Y-25689666D02*
X59326333Y-25689666D01*
X59326333Y-25689666D02*
X59231095Y-25642047D01*
X58754904Y-26070619D02*
X58754904Y-25403952D01*
X58754904Y-25594428D02*
X58707285Y-25499190D01*
X58707285Y-25499190D02*
X58659666Y-25451571D01*
X58659666Y-25451571D02*
X58564428Y-25403952D01*
X58564428Y-25403952D02*
X58469190Y-25403952D01*
X58278713Y-25403952D02*
X57897761Y-25403952D01*
X58135856Y-25070619D02*
X58135856Y-25927761D01*
X58135856Y-25927761D02*
X58088237Y-26023000D01*
X58088237Y-26023000D02*
X57992999Y-26070619D01*
X57992999Y-26070619D02*
X57897761Y-26070619D01*
X57183475Y-26023000D02*
X57278713Y-26070619D01*
X57278713Y-26070619D02*
X57469189Y-26070619D01*
X57469189Y-26070619D02*
X57564427Y-26023000D01*
X57564427Y-26023000D02*
X57612046Y-25927761D01*
X57612046Y-25927761D02*
X57612046Y-25546809D01*
X57612046Y-25546809D02*
X57564427Y-25451571D01*
X57564427Y-25451571D02*
X57469189Y-25403952D01*
X57469189Y-25403952D02*
X57278713Y-25403952D01*
X57278713Y-25403952D02*
X57183475Y-25451571D01*
X57183475Y-25451571D02*
X57135856Y-25546809D01*
X57135856Y-25546809D02*
X57135856Y-25642047D01*
X57135856Y-25642047D02*
X57612046Y-25737285D01*
X55992999Y-25023000D02*
X56850141Y-26308714D01*
X55754903Y-25403952D02*
X55564427Y-26070619D01*
X55564427Y-26070619D02*
X55373951Y-25594428D01*
X55373951Y-25594428D02*
X55183475Y-26070619D01*
X55183475Y-26070619D02*
X54992999Y-25403952D01*
X54231094Y-26023000D02*
X54326332Y-26070619D01*
X54326332Y-26070619D02*
X54516808Y-26070619D01*
X54516808Y-26070619D02*
X54612046Y-26023000D01*
X54612046Y-26023000D02*
X54659665Y-25927761D01*
X54659665Y-25927761D02*
X54659665Y-25546809D01*
X54659665Y-25546809D02*
X54612046Y-25451571D01*
X54612046Y-25451571D02*
X54516808Y-25403952D01*
X54516808Y-25403952D02*
X54326332Y-25403952D01*
X54326332Y-25403952D02*
X54231094Y-25451571D01*
X54231094Y-25451571D02*
X54183475Y-25546809D01*
X54183475Y-25546809D02*
X54183475Y-25642047D01*
X54183475Y-25642047D02*
X54659665Y-25737285D01*
X53850141Y-25070619D02*
X53183475Y-25070619D01*
X53183475Y-25070619D02*
X53612046Y-26070619D01*
X52326332Y-25070619D02*
X52802522Y-25070619D01*
X52802522Y-25070619D02*
X52850141Y-25546809D01*
X52850141Y-25546809D02*
X52802522Y-25499190D01*
X52802522Y-25499190D02*
X52707284Y-25451571D01*
X52707284Y-25451571D02*
X52469189Y-25451571D01*
X52469189Y-25451571D02*
X52373951Y-25499190D01*
X52373951Y-25499190D02*
X52326332Y-25546809D01*
X52326332Y-25546809D02*
X52278713Y-25642047D01*
X52278713Y-25642047D02*
X52278713Y-25880142D01*
X52278713Y-25880142D02*
X52326332Y-25975380D01*
X52326332Y-25975380D02*
X52373951Y-26023000D01*
X52373951Y-26023000D02*
X52469189Y-26070619D01*
X52469189Y-26070619D02*
X52707284Y-26070619D01*
X52707284Y-26070619D02*
X52802522Y-26023000D01*
X52802522Y-26023000D02*
X52850141Y-25975380D01*
X51373951Y-25070619D02*
X51850141Y-25070619D01*
X51850141Y-25070619D02*
X51897760Y-25546809D01*
X51897760Y-25546809D02*
X51850141Y-25499190D01*
X51850141Y-25499190D02*
X51754903Y-25451571D01*
X51754903Y-25451571D02*
X51516808Y-25451571D01*
X51516808Y-25451571D02*
X51421570Y-25499190D01*
X51421570Y-25499190D02*
X51373951Y-25546809D01*
X51373951Y-25546809D02*
X51326332Y-25642047D01*
X51326332Y-25642047D02*
X51326332Y-25880142D01*
X51326332Y-25880142D02*
X51373951Y-25975380D01*
X51373951Y-25975380D02*
X51421570Y-26023000D01*
X51421570Y-26023000D02*
X51516808Y-26070619D01*
X51516808Y-26070619D02*
X51754903Y-26070619D01*
X51754903Y-26070619D02*
X51850141Y-26023000D01*
X51850141Y-26023000D02*
X51897760Y-25975380D01*
X50469189Y-26070619D02*
X50469189Y-25546809D01*
X50469189Y-25546809D02*
X50516808Y-25451571D01*
X50516808Y-25451571D02*
X50612046Y-25403952D01*
X50612046Y-25403952D02*
X50802522Y-25403952D01*
X50802522Y-25403952D02*
X50897760Y-25451571D01*
X50469189Y-26023000D02*
X50564427Y-26070619D01*
X50564427Y-26070619D02*
X50802522Y-26070619D01*
X50802522Y-26070619D02*
X50897760Y-26023000D01*
X50897760Y-26023000D02*
X50945379Y-25927761D01*
X50945379Y-25927761D02*
X50945379Y-25832523D01*
X50945379Y-25832523D02*
X50897760Y-25737285D01*
X50897760Y-25737285D02*
X50802522Y-25689666D01*
X50802522Y-25689666D02*
X50564427Y-25689666D01*
X50564427Y-25689666D02*
X50469189Y-25642047D01*
X50231094Y-26165857D02*
X49469189Y-26165857D01*
X48802522Y-26070619D02*
X48802522Y-25070619D01*
X48802522Y-26023000D02*
X48897760Y-26070619D01*
X48897760Y-26070619D02*
X49088236Y-26070619D01*
X49088236Y-26070619D02*
X49183474Y-26023000D01*
X49183474Y-26023000D02*
X49231093Y-25975380D01*
X49231093Y-25975380D02*
X49278712Y-25880142D01*
X49278712Y-25880142D02*
X49278712Y-25594428D01*
X49278712Y-25594428D02*
X49231093Y-25499190D01*
X49231093Y-25499190D02*
X49183474Y-25451571D01*
X49183474Y-25451571D02*
X49088236Y-25403952D01*
X49088236Y-25403952D02*
X48897760Y-25403952D01*
X48897760Y-25403952D02*
X48802522Y-25451571D01*
X48469188Y-25403952D02*
X48088236Y-25403952D01*
X48326331Y-25070619D02*
X48326331Y-25927761D01*
X48326331Y-25927761D02*
X48278712Y-26023000D01*
X48278712Y-26023000D02*
X48183474Y-26070619D01*
X48183474Y-26070619D02*
X48088236Y-26070619D01*
X47754902Y-26070619D02*
X47754902Y-25403952D01*
X47754902Y-25499190D02*
X47707283Y-25451571D01*
X47707283Y-25451571D02*
X47612045Y-25403952D01*
X47612045Y-25403952D02*
X47469188Y-25403952D01*
X47469188Y-25403952D02*
X47373950Y-25451571D01*
X47373950Y-25451571D02*
X47326331Y-25546809D01*
X47326331Y-25546809D02*
X47326331Y-26070619D01*
X47326331Y-25546809D02*
X47278712Y-25451571D01*
X47278712Y-25451571D02*
X47183474Y-25403952D01*
X47183474Y-25403952D02*
X47040617Y-25403952D01*
X47040617Y-25403952D02*
X46945378Y-25451571D01*
X46945378Y-25451571D02*
X46897759Y-25546809D01*
X46897759Y-25546809D02*
X46897759Y-26070619D01*
X46564426Y-25403952D02*
X46183474Y-25403952D01*
X46421569Y-26070619D02*
X46421569Y-25213476D01*
X46421569Y-25213476D02*
X46373950Y-25118238D01*
X46373950Y-25118238D02*
X46278712Y-25070619D01*
X46278712Y-25070619D02*
X46183474Y-25070619D01*
X70754904Y-27690619D02*
X70754904Y-26690619D01*
X70326333Y-27643000D02*
X70231095Y-27690619D01*
X70231095Y-27690619D02*
X70040619Y-27690619D01*
X70040619Y-27690619D02*
X69945381Y-27643000D01*
X69945381Y-27643000D02*
X69897762Y-27547761D01*
X69897762Y-27547761D02*
X69897762Y-27500142D01*
X69897762Y-27500142D02*
X69945381Y-27404904D01*
X69945381Y-27404904D02*
X70040619Y-27357285D01*
X70040619Y-27357285D02*
X70183476Y-27357285D01*
X70183476Y-27357285D02*
X70278714Y-27309666D01*
X70278714Y-27309666D02*
X70326333Y-27214428D01*
X70326333Y-27214428D02*
X70326333Y-27166809D01*
X70326333Y-27166809D02*
X70278714Y-27071571D01*
X70278714Y-27071571D02*
X70183476Y-27023952D01*
X70183476Y-27023952D02*
X70040619Y-27023952D01*
X70040619Y-27023952D02*
X69945381Y-27071571D01*
X69516809Y-27643000D02*
X69421571Y-27690619D01*
X69421571Y-27690619D02*
X69231095Y-27690619D01*
X69231095Y-27690619D02*
X69135857Y-27643000D01*
X69135857Y-27643000D02*
X69088238Y-27547761D01*
X69088238Y-27547761D02*
X69088238Y-27500142D01*
X69088238Y-27500142D02*
X69135857Y-27404904D01*
X69135857Y-27404904D02*
X69231095Y-27357285D01*
X69231095Y-27357285D02*
X69373952Y-27357285D01*
X69373952Y-27357285D02*
X69469190Y-27309666D01*
X69469190Y-27309666D02*
X69516809Y-27214428D01*
X69516809Y-27214428D02*
X69516809Y-27166809D01*
X69516809Y-27166809D02*
X69469190Y-27071571D01*
X69469190Y-27071571D02*
X69373952Y-27023952D01*
X69373952Y-27023952D02*
X69231095Y-27023952D01*
X69231095Y-27023952D02*
X69135857Y-27071571D01*
X68231095Y-27023952D02*
X68231095Y-27690619D01*
X68659666Y-27023952D02*
X68659666Y-27547761D01*
X68659666Y-27547761D02*
X68612047Y-27643000D01*
X68612047Y-27643000D02*
X68516809Y-27690619D01*
X68516809Y-27690619D02*
X68373952Y-27690619D01*
X68373952Y-27690619D02*
X68278714Y-27643000D01*
X68278714Y-27643000D02*
X68231095Y-27595380D01*
X67373952Y-27643000D02*
X67469190Y-27690619D01*
X67469190Y-27690619D02*
X67659666Y-27690619D01*
X67659666Y-27690619D02*
X67754904Y-27643000D01*
X67754904Y-27643000D02*
X67802523Y-27547761D01*
X67802523Y-27547761D02*
X67802523Y-27166809D01*
X67802523Y-27166809D02*
X67754904Y-27071571D01*
X67754904Y-27071571D02*
X67659666Y-27023952D01*
X67659666Y-27023952D02*
X67469190Y-27023952D01*
X67469190Y-27023952D02*
X67373952Y-27071571D01*
X67373952Y-27071571D02*
X67326333Y-27166809D01*
X67326333Y-27166809D02*
X67326333Y-27262047D01*
X67326333Y-27262047D02*
X67802523Y-27357285D01*
X65612047Y-27690619D02*
X66183475Y-27690619D01*
X65897761Y-27690619D02*
X65897761Y-26690619D01*
X65897761Y-26690619D02*
X65992999Y-26833476D01*
X65992999Y-26833476D02*
X66088237Y-26928714D01*
X66088237Y-26928714D02*
X66183475Y-26976333D01*
X64421570Y-27309666D02*
X63659666Y-27309666D01*
X62469189Y-26785857D02*
X62421570Y-26738238D01*
X62421570Y-26738238D02*
X62326332Y-26690619D01*
X62326332Y-26690619D02*
X62088237Y-26690619D01*
X62088237Y-26690619D02*
X61992999Y-26738238D01*
X61992999Y-26738238D02*
X61945380Y-26785857D01*
X61945380Y-26785857D02*
X61897761Y-26881095D01*
X61897761Y-26881095D02*
X61897761Y-26976333D01*
X61897761Y-26976333D02*
X61945380Y-27119190D01*
X61945380Y-27119190D02*
X62516808Y-27690619D01*
X62516808Y-27690619D02*
X61897761Y-27690619D01*
X61278713Y-26690619D02*
X61183475Y-26690619D01*
X61183475Y-26690619D02*
X61088237Y-26738238D01*
X61088237Y-26738238D02*
X61040618Y-26785857D01*
X61040618Y-26785857D02*
X60992999Y-26881095D01*
X60992999Y-26881095D02*
X60945380Y-27071571D01*
X60945380Y-27071571D02*
X60945380Y-27309666D01*
X60945380Y-27309666D02*
X60992999Y-27500142D01*
X60992999Y-27500142D02*
X61040618Y-27595380D01*
X61040618Y-27595380D02*
X61088237Y-27643000D01*
X61088237Y-27643000D02*
X61183475Y-27690619D01*
X61183475Y-27690619D02*
X61278713Y-27690619D01*
X61278713Y-27690619D02*
X61373951Y-27643000D01*
X61373951Y-27643000D02*
X61421570Y-27595380D01*
X61421570Y-27595380D02*
X61469189Y-27500142D01*
X61469189Y-27500142D02*
X61516808Y-27309666D01*
X61516808Y-27309666D02*
X61516808Y-27071571D01*
X61516808Y-27071571D02*
X61469189Y-26881095D01*
X61469189Y-26881095D02*
X61421570Y-26785857D01*
X61421570Y-26785857D02*
X61373951Y-26738238D01*
X61373951Y-26738238D02*
X61278713Y-26690619D01*
X60564427Y-26785857D02*
X60516808Y-26738238D01*
X60516808Y-26738238D02*
X60421570Y-26690619D01*
X60421570Y-26690619D02*
X60183475Y-26690619D01*
X60183475Y-26690619D02*
X60088237Y-26738238D01*
X60088237Y-26738238D02*
X60040618Y-26785857D01*
X60040618Y-26785857D02*
X59992999Y-26881095D01*
X59992999Y-26881095D02*
X59992999Y-26976333D01*
X59992999Y-26976333D02*
X60040618Y-27119190D01*
X60040618Y-27119190D02*
X60612046Y-27690619D01*
X60612046Y-27690619D02*
X59992999Y-27690619D01*
X59659665Y-26690619D02*
X59040618Y-26690619D01*
X59040618Y-26690619D02*
X59373951Y-27071571D01*
X59373951Y-27071571D02*
X59231094Y-27071571D01*
X59231094Y-27071571D02*
X59135856Y-27119190D01*
X59135856Y-27119190D02*
X59088237Y-27166809D01*
X59088237Y-27166809D02*
X59040618Y-27262047D01*
X59040618Y-27262047D02*
X59040618Y-27500142D01*
X59040618Y-27500142D02*
X59088237Y-27595380D01*
X59088237Y-27595380D02*
X59135856Y-27643000D01*
X59135856Y-27643000D02*
X59231094Y-27690619D01*
X59231094Y-27690619D02*
X59516808Y-27690619D01*
X59516808Y-27690619D02*
X59612046Y-27643000D01*
X59612046Y-27643000D02*
X59659665Y-27595380D01*
X58612046Y-27309666D02*
X57850142Y-27309666D01*
X57183475Y-26690619D02*
X57088237Y-26690619D01*
X57088237Y-26690619D02*
X56992999Y-26738238D01*
X56992999Y-26738238D02*
X56945380Y-26785857D01*
X56945380Y-26785857D02*
X56897761Y-26881095D01*
X56897761Y-26881095D02*
X56850142Y-27071571D01*
X56850142Y-27071571D02*
X56850142Y-27309666D01*
X56850142Y-27309666D02*
X56897761Y-27500142D01*
X56897761Y-27500142D02*
X56945380Y-27595380D01*
X56945380Y-27595380D02*
X56992999Y-27643000D01*
X56992999Y-27643000D02*
X57088237Y-27690619D01*
X57088237Y-27690619D02*
X57183475Y-27690619D01*
X57183475Y-27690619D02*
X57278713Y-27643000D01*
X57278713Y-27643000D02*
X57326332Y-27595380D01*
X57326332Y-27595380D02*
X57373951Y-27500142D01*
X57373951Y-27500142D02*
X57421570Y-27309666D01*
X57421570Y-27309666D02*
X57421570Y-27071571D01*
X57421570Y-27071571D02*
X57373951Y-26881095D01*
X57373951Y-26881095D02*
X57326332Y-26785857D01*
X57326332Y-26785857D02*
X57278713Y-26738238D01*
X57278713Y-26738238D02*
X57183475Y-26690619D01*
X55992999Y-26690619D02*
X56183475Y-26690619D01*
X56183475Y-26690619D02*
X56278713Y-26738238D01*
X56278713Y-26738238D02*
X56326332Y-26785857D01*
X56326332Y-26785857D02*
X56421570Y-26928714D01*
X56421570Y-26928714D02*
X56469189Y-27119190D01*
X56469189Y-27119190D02*
X56469189Y-27500142D01*
X56469189Y-27500142D02*
X56421570Y-27595380D01*
X56421570Y-27595380D02*
X56373951Y-27643000D01*
X56373951Y-27643000D02*
X56278713Y-27690619D01*
X56278713Y-27690619D02*
X56088237Y-27690619D01*
X56088237Y-27690619D02*
X55992999Y-27643000D01*
X55992999Y-27643000D02*
X55945380Y-27595380D01*
X55945380Y-27595380D02*
X55897761Y-27500142D01*
X55897761Y-27500142D02*
X55897761Y-27262047D01*
X55897761Y-27262047D02*
X55945380Y-27166809D01*
X55945380Y-27166809D02*
X55992999Y-27119190D01*
X55992999Y-27119190D02*
X56088237Y-27071571D01*
X56088237Y-27071571D02*
X56278713Y-27071571D01*
X56278713Y-27071571D02*
X56373951Y-27119190D01*
X56373951Y-27119190D02*
X56421570Y-27166809D01*
X56421570Y-27166809D02*
X56469189Y-27262047D01*
X55469189Y-27309666D02*
X54707285Y-27309666D01*
X54040618Y-26690619D02*
X53945380Y-26690619D01*
X53945380Y-26690619D02*
X53850142Y-26738238D01*
X53850142Y-26738238D02*
X53802523Y-26785857D01*
X53802523Y-26785857D02*
X53754904Y-26881095D01*
X53754904Y-26881095D02*
X53707285Y-27071571D01*
X53707285Y-27071571D02*
X53707285Y-27309666D01*
X53707285Y-27309666D02*
X53754904Y-27500142D01*
X53754904Y-27500142D02*
X53802523Y-27595380D01*
X53802523Y-27595380D02*
X53850142Y-27643000D01*
X53850142Y-27643000D02*
X53945380Y-27690619D01*
X53945380Y-27690619D02*
X54040618Y-27690619D01*
X54040618Y-27690619D02*
X54135856Y-27643000D01*
X54135856Y-27643000D02*
X54183475Y-27595380D01*
X54183475Y-27595380D02*
X54231094Y-27500142D01*
X54231094Y-27500142D02*
X54278713Y-27309666D01*
X54278713Y-27309666D02*
X54278713Y-27071571D01*
X54278713Y-27071571D02*
X54231094Y-26881095D01*
X54231094Y-26881095D02*
X54183475Y-26785857D01*
X54183475Y-26785857D02*
X54135856Y-26738238D01*
X54135856Y-26738238D02*
X54040618Y-26690619D01*
X53373951Y-26690619D02*
X52754904Y-26690619D01*
X52754904Y-26690619D02*
X53088237Y-27071571D01*
X53088237Y-27071571D02*
X52945380Y-27071571D01*
X52945380Y-27071571D02*
X52850142Y-27119190D01*
X52850142Y-27119190D02*
X52802523Y-27166809D01*
X52802523Y-27166809D02*
X52754904Y-27262047D01*
X52754904Y-27262047D02*
X52754904Y-27500142D01*
X52754904Y-27500142D02*
X52802523Y-27595380D01*
X52802523Y-27595380D02*
X52850142Y-27643000D01*
X52850142Y-27643000D02*
X52945380Y-27690619D01*
X52945380Y-27690619D02*
X53231094Y-27690619D01*
X53231094Y-27690619D02*
X53326332Y-27643000D01*
X53326332Y-27643000D02*
X53373951Y-27595380D01*
X53149571Y-110097809D02*
X53006714Y-110145428D01*
X53006714Y-110145428D02*
X52959095Y-110193047D01*
X52959095Y-110193047D02*
X52911476Y-110288285D01*
X52911476Y-110288285D02*
X52911476Y-110431142D01*
X52911476Y-110431142D02*
X52959095Y-110526380D01*
X52959095Y-110526380D02*
X53006714Y-110574000D01*
X53006714Y-110574000D02*
X53101952Y-110621619D01*
X53101952Y-110621619D02*
X53482904Y-110621619D01*
X53482904Y-110621619D02*
X53482904Y-109621619D01*
X53482904Y-109621619D02*
X53149571Y-109621619D01*
X53149571Y-109621619D02*
X53054333Y-109669238D01*
X53054333Y-109669238D02*
X53006714Y-109716857D01*
X53006714Y-109716857D02*
X52959095Y-109812095D01*
X52959095Y-109812095D02*
X52959095Y-109907333D01*
X52959095Y-109907333D02*
X53006714Y-110002571D01*
X53006714Y-110002571D02*
X53054333Y-110050190D01*
X53054333Y-110050190D02*
X53149571Y-110097809D01*
X53149571Y-110097809D02*
X53482904Y-110097809D01*
X58816904Y-41930619D02*
X58816904Y-42740142D01*
X58816904Y-42740142D02*
X58769285Y-42835380D01*
X58769285Y-42835380D02*
X58721666Y-42883000D01*
X58721666Y-42883000D02*
X58626428Y-42930619D01*
X58626428Y-42930619D02*
X58435952Y-42930619D01*
X58435952Y-42930619D02*
X58340714Y-42883000D01*
X58340714Y-42883000D02*
X58293095Y-42835380D01*
X58293095Y-42835380D02*
X58245476Y-42740142D01*
X58245476Y-42740142D02*
X58245476Y-41930619D01*
X57769285Y-42930619D02*
X57769285Y-41930619D01*
X57769285Y-41930619D02*
X57388333Y-41930619D01*
X57388333Y-41930619D02*
X57293095Y-41978238D01*
X57293095Y-41978238D02*
X57245476Y-42025857D01*
X57245476Y-42025857D02*
X57197857Y-42121095D01*
X57197857Y-42121095D02*
X57197857Y-42263952D01*
X57197857Y-42263952D02*
X57245476Y-42359190D01*
X57245476Y-42359190D02*
X57293095Y-42406809D01*
X57293095Y-42406809D02*
X57388333Y-42454428D01*
X57388333Y-42454428D02*
X57769285Y-42454428D01*
X56769285Y-42930619D02*
X56769285Y-41930619D01*
X56769285Y-41930619D02*
X56531190Y-41930619D01*
X56531190Y-41930619D02*
X56388333Y-41978238D01*
X56388333Y-41978238D02*
X56293095Y-42073476D01*
X56293095Y-42073476D02*
X56245476Y-42168714D01*
X56245476Y-42168714D02*
X56197857Y-42359190D01*
X56197857Y-42359190D02*
X56197857Y-42502047D01*
X56197857Y-42502047D02*
X56245476Y-42692523D01*
X56245476Y-42692523D02*
X56293095Y-42787761D01*
X56293095Y-42787761D02*
X56388333Y-42883000D01*
X56388333Y-42883000D02*
X56531190Y-42930619D01*
X56531190Y-42930619D02*
X56769285Y-42930619D01*
X55769285Y-42930619D02*
X55769285Y-41930619D01*
X50371476Y-110621619D02*
X50704809Y-110145428D01*
X50942904Y-110621619D02*
X50942904Y-109621619D01*
X50942904Y-109621619D02*
X50561952Y-109621619D01*
X50561952Y-109621619D02*
X50466714Y-109669238D01*
X50466714Y-109669238D02*
X50419095Y-109716857D01*
X50419095Y-109716857D02*
X50371476Y-109812095D01*
X50371476Y-109812095D02*
X50371476Y-109954952D01*
X50371476Y-109954952D02*
X50419095Y-110050190D01*
X50419095Y-110050190D02*
X50466714Y-110097809D01*
X50466714Y-110097809D02*
X50561952Y-110145428D01*
X50561952Y-110145428D02*
X50942904Y-110145428D01*
X65024095Y-34739238D02*
X65119333Y-34691619D01*
X65119333Y-34691619D02*
X65262190Y-34691619D01*
X65262190Y-34691619D02*
X65405047Y-34739238D01*
X65405047Y-34739238D02*
X65500285Y-34834476D01*
X65500285Y-34834476D02*
X65547904Y-34929714D01*
X65547904Y-34929714D02*
X65595523Y-35120190D01*
X65595523Y-35120190D02*
X65595523Y-35263047D01*
X65595523Y-35263047D02*
X65547904Y-35453523D01*
X65547904Y-35453523D02*
X65500285Y-35548761D01*
X65500285Y-35548761D02*
X65405047Y-35644000D01*
X65405047Y-35644000D02*
X65262190Y-35691619D01*
X65262190Y-35691619D02*
X65166952Y-35691619D01*
X65166952Y-35691619D02*
X65024095Y-35644000D01*
X65024095Y-35644000D02*
X64976476Y-35596380D01*
X64976476Y-35596380D02*
X64976476Y-35263047D01*
X64976476Y-35263047D02*
X65166952Y-35263047D01*
X64547904Y-35691619D02*
X64547904Y-34691619D01*
X64547904Y-34691619D02*
X63976476Y-35691619D01*
X63976476Y-35691619D02*
X63976476Y-34691619D01*
X63500285Y-35691619D02*
X63500285Y-34691619D01*
X63500285Y-34691619D02*
X63262190Y-34691619D01*
X63262190Y-34691619D02*
X63119333Y-34739238D01*
X63119333Y-34739238D02*
X63024095Y-34834476D01*
X63024095Y-34834476D02*
X62976476Y-34929714D01*
X62976476Y-34929714D02*
X62928857Y-35120190D01*
X62928857Y-35120190D02*
X62928857Y-35263047D01*
X62928857Y-35263047D02*
X62976476Y-35453523D01*
X62976476Y-35453523D02*
X63024095Y-35548761D01*
X63024095Y-35548761D02*
X63119333Y-35644000D01*
X63119333Y-35644000D02*
X63262190Y-35691619D01*
X63262190Y-35691619D02*
X63500285Y-35691619D01*
X66341714Y-109621619D02*
X66817904Y-109621619D01*
X66817904Y-109621619D02*
X66865523Y-110097809D01*
X66865523Y-110097809D02*
X66817904Y-110050190D01*
X66817904Y-110050190D02*
X66722666Y-110002571D01*
X66722666Y-110002571D02*
X66484571Y-110002571D01*
X66484571Y-110002571D02*
X66389333Y-110050190D01*
X66389333Y-110050190D02*
X66341714Y-110097809D01*
X66341714Y-110097809D02*
X66294095Y-110193047D01*
X66294095Y-110193047D02*
X66294095Y-110431142D01*
X66294095Y-110431142D02*
X66341714Y-110526380D01*
X66341714Y-110526380D02*
X66389333Y-110574000D01*
X66389333Y-110574000D02*
X66484571Y-110621619D01*
X66484571Y-110621619D02*
X66722666Y-110621619D01*
X66722666Y-110621619D02*
X66817904Y-110574000D01*
X66817904Y-110574000D02*
X66865523Y-110526380D01*
X65436952Y-109621619D02*
X65627428Y-109621619D01*
X65627428Y-109621619D02*
X65722666Y-109669238D01*
X65722666Y-109669238D02*
X65770285Y-109716857D01*
X65770285Y-109716857D02*
X65865523Y-109859714D01*
X65865523Y-109859714D02*
X65913142Y-110050190D01*
X65913142Y-110050190D02*
X65913142Y-110431142D01*
X65913142Y-110431142D02*
X65865523Y-110526380D01*
X65865523Y-110526380D02*
X65817904Y-110574000D01*
X65817904Y-110574000D02*
X65722666Y-110621619D01*
X65722666Y-110621619D02*
X65532190Y-110621619D01*
X65532190Y-110621619D02*
X65436952Y-110574000D01*
X65436952Y-110574000D02*
X65389333Y-110526380D01*
X65389333Y-110526380D02*
X65341714Y-110431142D01*
X65341714Y-110431142D02*
X65341714Y-110193047D01*
X65341714Y-110193047D02*
X65389333Y-110097809D01*
X65389333Y-110097809D02*
X65436952Y-110050190D01*
X65436952Y-110050190D02*
X65532190Y-110002571D01*
X65532190Y-110002571D02*
X65722666Y-110002571D01*
X65722666Y-110002571D02*
X65817904Y-110050190D01*
X65817904Y-110050190D02*
X65865523Y-110097809D01*
X65865523Y-110097809D02*
X65913142Y-110193047D01*
X61658523Y-102858857D02*
X61610904Y-102811238D01*
X61610904Y-102811238D02*
X61515666Y-102763619D01*
X61515666Y-102763619D02*
X61277571Y-102763619D01*
X61277571Y-102763619D02*
X61182333Y-102811238D01*
X61182333Y-102811238D02*
X61134714Y-102858857D01*
X61134714Y-102858857D02*
X61087095Y-102954095D01*
X61087095Y-102954095D02*
X61087095Y-103049333D01*
X61087095Y-103049333D02*
X61134714Y-103192190D01*
X61134714Y-103192190D02*
X61706142Y-103763619D01*
X61706142Y-103763619D02*
X61087095Y-103763619D01*
X60515666Y-103192190D02*
X60610904Y-103144571D01*
X60610904Y-103144571D02*
X60658523Y-103096952D01*
X60658523Y-103096952D02*
X60706142Y-103001714D01*
X60706142Y-103001714D02*
X60706142Y-102954095D01*
X60706142Y-102954095D02*
X60658523Y-102858857D01*
X60658523Y-102858857D02*
X60610904Y-102811238D01*
X60610904Y-102811238D02*
X60515666Y-102763619D01*
X60515666Y-102763619D02*
X60325190Y-102763619D01*
X60325190Y-102763619D02*
X60229952Y-102811238D01*
X60229952Y-102811238D02*
X60182333Y-102858857D01*
X60182333Y-102858857D02*
X60134714Y-102954095D01*
X60134714Y-102954095D02*
X60134714Y-103001714D01*
X60134714Y-103001714D02*
X60182333Y-103096952D01*
X60182333Y-103096952D02*
X60229952Y-103144571D01*
X60229952Y-103144571D02*
X60325190Y-103192190D01*
X60325190Y-103192190D02*
X60515666Y-103192190D01*
X60515666Y-103192190D02*
X60610904Y-103239809D01*
X60610904Y-103239809D02*
X60658523Y-103287428D01*
X60658523Y-103287428D02*
X60706142Y-103382666D01*
X60706142Y-103382666D02*
X60706142Y-103573142D01*
X60706142Y-103573142D02*
X60658523Y-103668380D01*
X60658523Y-103668380D02*
X60610904Y-103716000D01*
X60610904Y-103716000D02*
X60515666Y-103763619D01*
X60515666Y-103763619D02*
X60325190Y-103763619D01*
X60325190Y-103763619D02*
X60229952Y-103716000D01*
X60229952Y-103716000D02*
X60182333Y-103668380D01*
X60182333Y-103668380D02*
X60134714Y-103573142D01*
X60134714Y-103573142D02*
X60134714Y-103382666D01*
X60134714Y-103382666D02*
X60182333Y-103287428D01*
X60182333Y-103287428D02*
X60229952Y-103239809D01*
X60229952Y-103239809D02*
X60325190Y-103192190D01*
X64373142Y-109621619D02*
X63754095Y-109621619D01*
X63754095Y-109621619D02*
X64087428Y-110002571D01*
X64087428Y-110002571D02*
X63944571Y-110002571D01*
X63944571Y-110002571D02*
X63849333Y-110050190D01*
X63849333Y-110050190D02*
X63801714Y-110097809D01*
X63801714Y-110097809D02*
X63754095Y-110193047D01*
X63754095Y-110193047D02*
X63754095Y-110431142D01*
X63754095Y-110431142D02*
X63801714Y-110526380D01*
X63801714Y-110526380D02*
X63849333Y-110574000D01*
X63849333Y-110574000D02*
X63944571Y-110621619D01*
X63944571Y-110621619D02*
X64230285Y-110621619D01*
X64230285Y-110621619D02*
X64325523Y-110574000D01*
X64325523Y-110574000D02*
X64373142Y-110526380D01*
X63277904Y-110621619D02*
X63087428Y-110621619D01*
X63087428Y-110621619D02*
X62992190Y-110574000D01*
X62992190Y-110574000D02*
X62944571Y-110526380D01*
X62944571Y-110526380D02*
X62849333Y-110383523D01*
X62849333Y-110383523D02*
X62801714Y-110193047D01*
X62801714Y-110193047D02*
X62801714Y-109812095D01*
X62801714Y-109812095D02*
X62849333Y-109716857D01*
X62849333Y-109716857D02*
X62896952Y-109669238D01*
X62896952Y-109669238D02*
X62992190Y-109621619D01*
X62992190Y-109621619D02*
X63182666Y-109621619D01*
X63182666Y-109621619D02*
X63277904Y-109669238D01*
X63277904Y-109669238D02*
X63325523Y-109716857D01*
X63325523Y-109716857D02*
X63373142Y-109812095D01*
X63373142Y-109812095D02*
X63373142Y-110050190D01*
X63373142Y-110050190D02*
X63325523Y-110145428D01*
X63325523Y-110145428D02*
X63277904Y-110193047D01*
X63277904Y-110193047D02*
X63182666Y-110240666D01*
X63182666Y-110240666D02*
X62992190Y-110240666D01*
X62992190Y-110240666D02*
X62896952Y-110193047D01*
X62896952Y-110193047D02*
X62849333Y-110145428D01*
X62849333Y-110145428D02*
X62801714Y-110050190D01*
X72009095Y-109669238D02*
X72104333Y-109621619D01*
X72104333Y-109621619D02*
X72247190Y-109621619D01*
X72247190Y-109621619D02*
X72390047Y-109669238D01*
X72390047Y-109669238D02*
X72485285Y-109764476D01*
X72485285Y-109764476D02*
X72532904Y-109859714D01*
X72532904Y-109859714D02*
X72580523Y-110050190D01*
X72580523Y-110050190D02*
X72580523Y-110193047D01*
X72580523Y-110193047D02*
X72532904Y-110383523D01*
X72532904Y-110383523D02*
X72485285Y-110478761D01*
X72485285Y-110478761D02*
X72390047Y-110574000D01*
X72390047Y-110574000D02*
X72247190Y-110621619D01*
X72247190Y-110621619D02*
X72151952Y-110621619D01*
X72151952Y-110621619D02*
X72009095Y-110574000D01*
X72009095Y-110574000D02*
X71961476Y-110526380D01*
X71961476Y-110526380D02*
X71961476Y-110193047D01*
X71961476Y-110193047D02*
X72151952Y-110193047D01*
X70961476Y-110621619D02*
X71294809Y-110145428D01*
X71532904Y-110621619D02*
X71532904Y-109621619D01*
X71532904Y-109621619D02*
X71151952Y-109621619D01*
X71151952Y-109621619D02*
X71056714Y-109669238D01*
X71056714Y-109669238D02*
X71009095Y-109716857D01*
X71009095Y-109716857D02*
X70961476Y-109812095D01*
X70961476Y-109812095D02*
X70961476Y-109954952D01*
X70961476Y-109954952D02*
X71009095Y-110050190D01*
X71009095Y-110050190D02*
X71056714Y-110097809D01*
X71056714Y-110097809D02*
X71151952Y-110145428D01*
X71151952Y-110145428D02*
X71532904Y-110145428D01*
X70532904Y-110621619D02*
X70532904Y-109621619D01*
X70532904Y-109621619D02*
X70294809Y-109621619D01*
X70294809Y-109621619D02*
X70151952Y-109669238D01*
X70151952Y-109669238D02*
X70056714Y-109764476D01*
X70056714Y-109764476D02*
X70009095Y-109859714D01*
X70009095Y-109859714D02*
X69961476Y-110050190D01*
X69961476Y-110050190D02*
X69961476Y-110193047D01*
X69961476Y-110193047D02*
X70009095Y-110383523D01*
X70009095Y-110383523D02*
X70056714Y-110478761D01*
X70056714Y-110478761D02*
X70151952Y-110574000D01*
X70151952Y-110574000D02*
X70294809Y-110621619D01*
X70294809Y-110621619D02*
X70532904Y-110621619D01*
X68786476Y-110526380D02*
X68834095Y-110574000D01*
X68834095Y-110574000D02*
X68976952Y-110621619D01*
X68976952Y-110621619D02*
X69072190Y-110621619D01*
X69072190Y-110621619D02*
X69215047Y-110574000D01*
X69215047Y-110574000D02*
X69310285Y-110478761D01*
X69310285Y-110478761D02*
X69357904Y-110383523D01*
X69357904Y-110383523D02*
X69405523Y-110193047D01*
X69405523Y-110193047D02*
X69405523Y-110050190D01*
X69405523Y-110050190D02*
X69357904Y-109859714D01*
X69357904Y-109859714D02*
X69310285Y-109764476D01*
X69310285Y-109764476D02*
X69215047Y-109669238D01*
X69215047Y-109669238D02*
X69072190Y-109621619D01*
X69072190Y-109621619D02*
X68976952Y-109621619D01*
X68976952Y-109621619D02*
X68834095Y-109669238D01*
X68834095Y-109669238D02*
X68786476Y-109716857D01*
X67834095Y-110621619D02*
X68405523Y-110621619D01*
X68119809Y-110621619D02*
X68119809Y-109621619D01*
X68119809Y-109621619D02*
X68215047Y-109764476D01*
X68215047Y-109764476D02*
X68310285Y-109859714D01*
X68310285Y-109859714D02*
X68405523Y-109907333D01*
X63722333Y-103096952D02*
X63722333Y-103763619D01*
X63960428Y-102716000D02*
X64198523Y-103430285D01*
X64198523Y-103430285D02*
X63579476Y-103430285D01*
X63008047Y-102763619D02*
X62912809Y-102763619D01*
X62912809Y-102763619D02*
X62817571Y-102811238D01*
X62817571Y-102811238D02*
X62769952Y-102858857D01*
X62769952Y-102858857D02*
X62722333Y-102954095D01*
X62722333Y-102954095D02*
X62674714Y-103144571D01*
X62674714Y-103144571D02*
X62674714Y-103382666D01*
X62674714Y-103382666D02*
X62722333Y-103573142D01*
X62722333Y-103573142D02*
X62769952Y-103668380D01*
X62769952Y-103668380D02*
X62817571Y-103716000D01*
X62817571Y-103716000D02*
X62912809Y-103763619D01*
X62912809Y-103763619D02*
X63008047Y-103763619D01*
X63008047Y-103763619D02*
X63103285Y-103716000D01*
X63103285Y-103716000D02*
X63150904Y-103668380D01*
X63150904Y-103668380D02*
X63198523Y-103573142D01*
X63198523Y-103573142D02*
X63246142Y-103382666D01*
X63246142Y-103382666D02*
X63246142Y-103144571D01*
X63246142Y-103144571D02*
X63198523Y-102954095D01*
X63198523Y-102954095D02*
X63150904Y-102858857D01*
X63150904Y-102858857D02*
X63103285Y-102811238D01*
X63103285Y-102811238D02*
X63008047Y-102763619D01*
X65881333Y-102763619D02*
X66071809Y-102763619D01*
X66071809Y-102763619D02*
X66167047Y-102811238D01*
X66167047Y-102811238D02*
X66214666Y-102858857D01*
X66214666Y-102858857D02*
X66309904Y-103001714D01*
X66309904Y-103001714D02*
X66357523Y-103192190D01*
X66357523Y-103192190D02*
X66357523Y-103573142D01*
X66357523Y-103573142D02*
X66309904Y-103668380D01*
X66309904Y-103668380D02*
X66262285Y-103716000D01*
X66262285Y-103716000D02*
X66167047Y-103763619D01*
X66167047Y-103763619D02*
X65976571Y-103763619D01*
X65976571Y-103763619D02*
X65881333Y-103716000D01*
X65881333Y-103716000D02*
X65833714Y-103668380D01*
X65833714Y-103668380D02*
X65786095Y-103573142D01*
X65786095Y-103573142D02*
X65786095Y-103335047D01*
X65786095Y-103335047D02*
X65833714Y-103239809D01*
X65833714Y-103239809D02*
X65881333Y-103192190D01*
X65881333Y-103192190D02*
X65976571Y-103144571D01*
X65976571Y-103144571D02*
X66167047Y-103144571D01*
X66167047Y-103144571D02*
X66262285Y-103192190D01*
X66262285Y-103192190D02*
X66309904Y-103239809D01*
X66309904Y-103239809D02*
X66357523Y-103335047D01*
M02*
