G04 #@! TF.GenerationSoftware,KiCad,Pcbnew,8.0.2*
G04 #@! TF.CreationDate,2024-05-27T15:35:00-07:00*
G04 #@! TF.ProjectId,we755a_dtmf,77653735-3561-45f6-9474-6d662e6b6963,4*
G04 #@! TF.SameCoordinates,Original*
G04 #@! TF.FileFunction,Legend,Top*
G04 #@! TF.FilePolarity,Positive*
%FSLAX46Y46*%
G04 Gerber Fmt 4.6, Leading zero omitted, Abs format (unit mm)*
G04 Created by KiCad (PCBNEW 8.0.2) date 2024-05-27 15:35:00*
%MOMM*%
%LPD*%
G01*
G04 APERTURE LIST*
%ADD10C,0.120000*%
%ADD11C,0.150000*%
%ADD12C,0.152400*%
G04 APERTURE END LIST*
D10*
X136822000Y-93292000D02*
X136822000Y-92657000D01*
X136187000Y-93292000D02*
X136822000Y-93292000D01*
X136822000Y-92657000D02*
X136187000Y-93292000D01*
X135552000Y-92022000D02*
X136822000Y-93292000D01*
D11*
X118822895Y-66276160D02*
X118822895Y-66752350D01*
X118537180Y-66180922D02*
X119537180Y-66514255D01*
X119537180Y-66514255D02*
X118537180Y-66847588D01*
X119537180Y-67038065D02*
X118537180Y-67371398D01*
X118537180Y-67371398D02*
X119537180Y-67704731D01*
X118537180Y-68609493D02*
X119013371Y-68276160D01*
X118537180Y-68038065D02*
X119537180Y-68038065D01*
X119537180Y-68038065D02*
X119537180Y-68419017D01*
X119537180Y-68419017D02*
X119489561Y-68514255D01*
X119489561Y-68514255D02*
X119441942Y-68561874D01*
X119441942Y-68561874D02*
X119346704Y-68609493D01*
X119346704Y-68609493D02*
X119203847Y-68609493D01*
X119203847Y-68609493D02*
X119108609Y-68561874D01*
X119108609Y-68561874D02*
X119060990Y-68514255D01*
X119060990Y-68514255D02*
X119013371Y-68419017D01*
X119013371Y-68419017D02*
X119013371Y-68038065D01*
X118537180Y-69561874D02*
X118537180Y-68990446D01*
X118537180Y-69276160D02*
X119537180Y-69276160D01*
X119537180Y-69276160D02*
X119394323Y-69180922D01*
X119394323Y-69180922D02*
X119299085Y-69085684D01*
X119299085Y-69085684D02*
X119251466Y-68990446D01*
X119441942Y-69942827D02*
X119489561Y-69990446D01*
X119489561Y-69990446D02*
X119537180Y-70085684D01*
X119537180Y-70085684D02*
X119537180Y-70323779D01*
X119537180Y-70323779D02*
X119489561Y-70419017D01*
X119489561Y-70419017D02*
X119441942Y-70466636D01*
X119441942Y-70466636D02*
X119346704Y-70514255D01*
X119346704Y-70514255D02*
X119251466Y-70514255D01*
X119251466Y-70514255D02*
X119108609Y-70466636D01*
X119108609Y-70466636D02*
X118537180Y-69895208D01*
X118537180Y-69895208D02*
X118537180Y-70514255D01*
X119108609Y-71085684D02*
X119156228Y-70990446D01*
X119156228Y-70990446D02*
X119203847Y-70942827D01*
X119203847Y-70942827D02*
X119299085Y-70895208D01*
X119299085Y-70895208D02*
X119346704Y-70895208D01*
X119346704Y-70895208D02*
X119441942Y-70942827D01*
X119441942Y-70942827D02*
X119489561Y-70990446D01*
X119489561Y-70990446D02*
X119537180Y-71085684D01*
X119537180Y-71085684D02*
X119537180Y-71276160D01*
X119537180Y-71276160D02*
X119489561Y-71371398D01*
X119489561Y-71371398D02*
X119441942Y-71419017D01*
X119441942Y-71419017D02*
X119346704Y-71466636D01*
X119346704Y-71466636D02*
X119299085Y-71466636D01*
X119299085Y-71466636D02*
X119203847Y-71419017D01*
X119203847Y-71419017D02*
X119156228Y-71371398D01*
X119156228Y-71371398D02*
X119108609Y-71276160D01*
X119108609Y-71276160D02*
X119108609Y-71085684D01*
X119108609Y-71085684D02*
X119060990Y-70990446D01*
X119060990Y-70990446D02*
X119013371Y-70942827D01*
X119013371Y-70942827D02*
X118918133Y-70895208D01*
X118918133Y-70895208D02*
X118727657Y-70895208D01*
X118727657Y-70895208D02*
X118632419Y-70942827D01*
X118632419Y-70942827D02*
X118584800Y-70990446D01*
X118584800Y-70990446D02*
X118537180Y-71085684D01*
X118537180Y-71085684D02*
X118537180Y-71276160D01*
X118537180Y-71276160D02*
X118584800Y-71371398D01*
X118584800Y-71371398D02*
X118632419Y-71419017D01*
X118632419Y-71419017D02*
X118727657Y-71466636D01*
X118727657Y-71466636D02*
X118918133Y-71466636D01*
X118918133Y-71466636D02*
X119013371Y-71419017D01*
X119013371Y-71419017D02*
X119060990Y-71371398D01*
X119060990Y-71371398D02*
X119108609Y-71276160D01*
X118537180Y-71895208D02*
X119537180Y-71895208D01*
X119537180Y-71895208D02*
X119537180Y-72133303D01*
X119537180Y-72133303D02*
X119489561Y-72276160D01*
X119489561Y-72276160D02*
X119394323Y-72371398D01*
X119394323Y-72371398D02*
X119299085Y-72419017D01*
X119299085Y-72419017D02*
X119108609Y-72466636D01*
X119108609Y-72466636D02*
X118965752Y-72466636D01*
X118965752Y-72466636D02*
X118775276Y-72419017D01*
X118775276Y-72419017D02*
X118680038Y-72371398D01*
X118680038Y-72371398D02*
X118584800Y-72276160D01*
X118584800Y-72276160D02*
X118537180Y-72133303D01*
X118537180Y-72133303D02*
X118537180Y-71895208D01*
X118822895Y-72847589D02*
X118822895Y-73323779D01*
X118537180Y-72752351D02*
X119537180Y-73085684D01*
X119537180Y-73085684D02*
X118537180Y-73419017D01*
X119441942Y-73704732D02*
X119489561Y-73752351D01*
X119489561Y-73752351D02*
X119537180Y-73847589D01*
X119537180Y-73847589D02*
X119537180Y-74085684D01*
X119537180Y-74085684D02*
X119489561Y-74180922D01*
X119489561Y-74180922D02*
X119441942Y-74228541D01*
X119441942Y-74228541D02*
X119346704Y-74276160D01*
X119346704Y-74276160D02*
X119251466Y-74276160D01*
X119251466Y-74276160D02*
X119108609Y-74228541D01*
X119108609Y-74228541D02*
X118537180Y-73657113D01*
X118537180Y-73657113D02*
X118537180Y-74276160D01*
X119108609Y-74847589D02*
X119156228Y-74752351D01*
X119156228Y-74752351D02*
X119203847Y-74704732D01*
X119203847Y-74704732D02*
X119299085Y-74657113D01*
X119299085Y-74657113D02*
X119346704Y-74657113D01*
X119346704Y-74657113D02*
X119441942Y-74704732D01*
X119441942Y-74704732D02*
X119489561Y-74752351D01*
X119489561Y-74752351D02*
X119537180Y-74847589D01*
X119537180Y-74847589D02*
X119537180Y-75038065D01*
X119537180Y-75038065D02*
X119489561Y-75133303D01*
X119489561Y-75133303D02*
X119441942Y-75180922D01*
X119441942Y-75180922D02*
X119346704Y-75228541D01*
X119346704Y-75228541D02*
X119299085Y-75228541D01*
X119299085Y-75228541D02*
X119203847Y-75180922D01*
X119203847Y-75180922D02*
X119156228Y-75133303D01*
X119156228Y-75133303D02*
X119108609Y-75038065D01*
X119108609Y-75038065D02*
X119108609Y-74847589D01*
X119108609Y-74847589D02*
X119060990Y-74752351D01*
X119060990Y-74752351D02*
X119013371Y-74704732D01*
X119013371Y-74704732D02*
X118918133Y-74657113D01*
X118918133Y-74657113D02*
X118727657Y-74657113D01*
X118727657Y-74657113D02*
X118632419Y-74704732D01*
X118632419Y-74704732D02*
X118584800Y-74752351D01*
X118584800Y-74752351D02*
X118537180Y-74847589D01*
X118537180Y-74847589D02*
X118537180Y-75038065D01*
X118537180Y-75038065D02*
X118584800Y-75133303D01*
X118584800Y-75133303D02*
X118632419Y-75180922D01*
X118632419Y-75180922D02*
X118727657Y-75228541D01*
X118727657Y-75228541D02*
X118918133Y-75228541D01*
X118918133Y-75228541D02*
X119013371Y-75180922D01*
X119013371Y-75180922D02*
X119060990Y-75133303D01*
X119060990Y-75133303D02*
X119108609Y-75038065D01*
X132602588Y-66936438D02*
X132507350Y-66888819D01*
X132507350Y-66888819D02*
X132364493Y-66888819D01*
X132364493Y-66888819D02*
X132221636Y-66936438D01*
X132221636Y-66936438D02*
X132126398Y-67031676D01*
X132126398Y-67031676D02*
X132078779Y-67126914D01*
X132078779Y-67126914D02*
X132031160Y-67317390D01*
X132031160Y-67317390D02*
X132031160Y-67460247D01*
X132031160Y-67460247D02*
X132078779Y-67650723D01*
X132078779Y-67650723D02*
X132126398Y-67745961D01*
X132126398Y-67745961D02*
X132221636Y-67841200D01*
X132221636Y-67841200D02*
X132364493Y-67888819D01*
X132364493Y-67888819D02*
X132459731Y-67888819D01*
X132459731Y-67888819D02*
X132602588Y-67841200D01*
X132602588Y-67841200D02*
X132650207Y-67793580D01*
X132650207Y-67793580D02*
X132650207Y-67460247D01*
X132650207Y-67460247D02*
X132459731Y-67460247D01*
X133078779Y-67888819D02*
X133078779Y-66888819D01*
X133078779Y-66888819D02*
X133650207Y-67888819D01*
X133650207Y-67888819D02*
X133650207Y-66888819D01*
X134126398Y-67888819D02*
X134126398Y-66888819D01*
X134126398Y-66888819D02*
X134364493Y-66888819D01*
X134364493Y-66888819D02*
X134507350Y-66936438D01*
X134507350Y-66936438D02*
X134602588Y-67031676D01*
X134602588Y-67031676D02*
X134650207Y-67126914D01*
X134650207Y-67126914D02*
X134697826Y-67317390D01*
X134697826Y-67317390D02*
X134697826Y-67460247D01*
X134697826Y-67460247D02*
X134650207Y-67650723D01*
X134650207Y-67650723D02*
X134602588Y-67745961D01*
X134602588Y-67745961D02*
X134507350Y-67841200D01*
X134507350Y-67841200D02*
X134364493Y-67888819D01*
X134364493Y-67888819D02*
X134126398Y-67888819D01*
X152192180Y-74578779D02*
X153192180Y-74578779D01*
X153192180Y-74578779D02*
X152477895Y-74912112D01*
X152477895Y-74912112D02*
X153192180Y-75245445D01*
X153192180Y-75245445D02*
X152192180Y-75245445D01*
X153192180Y-75578779D02*
X153192180Y-76150207D01*
X152192180Y-75864493D02*
X153192180Y-75864493D01*
X152763609Y-76626398D02*
X152811228Y-76531160D01*
X152811228Y-76531160D02*
X152858847Y-76483541D01*
X152858847Y-76483541D02*
X152954085Y-76435922D01*
X152954085Y-76435922D02*
X153001704Y-76435922D01*
X153001704Y-76435922D02*
X153096942Y-76483541D01*
X153096942Y-76483541D02*
X153144561Y-76531160D01*
X153144561Y-76531160D02*
X153192180Y-76626398D01*
X153192180Y-76626398D02*
X153192180Y-76816874D01*
X153192180Y-76816874D02*
X153144561Y-76912112D01*
X153144561Y-76912112D02*
X153096942Y-76959731D01*
X153096942Y-76959731D02*
X153001704Y-77007350D01*
X153001704Y-77007350D02*
X152954085Y-77007350D01*
X152954085Y-77007350D02*
X152858847Y-76959731D01*
X152858847Y-76959731D02*
X152811228Y-76912112D01*
X152811228Y-76912112D02*
X152763609Y-76816874D01*
X152763609Y-76816874D02*
X152763609Y-76626398D01*
X152763609Y-76626398D02*
X152715990Y-76531160D01*
X152715990Y-76531160D02*
X152668371Y-76483541D01*
X152668371Y-76483541D02*
X152573133Y-76435922D01*
X152573133Y-76435922D02*
X152382657Y-76435922D01*
X152382657Y-76435922D02*
X152287419Y-76483541D01*
X152287419Y-76483541D02*
X152239800Y-76531160D01*
X152239800Y-76531160D02*
X152192180Y-76626398D01*
X152192180Y-76626398D02*
X152192180Y-76816874D01*
X152192180Y-76816874D02*
X152239800Y-76912112D01*
X152239800Y-76912112D02*
X152287419Y-76959731D01*
X152287419Y-76959731D02*
X152382657Y-77007350D01*
X152382657Y-77007350D02*
X152573133Y-77007350D01*
X152573133Y-77007350D02*
X152668371Y-76959731D01*
X152668371Y-76959731D02*
X152715990Y-76912112D01*
X152715990Y-76912112D02*
X152763609Y-76816874D01*
X152763609Y-77578779D02*
X152811228Y-77483541D01*
X152811228Y-77483541D02*
X152858847Y-77435922D01*
X152858847Y-77435922D02*
X152954085Y-77388303D01*
X152954085Y-77388303D02*
X153001704Y-77388303D01*
X153001704Y-77388303D02*
X153096942Y-77435922D01*
X153096942Y-77435922D02*
X153144561Y-77483541D01*
X153144561Y-77483541D02*
X153192180Y-77578779D01*
X153192180Y-77578779D02*
X153192180Y-77769255D01*
X153192180Y-77769255D02*
X153144561Y-77864493D01*
X153144561Y-77864493D02*
X153096942Y-77912112D01*
X153096942Y-77912112D02*
X153001704Y-77959731D01*
X153001704Y-77959731D02*
X152954085Y-77959731D01*
X152954085Y-77959731D02*
X152858847Y-77912112D01*
X152858847Y-77912112D02*
X152811228Y-77864493D01*
X152811228Y-77864493D02*
X152763609Y-77769255D01*
X152763609Y-77769255D02*
X152763609Y-77578779D01*
X152763609Y-77578779D02*
X152715990Y-77483541D01*
X152715990Y-77483541D02*
X152668371Y-77435922D01*
X152668371Y-77435922D02*
X152573133Y-77388303D01*
X152573133Y-77388303D02*
X152382657Y-77388303D01*
X152382657Y-77388303D02*
X152287419Y-77435922D01*
X152287419Y-77435922D02*
X152239800Y-77483541D01*
X152239800Y-77483541D02*
X152192180Y-77578779D01*
X152192180Y-77578779D02*
X152192180Y-77769255D01*
X152192180Y-77769255D02*
X152239800Y-77864493D01*
X152239800Y-77864493D02*
X152287419Y-77912112D01*
X152287419Y-77912112D02*
X152382657Y-77959731D01*
X152382657Y-77959731D02*
X152573133Y-77959731D01*
X152573133Y-77959731D02*
X152668371Y-77912112D01*
X152668371Y-77912112D02*
X152715990Y-77864493D01*
X152715990Y-77864493D02*
X152763609Y-77769255D01*
X153192180Y-78293065D02*
X153192180Y-78959731D01*
X153192180Y-78959731D02*
X152192180Y-78531160D01*
X153192180Y-79531160D02*
X153192180Y-79626398D01*
X153192180Y-79626398D02*
X153144561Y-79721636D01*
X153144561Y-79721636D02*
X153096942Y-79769255D01*
X153096942Y-79769255D02*
X153001704Y-79816874D01*
X153001704Y-79816874D02*
X152811228Y-79864493D01*
X152811228Y-79864493D02*
X152573133Y-79864493D01*
X152573133Y-79864493D02*
X152382657Y-79816874D01*
X152382657Y-79816874D02*
X152287419Y-79769255D01*
X152287419Y-79769255D02*
X152239800Y-79721636D01*
X152239800Y-79721636D02*
X152192180Y-79626398D01*
X152192180Y-79626398D02*
X152192180Y-79531160D01*
X152192180Y-79531160D02*
X152239800Y-79435922D01*
X152239800Y-79435922D02*
X152287419Y-79388303D01*
X152287419Y-79388303D02*
X152382657Y-79340684D01*
X152382657Y-79340684D02*
X152573133Y-79293065D01*
X152573133Y-79293065D02*
X152811228Y-79293065D01*
X152811228Y-79293065D02*
X153001704Y-79340684D01*
X153001704Y-79340684D02*
X153096942Y-79388303D01*
X153096942Y-79388303D02*
X153144561Y-79435922D01*
X153144561Y-79435922D02*
X153192180Y-79531160D01*
X134787779Y-71362819D02*
X134787779Y-72172342D01*
X134787779Y-72172342D02*
X134835398Y-72267580D01*
X134835398Y-72267580D02*
X134883017Y-72315200D01*
X134883017Y-72315200D02*
X134978255Y-72362819D01*
X134978255Y-72362819D02*
X135168731Y-72362819D01*
X135168731Y-72362819D02*
X135263969Y-72315200D01*
X135263969Y-72315200D02*
X135311588Y-72267580D01*
X135311588Y-72267580D02*
X135359207Y-72172342D01*
X135359207Y-72172342D02*
X135359207Y-71362819D01*
X135835398Y-72362819D02*
X135835398Y-71362819D01*
X135835398Y-71362819D02*
X136216350Y-71362819D01*
X136216350Y-71362819D02*
X136311588Y-71410438D01*
X136311588Y-71410438D02*
X136359207Y-71458057D01*
X136359207Y-71458057D02*
X136406826Y-71553295D01*
X136406826Y-71553295D02*
X136406826Y-71696152D01*
X136406826Y-71696152D02*
X136359207Y-71791390D01*
X136359207Y-71791390D02*
X136311588Y-71839009D01*
X136311588Y-71839009D02*
X136216350Y-71886628D01*
X136216350Y-71886628D02*
X135835398Y-71886628D01*
X136835398Y-72362819D02*
X136835398Y-71362819D01*
X136835398Y-71362819D02*
X137073493Y-71362819D01*
X137073493Y-71362819D02*
X137216350Y-71410438D01*
X137216350Y-71410438D02*
X137311588Y-71505676D01*
X137311588Y-71505676D02*
X137359207Y-71600914D01*
X137359207Y-71600914D02*
X137406826Y-71791390D01*
X137406826Y-71791390D02*
X137406826Y-71934247D01*
X137406826Y-71934247D02*
X137359207Y-72124723D01*
X137359207Y-72124723D02*
X137311588Y-72219961D01*
X137311588Y-72219961D02*
X137216350Y-72315200D01*
X137216350Y-72315200D02*
X137073493Y-72362819D01*
X137073493Y-72362819D02*
X136835398Y-72362819D01*
X137835398Y-72362819D02*
X137835398Y-71362819D01*
X130980095Y-107351819D02*
X130980095Y-108161342D01*
X130980095Y-108161342D02*
X131027714Y-108256580D01*
X131027714Y-108256580D02*
X131075333Y-108304200D01*
X131075333Y-108304200D02*
X131170571Y-108351819D01*
X131170571Y-108351819D02*
X131361047Y-108351819D01*
X131361047Y-108351819D02*
X131456285Y-108304200D01*
X131456285Y-108304200D02*
X131503904Y-108256580D01*
X131503904Y-108256580D02*
X131551523Y-108161342D01*
X131551523Y-108161342D02*
X131551523Y-107351819D01*
X131932476Y-107351819D02*
X132551523Y-107351819D01*
X132551523Y-107351819D02*
X132218190Y-107732771D01*
X132218190Y-107732771D02*
X132361047Y-107732771D01*
X132361047Y-107732771D02*
X132456285Y-107780390D01*
X132456285Y-107780390D02*
X132503904Y-107828009D01*
X132503904Y-107828009D02*
X132551523Y-107923247D01*
X132551523Y-107923247D02*
X132551523Y-108161342D01*
X132551523Y-108161342D02*
X132503904Y-108256580D01*
X132503904Y-108256580D02*
X132456285Y-108304200D01*
X132456285Y-108304200D02*
X132361047Y-108351819D01*
X132361047Y-108351819D02*
X132075333Y-108351819D01*
X132075333Y-108351819D02*
X131980095Y-108304200D01*
X131980095Y-108304200D02*
X131932476Y-108256580D01*
X165018333Y-71169819D02*
X164685000Y-70693628D01*
X164446905Y-71169819D02*
X164446905Y-70169819D01*
X164446905Y-70169819D02*
X164827857Y-70169819D01*
X164827857Y-70169819D02*
X164923095Y-70217438D01*
X164923095Y-70217438D02*
X164970714Y-70265057D01*
X164970714Y-70265057D02*
X165018333Y-70360295D01*
X165018333Y-70360295D02*
X165018333Y-70503152D01*
X165018333Y-70503152D02*
X164970714Y-70598390D01*
X164970714Y-70598390D02*
X164923095Y-70646009D01*
X164923095Y-70646009D02*
X164827857Y-70693628D01*
X164827857Y-70693628D02*
X164446905Y-70693628D01*
X165399286Y-70265057D02*
X165446905Y-70217438D01*
X165446905Y-70217438D02*
X165542143Y-70169819D01*
X165542143Y-70169819D02*
X165780238Y-70169819D01*
X165780238Y-70169819D02*
X165875476Y-70217438D01*
X165875476Y-70217438D02*
X165923095Y-70265057D01*
X165923095Y-70265057D02*
X165970714Y-70360295D01*
X165970714Y-70360295D02*
X165970714Y-70455533D01*
X165970714Y-70455533D02*
X165923095Y-70598390D01*
X165923095Y-70598390D02*
X165351667Y-71169819D01*
X165351667Y-71169819D02*
X165970714Y-71169819D01*
X156636333Y-60628819D02*
X156303000Y-60152628D01*
X156064905Y-60628819D02*
X156064905Y-59628819D01*
X156064905Y-59628819D02*
X156445857Y-59628819D01*
X156445857Y-59628819D02*
X156541095Y-59676438D01*
X156541095Y-59676438D02*
X156588714Y-59724057D01*
X156588714Y-59724057D02*
X156636333Y-59819295D01*
X156636333Y-59819295D02*
X156636333Y-59962152D01*
X156636333Y-59962152D02*
X156588714Y-60057390D01*
X156588714Y-60057390D02*
X156541095Y-60105009D01*
X156541095Y-60105009D02*
X156445857Y-60152628D01*
X156445857Y-60152628D02*
X156064905Y-60152628D01*
X157588714Y-60628819D02*
X157017286Y-60628819D01*
X157303000Y-60628819D02*
X157303000Y-59628819D01*
X157303000Y-59628819D02*
X157207762Y-59771676D01*
X157207762Y-59771676D02*
X157112524Y-59866914D01*
X157112524Y-59866914D02*
X157017286Y-59914533D01*
X159112905Y-60628819D02*
X159112905Y-59628819D01*
X159112905Y-59628819D02*
X159351000Y-59628819D01*
X159351000Y-59628819D02*
X159493857Y-59676438D01*
X159493857Y-59676438D02*
X159589095Y-59771676D01*
X159589095Y-59771676D02*
X159636714Y-59866914D01*
X159636714Y-59866914D02*
X159684333Y-60057390D01*
X159684333Y-60057390D02*
X159684333Y-60200247D01*
X159684333Y-60200247D02*
X159636714Y-60390723D01*
X159636714Y-60390723D02*
X159589095Y-60485961D01*
X159589095Y-60485961D02*
X159493857Y-60581200D01*
X159493857Y-60581200D02*
X159351000Y-60628819D01*
X159351000Y-60628819D02*
X159112905Y-60628819D01*
X160636714Y-60628819D02*
X160065286Y-60628819D01*
X160351000Y-60628819D02*
X160351000Y-59628819D01*
X160351000Y-59628819D02*
X160255762Y-59771676D01*
X160255762Y-59771676D02*
X160160524Y-59866914D01*
X160160524Y-59866914D02*
X160065286Y-59914533D01*
X158700095Y-70407819D02*
X158700095Y-69407819D01*
X159271523Y-70407819D02*
X158842952Y-69836390D01*
X159271523Y-69407819D02*
X158700095Y-69979247D01*
X140920142Y-119146819D02*
X140586809Y-118670628D01*
X140348714Y-119146819D02*
X140348714Y-118146819D01*
X140348714Y-118146819D02*
X140729666Y-118146819D01*
X140729666Y-118146819D02*
X140824904Y-118194438D01*
X140824904Y-118194438D02*
X140872523Y-118242057D01*
X140872523Y-118242057D02*
X140920142Y-118337295D01*
X140920142Y-118337295D02*
X140920142Y-118480152D01*
X140920142Y-118480152D02*
X140872523Y-118575390D01*
X140872523Y-118575390D02*
X140824904Y-118623009D01*
X140824904Y-118623009D02*
X140729666Y-118670628D01*
X140729666Y-118670628D02*
X140348714Y-118670628D01*
X141872523Y-119146819D02*
X141301095Y-119146819D01*
X141586809Y-119146819D02*
X141586809Y-118146819D01*
X141586809Y-118146819D02*
X141491571Y-118289676D01*
X141491571Y-118289676D02*
X141396333Y-118384914D01*
X141396333Y-118384914D02*
X141301095Y-118432533D01*
X142729666Y-118480152D02*
X142729666Y-119146819D01*
X142491571Y-118099200D02*
X142253476Y-118813485D01*
X142253476Y-118813485D02*
X142872523Y-118813485D01*
X125196009Y-121692333D02*
X125196009Y-122025666D01*
X125719819Y-122025666D02*
X124719819Y-122025666D01*
X124719819Y-122025666D02*
X124719819Y-121549476D01*
X124815057Y-121216142D02*
X124767438Y-121168523D01*
X124767438Y-121168523D02*
X124719819Y-121073285D01*
X124719819Y-121073285D02*
X124719819Y-120835190D01*
X124719819Y-120835190D02*
X124767438Y-120739952D01*
X124767438Y-120739952D02*
X124815057Y-120692333D01*
X124815057Y-120692333D02*
X124910295Y-120644714D01*
X124910295Y-120644714D02*
X125005533Y-120644714D01*
X125005533Y-120644714D02*
X125148390Y-120692333D01*
X125148390Y-120692333D02*
X125719819Y-121263761D01*
X125719819Y-121263761D02*
X125719819Y-120644714D01*
X152008809Y-85171628D02*
X152008809Y-85647819D01*
X151675476Y-84647819D02*
X152008809Y-85171628D01*
X152008809Y-85171628D02*
X152342142Y-84647819D01*
X152627857Y-84743057D02*
X152675476Y-84695438D01*
X152675476Y-84695438D02*
X152770714Y-84647819D01*
X152770714Y-84647819D02*
X153008809Y-84647819D01*
X153008809Y-84647819D02*
X153104047Y-84695438D01*
X153104047Y-84695438D02*
X153151666Y-84743057D01*
X153151666Y-84743057D02*
X153199285Y-84838295D01*
X153199285Y-84838295D02*
X153199285Y-84933533D01*
X153199285Y-84933533D02*
X153151666Y-85076390D01*
X153151666Y-85076390D02*
X152580238Y-85647819D01*
X152580238Y-85647819D02*
X153199285Y-85647819D01*
X118335714Y-112136419D02*
X118335714Y-111136419D01*
X118335714Y-111136419D02*
X118716666Y-111136419D01*
X118716666Y-111136419D02*
X118811904Y-111184038D01*
X118811904Y-111184038D02*
X118859523Y-111231657D01*
X118859523Y-111231657D02*
X118907142Y-111326895D01*
X118907142Y-111326895D02*
X118907142Y-111469752D01*
X118907142Y-111469752D02*
X118859523Y-111564990D01*
X118859523Y-111564990D02*
X118811904Y-111612609D01*
X118811904Y-111612609D02*
X118716666Y-111660228D01*
X118716666Y-111660228D02*
X118335714Y-111660228D01*
X119288095Y-112088800D02*
X119430952Y-112136419D01*
X119430952Y-112136419D02*
X119669047Y-112136419D01*
X119669047Y-112136419D02*
X119764285Y-112088800D01*
X119764285Y-112088800D02*
X119811904Y-112041180D01*
X119811904Y-112041180D02*
X119859523Y-111945942D01*
X119859523Y-111945942D02*
X119859523Y-111850704D01*
X119859523Y-111850704D02*
X119811904Y-111755466D01*
X119811904Y-111755466D02*
X119764285Y-111707847D01*
X119764285Y-111707847D02*
X119669047Y-111660228D01*
X119669047Y-111660228D02*
X119478571Y-111612609D01*
X119478571Y-111612609D02*
X119383333Y-111564990D01*
X119383333Y-111564990D02*
X119335714Y-111517371D01*
X119335714Y-111517371D02*
X119288095Y-111422133D01*
X119288095Y-111422133D02*
X119288095Y-111326895D01*
X119288095Y-111326895D02*
X119335714Y-111231657D01*
X119335714Y-111231657D02*
X119383333Y-111184038D01*
X119383333Y-111184038D02*
X119478571Y-111136419D01*
X119478571Y-111136419D02*
X119716666Y-111136419D01*
X119716666Y-111136419D02*
X119859523Y-111184038D01*
X120811904Y-112136419D02*
X120240476Y-112136419D01*
X120526190Y-112136419D02*
X120526190Y-111136419D01*
X120526190Y-111136419D02*
X120430952Y-111279276D01*
X120430952Y-111279276D02*
X120335714Y-111374514D01*
X120335714Y-111374514D02*
X120240476Y-111422133D01*
X152275095Y-123763819D02*
X152275095Y-124573342D01*
X152275095Y-124573342D02*
X152322714Y-124668580D01*
X152322714Y-124668580D02*
X152370333Y-124716200D01*
X152370333Y-124716200D02*
X152465571Y-124763819D01*
X152465571Y-124763819D02*
X152656047Y-124763819D01*
X152656047Y-124763819D02*
X152751285Y-124716200D01*
X152751285Y-124716200D02*
X152798904Y-124668580D01*
X152798904Y-124668580D02*
X152846523Y-124573342D01*
X152846523Y-124573342D02*
X152846523Y-123763819D01*
X153465571Y-124192390D02*
X153370333Y-124144771D01*
X153370333Y-124144771D02*
X153322714Y-124097152D01*
X153322714Y-124097152D02*
X153275095Y-124001914D01*
X153275095Y-124001914D02*
X153275095Y-123954295D01*
X153275095Y-123954295D02*
X153322714Y-123859057D01*
X153322714Y-123859057D02*
X153370333Y-123811438D01*
X153370333Y-123811438D02*
X153465571Y-123763819D01*
X153465571Y-123763819D02*
X153656047Y-123763819D01*
X153656047Y-123763819D02*
X153751285Y-123811438D01*
X153751285Y-123811438D02*
X153798904Y-123859057D01*
X153798904Y-123859057D02*
X153846523Y-123954295D01*
X153846523Y-123954295D02*
X153846523Y-124001914D01*
X153846523Y-124001914D02*
X153798904Y-124097152D01*
X153798904Y-124097152D02*
X153751285Y-124144771D01*
X153751285Y-124144771D02*
X153656047Y-124192390D01*
X153656047Y-124192390D02*
X153465571Y-124192390D01*
X153465571Y-124192390D02*
X153370333Y-124240009D01*
X153370333Y-124240009D02*
X153322714Y-124287628D01*
X153322714Y-124287628D02*
X153275095Y-124382866D01*
X153275095Y-124382866D02*
X153275095Y-124573342D01*
X153275095Y-124573342D02*
X153322714Y-124668580D01*
X153322714Y-124668580D02*
X153370333Y-124716200D01*
X153370333Y-124716200D02*
X153465571Y-124763819D01*
X153465571Y-124763819D02*
X153656047Y-124763819D01*
X153656047Y-124763819D02*
X153751285Y-124716200D01*
X153751285Y-124716200D02*
X153798904Y-124668580D01*
X153798904Y-124668580D02*
X153846523Y-124573342D01*
X153846523Y-124573342D02*
X153846523Y-124382866D01*
X153846523Y-124382866D02*
X153798904Y-124287628D01*
X153798904Y-124287628D02*
X153751285Y-124240009D01*
X153751285Y-124240009D02*
X153656047Y-124192390D01*
X139618333Y-75741819D02*
X139285000Y-75265628D01*
X139046905Y-75741819D02*
X139046905Y-74741819D01*
X139046905Y-74741819D02*
X139427857Y-74741819D01*
X139427857Y-74741819D02*
X139523095Y-74789438D01*
X139523095Y-74789438D02*
X139570714Y-74837057D01*
X139570714Y-74837057D02*
X139618333Y-74932295D01*
X139618333Y-74932295D02*
X139618333Y-75075152D01*
X139618333Y-75075152D02*
X139570714Y-75170390D01*
X139570714Y-75170390D02*
X139523095Y-75218009D01*
X139523095Y-75218009D02*
X139427857Y-75265628D01*
X139427857Y-75265628D02*
X139046905Y-75265628D01*
X140094524Y-75741819D02*
X140285000Y-75741819D01*
X140285000Y-75741819D02*
X140380238Y-75694200D01*
X140380238Y-75694200D02*
X140427857Y-75646580D01*
X140427857Y-75646580D02*
X140523095Y-75503723D01*
X140523095Y-75503723D02*
X140570714Y-75313247D01*
X140570714Y-75313247D02*
X140570714Y-74932295D01*
X140570714Y-74932295D02*
X140523095Y-74837057D01*
X140523095Y-74837057D02*
X140475476Y-74789438D01*
X140475476Y-74789438D02*
X140380238Y-74741819D01*
X140380238Y-74741819D02*
X140189762Y-74741819D01*
X140189762Y-74741819D02*
X140094524Y-74789438D01*
X140094524Y-74789438D02*
X140046905Y-74837057D01*
X140046905Y-74837057D02*
X139999286Y-74932295D01*
X139999286Y-74932295D02*
X139999286Y-75170390D01*
X139999286Y-75170390D02*
X140046905Y-75265628D01*
X140046905Y-75265628D02*
X140094524Y-75313247D01*
X140094524Y-75313247D02*
X140189762Y-75360866D01*
X140189762Y-75360866D02*
X140380238Y-75360866D01*
X140380238Y-75360866D02*
X140475476Y-75313247D01*
X140475476Y-75313247D02*
X140523095Y-75265628D01*
X140523095Y-75265628D02*
X140570714Y-75170390D01*
X151746905Y-57049819D02*
X151746905Y-56049819D01*
X151746905Y-56049819D02*
X151985000Y-56049819D01*
X151985000Y-56049819D02*
X152127857Y-56097438D01*
X152127857Y-56097438D02*
X152223095Y-56192676D01*
X152223095Y-56192676D02*
X152270714Y-56287914D01*
X152270714Y-56287914D02*
X152318333Y-56478390D01*
X152318333Y-56478390D02*
X152318333Y-56621247D01*
X152318333Y-56621247D02*
X152270714Y-56811723D01*
X152270714Y-56811723D02*
X152223095Y-56906961D01*
X152223095Y-56906961D02*
X152127857Y-57002200D01*
X152127857Y-57002200D02*
X151985000Y-57049819D01*
X151985000Y-57049819D02*
X151746905Y-57049819D01*
X152699286Y-56145057D02*
X152746905Y-56097438D01*
X152746905Y-56097438D02*
X152842143Y-56049819D01*
X152842143Y-56049819D02*
X153080238Y-56049819D01*
X153080238Y-56049819D02*
X153175476Y-56097438D01*
X153175476Y-56097438D02*
X153223095Y-56145057D01*
X153223095Y-56145057D02*
X153270714Y-56240295D01*
X153270714Y-56240295D02*
X153270714Y-56335533D01*
X153270714Y-56335533D02*
X153223095Y-56478390D01*
X153223095Y-56478390D02*
X152651667Y-57049819D01*
X152651667Y-57049819D02*
X153270714Y-57049819D01*
X138634142Y-81837819D02*
X138300809Y-81361628D01*
X138062714Y-81837819D02*
X138062714Y-80837819D01*
X138062714Y-80837819D02*
X138443666Y-80837819D01*
X138443666Y-80837819D02*
X138538904Y-80885438D01*
X138538904Y-80885438D02*
X138586523Y-80933057D01*
X138586523Y-80933057D02*
X138634142Y-81028295D01*
X138634142Y-81028295D02*
X138634142Y-81171152D01*
X138634142Y-81171152D02*
X138586523Y-81266390D01*
X138586523Y-81266390D02*
X138538904Y-81314009D01*
X138538904Y-81314009D02*
X138443666Y-81361628D01*
X138443666Y-81361628D02*
X138062714Y-81361628D01*
X139586523Y-81837819D02*
X139015095Y-81837819D01*
X139300809Y-81837819D02*
X139300809Y-80837819D01*
X139300809Y-80837819D02*
X139205571Y-80980676D01*
X139205571Y-80980676D02*
X139110333Y-81075914D01*
X139110333Y-81075914D02*
X139015095Y-81123533D01*
X140205571Y-80837819D02*
X140300809Y-80837819D01*
X140300809Y-80837819D02*
X140396047Y-80885438D01*
X140396047Y-80885438D02*
X140443666Y-80933057D01*
X140443666Y-80933057D02*
X140491285Y-81028295D01*
X140491285Y-81028295D02*
X140538904Y-81218771D01*
X140538904Y-81218771D02*
X140538904Y-81456866D01*
X140538904Y-81456866D02*
X140491285Y-81647342D01*
X140491285Y-81647342D02*
X140443666Y-81742580D01*
X140443666Y-81742580D02*
X140396047Y-81790200D01*
X140396047Y-81790200D02*
X140300809Y-81837819D01*
X140300809Y-81837819D02*
X140205571Y-81837819D01*
X140205571Y-81837819D02*
X140110333Y-81790200D01*
X140110333Y-81790200D02*
X140062714Y-81742580D01*
X140062714Y-81742580D02*
X140015095Y-81647342D01*
X140015095Y-81647342D02*
X139967476Y-81456866D01*
X139967476Y-81456866D02*
X139967476Y-81218771D01*
X139967476Y-81218771D02*
X140015095Y-81028295D01*
X140015095Y-81028295D02*
X140062714Y-80933057D01*
X140062714Y-80933057D02*
X140110333Y-80885438D01*
X140110333Y-80885438D02*
X140205571Y-80837819D01*
X134274142Y-91841819D02*
X133940809Y-91365628D01*
X133702714Y-91841819D02*
X133702714Y-90841819D01*
X133702714Y-90841819D02*
X134083666Y-90841819D01*
X134083666Y-90841819D02*
X134178904Y-90889438D01*
X134178904Y-90889438D02*
X134226523Y-90937057D01*
X134226523Y-90937057D02*
X134274142Y-91032295D01*
X134274142Y-91032295D02*
X134274142Y-91175152D01*
X134274142Y-91175152D02*
X134226523Y-91270390D01*
X134226523Y-91270390D02*
X134178904Y-91318009D01*
X134178904Y-91318009D02*
X134083666Y-91365628D01*
X134083666Y-91365628D02*
X133702714Y-91365628D01*
X135226523Y-91841819D02*
X134655095Y-91841819D01*
X134940809Y-91841819D02*
X134940809Y-90841819D01*
X134940809Y-90841819D02*
X134845571Y-90984676D01*
X134845571Y-90984676D02*
X134750333Y-91079914D01*
X134750333Y-91079914D02*
X134655095Y-91127533D01*
X135607476Y-90937057D02*
X135655095Y-90889438D01*
X135655095Y-90889438D02*
X135750333Y-90841819D01*
X135750333Y-90841819D02*
X135988428Y-90841819D01*
X135988428Y-90841819D02*
X136083666Y-90889438D01*
X136083666Y-90889438D02*
X136131285Y-90937057D01*
X136131285Y-90937057D02*
X136178904Y-91032295D01*
X136178904Y-91032295D02*
X136178904Y-91127533D01*
X136178904Y-91127533D02*
X136131285Y-91270390D01*
X136131285Y-91270390D02*
X135559857Y-91841819D01*
X135559857Y-91841819D02*
X136178904Y-91841819D01*
X143174333Y-67264580D02*
X143126714Y-67312200D01*
X143126714Y-67312200D02*
X142983857Y-67359819D01*
X142983857Y-67359819D02*
X142888619Y-67359819D01*
X142888619Y-67359819D02*
X142745762Y-67312200D01*
X142745762Y-67312200D02*
X142650524Y-67216961D01*
X142650524Y-67216961D02*
X142602905Y-67121723D01*
X142602905Y-67121723D02*
X142555286Y-66931247D01*
X142555286Y-66931247D02*
X142555286Y-66788390D01*
X142555286Y-66788390D02*
X142602905Y-66597914D01*
X142602905Y-66597914D02*
X142650524Y-66502676D01*
X142650524Y-66502676D02*
X142745762Y-66407438D01*
X142745762Y-66407438D02*
X142888619Y-66359819D01*
X142888619Y-66359819D02*
X142983857Y-66359819D01*
X142983857Y-66359819D02*
X143126714Y-66407438D01*
X143126714Y-66407438D02*
X143174333Y-66455057D01*
X144126714Y-67359819D02*
X143555286Y-67359819D01*
X143841000Y-67359819D02*
X143841000Y-66359819D01*
X143841000Y-66359819D02*
X143745762Y-66502676D01*
X143745762Y-66502676D02*
X143650524Y-66597914D01*
X143650524Y-66597914D02*
X143555286Y-66645533D01*
X120370009Y-121692333D02*
X120370009Y-122025666D01*
X120893819Y-122025666D02*
X119893819Y-122025666D01*
X119893819Y-122025666D02*
X119893819Y-121549476D01*
X120893819Y-120644714D02*
X120893819Y-121216142D01*
X120893819Y-120930428D02*
X119893819Y-120930428D01*
X119893819Y-120930428D02*
X120036676Y-121025666D01*
X120036676Y-121025666D02*
X120131914Y-121120904D01*
X120131914Y-121120904D02*
X120179533Y-121216142D01*
X134396809Y-85933628D02*
X134396809Y-86409819D01*
X134063476Y-85409819D02*
X134396809Y-85933628D01*
X134396809Y-85933628D02*
X134730142Y-85409819D01*
X135587285Y-86409819D02*
X135015857Y-86409819D01*
X135301571Y-86409819D02*
X135301571Y-85409819D01*
X135301571Y-85409819D02*
X135206333Y-85552676D01*
X135206333Y-85552676D02*
X135111095Y-85647914D01*
X135111095Y-85647914D02*
X135015857Y-85695533D01*
X149863333Y-97334580D02*
X149815714Y-97382200D01*
X149815714Y-97382200D02*
X149672857Y-97429819D01*
X149672857Y-97429819D02*
X149577619Y-97429819D01*
X149577619Y-97429819D02*
X149434762Y-97382200D01*
X149434762Y-97382200D02*
X149339524Y-97286961D01*
X149339524Y-97286961D02*
X149291905Y-97191723D01*
X149291905Y-97191723D02*
X149244286Y-97001247D01*
X149244286Y-97001247D02*
X149244286Y-96858390D01*
X149244286Y-96858390D02*
X149291905Y-96667914D01*
X149291905Y-96667914D02*
X149339524Y-96572676D01*
X149339524Y-96572676D02*
X149434762Y-96477438D01*
X149434762Y-96477438D02*
X149577619Y-96429819D01*
X149577619Y-96429819D02*
X149672857Y-96429819D01*
X149672857Y-96429819D02*
X149815714Y-96477438D01*
X149815714Y-96477438D02*
X149863333Y-96525057D01*
X150434762Y-96858390D02*
X150339524Y-96810771D01*
X150339524Y-96810771D02*
X150291905Y-96763152D01*
X150291905Y-96763152D02*
X150244286Y-96667914D01*
X150244286Y-96667914D02*
X150244286Y-96620295D01*
X150244286Y-96620295D02*
X150291905Y-96525057D01*
X150291905Y-96525057D02*
X150339524Y-96477438D01*
X150339524Y-96477438D02*
X150434762Y-96429819D01*
X150434762Y-96429819D02*
X150625238Y-96429819D01*
X150625238Y-96429819D02*
X150720476Y-96477438D01*
X150720476Y-96477438D02*
X150768095Y-96525057D01*
X150768095Y-96525057D02*
X150815714Y-96620295D01*
X150815714Y-96620295D02*
X150815714Y-96667914D01*
X150815714Y-96667914D02*
X150768095Y-96763152D01*
X150768095Y-96763152D02*
X150720476Y-96810771D01*
X150720476Y-96810771D02*
X150625238Y-96858390D01*
X150625238Y-96858390D02*
X150434762Y-96858390D01*
X150434762Y-96858390D02*
X150339524Y-96906009D01*
X150339524Y-96906009D02*
X150291905Y-96953628D01*
X150291905Y-96953628D02*
X150244286Y-97048866D01*
X150244286Y-97048866D02*
X150244286Y-97239342D01*
X150244286Y-97239342D02*
X150291905Y-97334580D01*
X150291905Y-97334580D02*
X150339524Y-97382200D01*
X150339524Y-97382200D02*
X150434762Y-97429819D01*
X150434762Y-97429819D02*
X150625238Y-97429819D01*
X150625238Y-97429819D02*
X150720476Y-97382200D01*
X150720476Y-97382200D02*
X150768095Y-97334580D01*
X150768095Y-97334580D02*
X150815714Y-97239342D01*
X150815714Y-97239342D02*
X150815714Y-97048866D01*
X150815714Y-97048866D02*
X150768095Y-96953628D01*
X150768095Y-96953628D02*
X150720476Y-96906009D01*
X150720476Y-96906009D02*
X150625238Y-96858390D01*
X147913095Y-112587819D02*
X147913095Y-113397342D01*
X147913095Y-113397342D02*
X147960714Y-113492580D01*
X147960714Y-113492580D02*
X148008333Y-113540200D01*
X148008333Y-113540200D02*
X148103571Y-113587819D01*
X148103571Y-113587819D02*
X148294047Y-113587819D01*
X148294047Y-113587819D02*
X148389285Y-113540200D01*
X148389285Y-113540200D02*
X148436904Y-113492580D01*
X148436904Y-113492580D02*
X148484523Y-113397342D01*
X148484523Y-113397342D02*
X148484523Y-112587819D01*
X149436904Y-112587819D02*
X148960714Y-112587819D01*
X148960714Y-112587819D02*
X148913095Y-113064009D01*
X148913095Y-113064009D02*
X148960714Y-113016390D01*
X148960714Y-113016390D02*
X149055952Y-112968771D01*
X149055952Y-112968771D02*
X149294047Y-112968771D01*
X149294047Y-112968771D02*
X149389285Y-113016390D01*
X149389285Y-113016390D02*
X149436904Y-113064009D01*
X149436904Y-113064009D02*
X149484523Y-113159247D01*
X149484523Y-113159247D02*
X149484523Y-113397342D01*
X149484523Y-113397342D02*
X149436904Y-113492580D01*
X149436904Y-113492580D02*
X149389285Y-113540200D01*
X149389285Y-113540200D02*
X149294047Y-113587819D01*
X149294047Y-113587819D02*
X149055952Y-113587819D01*
X149055952Y-113587819D02*
X148960714Y-113540200D01*
X148960714Y-113540200D02*
X148913095Y-113492580D01*
X139364333Y-73201819D02*
X139031000Y-72725628D01*
X138792905Y-73201819D02*
X138792905Y-72201819D01*
X138792905Y-72201819D02*
X139173857Y-72201819D01*
X139173857Y-72201819D02*
X139269095Y-72249438D01*
X139269095Y-72249438D02*
X139316714Y-72297057D01*
X139316714Y-72297057D02*
X139364333Y-72392295D01*
X139364333Y-72392295D02*
X139364333Y-72535152D01*
X139364333Y-72535152D02*
X139316714Y-72630390D01*
X139316714Y-72630390D02*
X139269095Y-72678009D01*
X139269095Y-72678009D02*
X139173857Y-72725628D01*
X139173857Y-72725628D02*
X138792905Y-72725628D01*
X139935762Y-72630390D02*
X139840524Y-72582771D01*
X139840524Y-72582771D02*
X139792905Y-72535152D01*
X139792905Y-72535152D02*
X139745286Y-72439914D01*
X139745286Y-72439914D02*
X139745286Y-72392295D01*
X139745286Y-72392295D02*
X139792905Y-72297057D01*
X139792905Y-72297057D02*
X139840524Y-72249438D01*
X139840524Y-72249438D02*
X139935762Y-72201819D01*
X139935762Y-72201819D02*
X140126238Y-72201819D01*
X140126238Y-72201819D02*
X140221476Y-72249438D01*
X140221476Y-72249438D02*
X140269095Y-72297057D01*
X140269095Y-72297057D02*
X140316714Y-72392295D01*
X140316714Y-72392295D02*
X140316714Y-72439914D01*
X140316714Y-72439914D02*
X140269095Y-72535152D01*
X140269095Y-72535152D02*
X140221476Y-72582771D01*
X140221476Y-72582771D02*
X140126238Y-72630390D01*
X140126238Y-72630390D02*
X139935762Y-72630390D01*
X139935762Y-72630390D02*
X139840524Y-72678009D01*
X139840524Y-72678009D02*
X139792905Y-72725628D01*
X139792905Y-72725628D02*
X139745286Y-72820866D01*
X139745286Y-72820866D02*
X139745286Y-73011342D01*
X139745286Y-73011342D02*
X139792905Y-73106580D01*
X139792905Y-73106580D02*
X139840524Y-73154200D01*
X139840524Y-73154200D02*
X139935762Y-73201819D01*
X139935762Y-73201819D02*
X140126238Y-73201819D01*
X140126238Y-73201819D02*
X140221476Y-73154200D01*
X140221476Y-73154200D02*
X140269095Y-73106580D01*
X140269095Y-73106580D02*
X140316714Y-73011342D01*
X140316714Y-73011342D02*
X140316714Y-72820866D01*
X140316714Y-72820866D02*
X140269095Y-72725628D01*
X140269095Y-72725628D02*
X140221476Y-72678009D01*
X140221476Y-72678009D02*
X140126238Y-72630390D01*
X132601666Y-69407819D02*
X132601666Y-70122104D01*
X132601666Y-70122104D02*
X132554047Y-70264961D01*
X132554047Y-70264961D02*
X132458809Y-70360200D01*
X132458809Y-70360200D02*
X132315952Y-70407819D01*
X132315952Y-70407819D02*
X132220714Y-70407819D01*
X133077857Y-70407819D02*
X133077857Y-69407819D01*
X133077857Y-69407819D02*
X133458809Y-69407819D01*
X133458809Y-69407819D02*
X133554047Y-69455438D01*
X133554047Y-69455438D02*
X133601666Y-69503057D01*
X133601666Y-69503057D02*
X133649285Y-69598295D01*
X133649285Y-69598295D02*
X133649285Y-69741152D01*
X133649285Y-69741152D02*
X133601666Y-69836390D01*
X133601666Y-69836390D02*
X133554047Y-69884009D01*
X133554047Y-69884009D02*
X133458809Y-69931628D01*
X133458809Y-69931628D02*
X133077857Y-69931628D01*
X134030238Y-69503057D02*
X134077857Y-69455438D01*
X134077857Y-69455438D02*
X134173095Y-69407819D01*
X134173095Y-69407819D02*
X134411190Y-69407819D01*
X134411190Y-69407819D02*
X134506428Y-69455438D01*
X134506428Y-69455438D02*
X134554047Y-69503057D01*
X134554047Y-69503057D02*
X134601666Y-69598295D01*
X134601666Y-69598295D02*
X134601666Y-69693533D01*
X134601666Y-69693533D02*
X134554047Y-69836390D01*
X134554047Y-69836390D02*
X133982619Y-70407819D01*
X133982619Y-70407819D02*
X134601666Y-70407819D01*
X139819095Y-123763819D02*
X139819095Y-124573342D01*
X139819095Y-124573342D02*
X139866714Y-124668580D01*
X139866714Y-124668580D02*
X139914333Y-124716200D01*
X139914333Y-124716200D02*
X140009571Y-124763819D01*
X140009571Y-124763819D02*
X140200047Y-124763819D01*
X140200047Y-124763819D02*
X140295285Y-124716200D01*
X140295285Y-124716200D02*
X140342904Y-124668580D01*
X140342904Y-124668580D02*
X140390523Y-124573342D01*
X140390523Y-124573342D02*
X140390523Y-123763819D01*
X141295285Y-123763819D02*
X141104809Y-123763819D01*
X141104809Y-123763819D02*
X141009571Y-123811438D01*
X141009571Y-123811438D02*
X140961952Y-123859057D01*
X140961952Y-123859057D02*
X140866714Y-124001914D01*
X140866714Y-124001914D02*
X140819095Y-124192390D01*
X140819095Y-124192390D02*
X140819095Y-124573342D01*
X140819095Y-124573342D02*
X140866714Y-124668580D01*
X140866714Y-124668580D02*
X140914333Y-124716200D01*
X140914333Y-124716200D02*
X141009571Y-124763819D01*
X141009571Y-124763819D02*
X141200047Y-124763819D01*
X141200047Y-124763819D02*
X141295285Y-124716200D01*
X141295285Y-124716200D02*
X141342904Y-124668580D01*
X141342904Y-124668580D02*
X141390523Y-124573342D01*
X141390523Y-124573342D02*
X141390523Y-124335247D01*
X141390523Y-124335247D02*
X141342904Y-124240009D01*
X141342904Y-124240009D02*
X141295285Y-124192390D01*
X141295285Y-124192390D02*
X141200047Y-124144771D01*
X141200047Y-124144771D02*
X141009571Y-124144771D01*
X141009571Y-124144771D02*
X140914333Y-124192390D01*
X140914333Y-124192390D02*
X140866714Y-124240009D01*
X140866714Y-124240009D02*
X140819095Y-124335247D01*
X136570333Y-80980580D02*
X136522714Y-81028200D01*
X136522714Y-81028200D02*
X136379857Y-81075819D01*
X136379857Y-81075819D02*
X136284619Y-81075819D01*
X136284619Y-81075819D02*
X136141762Y-81028200D01*
X136141762Y-81028200D02*
X136046524Y-80932961D01*
X136046524Y-80932961D02*
X135998905Y-80837723D01*
X135998905Y-80837723D02*
X135951286Y-80647247D01*
X135951286Y-80647247D02*
X135951286Y-80504390D01*
X135951286Y-80504390D02*
X135998905Y-80313914D01*
X135998905Y-80313914D02*
X136046524Y-80218676D01*
X136046524Y-80218676D02*
X136141762Y-80123438D01*
X136141762Y-80123438D02*
X136284619Y-80075819D01*
X136284619Y-80075819D02*
X136379857Y-80075819D01*
X136379857Y-80075819D02*
X136522714Y-80123438D01*
X136522714Y-80123438D02*
X136570333Y-80171057D01*
X136903667Y-80075819D02*
X137522714Y-80075819D01*
X137522714Y-80075819D02*
X137189381Y-80456771D01*
X137189381Y-80456771D02*
X137332238Y-80456771D01*
X137332238Y-80456771D02*
X137427476Y-80504390D01*
X137427476Y-80504390D02*
X137475095Y-80552009D01*
X137475095Y-80552009D02*
X137522714Y-80647247D01*
X137522714Y-80647247D02*
X137522714Y-80885342D01*
X137522714Y-80885342D02*
X137475095Y-80980580D01*
X137475095Y-80980580D02*
X137427476Y-81028200D01*
X137427476Y-81028200D02*
X137332238Y-81075819D01*
X137332238Y-81075819D02*
X137046524Y-81075819D01*
X137046524Y-81075819D02*
X136951286Y-81028200D01*
X136951286Y-81028200D02*
X136903667Y-80980580D01*
X164677095Y-112333819D02*
X164677095Y-113143342D01*
X164677095Y-113143342D02*
X164724714Y-113238580D01*
X164724714Y-113238580D02*
X164772333Y-113286200D01*
X164772333Y-113286200D02*
X164867571Y-113333819D01*
X164867571Y-113333819D02*
X165058047Y-113333819D01*
X165058047Y-113333819D02*
X165153285Y-113286200D01*
X165153285Y-113286200D02*
X165200904Y-113238580D01*
X165200904Y-113238580D02*
X165248523Y-113143342D01*
X165248523Y-113143342D02*
X165248523Y-112333819D01*
X166153285Y-112667152D02*
X166153285Y-113333819D01*
X165915190Y-112286200D02*
X165677095Y-113000485D01*
X165677095Y-113000485D02*
X166296142Y-113000485D01*
X138888142Y-78789819D02*
X138554809Y-78313628D01*
X138316714Y-78789819D02*
X138316714Y-77789819D01*
X138316714Y-77789819D02*
X138697666Y-77789819D01*
X138697666Y-77789819D02*
X138792904Y-77837438D01*
X138792904Y-77837438D02*
X138840523Y-77885057D01*
X138840523Y-77885057D02*
X138888142Y-77980295D01*
X138888142Y-77980295D02*
X138888142Y-78123152D01*
X138888142Y-78123152D02*
X138840523Y-78218390D01*
X138840523Y-78218390D02*
X138792904Y-78266009D01*
X138792904Y-78266009D02*
X138697666Y-78313628D01*
X138697666Y-78313628D02*
X138316714Y-78313628D01*
X139840523Y-78789819D02*
X139269095Y-78789819D01*
X139554809Y-78789819D02*
X139554809Y-77789819D01*
X139554809Y-77789819D02*
X139459571Y-77932676D01*
X139459571Y-77932676D02*
X139364333Y-78027914D01*
X139364333Y-78027914D02*
X139269095Y-78075533D01*
X140792904Y-78789819D02*
X140221476Y-78789819D01*
X140507190Y-78789819D02*
X140507190Y-77789819D01*
X140507190Y-77789819D02*
X140411952Y-77932676D01*
X140411952Y-77932676D02*
X140316714Y-78027914D01*
X140316714Y-78027914D02*
X140221476Y-78075533D01*
X131281666Y-64171819D02*
X131281666Y-64886104D01*
X131281666Y-64886104D02*
X131234047Y-65028961D01*
X131234047Y-65028961D02*
X131138809Y-65124200D01*
X131138809Y-65124200D02*
X130995952Y-65171819D01*
X130995952Y-65171819D02*
X130900714Y-65171819D01*
X132281666Y-65171819D02*
X131710238Y-65171819D01*
X131995952Y-65171819D02*
X131995952Y-64171819D01*
X131995952Y-64171819D02*
X131900714Y-64314676D01*
X131900714Y-64314676D02*
X131805476Y-64409914D01*
X131805476Y-64409914D02*
X131710238Y-64457533D01*
X150625333Y-67076819D02*
X150292000Y-66600628D01*
X150053905Y-67076819D02*
X150053905Y-66076819D01*
X150053905Y-66076819D02*
X150434857Y-66076819D01*
X150434857Y-66076819D02*
X150530095Y-66124438D01*
X150530095Y-66124438D02*
X150577714Y-66172057D01*
X150577714Y-66172057D02*
X150625333Y-66267295D01*
X150625333Y-66267295D02*
X150625333Y-66410152D01*
X150625333Y-66410152D02*
X150577714Y-66505390D01*
X150577714Y-66505390D02*
X150530095Y-66553009D01*
X150530095Y-66553009D02*
X150434857Y-66600628D01*
X150434857Y-66600628D02*
X150053905Y-66600628D01*
X150958667Y-66076819D02*
X151577714Y-66076819D01*
X151577714Y-66076819D02*
X151244381Y-66457771D01*
X151244381Y-66457771D02*
X151387238Y-66457771D01*
X151387238Y-66457771D02*
X151482476Y-66505390D01*
X151482476Y-66505390D02*
X151530095Y-66553009D01*
X151530095Y-66553009D02*
X151577714Y-66648247D01*
X151577714Y-66648247D02*
X151577714Y-66886342D01*
X151577714Y-66886342D02*
X151530095Y-66981580D01*
X151530095Y-66981580D02*
X151482476Y-67029200D01*
X151482476Y-67029200D02*
X151387238Y-67076819D01*
X151387238Y-67076819D02*
X151101524Y-67076819D01*
X151101524Y-67076819D02*
X151006286Y-67029200D01*
X151006286Y-67029200D02*
X150958667Y-66981580D01*
X135300333Y-88187819D02*
X134967000Y-87711628D01*
X134728905Y-88187819D02*
X134728905Y-87187819D01*
X134728905Y-87187819D02*
X135109857Y-87187819D01*
X135109857Y-87187819D02*
X135205095Y-87235438D01*
X135205095Y-87235438D02*
X135252714Y-87283057D01*
X135252714Y-87283057D02*
X135300333Y-87378295D01*
X135300333Y-87378295D02*
X135300333Y-87521152D01*
X135300333Y-87521152D02*
X135252714Y-87616390D01*
X135252714Y-87616390D02*
X135205095Y-87664009D01*
X135205095Y-87664009D02*
X135109857Y-87711628D01*
X135109857Y-87711628D02*
X134728905Y-87711628D01*
X136205095Y-87187819D02*
X135728905Y-87187819D01*
X135728905Y-87187819D02*
X135681286Y-87664009D01*
X135681286Y-87664009D02*
X135728905Y-87616390D01*
X135728905Y-87616390D02*
X135824143Y-87568771D01*
X135824143Y-87568771D02*
X136062238Y-87568771D01*
X136062238Y-87568771D02*
X136157476Y-87616390D01*
X136157476Y-87616390D02*
X136205095Y-87664009D01*
X136205095Y-87664009D02*
X136252714Y-87759247D01*
X136252714Y-87759247D02*
X136252714Y-87997342D01*
X136252714Y-87997342D02*
X136205095Y-88092580D01*
X136205095Y-88092580D02*
X136157476Y-88140200D01*
X136157476Y-88140200D02*
X136062238Y-88187819D01*
X136062238Y-88187819D02*
X135824143Y-88187819D01*
X135824143Y-88187819D02*
X135728905Y-88140200D01*
X135728905Y-88140200D02*
X135681286Y-88092580D01*
X133776333Y-103546580D02*
X133728714Y-103594200D01*
X133728714Y-103594200D02*
X133585857Y-103641819D01*
X133585857Y-103641819D02*
X133490619Y-103641819D01*
X133490619Y-103641819D02*
X133347762Y-103594200D01*
X133347762Y-103594200D02*
X133252524Y-103498961D01*
X133252524Y-103498961D02*
X133204905Y-103403723D01*
X133204905Y-103403723D02*
X133157286Y-103213247D01*
X133157286Y-103213247D02*
X133157286Y-103070390D01*
X133157286Y-103070390D02*
X133204905Y-102879914D01*
X133204905Y-102879914D02*
X133252524Y-102784676D01*
X133252524Y-102784676D02*
X133347762Y-102689438D01*
X133347762Y-102689438D02*
X133490619Y-102641819D01*
X133490619Y-102641819D02*
X133585857Y-102641819D01*
X133585857Y-102641819D02*
X133728714Y-102689438D01*
X133728714Y-102689438D02*
X133776333Y-102737057D01*
X134633476Y-102641819D02*
X134443000Y-102641819D01*
X134443000Y-102641819D02*
X134347762Y-102689438D01*
X134347762Y-102689438D02*
X134300143Y-102737057D01*
X134300143Y-102737057D02*
X134204905Y-102879914D01*
X134204905Y-102879914D02*
X134157286Y-103070390D01*
X134157286Y-103070390D02*
X134157286Y-103451342D01*
X134157286Y-103451342D02*
X134204905Y-103546580D01*
X134204905Y-103546580D02*
X134252524Y-103594200D01*
X134252524Y-103594200D02*
X134347762Y-103641819D01*
X134347762Y-103641819D02*
X134538238Y-103641819D01*
X134538238Y-103641819D02*
X134633476Y-103594200D01*
X134633476Y-103594200D02*
X134681095Y-103546580D01*
X134681095Y-103546580D02*
X134728714Y-103451342D01*
X134728714Y-103451342D02*
X134728714Y-103213247D01*
X134728714Y-103213247D02*
X134681095Y-103118009D01*
X134681095Y-103118009D02*
X134633476Y-103070390D01*
X134633476Y-103070390D02*
X134538238Y-103022771D01*
X134538238Y-103022771D02*
X134347762Y-103022771D01*
X134347762Y-103022771D02*
X134252524Y-103070390D01*
X134252524Y-103070390D02*
X134204905Y-103118009D01*
X134204905Y-103118009D02*
X134157286Y-103213247D01*
X164144333Y-101141819D02*
X163811000Y-100665628D01*
X163572905Y-101141819D02*
X163572905Y-100141819D01*
X163572905Y-100141819D02*
X163953857Y-100141819D01*
X163953857Y-100141819D02*
X164049095Y-100189438D01*
X164049095Y-100189438D02*
X164096714Y-100237057D01*
X164096714Y-100237057D02*
X164144333Y-100332295D01*
X164144333Y-100332295D02*
X164144333Y-100475152D01*
X164144333Y-100475152D02*
X164096714Y-100570390D01*
X164096714Y-100570390D02*
X164049095Y-100618009D01*
X164049095Y-100618009D02*
X163953857Y-100665628D01*
X163953857Y-100665628D02*
X163572905Y-100665628D01*
X164477667Y-100141819D02*
X165144333Y-100141819D01*
X165144333Y-100141819D02*
X164715762Y-101141819D01*
X135300333Y-90571819D02*
X134967000Y-90095628D01*
X134728905Y-90571819D02*
X134728905Y-89571819D01*
X134728905Y-89571819D02*
X135109857Y-89571819D01*
X135109857Y-89571819D02*
X135205095Y-89619438D01*
X135205095Y-89619438D02*
X135252714Y-89667057D01*
X135252714Y-89667057D02*
X135300333Y-89762295D01*
X135300333Y-89762295D02*
X135300333Y-89905152D01*
X135300333Y-89905152D02*
X135252714Y-90000390D01*
X135252714Y-90000390D02*
X135205095Y-90048009D01*
X135205095Y-90048009D02*
X135109857Y-90095628D01*
X135109857Y-90095628D02*
X134728905Y-90095628D01*
X136157476Y-89571819D02*
X135967000Y-89571819D01*
X135967000Y-89571819D02*
X135871762Y-89619438D01*
X135871762Y-89619438D02*
X135824143Y-89667057D01*
X135824143Y-89667057D02*
X135728905Y-89809914D01*
X135728905Y-89809914D02*
X135681286Y-90000390D01*
X135681286Y-90000390D02*
X135681286Y-90381342D01*
X135681286Y-90381342D02*
X135728905Y-90476580D01*
X135728905Y-90476580D02*
X135776524Y-90524200D01*
X135776524Y-90524200D02*
X135871762Y-90571819D01*
X135871762Y-90571819D02*
X136062238Y-90571819D01*
X136062238Y-90571819D02*
X136157476Y-90524200D01*
X136157476Y-90524200D02*
X136205095Y-90476580D01*
X136205095Y-90476580D02*
X136252714Y-90381342D01*
X136252714Y-90381342D02*
X136252714Y-90143247D01*
X136252714Y-90143247D02*
X136205095Y-90048009D01*
X136205095Y-90048009D02*
X136157476Y-90000390D01*
X136157476Y-90000390D02*
X136062238Y-89952771D01*
X136062238Y-89952771D02*
X135871762Y-89952771D01*
X135871762Y-89952771D02*
X135776524Y-90000390D01*
X135776524Y-90000390D02*
X135728905Y-90048009D01*
X135728905Y-90048009D02*
X135681286Y-90143247D01*
X119457142Y-116381819D02*
X119123809Y-115905628D01*
X118885714Y-116381819D02*
X118885714Y-115381819D01*
X118885714Y-115381819D02*
X119266666Y-115381819D01*
X119266666Y-115381819D02*
X119361904Y-115429438D01*
X119361904Y-115429438D02*
X119409523Y-115477057D01*
X119409523Y-115477057D02*
X119457142Y-115572295D01*
X119457142Y-115572295D02*
X119457142Y-115715152D01*
X119457142Y-115715152D02*
X119409523Y-115810390D01*
X119409523Y-115810390D02*
X119361904Y-115858009D01*
X119361904Y-115858009D02*
X119266666Y-115905628D01*
X119266666Y-115905628D02*
X118885714Y-115905628D01*
X120409523Y-116381819D02*
X119838095Y-116381819D01*
X120123809Y-116381819D02*
X120123809Y-115381819D01*
X120123809Y-115381819D02*
X120028571Y-115524676D01*
X120028571Y-115524676D02*
X119933333Y-115619914D01*
X119933333Y-115619914D02*
X119838095Y-115667533D01*
X120742857Y-115381819D02*
X121361904Y-115381819D01*
X121361904Y-115381819D02*
X121028571Y-115762771D01*
X121028571Y-115762771D02*
X121171428Y-115762771D01*
X121171428Y-115762771D02*
X121266666Y-115810390D01*
X121266666Y-115810390D02*
X121314285Y-115858009D01*
X121314285Y-115858009D02*
X121361904Y-115953247D01*
X121361904Y-115953247D02*
X121361904Y-116191342D01*
X121361904Y-116191342D02*
X121314285Y-116286580D01*
X121314285Y-116286580D02*
X121266666Y-116334200D01*
X121266666Y-116334200D02*
X121171428Y-116381819D01*
X121171428Y-116381819D02*
X120885714Y-116381819D01*
X120885714Y-116381819D02*
X120790476Y-116334200D01*
X120790476Y-116334200D02*
X120742857Y-116286580D01*
X164276333Y-72471580D02*
X164228714Y-72519200D01*
X164228714Y-72519200D02*
X164085857Y-72566819D01*
X164085857Y-72566819D02*
X163990619Y-72566819D01*
X163990619Y-72566819D02*
X163847762Y-72519200D01*
X163847762Y-72519200D02*
X163752524Y-72423961D01*
X163752524Y-72423961D02*
X163704905Y-72328723D01*
X163704905Y-72328723D02*
X163657286Y-72138247D01*
X163657286Y-72138247D02*
X163657286Y-71995390D01*
X163657286Y-71995390D02*
X163704905Y-71804914D01*
X163704905Y-71804914D02*
X163752524Y-71709676D01*
X163752524Y-71709676D02*
X163847762Y-71614438D01*
X163847762Y-71614438D02*
X163990619Y-71566819D01*
X163990619Y-71566819D02*
X164085857Y-71566819D01*
X164085857Y-71566819D02*
X164228714Y-71614438D01*
X164228714Y-71614438D02*
X164276333Y-71662057D01*
X165133476Y-71900152D02*
X165133476Y-72566819D01*
X164895381Y-71519200D02*
X164657286Y-72233485D01*
X164657286Y-72233485D02*
X165276333Y-72233485D01*
X164677095Y-124017819D02*
X164677095Y-124827342D01*
X164677095Y-124827342D02*
X164724714Y-124922580D01*
X164724714Y-124922580D02*
X164772333Y-124970200D01*
X164772333Y-124970200D02*
X164867571Y-125017819D01*
X164867571Y-125017819D02*
X165058047Y-125017819D01*
X165058047Y-125017819D02*
X165153285Y-124970200D01*
X165153285Y-124970200D02*
X165200904Y-124922580D01*
X165200904Y-124922580D02*
X165248523Y-124827342D01*
X165248523Y-124827342D02*
X165248523Y-124017819D01*
X165629476Y-124017819D02*
X166296142Y-124017819D01*
X166296142Y-124017819D02*
X165867571Y-125017819D01*
X159620905Y-99109819D02*
X159620905Y-98109819D01*
X159620905Y-98109819D02*
X159859000Y-98109819D01*
X159859000Y-98109819D02*
X160001857Y-98157438D01*
X160001857Y-98157438D02*
X160097095Y-98252676D01*
X160097095Y-98252676D02*
X160144714Y-98347914D01*
X160144714Y-98347914D02*
X160192333Y-98538390D01*
X160192333Y-98538390D02*
X160192333Y-98681247D01*
X160192333Y-98681247D02*
X160144714Y-98871723D01*
X160144714Y-98871723D02*
X160097095Y-98966961D01*
X160097095Y-98966961D02*
X160001857Y-99062200D01*
X160001857Y-99062200D02*
X159859000Y-99109819D01*
X159859000Y-99109819D02*
X159620905Y-99109819D01*
X161049476Y-98443152D02*
X161049476Y-99109819D01*
X160811381Y-98062200D02*
X160573286Y-98776485D01*
X160573286Y-98776485D02*
X161192333Y-98776485D01*
X159589095Y-100379819D02*
X159589095Y-99379819D01*
X160160523Y-100379819D02*
X159731952Y-99808390D01*
X160160523Y-99379819D02*
X159589095Y-99951247D01*
X136680733Y-102922580D02*
X136633114Y-102970200D01*
X136633114Y-102970200D02*
X136490257Y-103017819D01*
X136490257Y-103017819D02*
X136395019Y-103017819D01*
X136395019Y-103017819D02*
X136252162Y-102970200D01*
X136252162Y-102970200D02*
X136156924Y-102874961D01*
X136156924Y-102874961D02*
X136109305Y-102779723D01*
X136109305Y-102779723D02*
X136061686Y-102589247D01*
X136061686Y-102589247D02*
X136061686Y-102446390D01*
X136061686Y-102446390D02*
X136109305Y-102255914D01*
X136109305Y-102255914D02*
X136156924Y-102160676D01*
X136156924Y-102160676D02*
X136252162Y-102065438D01*
X136252162Y-102065438D02*
X136395019Y-102017819D01*
X136395019Y-102017819D02*
X136490257Y-102017819D01*
X136490257Y-102017819D02*
X136633114Y-102065438D01*
X136633114Y-102065438D02*
X136680733Y-102113057D01*
X137585495Y-102017819D02*
X137109305Y-102017819D01*
X137109305Y-102017819D02*
X137061686Y-102494009D01*
X137061686Y-102494009D02*
X137109305Y-102446390D01*
X137109305Y-102446390D02*
X137204543Y-102398771D01*
X137204543Y-102398771D02*
X137442638Y-102398771D01*
X137442638Y-102398771D02*
X137537876Y-102446390D01*
X137537876Y-102446390D02*
X137585495Y-102494009D01*
X137585495Y-102494009D02*
X137633114Y-102589247D01*
X137633114Y-102589247D02*
X137633114Y-102827342D01*
X137633114Y-102827342D02*
X137585495Y-102922580D01*
X137585495Y-102922580D02*
X137537876Y-102970200D01*
X137537876Y-102970200D02*
X137442638Y-103017819D01*
X137442638Y-103017819D02*
X137204543Y-103017819D01*
X137204543Y-103017819D02*
X137109305Y-102970200D01*
X137109305Y-102970200D02*
X137061686Y-102922580D01*
X155406095Y-72157819D02*
X155406095Y-72967342D01*
X155406095Y-72967342D02*
X155453714Y-73062580D01*
X155453714Y-73062580D02*
X155501333Y-73110200D01*
X155501333Y-73110200D02*
X155596571Y-73157819D01*
X155596571Y-73157819D02*
X155787047Y-73157819D01*
X155787047Y-73157819D02*
X155882285Y-73110200D01*
X155882285Y-73110200D02*
X155929904Y-73062580D01*
X155929904Y-73062580D02*
X155977523Y-72967342D01*
X155977523Y-72967342D02*
X155977523Y-72157819D01*
X156406095Y-72253057D02*
X156453714Y-72205438D01*
X156453714Y-72205438D02*
X156548952Y-72157819D01*
X156548952Y-72157819D02*
X156787047Y-72157819D01*
X156787047Y-72157819D02*
X156882285Y-72205438D01*
X156882285Y-72205438D02*
X156929904Y-72253057D01*
X156929904Y-72253057D02*
X156977523Y-72348295D01*
X156977523Y-72348295D02*
X156977523Y-72443533D01*
X156977523Y-72443533D02*
X156929904Y-72586390D01*
X156929904Y-72586390D02*
X156358476Y-73157819D01*
X156358476Y-73157819D02*
X156977523Y-73157819D01*
X132998523Y-106475819D02*
X132665190Y-105999628D01*
X132427095Y-106475819D02*
X132427095Y-105475819D01*
X132427095Y-105475819D02*
X132808047Y-105475819D01*
X132808047Y-105475819D02*
X132903285Y-105523438D01*
X132903285Y-105523438D02*
X132950904Y-105571057D01*
X132950904Y-105571057D02*
X132998523Y-105666295D01*
X132998523Y-105666295D02*
X132998523Y-105809152D01*
X132998523Y-105809152D02*
X132950904Y-105904390D01*
X132950904Y-105904390D02*
X132903285Y-105952009D01*
X132903285Y-105952009D02*
X132808047Y-105999628D01*
X132808047Y-105999628D02*
X132427095Y-105999628D01*
X133427095Y-106475819D02*
X133427095Y-105475819D01*
X133427095Y-105475819D02*
X133998523Y-106475819D01*
X133998523Y-106475819D02*
X133998523Y-105475819D01*
X134998523Y-106475819D02*
X134427095Y-106475819D01*
X134712809Y-106475819D02*
X134712809Y-105475819D01*
X134712809Y-105475819D02*
X134617571Y-105618676D01*
X134617571Y-105618676D02*
X134522333Y-105713914D01*
X134522333Y-105713914D02*
X134427095Y-105761533D01*
X135385333Y-84221819D02*
X135052000Y-83745628D01*
X134813905Y-84221819D02*
X134813905Y-83221819D01*
X134813905Y-83221819D02*
X135194857Y-83221819D01*
X135194857Y-83221819D02*
X135290095Y-83269438D01*
X135290095Y-83269438D02*
X135337714Y-83317057D01*
X135337714Y-83317057D02*
X135385333Y-83412295D01*
X135385333Y-83412295D02*
X135385333Y-83555152D01*
X135385333Y-83555152D02*
X135337714Y-83650390D01*
X135337714Y-83650390D02*
X135290095Y-83698009D01*
X135290095Y-83698009D02*
X135194857Y-83745628D01*
X135194857Y-83745628D02*
X134813905Y-83745628D01*
X136242476Y-83555152D02*
X136242476Y-84221819D01*
X136004381Y-83174200D02*
X135766286Y-83888485D01*
X135766286Y-83888485D02*
X136385333Y-83888485D01*
X132252333Y-72832580D02*
X132204714Y-72880200D01*
X132204714Y-72880200D02*
X132061857Y-72927819D01*
X132061857Y-72927819D02*
X131966619Y-72927819D01*
X131966619Y-72927819D02*
X131823762Y-72880200D01*
X131823762Y-72880200D02*
X131728524Y-72784961D01*
X131728524Y-72784961D02*
X131680905Y-72689723D01*
X131680905Y-72689723D02*
X131633286Y-72499247D01*
X131633286Y-72499247D02*
X131633286Y-72356390D01*
X131633286Y-72356390D02*
X131680905Y-72165914D01*
X131680905Y-72165914D02*
X131728524Y-72070676D01*
X131728524Y-72070676D02*
X131823762Y-71975438D01*
X131823762Y-71975438D02*
X131966619Y-71927819D01*
X131966619Y-71927819D02*
X132061857Y-71927819D01*
X132061857Y-71927819D02*
X132204714Y-71975438D01*
X132204714Y-71975438D02*
X132252333Y-72023057D01*
X132633286Y-72023057D02*
X132680905Y-71975438D01*
X132680905Y-71975438D02*
X132776143Y-71927819D01*
X132776143Y-71927819D02*
X133014238Y-71927819D01*
X133014238Y-71927819D02*
X133109476Y-71975438D01*
X133109476Y-71975438D02*
X133157095Y-72023057D01*
X133157095Y-72023057D02*
X133204714Y-72118295D01*
X133204714Y-72118295D02*
X133204714Y-72213533D01*
X133204714Y-72213533D02*
X133157095Y-72356390D01*
X133157095Y-72356390D02*
X132585667Y-72927819D01*
X132585667Y-72927819D02*
X133204714Y-72927819D01*
X118449095Y-56453819D02*
X118449095Y-57263342D01*
X118449095Y-57263342D02*
X118496714Y-57358580D01*
X118496714Y-57358580D02*
X118544333Y-57406200D01*
X118544333Y-57406200D02*
X118639571Y-57453819D01*
X118639571Y-57453819D02*
X118830047Y-57453819D01*
X118830047Y-57453819D02*
X118925285Y-57406200D01*
X118925285Y-57406200D02*
X118972904Y-57358580D01*
X118972904Y-57358580D02*
X119020523Y-57263342D01*
X119020523Y-57263342D02*
X119020523Y-56453819D01*
X120020523Y-57453819D02*
X119449095Y-57453819D01*
X119734809Y-57453819D02*
X119734809Y-56453819D01*
X119734809Y-56453819D02*
X119639571Y-56596676D01*
X119639571Y-56596676D02*
X119544333Y-56691914D01*
X119544333Y-56691914D02*
X119449095Y-56739533D01*
X135649666Y-78297819D02*
X135649666Y-79012104D01*
X135649666Y-79012104D02*
X135602047Y-79154961D01*
X135602047Y-79154961D02*
X135506809Y-79250200D01*
X135506809Y-79250200D02*
X135363952Y-79297819D01*
X135363952Y-79297819D02*
X135268714Y-79297819D01*
X136125857Y-79297819D02*
X136125857Y-78297819D01*
X136125857Y-78297819D02*
X136506809Y-78297819D01*
X136506809Y-78297819D02*
X136602047Y-78345438D01*
X136602047Y-78345438D02*
X136649666Y-78393057D01*
X136649666Y-78393057D02*
X136697285Y-78488295D01*
X136697285Y-78488295D02*
X136697285Y-78631152D01*
X136697285Y-78631152D02*
X136649666Y-78726390D01*
X136649666Y-78726390D02*
X136602047Y-78774009D01*
X136602047Y-78774009D02*
X136506809Y-78821628D01*
X136506809Y-78821628D02*
X136125857Y-78821628D01*
X137649666Y-79297819D02*
X137078238Y-79297819D01*
X137363952Y-79297819D02*
X137363952Y-78297819D01*
X137363952Y-78297819D02*
X137268714Y-78440676D01*
X137268714Y-78440676D02*
X137173476Y-78535914D01*
X137173476Y-78535914D02*
X137078238Y-78583533D01*
X132125333Y-92283580D02*
X132077714Y-92331200D01*
X132077714Y-92331200D02*
X131934857Y-92378819D01*
X131934857Y-92378819D02*
X131839619Y-92378819D01*
X131839619Y-92378819D02*
X131696762Y-92331200D01*
X131696762Y-92331200D02*
X131601524Y-92235961D01*
X131601524Y-92235961D02*
X131553905Y-92140723D01*
X131553905Y-92140723D02*
X131506286Y-91950247D01*
X131506286Y-91950247D02*
X131506286Y-91807390D01*
X131506286Y-91807390D02*
X131553905Y-91616914D01*
X131553905Y-91616914D02*
X131601524Y-91521676D01*
X131601524Y-91521676D02*
X131696762Y-91426438D01*
X131696762Y-91426438D02*
X131839619Y-91378819D01*
X131839619Y-91378819D02*
X131934857Y-91378819D01*
X131934857Y-91378819D02*
X132077714Y-91426438D01*
X132077714Y-91426438D02*
X132125333Y-91474057D01*
X132458667Y-91378819D02*
X133125333Y-91378819D01*
X133125333Y-91378819D02*
X132696762Y-92378819D01*
X159620905Y-102411819D02*
X159620905Y-101411819D01*
X159620905Y-101411819D02*
X159859000Y-101411819D01*
X159859000Y-101411819D02*
X160001857Y-101459438D01*
X160001857Y-101459438D02*
X160097095Y-101554676D01*
X160097095Y-101554676D02*
X160144714Y-101649914D01*
X160144714Y-101649914D02*
X160192333Y-101840390D01*
X160192333Y-101840390D02*
X160192333Y-101983247D01*
X160192333Y-101983247D02*
X160144714Y-102173723D01*
X160144714Y-102173723D02*
X160097095Y-102268961D01*
X160097095Y-102268961D02*
X160001857Y-102364200D01*
X160001857Y-102364200D02*
X159859000Y-102411819D01*
X159859000Y-102411819D02*
X159620905Y-102411819D01*
X160525667Y-101411819D02*
X161144714Y-101411819D01*
X161144714Y-101411819D02*
X160811381Y-101792771D01*
X160811381Y-101792771D02*
X160954238Y-101792771D01*
X160954238Y-101792771D02*
X161049476Y-101840390D01*
X161049476Y-101840390D02*
X161097095Y-101888009D01*
X161097095Y-101888009D02*
X161144714Y-101983247D01*
X161144714Y-101983247D02*
X161144714Y-102221342D01*
X161144714Y-102221342D02*
X161097095Y-102316580D01*
X161097095Y-102316580D02*
X161049476Y-102364200D01*
X161049476Y-102364200D02*
X160954238Y-102411819D01*
X160954238Y-102411819D02*
X160668524Y-102411819D01*
X160668524Y-102411819D02*
X160573286Y-102364200D01*
X160573286Y-102364200D02*
X160525667Y-102316580D01*
X159589095Y-103681819D02*
X159589095Y-102681819D01*
X160160523Y-103681819D02*
X159731952Y-103110390D01*
X160160523Y-102681819D02*
X159589095Y-103253247D01*
D10*
X131851000Y-110229000D02*
X131851000Y-115529000D01*
X131851000Y-115529000D02*
X139591000Y-115529000D01*
X139591000Y-110229000D02*
X131851000Y-110229000D01*
X139591000Y-111879000D02*
X139591000Y-110229000D01*
X139591000Y-115529000D02*
X139591000Y-113879000D01*
X139591000Y-113879000D02*
G75*
G02*
X139591000Y-111879000I0J1000000D01*
G01*
X162037000Y-62492000D02*
X162367000Y-62492000D01*
X162037000Y-69032000D02*
X162037000Y-62492000D01*
X162367000Y-69032000D02*
X162037000Y-69032000D01*
X164447000Y-69032000D02*
X164777000Y-69032000D01*
X164777000Y-62492000D02*
X164447000Y-62492000D01*
X164777000Y-69032000D02*
X164777000Y-62492000D01*
X155941000Y-62365000D02*
X155941000Y-68905000D01*
X155941000Y-68905000D02*
X156271000Y-68905000D01*
X156271000Y-62365000D02*
X155941000Y-62365000D01*
X158351000Y-62365000D02*
X158681000Y-62365000D01*
X158681000Y-62365000D02*
X158681000Y-68905000D01*
X158681000Y-68905000D02*
X158351000Y-68905000D01*
X159239000Y-63515000D02*
X159239000Y-67755000D01*
X159239000Y-66915000D02*
X161479000Y-66915000D01*
X159239000Y-67035000D02*
X161479000Y-67035000D01*
X159239000Y-67155000D02*
X161479000Y-67155000D01*
X159239000Y-67755000D02*
X161479000Y-67755000D01*
X160359000Y-62865000D02*
X160359000Y-63515000D01*
X160359000Y-68405000D02*
X160359000Y-67755000D01*
X161479000Y-63515000D02*
X159239000Y-63515000D01*
X161479000Y-67755000D02*
X161479000Y-63515000D01*
X140066000Y-109609000D02*
X140396000Y-109609000D01*
X140066000Y-116149000D02*
X140066000Y-109609000D01*
X140396000Y-116149000D02*
X140066000Y-116149000D01*
X142476000Y-116149000D02*
X142806000Y-116149000D01*
X142806000Y-109609000D02*
X142476000Y-109609000D01*
X142806000Y-116149000D02*
X142806000Y-109609000D01*
D12*
X124040400Y-125568260D02*
X124040400Y-121813900D01*
X127291600Y-126208100D02*
X127291600Y-122377877D01*
X124040400Y-121813900D02*
G75*
G02*
X125666000Y-120188300I1625600J0D01*
G01*
X125665999Y-120188300D02*
G75*
G02*
X126683962Y-120546489I1J-1625600D01*
G01*
X127291600Y-126208100D02*
G75*
G02*
X124684219Y-127503740I-1625601J1D01*
G01*
D10*
X146912000Y-86884000D02*
X146912000Y-93134000D01*
X151962000Y-86884000D02*
X151962000Y-93134000D01*
X146912000Y-86884000D02*
G75*
G02*
X151962000Y-86884000I2525000J0D01*
G01*
X151962000Y-93134000D02*
G75*
G02*
X146912000Y-93134000I-2525000J0D01*
G01*
X120971000Y-91689000D02*
X130411000Y-91689000D01*
X120971000Y-113729000D02*
X120971000Y-91689000D01*
X123291000Y-114109000D02*
X125291000Y-114109000D01*
X130411000Y-91689000D02*
X130411000Y-113729000D01*
X130411000Y-113729000D02*
X120971000Y-113729000D01*
X141757000Y-121659000D02*
X141757000Y-126959000D01*
X141757000Y-126959000D02*
X152037000Y-126959000D01*
X152037000Y-121659000D02*
X141757000Y-121659000D01*
X152037000Y-123309000D02*
X152037000Y-121659000D01*
X152037000Y-126959000D02*
X152037000Y-125309000D01*
X152037000Y-125309000D02*
G75*
G02*
X152037000Y-123309000I0J1000000D01*
G01*
X142357000Y-73917000D02*
X142357000Y-74247000D01*
X142357000Y-76657000D02*
X142357000Y-76327000D01*
X148897000Y-73917000D02*
X142357000Y-73917000D01*
X148897000Y-74247000D02*
X148897000Y-73917000D01*
X148897000Y-76327000D02*
X148897000Y-76657000D01*
X148897000Y-76657000D02*
X142357000Y-76657000D01*
X149925000Y-59010000D02*
X149925000Y-62100000D01*
X149925000Y-59010170D02*
G75*
G02*
X155475000Y-60555462I2560000J-1544830D01*
G01*
X155475000Y-60554538D02*
G75*
G02*
X149925000Y-62099830I-2990000J-462D01*
G01*
X154985000Y-60555000D02*
G75*
G02*
X149985000Y-60555000I-2500000J0D01*
G01*
X149985000Y-60555000D02*
G75*
G02*
X154985000Y-60555000I2500000J0D01*
G01*
X142357000Y-80013000D02*
X142357000Y-80343000D01*
X142357000Y-82753000D02*
X142357000Y-82423000D01*
X148897000Y-80013000D02*
X142357000Y-80013000D01*
X148897000Y-80343000D02*
X148897000Y-80013000D01*
X148897000Y-82423000D02*
X148897000Y-82753000D01*
X148897000Y-82753000D02*
X142357000Y-82753000D01*
X138293000Y-92967000D02*
X138293000Y-93297000D01*
X138293000Y-95707000D02*
X138293000Y-95377000D01*
X144833000Y-92967000D02*
X138293000Y-92967000D01*
X144833000Y-93297000D02*
X144833000Y-92967000D01*
X144833000Y-95377000D02*
X144833000Y-95707000D01*
X144833000Y-95707000D02*
X138293000Y-95707000D01*
X141721000Y-67563000D02*
X141721000Y-67628000D01*
X141721000Y-67563000D02*
X144961000Y-67563000D01*
X141721000Y-69738000D02*
X141721000Y-69803000D01*
X141721000Y-69803000D02*
X144961000Y-69803000D01*
X144961000Y-67563000D02*
X144961000Y-67628000D01*
X144961000Y-69738000D02*
X144961000Y-69803000D01*
D12*
X119087400Y-125568260D02*
X119087400Y-121813900D01*
X122338600Y-126208100D02*
X122338600Y-122377877D01*
X119087400Y-121813900D02*
G75*
G02*
X120713000Y-120188300I1625600J0D01*
G01*
X120712999Y-120188300D02*
G75*
G02*
X121730962Y-120546489I1J-1625600D01*
G01*
X122338600Y-126208100D02*
G75*
G02*
X119731219Y-127503740I-1625601J1D01*
G01*
D10*
X131940137Y-86905217D02*
G75*
G02*
X131939856Y-85005000I732863J950217D01*
G01*
X133406144Y-85005000D02*
G75*
G02*
X133405863Y-86905217I-733144J-950000D01*
G01*
X143769000Y-96309000D02*
X143769000Y-104049000D01*
X149009000Y-96309000D02*
X143769000Y-96309000D01*
X149009000Y-96309000D02*
X149009000Y-104049000D01*
X149009000Y-104049000D02*
X143769000Y-104049000D01*
X143271000Y-110229000D02*
X143271000Y-115529000D01*
X143271000Y-115529000D02*
X153551000Y-115529000D01*
X153551000Y-110229000D02*
X143271000Y-110229000D01*
X153551000Y-111879000D02*
X153551000Y-110229000D01*
X153551000Y-115529000D02*
X153551000Y-113879000D01*
X153551000Y-113879000D02*
G75*
G02*
X153551000Y-111879000I0J1000000D01*
G01*
X142357000Y-70869000D02*
X142357000Y-71199000D01*
X142357000Y-73609000D02*
X142357000Y-73279000D01*
X148897000Y-70869000D02*
X142357000Y-70869000D01*
X148897000Y-71199000D02*
X148897000Y-70869000D01*
X148897000Y-73279000D02*
X148897000Y-73609000D01*
X148897000Y-73609000D02*
X142357000Y-73609000D01*
X134899000Y-67861000D02*
X134899000Y-70521000D01*
X137499000Y-67861000D02*
X134899000Y-67861000D01*
X137499000Y-67861000D02*
X137499000Y-70521000D01*
X137499000Y-70521000D02*
X134899000Y-70521000D01*
X138769000Y-67861000D02*
X140099000Y-67861000D01*
X140099000Y-67861000D02*
X140099000Y-69191000D01*
X129301000Y-121659000D02*
X129301000Y-126959000D01*
X129301000Y-126959000D02*
X139581000Y-126959000D01*
X139581000Y-121659000D02*
X129301000Y-121659000D01*
X139581000Y-123309000D02*
X139581000Y-121659000D01*
X139581000Y-126959000D02*
X139581000Y-125309000D01*
X139581000Y-125309000D02*
G75*
G02*
X139581000Y-123309000I0J1000000D01*
G01*
X132806000Y-79574000D02*
X134064000Y-79574000D01*
X132806000Y-81414000D02*
X134064000Y-81414000D01*
X154203000Y-110229000D02*
X154203000Y-115529000D01*
X154203000Y-115529000D02*
X164483000Y-115529000D01*
X164483000Y-110229000D02*
X154203000Y-110229000D01*
X164483000Y-111879000D02*
X164483000Y-110229000D01*
X164483000Y-115529000D02*
X164483000Y-113879000D01*
X164483000Y-113879000D02*
G75*
G02*
X164483000Y-111879000I0J1000000D01*
G01*
X142357000Y-76965000D02*
X142357000Y-77295000D01*
X142357000Y-79705000D02*
X142357000Y-79375000D01*
X148897000Y-76965000D02*
X142357000Y-76965000D01*
X148897000Y-77295000D02*
X148897000Y-76965000D01*
X148897000Y-79375000D02*
X148897000Y-79705000D01*
X148897000Y-79705000D02*
X142357000Y-79705000D01*
X132105000Y-61281000D02*
X132105000Y-63941000D01*
X132105000Y-63941000D02*
X147465000Y-63941000D01*
X132165000Y-66651000D02*
X132165000Y-65381000D01*
X133055000Y-55281000D02*
X133815000Y-55281000D01*
X133055000Y-61281000D02*
X133055000Y-55281000D01*
X133055000Y-64271000D02*
X133055000Y-63941000D01*
X133115000Y-61281000D02*
X133115000Y-55281000D01*
X133235000Y-61281000D02*
X133235000Y-55281000D01*
X133355000Y-61281000D02*
X133355000Y-55281000D01*
X133435000Y-66651000D02*
X132165000Y-66651000D01*
X133475000Y-61281000D02*
X133475000Y-55281000D01*
X133595000Y-61281000D02*
X133595000Y-55281000D01*
X133715000Y-61281000D02*
X133715000Y-55281000D01*
X133815000Y-55281000D02*
X133815000Y-61281000D01*
X133815000Y-64271000D02*
X133815000Y-63941000D01*
X134705000Y-63941000D02*
X134705000Y-61281000D01*
X135595000Y-55281000D02*
X136355000Y-55281000D01*
X135595000Y-61281000D02*
X135595000Y-55281000D01*
X135595000Y-64338071D02*
X135595000Y-63941000D01*
X136355000Y-55281000D02*
X136355000Y-61281000D01*
X136355000Y-64338071D02*
X136355000Y-63941000D01*
X137245000Y-63941000D02*
X137245000Y-61281000D01*
X138135000Y-55281000D02*
X138895000Y-55281000D01*
X138135000Y-61281000D02*
X138135000Y-55281000D01*
X138135000Y-64338071D02*
X138135000Y-63941000D01*
X138895000Y-55281000D02*
X138895000Y-61281000D01*
X138895000Y-64338071D02*
X138895000Y-63941000D01*
X139785000Y-63941000D02*
X139785000Y-61281000D01*
X140675000Y-55281000D02*
X141435000Y-55281000D01*
X140675000Y-61281000D02*
X140675000Y-55281000D01*
X140675000Y-64338071D02*
X140675000Y-63941000D01*
X141435000Y-55281000D02*
X141435000Y-61281000D01*
X141435000Y-64338071D02*
X141435000Y-63941000D01*
X142325000Y-63941000D02*
X142325000Y-61281000D01*
X143215000Y-55281000D02*
X143975000Y-55281000D01*
X143215000Y-61281000D02*
X143215000Y-55281000D01*
X143215000Y-64338071D02*
X143215000Y-63941000D01*
X143975000Y-55281000D02*
X143975000Y-61281000D01*
X143975000Y-64338071D02*
X143975000Y-63941000D01*
X144865000Y-63941000D02*
X144865000Y-61281000D01*
X145755000Y-55281000D02*
X146515000Y-55281000D01*
X145755000Y-61281000D02*
X145755000Y-55281000D01*
X145755000Y-64338071D02*
X145755000Y-63941000D01*
X146515000Y-55281000D02*
X146515000Y-61281000D01*
X146515000Y-64338071D02*
X146515000Y-63941000D01*
X147465000Y-61281000D02*
X132105000Y-61281000D01*
X147465000Y-63941000D02*
X147465000Y-61281000D01*
X147437000Y-67313000D02*
X147437000Y-67643000D01*
X147437000Y-70053000D02*
X147437000Y-69723000D01*
X153977000Y-67313000D02*
X147437000Y-67313000D01*
X153977000Y-67643000D02*
X153977000Y-67313000D01*
X153977000Y-69723000D02*
X153977000Y-70053000D01*
X153977000Y-70053000D02*
X147437000Y-70053000D01*
X138293000Y-86363000D02*
X138293000Y-86693000D01*
X138293000Y-89103000D02*
X138293000Y-88773000D01*
X144833000Y-86363000D02*
X138293000Y-86363000D01*
X144833000Y-86693000D02*
X144833000Y-86363000D01*
X144833000Y-88773000D02*
X144833000Y-89103000D01*
X144833000Y-89103000D02*
X138293000Y-89103000D01*
X130967000Y-98809000D02*
X137427000Y-98809000D01*
X130967000Y-98849000D02*
X137427000Y-98849000D01*
X130967000Y-98889000D02*
X137427000Y-98889000D01*
X130969000Y-98769000D02*
X137425000Y-98769000D01*
X130970000Y-98729000D02*
X137424000Y-98729000D01*
X130973000Y-98689000D02*
X137421000Y-98689000D01*
X130975000Y-98649000D02*
X133157000Y-98649000D01*
X130979000Y-98609000D02*
X133157000Y-98609000D01*
X130982000Y-98569000D02*
X133157000Y-98569000D01*
X130986000Y-98529000D02*
X133157000Y-98529000D01*
X130991000Y-98489000D02*
X133157000Y-98489000D01*
X130996000Y-98449000D02*
X133157000Y-98449000D01*
X131002000Y-98409000D02*
X133157000Y-98409000D01*
X131008000Y-98369000D02*
X133157000Y-98369000D01*
X131015000Y-98329000D02*
X133157000Y-98329000D01*
X131022000Y-98289000D02*
X133157000Y-98289000D01*
X131030000Y-98249000D02*
X133157000Y-98249000D01*
X131038000Y-98209000D02*
X133157000Y-98209000D01*
X131047000Y-98168000D02*
X133157000Y-98168000D01*
X131056000Y-98128000D02*
X133157000Y-98128000D01*
X131066000Y-98088000D02*
X133157000Y-98088000D01*
X131076000Y-98048000D02*
X133157000Y-98048000D01*
X131087000Y-98008000D02*
X133157000Y-98008000D01*
X131099000Y-97968000D02*
X133157000Y-97968000D01*
X131111000Y-97928000D02*
X133157000Y-97928000D01*
X131123000Y-97888000D02*
X133157000Y-97888000D01*
X131136000Y-97848000D02*
X133157000Y-97848000D01*
X131150000Y-97808000D02*
X133157000Y-97808000D01*
X131164000Y-97768000D02*
X133157000Y-97768000D01*
X131179000Y-97728000D02*
X133157000Y-97728000D01*
X131195000Y-97688000D02*
X133157000Y-97688000D01*
X131211000Y-97648000D02*
X133157000Y-97648000D01*
X131227000Y-97608000D02*
X133157000Y-97608000D01*
X131245000Y-97568000D02*
X133157000Y-97568000D01*
X131263000Y-97528000D02*
X133157000Y-97528000D01*
X131281000Y-97488000D02*
X133157000Y-97488000D01*
X131301000Y-97448000D02*
X133157000Y-97448000D01*
X131321000Y-97408000D02*
X133157000Y-97408000D01*
X131341000Y-97368000D02*
X133157000Y-97368000D01*
X131363000Y-97328000D02*
X133157000Y-97328000D01*
X131385000Y-97288000D02*
X133157000Y-97288000D01*
X131407000Y-97248000D02*
X133157000Y-97248000D01*
X131431000Y-97208000D02*
X133157000Y-97208000D01*
X131455000Y-97168000D02*
X133157000Y-97168000D01*
X131481000Y-97128000D02*
X133157000Y-97128000D01*
X131507000Y-97088000D02*
X133157000Y-97088000D01*
X131533000Y-97048000D02*
X133157000Y-97048000D01*
X131561000Y-97008000D02*
X133157000Y-97008000D01*
X131590000Y-96968000D02*
X133157000Y-96968000D01*
X131619000Y-96928000D02*
X133157000Y-96928000D01*
X131649000Y-96888000D02*
X133157000Y-96888000D01*
X131681000Y-96848000D02*
X133157000Y-96848000D01*
X131713000Y-96808000D02*
X133157000Y-96808000D01*
X131747000Y-96768000D02*
X133157000Y-96768000D01*
X131781000Y-96728000D02*
X133157000Y-96728000D01*
X131817000Y-96688000D02*
X133157000Y-96688000D01*
X131854000Y-96648000D02*
X133157000Y-96648000D01*
X131892000Y-96608000D02*
X133157000Y-96608000D01*
X131932000Y-96568000D02*
X136462000Y-96568000D01*
X131973000Y-96528000D02*
X136421000Y-96528000D01*
X132015000Y-96488000D02*
X136379000Y-96488000D01*
X132043000Y-102074241D02*
X132673000Y-102074241D01*
X132060000Y-96448000D02*
X136334000Y-96448000D01*
X132105000Y-96408000D02*
X136289000Y-96408000D01*
X132153000Y-96368000D02*
X136241000Y-96368000D01*
X132202000Y-96328000D02*
X136192000Y-96328000D01*
X132253000Y-96288000D02*
X136141000Y-96288000D01*
X132307000Y-96248000D02*
X136087000Y-96248000D01*
X132358000Y-102389241D02*
X132358000Y-101759241D01*
X132363000Y-96208000D02*
X136031000Y-96208000D01*
X132421000Y-96168000D02*
X135973000Y-96168000D01*
X132483000Y-96128000D02*
X135911000Y-96128000D01*
X132547000Y-96088000D02*
X135847000Y-96088000D01*
X132616000Y-96048000D02*
X135778000Y-96048000D01*
X132688000Y-96008000D02*
X135706000Y-96008000D01*
X132765000Y-95968000D02*
X135629000Y-95968000D01*
X132847000Y-95928000D02*
X135547000Y-95928000D01*
X132935000Y-95888000D02*
X135459000Y-95888000D01*
X133032000Y-95848000D02*
X135362000Y-95848000D01*
X133138000Y-95808000D02*
X135256000Y-95808000D01*
X133257000Y-95768000D02*
X135137000Y-95768000D01*
X133395000Y-95728000D02*
X134999000Y-95728000D01*
X133564000Y-95688000D02*
X134830000Y-95688000D01*
X133795000Y-95648000D02*
X134599000Y-95648000D01*
X135237000Y-96608000D02*
X136502000Y-96608000D01*
X135237000Y-96648000D02*
X136540000Y-96648000D01*
X135237000Y-96688000D02*
X136577000Y-96688000D01*
X135237000Y-96728000D02*
X136613000Y-96728000D01*
X135237000Y-96768000D02*
X136647000Y-96768000D01*
X135237000Y-96808000D02*
X136681000Y-96808000D01*
X135237000Y-96848000D02*
X136713000Y-96848000D01*
X135237000Y-96888000D02*
X136745000Y-96888000D01*
X135237000Y-96928000D02*
X136775000Y-96928000D01*
X135237000Y-96968000D02*
X136804000Y-96968000D01*
X135237000Y-97008000D02*
X136833000Y-97008000D01*
X135237000Y-97048000D02*
X136861000Y-97048000D01*
X135237000Y-97088000D02*
X136887000Y-97088000D01*
X135237000Y-97128000D02*
X136913000Y-97128000D01*
X135237000Y-97168000D02*
X136939000Y-97168000D01*
X135237000Y-97208000D02*
X136963000Y-97208000D01*
X135237000Y-97248000D02*
X136987000Y-97248000D01*
X135237000Y-97288000D02*
X137009000Y-97288000D01*
X135237000Y-97328000D02*
X137031000Y-97328000D01*
X135237000Y-97368000D02*
X137053000Y-97368000D01*
X135237000Y-97408000D02*
X137073000Y-97408000D01*
X135237000Y-97448000D02*
X137093000Y-97448000D01*
X135237000Y-97488000D02*
X137113000Y-97488000D01*
X135237000Y-97528000D02*
X137131000Y-97528000D01*
X135237000Y-97568000D02*
X137149000Y-97568000D01*
X135237000Y-97608000D02*
X137167000Y-97608000D01*
X135237000Y-97648000D02*
X137183000Y-97648000D01*
X135237000Y-97688000D02*
X137199000Y-97688000D01*
X135237000Y-97728000D02*
X137215000Y-97728000D01*
X135237000Y-97768000D02*
X137230000Y-97768000D01*
X135237000Y-97808000D02*
X137244000Y-97808000D01*
X135237000Y-97848000D02*
X137258000Y-97848000D01*
X135237000Y-97888000D02*
X137271000Y-97888000D01*
X135237000Y-97928000D02*
X137283000Y-97928000D01*
X135237000Y-97968000D02*
X137295000Y-97968000D01*
X135237000Y-98008000D02*
X137307000Y-98008000D01*
X135237000Y-98048000D02*
X137318000Y-98048000D01*
X135237000Y-98088000D02*
X137328000Y-98088000D01*
X135237000Y-98128000D02*
X137338000Y-98128000D01*
X135237000Y-98168000D02*
X137347000Y-98168000D01*
X135237000Y-98209000D02*
X137356000Y-98209000D01*
X135237000Y-98249000D02*
X137364000Y-98249000D01*
X135237000Y-98289000D02*
X137372000Y-98289000D01*
X135237000Y-98329000D02*
X137379000Y-98329000D01*
X135237000Y-98369000D02*
X137386000Y-98369000D01*
X135237000Y-98409000D02*
X137392000Y-98409000D01*
X135237000Y-98449000D02*
X137398000Y-98449000D01*
X135237000Y-98489000D02*
X137403000Y-98489000D01*
X135237000Y-98529000D02*
X137408000Y-98529000D01*
X135237000Y-98569000D02*
X137412000Y-98569000D01*
X135237000Y-98609000D02*
X137415000Y-98609000D01*
X135237000Y-98649000D02*
X137419000Y-98649000D01*
X137467000Y-98889000D02*
G75*
G02*
X130927000Y-98889000I-3270000J0D01*
G01*
X130927000Y-98889000D02*
G75*
G02*
X137467000Y-98889000I3270000J0D01*
G01*
X161471000Y-98767000D02*
X161471000Y-102607000D01*
X163311000Y-98767000D02*
X163311000Y-102607000D01*
X138293000Y-89665000D02*
X138293000Y-89995000D01*
X138293000Y-92405000D02*
X138293000Y-92075000D01*
X144833000Y-89665000D02*
X138293000Y-89665000D01*
X144833000Y-89995000D02*
X144833000Y-89665000D01*
X144833000Y-92075000D02*
X144833000Y-92405000D01*
X144833000Y-92405000D02*
X138293000Y-92405000D01*
X123307000Y-114557000D02*
X129847000Y-114557000D01*
X123307000Y-114887000D02*
X123307000Y-114557000D01*
X123307000Y-116967000D02*
X123307000Y-117297000D01*
X123307000Y-117297000D02*
X129847000Y-117297000D01*
X129847000Y-114557000D02*
X129847000Y-114887000D01*
X129847000Y-117297000D02*
X129847000Y-116967000D01*
X159501000Y-70865000D02*
X159501000Y-70930000D01*
X159501000Y-70865000D02*
X162741000Y-70865000D01*
X159501000Y-73040000D02*
X159501000Y-73105000D01*
X159501000Y-73105000D02*
X162741000Y-73105000D01*
X162741000Y-70865000D02*
X162741000Y-70930000D01*
X162741000Y-73040000D02*
X162741000Y-73105000D01*
X154203000Y-121659000D02*
X154203000Y-126959000D01*
X154203000Y-126959000D02*
X164483000Y-126959000D01*
X164483000Y-121659000D02*
X154203000Y-121659000D01*
X164483000Y-123309000D02*
X164483000Y-121659000D01*
X164483000Y-126959000D02*
X164483000Y-125309000D01*
X164483000Y-125309000D02*
G75*
G02*
X164483000Y-123309000I0J1000000D01*
G01*
X151797000Y-97693000D02*
X151797000Y-97823000D01*
X151797000Y-100633000D02*
X151797000Y-100503000D01*
X156217000Y-100633000D02*
X156217000Y-97693000D01*
X156337000Y-100633000D02*
X156337000Y-97693000D01*
X156457000Y-100633000D02*
X156457000Y-97693000D01*
X157237000Y-97693000D02*
X151797000Y-97693000D01*
X157237000Y-97823000D02*
X157237000Y-97693000D01*
X157237000Y-100503000D02*
X157237000Y-100633000D01*
X157237000Y-100633000D02*
X151797000Y-100633000D01*
X129582000Y-135377000D02*
X129582000Y-130177000D01*
X152502000Y-130177000D02*
X129582000Y-130177000D01*
X152502000Y-132777000D02*
X152502000Y-130177000D01*
X155102000Y-130177000D02*
X153772000Y-130177000D01*
X155102000Y-131507000D02*
X155102000Y-130177000D01*
X155102000Y-132777000D02*
X152502000Y-132777000D01*
X155102000Y-135377000D02*
X129582000Y-135377000D01*
X155102000Y-135377000D02*
X155102000Y-132777000D01*
X137927000Y-96269000D02*
X137927000Y-104009000D01*
X143167000Y-96269000D02*
X137927000Y-96269000D01*
X143167000Y-96269000D02*
X143167000Y-104009000D01*
X143167000Y-104009000D02*
X137927000Y-104009000D01*
X155931000Y-73703000D02*
X155931000Y-96683000D01*
X155931000Y-96683000D02*
X161231000Y-96683000D01*
X157581000Y-73703000D02*
X155931000Y-73703000D01*
X161231000Y-73703000D02*
X159581000Y-73703000D01*
X161231000Y-96683000D02*
X161231000Y-73703000D01*
X159581000Y-73703000D02*
G75*
G02*
X157581000Y-73703000I-1000000J0D01*
G01*
X135551000Y-104621000D02*
X135551000Y-107421000D01*
X135551000Y-107421000D02*
X163831000Y-107421000D01*
X138261000Y-104621000D02*
X138261000Y-107421000D01*
X163831000Y-104621000D02*
X135551000Y-104621000D01*
X163831000Y-107421000D02*
X163831000Y-104621000D01*
X138293000Y-83061000D02*
X144833000Y-83061000D01*
X138293000Y-83391000D02*
X138293000Y-83061000D01*
X138293000Y-85471000D02*
X138293000Y-85801000D01*
X138293000Y-85801000D02*
X144833000Y-85801000D01*
X144833000Y-83061000D02*
X144833000Y-83391000D01*
X144833000Y-85801000D02*
X144833000Y-85471000D01*
X131299000Y-73921000D02*
X131364000Y-73921000D01*
X131299000Y-77161000D02*
X131299000Y-73921000D01*
X131299000Y-77161000D02*
X131364000Y-77161000D01*
X133474000Y-73921000D02*
X133539000Y-73921000D01*
X133474000Y-77161000D02*
X133539000Y-77161000D01*
X133539000Y-77161000D02*
X133539000Y-73921000D01*
X120421000Y-55101000D02*
X120421000Y-90901000D01*
X120421000Y-90901000D02*
X130701000Y-90901000D01*
X122911000Y-55161000D02*
X122911000Y-90841000D01*
X122911000Y-90841000D02*
X128211000Y-90841000D01*
X124561000Y-55161000D02*
X122911000Y-55161000D01*
X128211000Y-55161000D02*
X126561000Y-55161000D01*
X128211000Y-90841000D02*
X128211000Y-55161000D01*
X130701000Y-55101000D02*
X120421000Y-55101000D01*
X130701000Y-90901000D02*
X130701000Y-55101000D01*
X126561000Y-55161000D02*
G75*
G02*
X124561000Y-55161000I-1000000J0D01*
G01*
X134899000Y-72936000D02*
X136229000Y-72936000D01*
X134899000Y-74266000D02*
X134899000Y-72936000D01*
X134899000Y-75536000D02*
X134899000Y-78136000D01*
X134899000Y-75536000D02*
X137559000Y-75536000D01*
X134899000Y-78136000D02*
X137559000Y-78136000D01*
X137559000Y-75536000D02*
X137559000Y-78136000D01*
X131561000Y-92774000D02*
X131561000Y-92709000D01*
X131561000Y-94949000D02*
X131561000Y-94884000D01*
X134801000Y-92709000D02*
X131561000Y-92709000D01*
X134801000Y-92774000D02*
X134801000Y-92709000D01*
X134801000Y-94949000D02*
X131561000Y-94949000D01*
X134801000Y-94949000D02*
X134801000Y-94884000D01*
X151797000Y-100995000D02*
X151797000Y-101125000D01*
X151797000Y-103935000D02*
X151797000Y-103805000D01*
X156217000Y-103935000D02*
X156217000Y-100995000D01*
X156337000Y-103935000D02*
X156337000Y-100995000D01*
X156457000Y-103935000D02*
X156457000Y-100995000D01*
X157237000Y-100995000D02*
X151797000Y-100995000D01*
X157237000Y-101125000D02*
X157237000Y-100995000D01*
X157237000Y-103805000D02*
X157237000Y-103935000D01*
X157237000Y-103935000D02*
X151797000Y-103935000D01*
M02*
